START RECORD GO HERE.                                                   S      1
1H,,1H;,20HCNEXT - IGES PRODUCT,17HSensorDisc_v9.igs,44HIBM CATIA IGES -G      1
 CATIA Version 5 Release 18 ,27HCATIA Version 5 Release 18 ,32,75,6,75, G      2
15,14HSensorDisc_V14,1.0,2,2HMM,1000,1.0,15H20251206.135321,0.001,      G      3
10000.0,5Hhelmh,15HWINDOWS-E7MI9UT,11,0,15H20251206.135321,;            G      4
     116       1       0       0   10000       0       0       000000001D      1
     116       0       0       1       0                Point.1        0D      2
     108       2       0       0       0       0       0       001010001D      3
     108       0       0       2       0                               0D      4
     124       4       0       0       0       0       0       001020201D      5
     124       0       0       2       0                               0D      6
     100       6       0       0       0       0       5       001010001D      7
     100       0       0       1       0                               0D      8
     124       7       0       0       0       0       0       001020201D      9
     124       0       0       2       0                               0D     10
     100       9       0       0       0       0       9       001010001D     11
     100       0       0       1       0                               0D     12
     102      10       0       0       0       0       0       001010001D     13
     102       0       0       1       0                               0D     14
     142      11       0       0       0       0       0       001010001D     15
     142       0       0       1       0                               0D     16
     124      12       0       0       0       0       0       001020201D     17
     124       0       0       2       0                               0D     18
     100      14       0       0       0       0      17       001010001D     19
     100       0       0       1       0                               0D     20
     124      15       0       0       0       0       0       001020201D     21
     124       0       0       2       0                               0D     22
     100      17       0       0       0       0      21       001010001D     23
     100       0       0       1       0                               0D     24
     102      18       0       0       0       0       0       001010001D     25
     102       0       0       1       0                               0D     26
     142      19       0       0       0       0       0       001010001D     27
     142       0       0       1       0                               0D     28
     144      20       0       0   10000       0       0       000000000D     29
     144       0       0       1       0                PartBody       0D     30
     110      21       0       0       0       0       0       001010001D     31
     110       0       0       2       0                               0D     32
     110      23       0       0       0       0       0       001010001D     33
     110       0       0       2       0                               0D     34
     120      25       0       0       0       0       0       001010001D     35
     120       0       0       1       0                               0D     36
     110      26       0       0       0       0       0       001010001D     37
     110       0       0       2       0                               0D     38
     124      28       0       0       0       0       0       001020201D     39
     124       0       0       2       0                               0D     40
     100      30       0       0       0       0      39       001010001D     41
     100       0       0       1       0                               0D     42
     124      31       0       0       0       0       0       001020201D     43
     124       0       0       3       0                               0D     44
     100      34       0       0       0       0      43       001010001D     45
     100       0       0       1       0                               0D     46
     110      35       0       0       0       0       0       001010001D     47
     110       0       0       2       0                               0D     48
     124      37       0       0       0       0       0       001020201D     49
     124       0       0       2       0                               0D     50
     100      39       0       0       0       0      49       001010001D     51
     100       0       0       1       0                               0D     52
     102      40       0       0       0       0       0       001010001D     53
     102       0       0       1       0                               0D     54
     142      41       0       0       0       0       0       001010001D     55
     142       0       0       1       0                               0D     56
     144      42       0       0   10000       0       0       000000000D     57
     144       0       0       1       0                PartBody       0D     58
     110      43       0       0       0       0       0       001010001D     59
     110       0       0       2       0                               0D     60
     110      45       0       0       0       0       0       001010001D     61
     110       0       0       2       0                               0D     62
     120      47       0       0       0       0       0       001010001D     63
     120       0       0       1       0                               0D     64
     110      48       0       0       0       0       0       001010001D     65
     110       0       0       2       0                               0D     66
     124      50       0       0       0       0       0       001020201D     67
     124       0       0       3       0                               0D     68
     100      53       0       0       0       0      67       001010001D     69
     100       0       0       1       0                               0D     70
     110      54       0       0       0       0       0       001010001D     71
     110       0       0       2       0                               0D     72
     124      56       0       0       0       0       0       001020201D     73
     124       0       0       2       0                               0D     74
     100      58       0       0       0       0      73       001010001D     75
     100       0       0       1       0                               0D     76
     110      59       0       0       0       0       0       001010001D     77
     110       0       0       2       0                               0D     78
     124      61       0       0       0       0       0       001020201D     79
     124       0       0       2       0                               0D     80
     100      63       0       0       0       0      79       001010001D     81
     100       0       0       1       0                               0D     82
     110      64       0       0       0       0       0       001010001D     83
     110       0       0       2       0                               0D     84
     124      66       0       0       0       0       0       001020201D     85
     124       0       0       3       0                               0D     86
     100      69       0       0       0       0      85       001010001D     87
     100       0       0       1       0                               0D     88
     102      70       0       0       0       0       0       001010001D     89
     102       0       0       1       0                               0D     90
     142      71       0       0       0       0       0       001010001D     91
     142       0       0       1       0                               0D     92
     144      72       0       0   10000       0       0       000000000D     93
     144       0       0       1       0                PartBody       0D     94
     108      73       0       0       0       0       0       001010001D     95
     108       0       0       2       0                               0D     96
     110      75       0       0       0       0       0       001010001D     97
     110       0       0       2       0                               0D     98
     110      77       0       0       0       0       0       001010001D     99
     110       0       0       2       0                               0D    100
     110      79       0       0       0       0       0       001010001D    101
     110       0       0       2       0                               0D    102
     110      81       0       0       0       0       0       001010001D    103
     110       0       0       2       0                               0D    104
     110      83       0       0       0       0       0       001010001D    105
     110       0       0       2       0                               0D    106
     102      85       0       0       0       0       0       001010001D    107
     102       0       0       1       0                               0D    108
     142      86       0       0       0       0       0       001010001D    109
     142       0       0       1       0                               0D    110
     144      87       0       0   10000       0       0       000000000D    111
     144       0       0       1       0                PartBody       0D    112
     108      88       0       0       0       0       0       001010001D    113
     108       0       0       2       0                               0D    114
     110      90       0       0       0       0       0       001010001D    115
     110       0       0       2       0                               0D    116
     110      92       0       0       0       0       0       001010001D    117
     110       0       0       2       0                               0D    118
     110      94       0       0       0       0       0       001010001D    119
     110       0       0       2       0                               0D    120
     110      96       0       0       0       0       0       001010001D    121
     110       0       0       2       0                               0D    122
     110      98       0       0       0       0       0       001010001D    123
     110       0       0       2       0                               0D    124
     102     100       0       0       0       0       0       001010001D    125
     102       0       0       1       0                               0D    126
     142     101       0       0       0       0       0       001010001D    127
     142       0       0       1       0                               0D    128
     144     102       0       0   10000       0       0       000000000D    129
     144       0       0       1       0                PartBody       0D    130
     110     103       0       0       0       0       0       001010001D    131
     110       0       0       2       0                               0D    132
     110     105       0       0       0       0       0       001010001D    133
     110       0       0       2       0                               0D    134
     120     107       0       0       0       0       0       001010001D    135
     120       0       0       1       0                               0D    136
     110     108       0       0       0       0       0       001010001D    137
     110       0       0       2       0                               0D    138
     124     110       0       0       0       0       0       001020201D    139
     124       0       0       3       0                               0D    140
     100     113       0       0       0       0     139       001010001D    141
     100       0       0       1       0                               0D    142
     110     114       0       0       0       0       0       001010001D    143
     110       0       0       2       0                               0D    144
     124     116       0       0       0       0       0       001020201D    145
     124       0       0       3       0                               0D    146
     100     119       0       0       0       0     145       001010001D    147
     100       0       0       1       0                               0D    148
     102     120       0       0       0       0       0       001010001D    149
     102       0       0       1       0                               0D    150
     142     121       0       0       0       0       0       001010001D    151
     142       0       0       1       0                               0D    152
     144     122       0       0   10000       0       0       000000000D    153
     144       0       0       1       0                PartBody       0D    154
     110     123       0       0       0       0       0       001010001D    155
     110       0       0       2       0                               0D    156
     110     125       0       0       0       0       0       001010001D    157
     110       0       0       2       0                               0D    158
     120     127       0       0       0       0       0       001010001D    159
     120       0       0       1       0                               0D    160
     124     128       0       0       0       0       0       001020201D    161
     124       0       0       2       0                               0D    162
     100     130       0       0       0       0     161       001010001D    163
     100       0       0       1       0                               0D    164
     110     131       0       0       0       0       0       001010001D    165
     110       0       0       2       0                               0D    166
     124     133       0       0       0       0       0       001020201D    167
     124       0       0       2       0                               0D    168
     100     135       0       0       0       0     167       001010001D    169
     100       0       0       1       0                               0D    170
     110     136       0       0       0       0       0       001010001D    171
     110       0       0       2       0                               0D    172
     102     138       0       0       0       0       0       001010001D    173
     102       0       0       1       0                               0D    174
     142     139       0       0       0       0       0       001010001D    175
     142       0       0       1       0                               0D    176
     144     140       0       0   10000       0       0       000000000D    177
     144       0       0       1       0                PartBody       0D    178
     110     141       0       0       0       0       0       001010001D    179
     110       0       0       2       0                               0D    180
     110     143       0       0       0       0       0       001010001D    181
     110       0       0       2       0                               0D    182
     120     145       0       0       0       0       0       001010001D    183
     120       0       0       1       0                               0D    184
     124     146       0       0       0       0       0       001020201D    185
     124       0       0       2       0                               0D    186
     100     148       0       0       0       0     185       001010001D    187
     100       0       0       1       0                               0D    188
     110     149       0       0       0       0       0       001010001D    189
     110       0       0       2       0                               0D    190
     124     151       0       0       0       0       0       001020201D    191
     124       0       0       2       0                               0D    192
     100     153       0       0       0       0     191       001010001D    193
     100       0       0       1       0                               0D    194
     110     154       0       0       0       0       0       001010001D    195
     110       0       0       2       0                               0D    196
     102     156       0       0       0       0       0       001010001D    197
     102       0       0       1       0                               0D    198
     142     157       0       0       0       0       0       001010001D    199
     142       0       0       1       0                               0D    200
     144     158       0       0   10000       0       0       000000000D    201
     144       0       0       1       0                PartBody       0D    202
     110     159       0       0       0       0       0       001010001D    203
     110       0       0       2       0                               0D    204
     110     161       0       0       0       0       0       001010001D    205
     110       0       0       2       0                               0D    206
     120     163       0       0       0       0       0       001010001D    207
     120       0       0       1       0                               0D    208
     124     164       0       0       0       0       0       001020201D    209
     124       0       0       2       0                               0D    210
     100     166       0       0       0       0     209       001010001D    211
     100       0       0       1       0                               0D    212
     110     167       0       0       0       0       0       001010001D    213
     110       0       0       2       0                               0D    214
     124     169       0       0       0       0       0       001020201D    215
     124       0       0       3       0                               0D    216
     100     172       0       0       0       0     215       001010001D    217
     100       0       0       1       0                               0D    218
     110     173       0       0       0       0       0       001010001D    219
     110       0       0       2       0                               0D    220
     102     175       0       0       0       0       0       001010001D    221
     102       0       0       1       0                               0D    222
     142     176       0       0       0       0       0       001010001D    223
     142       0       0       1       0                               0D    224
     144     177       0       0   10000       0       0       000000000D    225
     144       0       0       1       0                PartBody       0D    226
     110     178       0       0       0       0       0       001010001D    227
     110       0       0       2       0                               0D    228
     110     180       0       0       0       0       0       001010001D    229
     110       0       0       2       0                               0D    230
     120     182       0       0       0       0       0       001010001D    231
     120       0       0       1       0                               0D    232
     124     183       0       0       0       0       0       001020201D    233
     124       0       0       3       0                               0D    234
     100     186       0       0       0       0     233       001010001D    235
     100       0       0       1       0                               0D    236
     110     187       0       0       0       0       0       001010001D    237
     110       0       0       2       0                               0D    238
     124     189       0       0       0       0       0       001020201D    239
     124       0       0       3       0                               0D    240
     100     192       0       0       0       0     239       001010001D    241
     100       0       0       1       0                               0D    242
     110     193       0       0       0       0       0       001010001D    243
     110       0       0       2       0                               0D    244
     102     195       0       0       0       0       0       001010001D    245
     102       0       0       1       0                               0D    246
     142     196       0       0       0       0       0       001010001D    247
     142       0       0       1       0                               0D    248
     144     197       0       0   10000       0       0       000000000D    249
     144       0       0       1       0                PartBody       0D    250
     108     198       0       0       0       0       0       001010001D    251
     108       0       0       2       0                               0D    252
     124     200       0       0       0       0       0       001020201D    253
     124       0       0       3       0                               0D    254
     100     203       0       0       0       0     253       001010001D    255
     100       0       0       1       0                               0D    256
     124     204       0       0       0       0       0       001020201D    257
     124       0       0       3       0                               0D    258
     100     207       0       0       0       0     257       001010001D    259
     100       0       0       1       0                               0D    260
     124     208       0       0       0       0       0       001020201D    261
     124       0       0       3       0                               0D    262
     100     211       0       0       0       0     261       001010001D    263
     100       0       0       1       0                               0D    264
     110     212       0       0       0       0       0       001010001D    265
     110       0       0       2       0                               0D    266
     124     214       0       0       0       0       0       001020201D    267
     124       0       0       3       0                               0D    268
     100     217       0       0       0       0     267       001010001D    269
     100       0       0       1       0                               0D    270
     110     218       0       0       0       0       0       001010001D    271
     110       0       0       2       0                               0D    272
     124     220       0       0       0       0       0       001020201D    273
     124       0       0       3       0                               0D    274
     100     223       0       0       0       0     273       001010001D    275
     100       0       0       1       0                               0D    276
     102     224       0       0       0       0       0       001010001D    277
     102       0       0       1       0                               0D    278
     142     225       0       0       0       0       0       001010001D    279
     142       0       0       1       0                               0D    280
     144     226       0       0   10000       0       0       000000000D    281
     144       0       0       1       0                PartBody       0D    282
     110     227       0       0       0       0       0       001010001D    283
     110       0       0       2       0                               0D    284
     110     229       0       0       0       0       0       001010001D    285
     110       0       0       2       0                               0D    286
     120     231       0       0       0       0       0       001010001D    287
     120       0       0       1       0                               0D    288
     126     232       0       0       0       0       0       001010001D    289
     126       0       0       6       0                               0D    290
     124     238       0       0       0       0       0       001020201D    291
     124       0       0       3       0                               0D    292
     100     241       0       0       0       0     291       001010001D    293
     100       0       0       1       0                               0D    294
     110     242       0       0       0       0       0       001010001D    295
     110       0       0       2       0                               0D    296
     124     244       0       0       0       0       0       001020201D    297
     124       0       0       3       0                               0D    298
     100     247       0       0       0       0     297       001010001D    299
     100       0       0       1       0                               0D    300
     102     248       0       0       0       0       0       001010001D    301
     102       0       0       1       0                               0D    302
     142     249       0       0       0       0       0       001010001D    303
     142       0       0       1       0                               0D    304
     144     250       0       0   10000       0       0       000000000D    305
     144       0       0       1       0                PartBody       0D    306
     110     251       0       0       0       0       0       001010001D    307
     110       0       0       2       0                               0D    308
     110     253       0       0       0       0       0       001010001D    309
     110       0       0       2       0                               0D    310
     120     255       0       0       0       0       0       001010001D    311
     120       0       0       1       0                               0D    312
     126     256       0       0       0       0       0       001010001D    313
     126       0       0       6       0                               0D    314
     124     262       0       0       0       0       0       001020201D    315
     124       0       0       3       0                               0D    316
     100     265       0       0       0       0     315       001010001D    317
     100       0       0       1       0                               0D    318
     110     266       0       0       0       0       0       001010001D    319
     110       0       0       2       0                               0D    320
     124     268       0       0       0       0       0       001020201D    321
     124       0       0       3       0                               0D    322
     100     271       0       0       0       0     321       001010001D    323
     100       0       0       1       0                               0D    324
     102     272       0       0       0       0       0       001010001D    325
     102       0       0       1       0                               0D    326
     142     273       0       0       0       0       0       001010001D    327
     142       0       0       1       0                               0D    328
     144     274       0       0   10000       0       0       000000000D    329
     144       0       0       1       0                PartBody       0D    330
     110     275       0       0       0       0       0       001010001D    331
     110       0       0       2       0                               0D    332
     110     277       0       0       0       0       0       001010001D    333
     110       0       0       2       0                               0D    334
     120     279       0       0       0       0       0       001010001D    335
     120       0       0       1       0                               0D    336
     126     280       0       0       0       0       0       001010001D    337
     126       0       0       6       0                               0D    338
     124     286       0       0       0       0       0       001020201D    339
     124       0       0       3       0                               0D    340
     100     289       0       0       0       0     339       001010001D    341
     100       0       0       1       0                               0D    342
     110     290       0       0       0       0       0       001010001D    343
     110       0       0       2       0                               0D    344
     124     292       0       0       0       0       0       001020201D    345
     124       0       0       3       0                               0D    346
     100     295       0       0       0       0     345       001010001D    347
     100       0       0       1       0                               0D    348
     102     296       0       0       0       0       0       001010001D    349
     102       0       0       1       0                               0D    350
     142     297       0       0       0       0       0       001010001D    351
     142       0       0       1       0                               0D    352
     144     298       0       0   10000       0       0       000000000D    353
     144       0       0       1       0                PartBody       0D    354
     110     299       0       0       0       0       0       001010001D    355
     110       0       0       2       0                               0D    356
     110     301       0       0       0       0       0       001010001D    357
     110       0       0       2       0                               0D    358
     120     303       0       0       0       0       0       001010001D    359
     120       0       0       1       0                               0D    360
     126     304       0       0       0       0       0       001010001D    361
     126       0       0       6       0                               0D    362
     124     310       0       0       0       0       0       001020201D    363
     124       0       0       3       0                               0D    364
     100     313       0       0       0       0     363       001010001D    365
     100       0       0       1       0                               0D    366
     110     314       0       0       0       0       0       001010001D    367
     110       0       0       2       0                               0D    368
     124     316       0       0       0       0       0       001020201D    369
     124       0       0       3       0                               0D    370
     100     319       0       0       0       0     369       001010001D    371
     100       0       0       1       0                               0D    372
     102     320       0       0       0       0       0       001010001D    373
     102       0       0       1       0                               0D    374
     142     321       0       0       0       0       0       001010001D    375
     142       0       0       1       0                               0D    376
     144     322       0       0   10000       0       0       000000000D    377
     144       0       0       1       0                PartBody       0D    378
     108     323       0       0       0       0       0       001010001D    379
     108       0       0       2       0                               0D    380
     124     325       0       0       0       0       0       001020201D    381
     124       0       0       2       0                               0D    382
     100     327       0       0       0       0     381       001010001D    383
     100       0       0       1       0                               0D    384
     124     328       0       0       0       0       0       001020201D    385
     124       0       0       3       0                               0D    386
     100     331       0       0       0       0     385       001010001D    387
     100       0       0       1       0                               0D    388
     102     332       0       0       0       0       0       001010001D    389
     102       0       0       1       0                               0D    390
     142     333       0       0       0       0       0       001010001D    391
     142       0       0       1       0                               0D    392
     124     334       0       0       0       0       0       001020201D    393
     124       0       0       3       0                               0D    394
     100     337       0       0       0       0     393       001010001D    395
     100       0       0       1       0                               0D    396
     124     338       0       0       0       0       0       001020201D    397
     124       0       0       3       0                               0D    398
     100     341       0       0       0       0     397       001010001D    399
     100       0       0       1       0                               0D    400
     124     342       0       0       0       0       0       001020201D    401
     124       0       0       3       0                               0D    402
     100     345       0       0       0       0     401       001010001D    403
     100       0       0       1       0                               0D    404
     110     346       0       0       0       0       0       001010001D    405
     110       0       0       2       0                               0D    406
     124     348       0       0       0       0       0       001020201D    407
     124       0       0       3       0                               0D    408
     100     351       0       0       0       0     407       001010001D    409
     100       0       0       1       0                               0D    410
     124     352       0       0       0       0       0       001020201D    411
     124       0       0       2       0                               0D    412
     100     354       0       0       0       0     411       001010001D    413
     100       0       0       1       0                               0D    414
     110     355       0       0       0       0       0       001010001D    415
     110       0       0       2       0                               0D    416
     124     357       0       0       0       0       0       001020201D    417
     124       0       0       3       0                               0D    418
     100     360       0       0       0       0     417       001010001D    419
     100       0       0       1       0                               0D    420
     102     361       0       0       0       0       0       001010001D    421
     102       0       0       1       0                               0D    422
     142     362       0       0       0       0       0       001010001D    423
     142       0       0       1       0                               0D    424
     144     363       0       0   10000       0       0       000000000D    425
     144       0       0       1       0                PartBody       0D    426
116,467.6800101,-361.2383444,-196.0060604,0,0,0;                       1P      1
108,0.0,0.01541052682,-0.9998812508,197.4159117,0,0.0,                 3P      2
3.042283203,-197.3924687,1.0,0,0;                                      3P      3
124,-1.0,0.0,0.0,467.6800101,0.0,-0.9998812508,-0.01541052682,         5P      4
-361.1304707,0.0,-0.01541052682,0.9998812508,-203.0052292,0,0;         5P      5
100,0.0,0.0,0.0,14.0,0.0,-14.0,0.0,0,0;                                7P      6
124,1.0,0.0,0.0,467.6800101,0.0,0.9998812508,-0.01541052682,           9P      7
-361.1304707,0.0,0.01541052682,0.9998812508,-203.0052292,0,0;          9P      8
100,0.0,0.0,0.0,14.0,0.0,-14.0,0.0,0,0;                               11P      9
102,2,7,11,0,0;                                                       13P     10
142,0,3,0,13,2,0,0;                                                   15P     11
124,-1.0,0.0,0.0,467.6800101,0.0,0.9998812508,0.01541052682,          17P     12
-361.1304707,0.0,0.01541052682,-0.9998812508,-203.0052292,0,0;        17P     13
100,0.0,0.0,0.0,7.0,0.0,-7.0,0.0,0,0;                                 19P     14
124,1.0,0.0,0.0,467.6800101,0.0,-0.9998812508,0.01541052682,          21P     15
-361.1304707,0.0,-0.01541052682,-0.9998812508,-203.0052292,0,0;       21P     16
100,0.0,0.0,0.0,7.0,0.0,-7.0,0.0,0,0;                                 23P     17
102,2,19,23,0,0;                                                      25P     18
142,0,3,0,25,2,0,0;                                                   27P     19
144,3,1,1,15,27,0,0;                                                  29P     20
110,467.6800101,-361.139717,-202.4053004,467.6800101,                 31P     21
-361.1243065,-203.4051817,0,0;                                        31P     22
110,460.6800101,-361.1489633,-201.8053717,460.6800101,                33P     23
-361.1304707,-203.0052292,0,0;                                        33P     24
120,31,33,0.0,6.283185307,0,0;                                        35P     25
110,460.6800101,-361.1304707,-203.0052292,460.6800101,                37P     26
-361.1489633,-201.8053717,0,0;                                        37P     27
124,-1.0,0.0,0.0,467.6800101,0.0,0.9998812508,0.01541052682,          39P     28
-361.1489633,0.0,0.01541052682,-0.9998812508,-201.8053717,0,0;        39P     29
100,0.0,0.0,0.0,7.0,0.0,2.958327832,6.344154509,0,0;                  41P     30
124,-0.4226182617,0.906307787,0.0,467.6800101,0.9062001637,           43P     31
0.4225680762,0.01541052682,-361.1489633,0.01396668046,                43P     32
0.006512770059,-0.9998812508,-201.8053717,0,0;                        43P     33
100,0.0,0.0,0.0,7.0,0.0,-2.958327832,6.344154509,0,0;                 45P     34
110,474.6800101,-361.1489633,-201.8053717,474.6800101,                47P     35
-361.1304707,-203.0052292,0,0;                                        47P     36
124,1.0,0.0,0.0,467.6800101,0.0,0.9998812508,-0.01541052682,          49P     37
-361.1304707,0.0,0.01541052682,0.9998812508,-203.0052292,0,0;         49P     38
100,0.0,0.0,0.0,7.0,0.0,-7.0,0.0,0,0;                                 51P     39
102,5,37,41,45,47,51,0,0;                                             53P     40
142,0,35,0,53,2,0,0;                                                  55P     41
144,35,1,0,55,0,0;                                                    57P     42
110,467.6800101,-361.139717,-202.4053004,467.6800101,                 59P     43
-361.1243065,-203.4051817,0,0;                                        59P     44
110,464.7216822,-354.8756801,-197.1581452,464.7216822,                61P     45
-354.7870696,-202.9074624,0,0;                                        61P     46
120,59,61,0.0,6.283185307,0,0;                                        63P     47
110,464.7216822,-367.5624824,-197.3536788,464.7216822,                65P     48
-367.4923645,-201.9031385,0,0;                                        65P     49
124,-0.4226182617,-0.906307787,0.0,467.6800101,-0.9062001637,         67P     50
0.4225680762,0.01541052682,-361.1489633,-0.01396668046,               67P     51
0.006512770059,-0.9998812508,-201.8053717,0,0;                        67P     52
100,0.0,0.0,0.0,7.0,0.0,2.958327832,6.344154509,0,0;                  69P     53
110,460.6800101,-361.1489633,-201.8053717,460.6800101,                71P     54
-361.1304707,-203.0052292,0,0;                                        71P     55
124,-1.0,0.0,0.0,467.6800101,0.0,-0.9998812508,-0.01541052682,        73P     56
-361.1304707,0.0,-0.01541052682,0.9998812508,-203.0052292,0,0;        73P     57
100,0.0,0.0,0.0,7.0,0.0,-7.0,0.0,0,0;                                 75P     58
110,474.6800101,-361.1304707,-203.0052292,474.6800101,                77P     59
-361.1489633,-201.8053717,0,0;                                        77P     60
124,1.0,0.0,0.0,467.6800101,0.0,0.9998812508,-0.01541052682,          79P     61
-361.1489633,0.0,0.01541052682,0.9998812508,-201.8053717,0,0;         79P     62
100,0.0,0.0,0.0,7.0,0.0,-2.958327832,6.344154509,0,0;                 81P     63
110,464.7216822,-354.8055622,-201.7076049,464.7216822,                83P     64
-354.8756801,-197.1581452,0,0;                                        83P     65
124,-0.4226182617,0.906307787,0.0,467.6800101,0.9062001637,           85P     66
0.4225680762,0.01541052682,-361.2190812,0.01396668046,                85P     67
0.006512770059,-0.9998812508,-197.255912,0,0;                         85P     68
100,0.0,0.0,0.0,7.0,0.0,-4.499513268,-5.362311102,0,0;                87P     69
102,8,65,69,71,75,77,81,83,87,0,0;                                    89P     70
142,0,63,0,89,2,0,0;                                                  91P     71
144,63,1,0,91,0,0;                                                    93P     72
108,0.906307787,0.4225680762,0.006512770059,269.9377003,0,            95P     73
462.7142455,-350.5904925,-195.8419519,1.0,0,0;                        95P     74
110,464.7216822,-354.8756801,-197.1581452,464.7216822,                97P     75
-354.8055622,-201.7076049,0,0;                                        97P     76
110,464.7216822,-354.8055622,-201.7076049,463.3948088,                99P     77
-351.9604109,-201.6637544,0,0;                                        99P     78
110,463.3948088,-351.9604109,-201.6637544,463.3948088,               101P     79
-352.0343815,-196.8643244,0,0;                                       101P     80
110,463.3948088,-352.0343815,-196.8643244,464.6160277,               103P     81
-354.6529827,-196.9046833,0,0;                                       103P     82
110,464.6160277,-354.6529827,-196.9046833,464.7216822,               105P     83
-354.8756801,-197.1581452,0,0;                                       105P     84
102,5,97,99,101,103,105,0,0;                                         107P     85
142,0,95,0,107,2,0,0;                                                109P     86
144,95,1,0,109,0,0;                                                  111P     87
108,-0.906307787,0.4225680762,0.006512770059,-577.7863696,0,         113P     88
462.7142455,-371.8861963,-196.1701689,1.0,0,0;                       113P     89
110,464.7216822,-367.5624824,-197.3536788,464.6160277,               115P     90
-367.7928851,-197.1072001,0,0;                                       115P     91
110,464.6160277,-367.7928851,-197.1072001,463.3948088,               117P     92
-370.4114863,-197.1475589,0,0;                                       117P     93
110,463.3948088,-370.4114863,-197.1475589,463.3948088,               119P     94
-370.3375157,-201.9469889,0,0;                                       119P     95
110,463.3948088,-370.3375157,-201.9469889,464.7216822,               121P     96
-367.4923645,-201.9031385,0,0;                                       121P     97
110,464.7216822,-367.4923645,-201.9031385,464.7216822,               123P     98
-367.5624824,-197.3536788,0,0;                                       123P     99
102,5,115,117,119,121,123,0,0;                                       125P    100
142,0,113,0,125,2,0,0;                                               127P    101
144,113,1,0,127,0,0;                                                 129P    102
110,467.6800101,-361.1112075,-204.2550808,467.6800101,               131P    103
-361.1266181,-203.2551995,0,0;                                       131P    104
110,464.7216822,-367.5624824,-197.3536788,464.6160277,               133P    105
-367.7928851,-197.1072001,0,0;                                       133P    106
120,131,133,0.0,4.01425728,0,0;                                      135P    107
110,464.6160277,-367.7928851,-197.1072001,464.7216822,               137P    108
-367.5624824,-197.3536788,0,0;                                       137P    109
124,-0.4226182617,0.906307787,0.0,467.6800101,-0.9062001637,         139P    110
-0.4225680762,-0.01541052682,-361.2190812,-0.01396668046,            139P    111
-0.006512770059,0.9998812508,-197.255912,0,0;                        139P    112
100,0.0,0.0,0.0,7.0,0.0,-4.499513268,-5.362311102,0,0;               141P    113
110,464.7216822,-354.8756801,-197.1581452,464.6160277,               143P    114
-354.6529827,-196.9046833,0,0;                                       143P    115
124,-0.4226182617,0.906307787,0.0,467.6800101,0.9062001637,          145P    116
0.4225680762,0.01541052682,-361.2229339,0.01396668046,               145P    117
0.006512770059,-0.9998812508,-197.0059417,0,0;                       145P    118
100,0.0,0.0,0.0,7.25,0.0,-4.66021017,-5.553822213,0,0;               147P    119
102,4,137,141,143,147,0,0;                                           149P    120
142,0,135,0,149,2,0,0;                                               151P    121
144,135,1,0,151,0,0;                                                 153P    122
110,467.6800101,-361.139717,-202.4053004,467.6800101,                155P    123
-361.1243065,-203.4051817,0,0;                                       155P    124
110,453.6800101,-361.1314838,-202.9394934,453.6800101,               157P    125
-361.1304707,-203.0052292,0,0;                                       157P    126
120,155,157,0.0,6.283185307,0,0;                                     159P    127
124,1.0,0.0,0.0,467.6800101,0.0,0.9998812508,-0.01541052682,         161P    128
-361.1314838,0.0,0.01541052682,0.9998812508,-202.9394934,0,0;        161P    129
100,0.0,0.0,0.0,14.0,0.0,-14.0,0.0,0,0;                              163P    130
110,453.6800101,-361.1314838,-202.9394934,453.6800101,               165P    131
-361.1304707,-203.0052292,0,0;                                       165P    132
124,-1.0,0.0,0.0,467.6800101,0.0,0.9998812508,0.01541052682,         167P    133
-361.1304707,0.0,0.01541052682,-0.9998812508,-203.0052292,0,0;       167P    134
100,0.0,0.0,0.0,14.0,0.0,-14.0,0.0,0,0;                              169P    135
110,481.6800101,-361.1304707,-203.0052292,481.6800101,               171P    136
-361.1314838,-202.9394934,0,0;                                       171P    137
102,4,163,165,169,171,0,0;                                           173P    138
142,0,159,0,173,2,0,0;                                               175P    139
144,159,1,0,175,0,0;                                                 177P    140
110,467.6800101,-361.139717,-202.4053004,467.6800101,                179P    141
-361.1243065,-203.4051817,0,0;                                       179P    142
110,481.6800101,-361.1314838,-202.9394934,481.6800101,               181P    143
-361.1304707,-203.0052292,0,0;                                       181P    144
120,179,181,0.0,6.283185307,0,0;                                     183P    145
124,-1.0,0.0,0.0,467.6800101,0.0,-0.9998812508,-0.01541052682,       185P    146
-361.1314838,0.0,-0.01541052682,0.9998812508,-202.9394934,0,0;       185P    147
100,0.0,0.0,0.0,14.0,0.0,-14.0,0.0,0,0;                              187P    148
110,481.6800101,-361.1314838,-202.9394934,481.6800101,               189P    149
-361.1304707,-203.0052292,0,0;                                       189P    150
124,1.0,0.0,0.0,467.6800101,0.0,-0.9998812508,0.01541052682,         191P    151
-361.1304707,0.0,-0.01541052682,-0.9998812508,-203.0052292,0,0;      191P    152
100,0.0,0.0,0.0,14.0,0.0,-14.0,0.0,0,0;                              193P    153
110,453.6800101,-361.1304707,-203.0052292,453.6800101,               195P    154
-361.1314838,-202.9394934,0,0;                                       195P    155
102,4,187,189,193,195,0,0;                                           197P    156
142,0,183,0,197,2,0,0;                                               199P    157
144,183,1,0,199,0,0;                                                 201P    158
110,467.6800101,-362.355048,-123.5509763,467.6800101,                203P    159
-362.3704585,-122.5510951,0,0;                                       203P    160
110,453.8800101,-361.1489633,-201.8053717,453.6800101,               205P    161
-361.1314838,-202.9394934,0,0;                                       205P    162
120,203,205,0.0,3.141592617,0,0;                                     207P    163
124,1.0,0.0,0.0,467.6800101,0.0,-0.9998812508,0.01541052682,         209P    164
-361.1314838,0.0,-0.01541052682,-0.9998812508,-202.9394934,0,0;      209P    165
100,0.0,0.0,0.0,14.0,0.0,-14.0,0.0,0,0;                              211P    166
110,453.6800101,-361.1314838,-202.9394934,453.8800101,               213P    167
-361.1489633,-201.8053717,0,0;                                       213P    168
124,-1.0,4.118599185E-015,0.0,467.6800101,-4.119088323E-015,         215P    169
-0.9998812508,-0.01541052682,-361.1489633,0.0,-0.01541052682,        215P    170
0.9998812508,-201.8053717,0,0;                                       215P    171
100,0.0,0.0,0.0,13.8,0.0,-13.8,-5.171127829E-007,0,0;                217P    172
110,481.4800101,-361.1489628,-201.8053717,481.6800101,               219P    173
-361.1314838,-202.9394934,0,0;                                       219P    174
102,4,211,213,217,219,0,0;                                           221P    175
142,0,207,0,221,2,0,0;                                               223P    176
144,207,1,0,223,0,0;                                                 225P    177
110,467.6800101,-362.355048,-123.5509763,467.6800101,                227P    178
-362.3704585,-122.5510951,0,0;                                       227P    179
110,481.4800101,-361.1489628,-201.8053717,481.6800101,               229P    180
-361.1314833,-202.9394934,0,0;                                       229P    181
120,227,229,0.0,3.141592616,0,0;                                     231P    182
124,-1.0,0.0,5.386316393E-016,467.6800101,0.0,0.9998812508,          233P    183
0.01541052682,-361.1314838,0.0,0.01541052682,-0.9998812508,          233P    184
-202.9394934,0,0;                                                    233P    185
100,0.0,0.0,0.0,14.0,0.0,-14.0,0.0,0,0;                              235P    186
110,481.6800101,-361.1314838,-202.9394934,481.4800101,               237P    187
-361.1489628,-201.8053717,0,0;                                       237P    188
124,1.0,-3.747194902E-008,-5.386316393E-016,467.6800101,             239P    189
3.746749925E-008,0.9998812508,-0.01541052682,-361.1489633,           239P    190
5.774632302E-010,0.01541052682,0.9998812508,-201.8053717,0,0;        239P    191
100,0.0,0.0,0.0,13.8,0.0,-13.8,5.171128965E-007,0,0;                 241P    192
110,453.8800101,-361.1489633,-201.8053717,453.6800101,               243P    193
-361.1314838,-202.9394934,0,0;                                       243P    194
102,4,235,237,241,243,0,0;                                           245P    195
142,0,231,0,245,2,0,0;                                               247P    196
144,231,1,0,247,0,0;                                                 249P    197
108,0.0,-0.01541052682,0.9998812508,-191.4159117,0,467.6800101,      251P    198
-361.2229339,-197.0059417,1.0,0,0;                                   251P    199
124,-0.3423665761,0.9395664572,0.0,467.6800101,0.9394548845,         253P    200
0.3423259203,0.01541052682,-361.2229339,0.01447921409,               253P    201
0.005276049305,-0.9998812508,-197.0059417,0,0;                       253P    202
100,0.0,0.0,0.0,11.6,0.0,7.660731158,8.710522265,0,0;                255P    203
124,0.4794255386,0.8775825619,0.0,467.6800101,0.8774783496,          257P    204
-0.4793686072,0.01541052682,-361.2229339,0.01352400961,              257P    205
-0.007388200123,-0.9998812508,-197.0059417,0,0;                      257P    206
100,0.0,0.0,0.0,11.6,0.0,-11.46876246,1.739967727,0,0;               259P    207
124,-0.6971418333,-0.7169332356,0.0,464.7542705,-0.7168481003,       261P    208
0.6970590482,0.01541052682,-371.0453384,-0.01104831886,              261P    209
0.01074332292,-0.9998812508,-197.1573281,0,0;                        261P    210
100,0.0,0.0,0.0,1.5,0.0,0.4932539915,1.416580566,0,0;                263P    211
110,463.3948088,-370.4114863,-197.1475589,464.6160277,               265P    212
-367.7928851,-197.1072001,0,0;                                       265P    213
124,-0.4226182617,0.906307787,0.0,467.6800101,-0.9062001637,         267P    214
-0.4225680762,-0.01541052682,-361.2229339,-0.01396668046,            267P    215
-0.006512770059,0.9998812508,-197.0059417,0,0;                       267P    216
100,0.0,0.0,0.0,7.25,0.0,-4.66021017,-5.553822213,0,0;               269P    217
110,464.6160277,-354.6529827,-196.9046833,463.3948088,               271P    218
-352.0343815,-196.8643244,0,0;                                       271P    219
124,-0.906307787,-0.4226182617,0.0,464.7542705,-0.4225680762,        273P    220
0.9062001637,0.01541052682,-351.4005294,-0.006512770059,             273P    221
0.01396668046,-0.9998812508,-196.8545553,0,0;                        273P    222
100,0.0,0.0,0.0,1.5,0.0,0.4932539915,1.416580566,0,0;                275P    223
102,7,255,259,263,265,269,271,275,0,0;                               277P    224
142,0,251,0,277,2,0,0;                                               279P    225
144,251,1,0,279,0,0;                                                 281P    226
110,464.7542705,-371.0083531,-199.5570431,464.7542705,               283P    227
-371.0237636,-198.5571619,0,0;                                       283P    228
110,463.3948088,-370.3375157,-201.9469889,463.3948088,               285P    229
-370.4114863,-197.1475589,0,0;                                       285P    230
120,283,285,0.0,6.283185307,0,0;                                     287P    231
126,4,4,0,0,1,0,0.0,0.0,0.0,0.0,0.0,9.843004539,9.843004539,         289P    232
9.843004539,9.843004539,9.843004539,1.0,1.0,1.0,1.0,1.0,             289P    233
463.7085578,-372.1206105,-197.1739006,463.5098093,-371.9153738,      289P    234
-197.9493731,463.3656742,-371.6617478,-199.077663,463.2846882,       289P    235
-371.3886521,-200.4405547,463.2608575,-371.1117698,-201.958922,      289P    236
0.0,9.843004539,0.0,0.0,0.0,0,0;                                     289P    237
124,-0.9956087161,-0.09361241603,3.873637522E-015,464.7542705,       291P    238
-0.09360129962,0.9954904883,0.01541052682,-370.9713678,              291P    239
-0.001442616648,0.01534285483,-0.9998812508,-201.9567581,0,0;        291P    240
100,0.0,0.0,0.0,1.5,0.0,1.294148424,0.7584061299,0,0;                293P    241
110,463.3948088,-370.3375157,-201.9469889,463.3948088,               295P    242
-370.4114863,-197.1475589,0,0;                                       295P    243
124,-0.906307787,-0.4226182617,-3.873637522E-015,464.7542705,        297P    244
0.4225680762,-0.9062001637,-0.01541052682,-371.0453384,              297P    245
0.006512770059,-0.01396668046,0.9998812508,-197.1573281,0,0;         297P    246
100,0.0,0.0,0.0,1.5,0.0,0.4932539915,1.416580566,0,0;                299P    247
102,4,289,293,295,299,0,0;                                           301P    248
142,0,287,0,301,2,0,0;                                               303P    249
144,287,1,0,303,0,0;                                                 305P    250
110,464.7542705,-351.3635441,-199.2542703,464.7542705,               307P    251
-351.3481336,-200.2541515,0,0;                                       307P    252
110,463.3948088,-352.0343815,-196.8643244,463.3948088,               309P    253
-351.9604109,-201.6637544,0,0;                                       309P    254
120,307,309,0.0,6.283185307,0,0;                                     311P    255
126,4,4,0,0,1,0,0.0,0.0,0.0,0.0,0.0,9.843004523,9.843004523,         313P    256
9.843004523,9.843004523,9.843004523,1.0,1.0,1.0,1.0,1.0,             313P    257
463.2608575,-351.1861569,-201.6518214,463.2846882,-350.9561982,      313P    258
-200.1256424,463.3656742,-350.725233,-198.7549819,463.5098093,       313P    259
-350.5064984,-197.6194119,463.7085578,-350.3252572,-196.8379828,     313P    260
0.0,9.843004523,0.0,0.0,0.0,0,0;                                     313P    261
124,-0.6971418333,-0.7169332356,-7.658804146E-016,464.7542705,       315P    262
0.7168481003,-0.6970590482,-0.01541052682,-351.4005294,              315P    263
0.01104831886,-0.01074332292,0.9998812508,-196.8545553,0,0;          315P    264
100,0.0,0.0,0.0,1.5,0.0,0.4932539915,1.416580566,0,0;                317P    265
110,463.3948088,-352.0343815,-196.8643244,463.3948088,               319P    266
-351.9604109,-201.6637544,0,0;                                       319P    267
124,-0.906307787,-0.4226182617,7.658804146E-016,464.7542705,         321P    268
-0.4225680762,0.9062001637,0.01541052682,-351.3265588,               321P    269
-0.006512770059,0.01396668046,-0.9998812508,-201.6539853,0,0;        321P    270
100,0.0,0.0,0.0,1.5,0.0,1.294148424,0.7584061299,0,0;                323P    271
102,4,313,317,319,323,0,0;                                           325P    272
142,0,311,0,325,2,0,0;                                               327P    273
144,311,1,0,327,0,0;                                                 329P    274
110,467.6800101,-361.1489633,-201.8053717,467.6800101,               331P    275
-361.1643739,-200.8054904,0,0;                                       331P    276
110,472.9057484,-351.5844493,-201.65796,473.2413463,-351.044185,     333P    277
-196.8490632,0,0;                                                    333P    278
120,331,333,0.0,0.9174457676,0,0;                                    335P    279
126,4,4,0,0,1,0,0.0,0.0,0.0,0.0,0.0,9.843004523,9.843004523,         337P    280
9.843004523,9.843004523,9.843004523,1.0,1.0,1.0,1.0,1.0,             337P    281
463.7085578,-350.3252572,-196.8379828,463.5098093,-350.5064984,      337P    282
-197.6194119,463.3656748,-350.7252327,-198.7549819,463.2846882,      337P    283
-350.9561982,-200.1256424,463.2608575,-351.1861569,-201.6518214,     337P    284
0.0,9.843004523,0.0,0.0,0.0,0,0;                                     337P    285
124,-0.4054268447,0.9141274931,0.0,467.6800101,0.9140189412,         339P    286
0.4053787006,0.01541052682,-361.1489633,0.01408718625,               339P    287
0.006247841265,-0.9998812508,-201.8053717,0,0;                       339P    288
100,0.0,0.0,0.0,10.9,0.0,6.625568967,8.655162383,0,0;                341P    289
110,472.9057484,-351.5844493,-201.65796,473.2413463,-351.044185,     343P    290
-196.8490632,0,0;                                                    343P    291
124,0.4794255386,-0.8775825619,0.0,467.6800101,0.8774783496,         345P    292
0.4793686072,-0.01541052682,-361.2229339,0.01352400961,              345P    293
0.007388200123,0.9998812508,-197.0059417,0,0;                        345P    294
100,0.0,0.0,0.0,11.6,0.0,7.660731158,8.710522265,0,0;                347P    295
102,4,337,341,343,347,0,0;                                           349P    296
142,0,335,0,349,2,0,0;                                               351P    297
144,335,1,0,351,0,0;                                                 353P    298
110,467.6800101,-361.1489633,-201.8053717,467.6800101,               355P    299
-361.1643739,-200.8054904,0,0;                                       355P    300
110,463.2608569,-371.1117696,-201.958922,462.9770581,                357P    301
-371.8255533,-197.1693531,0,0;                                       357P    302
120,355,357,0.0,3.059038433,0,0;                                     359P    303
126,4,4,0,0,1,0,0.0,0.0,0.0,0.0,0.0,9.843004539,9.843004539,         361P    304
9.843004539,9.843004539,9.843004539,1.0,1.0,1.0,1.0,1.0,             361P    305
463.2608575,-371.1117698,-201.958922,463.2846882,-371.3886521,       361P    306
-200.4405547,463.3656748,-371.6617481,-199.077663,463.5098093,       361P    307
-371.9153738,-197.9493731,463.7085578,-372.1206105,-197.1739006,     361P    308
0.0,9.843004539,0.0,0.0,0.0,0,0;                                     361P    309
124,-0.3423665761,0.9395664572,0.0,467.6800101,-0.9394548845,        363P    310
-0.3423259203,-0.01541052682,-361.2229339,-0.01447921409,            363P    311
-0.005276049305,0.9998812508,-197.0059417,0,0;                       363P    312
100,0.0,0.0,0.0,11.6,0.0,-11.46876246,1.739967727,0,0;               365P    313
110,473.2413463,-351.044185,-196.8490632,472.9057484,                367P    314
-351.5844493,-201.65796,0,0;                                         367P    315
124,0.4794255386,0.8775825619,0.0,467.6800101,0.8774783496,          369P    316
-0.4793686072,0.01541052682,-361.1489633,0.01352400961,              369P    317
-0.007388200123,-0.9998812508,-201.8053717,0,0;                      369P    318
100,0.0,0.0,0.0,10.9,0.0,-10.8628782,0.8988198502,0,0;               371P    319
102,4,361,365,367,371,0,0;                                           373P    320
142,0,359,0,373,2,0,0;                                               375P    321
144,359,1,0,375,0,0;                                                 377P    322
108,0.0,-0.01541052682,0.9998812508,-196.2159117,0,467.6800101,      379P    323
-361.1489633,-201.8053717,1.0,0,0;                                   379P    324
124,-1.0,0.0,0.0,467.6800101,0.0,0.9998812508,0.01541052682,         381P    325
-361.1489633,0.0,0.01541052682,-0.9998812508,-201.8053717,0,0;       381P    326
100,0.0,0.0,0.0,13.8,0.0,-13.8,5.171128965E-007,0,0;                 383P    327
124,1.0,3.747194902E-008,0.0,467.6800101,3.746749925E-008,           385P    328
-0.9998812508,0.01541052682,-361.1489633,5.774632302E-010,           385P    329
-0.01541052682,-0.9998812508,-201.8053717,0,0;                       385P    330
100,0.0,0.0,0.0,13.8,0.0,-13.8,-5.171128965E-007,0,0;                387P    331
102,2,383,387,0,0;                                                   389P    332
142,0,379,0,389,2,0,0;                                               391P    333
124,-0.4054268447,0.9141274931,0.0,467.6800101,-0.9140189412,        393P    334
-0.4053787006,-0.01541052682,-361.1489633,-0.01408718625,            393P    335
-0.006247841265,0.9998812508,-201.8053717,0,0;                       393P    336
100,0.0,0.0,0.0,10.9,0.0,-10.8628782,0.8988198502,0,0;               395P    337
124,0.4794255386,-0.8775825619,0.0,467.6800101,0.8774783496,         397P    338
0.4793686072,-0.01541052682,-361.1489633,0.01352400961,              397P    339
0.007388200123,0.9998812508,-201.8053717,0,0;                        397P    340
100,0.0,0.0,0.0,10.9,0.0,6.625568967,8.655162383,0,0;                399P    341
124,-0.9956087161,-0.09361241603,0.0,464.7542705,0.09360129962,      401P    342
-0.9954904883,-0.01541052682,-351.3265588,0.001442616648,            401P    343
-0.01534285483,0.9998812508,-201.6539853,0,0;                        401P    344
100,0.0,0.0,0.0,1.5,0.0,1.294148424,0.7584061299,0,0;                403P    345
110,463.3948088,-351.9604109,-201.6637544,464.7216822,               405P    346
-354.8055622,-201.7076049,0,0;                                       405P    347
124,-0.4226182617,-0.906307787,0.0,467.6800101,0.9062001637,         407P    348
-0.4225680762,-0.01541052682,-361.1489633,0.01396668046,             407P    349
-0.006512770059,0.9998812508,-201.8053717,0,0;                       407P    350
100,0.0,0.0,0.0,7.0,0.0,2.958327832,6.344154509,0,0;                 409P    351
124,-1.0,0.0,0.0,467.6800101,0.0,-0.9998812508,-0.01541052682,       411P    352
-361.1489633,0.0,-0.01541052682,0.9998812508,-201.8053717,0,0;       411P    353
100,0.0,0.0,0.0,7.0,0.0,2.958327832,6.344154509,0,0;                 413P    354
110,464.7216822,-367.4923645,-201.9031385,463.3948088,               415P    355
-370.3375157,-201.9469889,0,0;                                       415P    356
124,-0.906307787,-0.4226182617,0.0,464.7542705,0.4225680762,         417P    357
-0.9062001637,-0.01541052682,-370.9713678,0.006512770059,            417P    358
-0.01396668046,0.9998812508,-201.9567581,0,0;                        417P    359
100,0.0,0.0,0.0,1.5,0.0,1.294148424,0.7584061299,0,0;                419P    360
102,8,395,399,403,405,409,413,415,419,0,0;                           421P    361
142,0,379,0,421,2,0,0;                                               423P    362
144,379,1,1,391,423,0,0;                                             425P    363
S      1G      4D    426P    363                                        T      1
