ISO-10303-21;
HEADER;


ENDSEC;

DATA;
#5=PRODUCT('Button','','',(#2)) ;
#1=APPLICATION_CONTEXT('configuration controlled 3D design of mechanical parts and assemblies') ;
#14=PRODUCT_DEFINITION(' ',' ',#6,#3) ;
#16=SECURITY_CLASSIFICATION(' ',' ',#15) ;
#15=SECURITY_CLASSIFICATION_LEVEL('unclassified') ;
#47=CARTESIAN_POINT(' ',(0.,0.,0.)) ;
#51=CARTESIAN_POINT('Point.1',(-431.815964785,15.3809148775,9.46306874727)) ;
#56=CARTESIAN_POINT('Axis2P3D Location',(-431.815964785,15.3809148775,15.4630687473)) ;
#61=CARTESIAN_POINT('Line Origine',(-430.521515831,17.7503877946,15.9965687473)) ;
#65=CARTESIAN_POINT('Vertex',(-430.521515831,17.7503877946,19.4630687473)) ;
#67=CARTESIAN_POINT('Vertex',(-430.521515831,17.7503877946,12.5300687473)) ;
#70=CARTESIAN_POINT('Axis2P3D Location',(-431.815964785,15.3809148775,12.5300687473)) ;
#74=CARTESIAN_POINT('Vertex',(-433.11041374,13.0114419604,12.5300687473)) ;
#77=CARTESIAN_POINT('Line Origine',(-433.11041374,13.0114419604,15.9965687473)) ;
#81=CARTESIAN_POINT('Vertex',(-433.11041374,13.0114419604,19.4630687473)) ;
#84=CARTESIAN_POINT('Axis2P3D Location',(-431.815964785,15.3809148775,19.4630687473)) ;
#96=CARTESIAN_POINT('Axis2P3D Location',(-431.815964785,15.3809148775,12.5300687473)) ;
#101=CARTESIAN_POINT('Axis2P3D Location',(-431.815964785,15.3809148775,19.4630687473)) ;
#113=CARTESIAN_POINT('Axis2P3D Location',(-431.815964785,15.3809148775,12.5300687473)) ;
#118=CARTESIAN_POINT('Line Origine',(-430.449602,17.8820251789,12.3800687473)) ;
#122=CARTESIAN_POINT('Vertex',(-430.37768817,18.0136625632,12.2300687473)) ;
#125=CARTESIAN_POINT('Axis2P3D Location',(-431.815964785,15.3809148775,12.2300687473)) ;
#129=CARTESIAN_POINT('Vertex',(-433.254241401,12.7481671919,12.2300687473)) ;
#132=CARTESIAN_POINT('Line Origine',(-433.18232757,12.8798045762,12.3800687473)) ;
#144=CARTESIAN_POINT('Axis2P3D Location',(-431.815964785,15.3809148775,12.2300687473)) ;
#156=CARTESIAN_POINT('Axis2P3D Location',(-431.815964785,15.3809148775,15.4630687473)) ;
#161=CARTESIAN_POINT('Line Origine',(-430.37768817,18.0136625632,12.1300687473)) ;
#165=CARTESIAN_POINT('Vertex',(-430.37768817,18.0136625632,12.0300687473)) ;
#168=CARTESIAN_POINT('Axis2P3D Location',(-431.815964785,15.3809148775,12.0300687473)) ;
#172=CARTESIAN_POINT('Vertex',(-433.254241401,12.7481671919,12.0300687473)) ;
#175=CARTESIAN_POINT('Line Origine',(-433.254241401,12.7481671919,12.1300687473)) ;
#187=CARTESIAN_POINT('Axis2P3D Location',(-431.815964785,15.3809148775,12.0300687473)) ;
#199=CARTESIAN_POINT('Axis2P3D Location',(-431.815964785,15.3809148775,15.4630687473)) ;
#204=CARTESIAN_POINT('Line Origine',(-430.905056262,17.0483217451,11.2380687473)) ;
#208=CARTESIAN_POINT('Vertex',(-430.905056262,17.0483217451,11.0130687473)) ;
#210=CARTESIAN_POINT('Vertex',(-430.905056262,17.0483217451,11.4630687473)) ;
#213=CARTESIAN_POINT('Axis2P3D Location',(-431.815964785,15.3809148775,11.4630687473)) ;
#217=CARTESIAN_POINT('Vertex',(-432.726873309,13.7135080099,11.4630687473)) ;
#220=CARTESIAN_POINT('Line Origine',(-432.726873309,13.7135080099,11.2380687473)) ;
#224=CARTESIAN_POINT('Vertex',(-432.726873309,13.7135080099,11.0130687473)) ;
#227=CARTESIAN_POINT('Axis2P3D Location',(-431.815964785,15.3809148775,11.0130687473)) ;
#239=CARTESIAN_POINT('Axis2P3D Location',(-431.815964785,15.3809148775,11.4630687473)) ;
#244=CARTESIAN_POINT('Axis2P3D Location',(-431.815964785,15.3809148775,11.0130687473)) ;
#256=CARTESIAN_POINT('Axis2P3D Location',(-431.815964785,12.6809148775,19.4630687473)) ;
#266=CARTESIAN_POINT('Axis2P3D Location',(-431.815964785,13.0809148775,12.0300687473)) ;
#275=CARTESIAN_POINT('Axis2P3D Location',(-431.815964785,15.3809148775,12.0300687473)) ;
#279=CARTESIAN_POINT('Vertex',(-432.918643524,13.3624749852,12.0300687473)) ;
#281=CARTESIAN_POINT('Vertex',(-430.713286047,17.3993547699,12.0300687473)) ;
#284=CARTESIAN_POINT('Axis2P3D Location',(-431.815964785,15.3809148775,12.0300687473)) ;
#294=CARTESIAN_POINT('Axis2P3D Location',(-431.815964785,13.4809148775,11.4630687473)) ;
#304=CARTESIAN_POINT('Axis2P3D Location',(-431.815964785,15.3809148775,15.4630687473)) ;
#309=CARTESIAN_POINT('Line Origine',(-432.918643524,13.3624749852,11.5215687473)) ;
#313=CARTESIAN_POINT('Vertex',(-432.918643524,13.3624749852,11.2630687473)) ;
#316=CARTESIAN_POINT('Line Origine',(-430.713286047,17.3993547699,11.5215687473)) ;
#320=CARTESIAN_POINT('Vertex',(-430.713286047,17.3993547699,11.2630687473)) ;
#323=CARTESIAN_POINT('Axis2P3D Location',(-431.815964785,15.3809148775,11.2630687473)) ;
#335=CARTESIAN_POINT('Axis2P3D Location',(-431.815964785,15.3809148775,11.2630687473)) ;
#347=CARTESIAN_POINT('Axis2P3D Location',(-431.815964785,13.4809148775,11.0130687473)) ;
#352=CARTESIAN_POINT('Axis2P3D Location',(-431.815964785,15.3809148775,11.0130687473)) ;
#356=CARTESIAN_POINT('Vertex',(-430.83314298,17.1799594292,11.0130687473)) ;
#358=CARTESIAN_POINT('Vertex',(-432.79878714,13.5818706257,11.0130687473)) ;
#361=CARTESIAN_POINT('Axis2P3D Location',(-431.815964785,15.3809148775,11.0130687473)) ;
#375=CARTESIAN_POINT('Axis2P3D Location',(-431.815964785,15.3809148775,8.96306874727)) ;
#380=CARTESIAN_POINT('Line Origine',(-430.773214239,17.2896569497,11.1380687473)) ;
#385=CARTESIAN_POINT('Line Origine',(-432.858715332,13.4721728054,11.1380687473)) ;
#397=CARTESIAN_POINT('Axis2P3D Location',(-431.815964785,15.3809148775,8.96306874727)) ;
#57=DIRECTION('Axis2P3D Direction',(0.,0.,-1.)) ;
#58=DIRECTION('Axis2P3D XDirection',(-0.479425538604,-0.87758256189,0.)) ;
#62=DIRECTION('Vector Direction',(0.,0.,-1.)) ;
#71=DIRECTION('Axis2P3D Direction',(0.,0.,-1.)) ;
#78=DIRECTION('Vector Direction',(0.,0.,-1.)) ;
#85=DIRECTION('Axis2P3D Direction',(0.,0.,-1.)) ;
#97=DIRECTION('Axis2P3D Direction',(0.,0.,-1.)) ;
#102=DIRECTION('Axis2P3D Direction',(0.,0.,-1.)) ;
#114=DIRECTION('Axis2P3D Direction',(0.,0.,-1.)) ;
#115=DIRECTION('Axis2P3D XDirection',(-0.479425538604,-0.87758256189,0.)) ;
#119=DIRECTION('Vector Direction',(0.339005049421,0.620544580564,-0.707106781187)) ;
#126=DIRECTION('Axis2P3D Direction',(0.,0.,-1.)) ;
#133=DIRECTION('Vector Direction',(-0.339005049421,-0.620544580564,-0.707106781187)) ;
#145=DIRECTION('Axis2P3D Direction',(0.,0.,-1.)) ;
#157=DIRECTION('Axis2P3D Direction',(0.,0.,-1.)) ;
#158=DIRECTION('Axis2P3D XDirection',(-0.479425538604,-0.87758256189,0.)) ;
#162=DIRECTION('Vector Direction',(0.,0.,-1.)) ;
#169=DIRECTION('Axis2P3D Direction',(0.,0.,-1.)) ;
#176=DIRECTION('Vector Direction',(0.,0.,-1.)) ;
#188=DIRECTION('Axis2P3D Direction',(0.,0.,-1.)) ;
#200=DIRECTION('Axis2P3D Direction',(0.,0.,-1.)) ;
#201=DIRECTION('Axis2P3D XDirection',(-0.479425538604,-0.87758256189,0.)) ;
#205=DIRECTION('Vector Direction',(0.,0.,-1.)) ;
#214=DIRECTION('Axis2P3D Direction',(0.,0.,-1.)) ;
#221=DIRECTION('Vector Direction',(0.,0.,-1.)) ;
#228=DIRECTION('Axis2P3D Direction',(0.,0.,-1.)) ;
#240=DIRECTION('Axis2P3D Direction',(0.,0.,-1.)) ;
#245=DIRECTION('Axis2P3D Direction',(0.,0.,-1.)) ;
#257=DIRECTION('Axis2P3D Direction',(0.,0.,-1.)) ;
#258=DIRECTION('Axis2P3D XDirection',(1.,0.,0.)) ;
#267=DIRECTION('Axis2P3D Direction',(0.,0.,-1.)) ;
#268=DIRECTION('Axis2P3D XDirection',(1.,0.,0.)) ;
#276=DIRECTION('Axis2P3D Direction',(0.,0.,-1.)) ;
#285=DIRECTION('Axis2P3D Direction',(0.,0.,-1.)) ;
#295=DIRECTION('Axis2P3D Direction',(0.,0.,-1.)) ;
#296=DIRECTION('Axis2P3D XDirection',(1.,0.,0.)) ;
#305=DIRECTION('Axis2P3D Direction',(0.,0.,-1.)) ;
#306=DIRECTION('Axis2P3D XDirection',(-0.479425538604,-0.87758256189,0.)) ;
#310=DIRECTION('Vector Direction',(0.,0.,-1.)) ;
#317=DIRECTION('Vector Direction',(0.,0.,-1.)) ;
#324=DIRECTION('Axis2P3D Direction',(0.,0.,-1.)) ;
#336=DIRECTION('Axis2P3D Direction',(0.,0.,-1.)) ;
#348=DIRECTION('Axis2P3D Direction',(0.,0.,-1.)) ;
#349=DIRECTION('Axis2P3D XDirection',(1.,0.,0.)) ;
#353=DIRECTION('Axis2P3D Direction',(0.,0.,-1.)) ;
#362=DIRECTION('Axis2P3D Direction',(0.,0.,-1.)) ;
#376=DIRECTION('Axis2P3D Direction',(-9.09494701773E-013,7.31859017833E-013,1.)) ;
#377=DIRECTION('Axis2P3D XDirection',(-0.033154162839,0.99945024963,-7.61672577933E-013)) ;
#381=DIRECTION('Vector Direction',(0.33900504942,0.620544580564,0.707106781187)) ;
#386=DIRECTION('Vector Direction',(-0.339005049422,-0.620544580563,0.707106781187)) ;
#398=DIRECTION('Axis2P3D Direction',(-0.,2.13162820728E-014,1.)) ;
#399=DIRECTION('Axis2P3D XDirection',(-0.479425538604,-0.87758256189,1.87026640267E-014)) ;
#48=AXIS2_PLACEMENT_3D(' ',#47,$,$) ;
#59=AXIS2_PLACEMENT_3D('Cylinder Axis2P3D',#56,#57,#58) ;
#72=AXIS2_PLACEMENT_3D('Circle Axis2P3D',#70,#71,$) ;
#86=AXIS2_PLACEMENT_3D('Circle Axis2P3D',#84,#85,$) ;
#98=AXIS2_PLACEMENT_3D('Circle Axis2P3D',#96,#97,$) ;
#103=AXIS2_PLACEMENT_3D('Circle Axis2P3D',#101,#102,$) ;
#116=AXIS2_PLACEMENT_3D('Cone Axis2P3D',#113,#114,#115) ;
#127=AXIS2_PLACEMENT_3D('Circle Axis2P3D',#125,#126,$) ;
#146=AXIS2_PLACEMENT_3D('Circle Axis2P3D',#144,#145,$) ;
#159=AXIS2_PLACEMENT_3D('Cylinder Axis2P3D',#156,#157,#158) ;
#170=AXIS2_PLACEMENT_3D('Circle Axis2P3D',#168,#169,$) ;
#189=AXIS2_PLACEMENT_3D('Circle Axis2P3D',#187,#188,$) ;
#202=AXIS2_PLACEMENT_3D('Cylinder Axis2P3D',#199,#200,#201) ;
#215=AXIS2_PLACEMENT_3D('Circle Axis2P3D',#213,#214,$) ;
#229=AXIS2_PLACEMENT_3D('Circle Axis2P3D',#227,#228,$) ;
#241=AXIS2_PLACEMENT_3D('Circle Axis2P3D',#239,#240,$) ;
#246=AXIS2_PLACEMENT_3D('Circle Axis2P3D',#244,#245,$) ;
#259=AXIS2_PLACEMENT_3D('Plane Axis2P3D',#256,#257,#258) ;
#269=AXIS2_PLACEMENT_3D('Plane Axis2P3D',#266,#267,#268) ;
#277=AXIS2_PLACEMENT_3D('Circle Axis2P3D',#275,#276,$) ;
#286=AXIS2_PLACEMENT_3D('Circle Axis2P3D',#284,#285,$) ;
#297=AXIS2_PLACEMENT_3D('Plane Axis2P3D',#294,#295,#296) ;
#307=AXIS2_PLACEMENT_3D('Cylinder Axis2P3D',#304,#305,#306) ;
#325=AXIS2_PLACEMENT_3D('Circle Axis2P3D',#323,#324,$) ;
#337=AXIS2_PLACEMENT_3D('Circle Axis2P3D',#335,#336,$) ;
#350=AXIS2_PLACEMENT_3D('Plane Axis2P3D',#347,#348,#349) ;
#354=AXIS2_PLACEMENT_3D('Circle Axis2P3D',#352,#353,$) ;
#363=AXIS2_PLACEMENT_3D('Circle Axis2P3D',#361,#362,$) ;
#378=AXIS2_PLACEMENT_3D('Cone Axis2P3D',#375,#376,#377) ;
#400=AXIS2_PLACEMENT_3D('Cone Axis2P3D',#397,#398,#399) ;
#40=PRODUCT_DEFINITION_SHAPE(' ',' ',#14) ;
#31=APPROVAL_PERSON_ORGANIZATION(#25,#21,#19) ;
#25=PERSON_AND_ORGANIZATION(#22,#23) ;
#22=PERSON(' ',' ',' ',$,$,$) ;
#23=ORGANIZATION(' ',' ',' ') ;
#21=APPROVAL(#20,' ') ;
#20=APPROVAL_STATUS('not_yet_approved') ;
#19=APPROVAL_ROLE('APPROVER') ;
#13=DATE_AND_TIME(#11,#12) ;
#12=LOCAL_TIME(8,0,30.,#10) ;
#10=COORDINATED_UNIVERSAL_TIME_OFFSET(0,0,.AHEAD.) ;
#90=ORIENTED_EDGE('',*,*,#69,.T.) ;
#91=ORIENTED_EDGE('',*,*,#76,.F.) ;
#92=ORIENTED_EDGE('',*,*,#83,.F.) ;
#93=ORIENTED_EDGE('',*,*,#88,.T.) ;
#107=ORIENTED_EDGE('',*,*,#83,.T.) ;
#108=ORIENTED_EDGE('',*,*,#100,.F.) ;
#109=ORIENTED_EDGE('',*,*,#69,.F.) ;
#110=ORIENTED_EDGE('',*,*,#105,.T.) ;
#138=ORIENTED_EDGE('',*,*,#124,.T.) ;
#139=ORIENTED_EDGE('',*,*,#131,.F.) ;
#140=ORIENTED_EDGE('',*,*,#136,.F.) ;
#141=ORIENTED_EDGE('',*,*,#76,.T.) ;
#150=ORIENTED_EDGE('',*,*,#136,.T.) ;
#151=ORIENTED_EDGE('',*,*,#148,.F.) ;
#152=ORIENTED_EDGE('',*,*,#124,.F.) ;
#153=ORIENTED_EDGE('',*,*,#100,.T.) ;
#181=ORIENTED_EDGE('',*,*,#167,.T.) ;
#182=ORIENTED_EDGE('',*,*,#174,.F.) ;
#183=ORIENTED_EDGE('',*,*,#179,.F.) ;
#184=ORIENTED_EDGE('',*,*,#131,.T.) ;
#193=ORIENTED_EDGE('',*,*,#179,.T.) ;
#194=ORIENTED_EDGE('',*,*,#191,.F.) ;
#195=ORIENTED_EDGE('',*,*,#167,.F.) ;
#196=ORIENTED_EDGE('',*,*,#148,.T.) ;
#233=ORIENTED_EDGE('',*,*,#212,.T.) ;
#234=ORIENTED_EDGE('',*,*,#219,.F.) ;
#235=ORIENTED_EDGE('',*,*,#226,.F.) ;
#236=ORIENTED_EDGE('',*,*,#231,.T.) ;
#250=ORIENTED_EDGE('',*,*,#226,.T.) ;
#251=ORIENTED_EDGE('',*,*,#243,.F.) ;
#252=ORIENTED_EDGE('',*,*,#212,.F.) ;
#253=ORIENTED_EDGE('',*,*,#248,.T.) ;
#262=ORIENTED_EDGE('',*,*,#105,.F.) ;
#263=ORIENTED_EDGE('',*,*,#88,.F.) ;
#272=ORIENTED_EDGE('',*,*,#191,.T.) ;
#273=ORIENTED_EDGE('',*,*,#174,.T.) ;
#290=ORIENTED_EDGE('',*,*,#283,.F.) ;
#291=ORIENTED_EDGE('',*,*,#288,.F.) ;
#300=ORIENTED_EDGE('',*,*,#243,.T.) ;
#301=ORIENTED_EDGE('',*,*,#219,.T.) ;
#329=ORIENTED_EDGE('',*,*,#315,.F.) ;
#330=ORIENTED_EDGE('',*,*,#283,.T.) ;
#331=ORIENTED_EDGE('',*,*,#322,.T.) ;
#332=ORIENTED_EDGE('',*,*,#327,.F.) ;
#341=ORIENTED_EDGE('',*,*,#322,.F.) ;
#342=ORIENTED_EDGE('',*,*,#288,.T.) ;
#343=ORIENTED_EDGE('',*,*,#315,.T.) ;
#344=ORIENTED_EDGE('',*,*,#339,.F.) ;
#367=ORIENTED_EDGE('',*,*,#360,.T.) ;
#368=ORIENTED_EDGE('',*,*,#365,.T.) ;
#371=ORIENTED_EDGE('',*,*,#231,.F.) ;
#372=ORIENTED_EDGE('',*,*,#248,.F.) ;
#391=ORIENTED_EDGE('',*,*,#384,.T.) ;
#392=ORIENTED_EDGE('',*,*,#339,.T.) ;
#393=ORIENTED_EDGE('',*,*,#389,.F.) ;
#394=ORIENTED_EDGE('',*,*,#360,.F.) ;
#403=ORIENTED_EDGE('',*,*,#389,.T.) ;
#404=ORIENTED_EDGE('',*,*,#327,.T.) ;
#405=ORIENTED_EDGE('',*,*,#384,.F.) ;
#406=ORIENTED_EDGE('',*,*,#365,.F.) ;
#292=FACE_BOUND('',#289,.T.) ;
#373=FACE_BOUND('',#370,.T.) ;
#55=CLOSED_SHELL('Closed Shell',(#95,#112,#143,#155,#186,#198,#238,#255,#265,#293,#303,#334,#346,#374,#396,#408)) ;
#63=VECTOR('Line Direction',#62,1.) ;
#79=VECTOR('Line Direction',#78,1.) ;
#120=VECTOR('Line Direction',#119,1.) ;
#134=VECTOR('Line Direction',#133,1.) ;
#163=VECTOR('Line Direction',#162,1.) ;
#177=VECTOR('Line Direction',#176,1.) ;
#206=VECTOR('Line Direction',#205,1.) ;
#222=VECTOR('Line Direction',#221,1.) ;
#311=VECTOR('Line Direction',#310,1.) ;
#318=VECTOR('Line Direction',#317,1.) ;
#382=VECTOR('Line Direction',#381,1.) ;
#387=VECTOR('Line Direction',#386,1.) ;
#410=ADVANCED_BREP_SHAPE_REPRESENTATION('NONE',(#409),#46) ;
#49=SHAPE_REPRESENTATION(' ',(#48),#46) ;
#95=ADVANCED_FACE('PartBody',(#94),#60,.T.) ;
#112=ADVANCED_FACE('PartBody',(#111),#60,.T.) ;
#143=ADVANCED_FACE('PartBody',(#142),#117,.T.) ;
#155=ADVANCED_FACE('PartBody',(#154),#117,.T.) ;
#186=ADVANCED_FACE('PartBody',(#185),#160,.T.) ;
#198=ADVANCED_FACE('PartBody',(#197),#160,.T.) ;
#238=ADVANCED_FACE('PartBody',(#237),#203,.F.) ;
#255=ADVANCED_FACE('PartBody',(#254),#203,.F.) ;
#265=ADVANCED_FACE('PartBody',(#264),#260,.F.) ;
#293=ADVANCED_FACE('PartBody',(#274,#292),#270,.T.) ;
#303=ADVANCED_FACE('PartBody',(#302),#298,.T.) ;
#334=ADVANCED_FACE('PartBody',(#333),#308,.T.) ;
#346=ADVANCED_FACE('PartBody',(#345),#308,.T.) ;
#374=ADVANCED_FACE('PartBody',(#369,#373),#351,.T.) ;
#396=ADVANCED_FACE('PartBody',(#395),#379,.T.) ;
#408=ADVANCED_FACE('PartBody',(#407),#401,.T.) ;
#4=APPLICATION_PROTOCOL_DEFINITION('international standard','config_control_design',1994,#1) ;
#32=APPROVAL_DATE_TIME(#13,#21) ;
#409=MANIFOLD_SOLID_BREP('PartBody',#55) ;
#11=CALENDAR_DATE(2025,3,12) ;
#30=CC_DESIGN_APPROVAL(#21,(#16,#6,#14)) ;
#18=CC_DESIGN_DATE_AND_TIME_ASSIGNMENT(#13,#17,(#16)) ;
#29=CC_DESIGN_DATE_AND_TIME_ASSIGNMENT(#13,#28,(#14)) ;
#17=DATE_TIME_ROLE('classification_date') ;
#28=DATE_TIME_ROLE('creation_date') ;
#27=CC_DESIGN_PERSON_AND_ORGANIZATION_ASSIGNMENT(#25,#26,(#16)) ;
#33=CC_DESIGN_PERSON_AND_ORGANIZATION_ASSIGNMENT(#25,#34,(#6)) ;
#35=CC_DESIGN_PERSON_AND_ORGANIZATION_ASSIGNMENT(#25,#36,(#6,#14)) ;
#37=CC_DESIGN_PERSON_AND_ORGANIZATION_ASSIGNMENT(#25,#38,(#5)) ;
#26=PERSON_AND_ORGANIZATION_ROLE('classification_officer') ;
#34=PERSON_AND_ORGANIZATION_ROLE('design_supplier') ;
#36=PERSON_AND_ORGANIZATION_ROLE('creator') ;
#38=PERSON_AND_ORGANIZATION_ROLE('design_owner') ;
#39=CC_DESIGN_SECURITY_CLASSIFICATION(#16,(#6)) ;
#73=CIRCLE('generated circle',#72,2.7) ;
#87=CIRCLE('generated circle',#86,2.7) ;
#99=CIRCLE('generated circle',#98,2.7) ;
#104=CIRCLE('generated circle',#103,2.7) ;
#128=CIRCLE('generated circle',#127,3.) ;
#147=CIRCLE('generated circle',#146,3.) ;
#171=CIRCLE('generated circle',#170,3.) ;
#190=CIRCLE('generated circle',#189,3.) ;
#216=CIRCLE('generated circle',#215,1.9) ;
#230=CIRCLE('generated circle',#229,1.9) ;
#242=CIRCLE('generated circle',#241,1.9) ;
#247=CIRCLE('generated circle',#246,1.9) ;
#278=CIRCLE('generated circle',#277,2.3) ;
#287=CIRCLE('generated circle',#286,2.3) ;
#326=CIRCLE('generated circle',#325,2.3) ;
#338=CIRCLE('generated circle',#337,2.3) ;
#355=CIRCLE('generated circle',#354,2.05) ;
#364=CIRCLE('generated circle',#363,2.05) ;
#117=CONICAL_SURFACE('Cone',#116,2.7,0.785398163397) ;
#379=CONICAL_SURFACE('Cone',#378,0.,0.785398163397) ;
#401=CONICAL_SURFACE('Cone',#400,0.,0.785398163397) ;
#54=SHAPE_REPRESENTATION_RELATIONSHIP(' ',' ',#49,#52) ;
#411=SHAPE_REPRESENTATION_RELATIONSHIP(' ',' ',#49,#410) ;
#60=CYLINDRICAL_SURFACE('generated cylinder',#59,2.7) ;
#160=CYLINDRICAL_SURFACE('generated cylinder',#159,3.) ;
#203=CYLINDRICAL_SURFACE('generated cylinder',#202,1.9) ;
#308=CYLINDRICAL_SURFACE('generated cylinder',#307,2.3) ;
#3=DESIGN_CONTEXT(' ',#1,'design') ;
#69=EDGE_CURVE('',#66,#68,#64,.T.) ;
#76=EDGE_CURVE('',#75,#68,#73,.T.) ;
#83=EDGE_CURVE('',#82,#75,#80,.T.) ;
#88=EDGE_CURVE('',#82,#66,#87,.T.) ;
#100=EDGE_CURVE('',#68,#75,#99,.T.) ;
#105=EDGE_CURVE('',#66,#82,#104,.T.) ;
#124=EDGE_CURVE('',#68,#123,#121,.T.) ;
#131=EDGE_CURVE('',#130,#123,#128,.T.) ;
#136=EDGE_CURVE('',#75,#130,#135,.T.) ;
#148=EDGE_CURVE('',#123,#130,#147,.T.) ;
#167=EDGE_CURVE('',#123,#166,#164,.T.) ;
#174=EDGE_CURVE('',#173,#166,#171,.T.) ;
#179=EDGE_CURVE('',#130,#173,#178,.T.) ;
#191=EDGE_CURVE('',#166,#173,#190,.T.) ;
#212=EDGE_CURVE('',#209,#211,#207,.F.) ;
#219=EDGE_CURVE('',#218,#211,#216,.T.) ;
#226=EDGE_CURVE('',#225,#218,#223,.F.) ;
#231=EDGE_CURVE('',#225,#209,#230,.T.) ;
#243=EDGE_CURVE('',#211,#218,#242,.T.) ;
#248=EDGE_CURVE('',#209,#225,#247,.T.) ;
#283=EDGE_CURVE('',#280,#282,#278,.T.) ;
#288=EDGE_CURVE('',#282,#280,#287,.T.) ;
#315=EDGE_CURVE('',#280,#314,#312,.T.) ;
#322=EDGE_CURVE('',#282,#321,#319,.T.) ;
#327=EDGE_CURVE('',#314,#321,#326,.T.) ;
#339=EDGE_CURVE('',#321,#314,#338,.T.) ;
#360=EDGE_CURVE('',#357,#359,#355,.T.) ;
#365=EDGE_CURVE('',#359,#357,#364,.T.) ;
#384=EDGE_CURVE('',#357,#321,#383,.T.) ;
#389=EDGE_CURVE('',#359,#314,#388,.T.) ;
#89=EDGE_LOOP('',(#90,#91,#92,#93)) ;
#106=EDGE_LOOP('',(#107,#108,#109,#110)) ;
#137=EDGE_LOOP('',(#138,#139,#140,#141)) ;
#149=EDGE_LOOP('',(#150,#151,#152,#153)) ;
#180=EDGE_LOOP('',(#181,#182,#183,#184)) ;
#192=EDGE_LOOP('',(#193,#194,#195,#196)) ;
#232=EDGE_LOOP('',(#233,#234,#235,#236)) ;
#249=EDGE_LOOP('',(#250,#251,#252,#253)) ;
#261=EDGE_LOOP('',(#262,#263)) ;
#271=EDGE_LOOP('',(#272,#273)) ;
#289=EDGE_LOOP('',(#290,#291)) ;
#299=EDGE_LOOP('',(#300,#301)) ;
#328=EDGE_LOOP('',(#329,#330,#331,#332)) ;
#340=EDGE_LOOP('',(#341,#342,#343,#344)) ;
#366=EDGE_LOOP('',(#367,#368)) ;
#370=EDGE_LOOP('',(#371,#372)) ;
#390=EDGE_LOOP('',(#391,#392,#393,#394)) ;
#402=EDGE_LOOP('',(#403,#404,#405,#406)) ;
#94=FACE_OUTER_BOUND('',#89,.T.) ;
#111=FACE_OUTER_BOUND('',#106,.T.) ;
#142=FACE_OUTER_BOUND('',#137,.T.) ;
#154=FACE_OUTER_BOUND('',#149,.T.) ;
#185=FACE_OUTER_BOUND('',#180,.T.) ;
#197=FACE_OUTER_BOUND('',#192,.T.) ;
#237=FACE_OUTER_BOUND('',#232,.T.) ;
#254=FACE_OUTER_BOUND('',#249,.T.) ;
#264=FACE_OUTER_BOUND('',#261,.T.) ;
#274=FACE_OUTER_BOUND('',#271,.T.) ;
#302=FACE_OUTER_BOUND('',#299,.T.) ;
#333=FACE_OUTER_BOUND('',#328,.T.) ;
#345=FACE_OUTER_BOUND('',#340,.T.) ;
#369=FACE_OUTER_BOUND('',#366,.T.) ;
#395=FACE_OUTER_BOUND('',#390,.T.) ;
#407=FACE_OUTER_BOUND('',#402,.T.) ;
#53=GEOMETRIC_SET('NONE',(#51)) ;
#52=GEOMETRICALLY_BOUNDED_SURFACE_SHAPE_REPRESENTATION('NONE',(#53),#46) ;
#45=UNCERTAINTY_MEASURE_WITH_UNIT(LENGTH_MEASURE(0.005),#41,'distance_accuracy_value','CONFUSED CURVE UNCERTAINTY') ;
#64=LINE('Line',#61,#63) ;
#80=LINE('Line',#77,#79) ;
#121=LINE('Line',#118,#120) ;
#135=LINE('Line',#132,#134) ;
#164=LINE('Line',#161,#163) ;
#178=LINE('Line',#175,#177) ;
#207=LINE('Line',#204,#206) ;
#223=LINE('Line',#220,#222) ;
#312=LINE('Line',#309,#311) ;
#319=LINE('Line',#316,#318) ;
#383=LINE('Line',#380,#382) ;
#388=LINE('Line',#385,#387) ;
#2=MECHANICAL_CONTEXT(' ',#1,'mechanical') ;
#24=PERSONAL_ADDRESS(' ',' ',' ',' ',' ',' ',' ',' ',' ',' ',' ',' ',(#22),' ') ;
#260=PLANE('Plane',#259) ;
#270=PLANE('Plane',#269) ;
#298=PLANE('Plane',#297) ;
#351=PLANE('Plane',#350) ;
#43=PLANE_ANGLE_MEASURE_WITH_UNIT(PLANE_ANGLE_MEASURE(0.0174532925199),#42) ;
#7=PRODUCT_CATEGORY('part',$) ;
#9=PRODUCT_CATEGORY_RELATIONSHIP(' ',' ',#7,#8) ;
#6=PRODUCT_DEFINITION_FORMATION_WITH_SPECIFIED_SOURCE('',' ',#5,.NOT_KNOWN.) ;
#8=PRODUCT_RELATED_PRODUCT_CATEGORY('detail',$,(#5)) ;
#50=SHAPE_DEFINITION_REPRESENTATION(#40,#49) ;
#66=VERTEX_POINT('',#65) ;
#68=VERTEX_POINT('',#67) ;
#75=VERTEX_POINT('',#74) ;
#82=VERTEX_POINT('',#81) ;
#123=VERTEX_POINT('',#122) ;
#130=VERTEX_POINT('',#129) ;
#166=VERTEX_POINT('',#165) ;
#173=VERTEX_POINT('',#172) ;
#209=VERTEX_POINT('',#208) ;
#211=VERTEX_POINT('',#210) ;
#218=VERTEX_POINT('',#217) ;
#225=VERTEX_POINT('',#224) ;
#280=VERTEX_POINT('',#279) ;
#282=VERTEX_POINT('',#281) ;
#314=VERTEX_POINT('',#313) ;
#321=VERTEX_POINT('',#320) ;
#357=VERTEX_POINT('',#356) ;
#359=VERTEX_POINT('',#358) ;
#41=(LENGTH_UNIT()NAMED_UNIT(*)SI_UNIT(.MILLI.,.METRE.)) ;
#42=(NAMED_UNIT(*)PLANE_ANGLE_UNIT()SI_UNIT($,.RADIAN.)) ;
#44=(NAMED_UNIT(*)SI_UNIT($,.STERADIAN.)SOLID_ANGLE_UNIT()) ;
#46=(GEOMETRIC_REPRESENTATION_CONTEXT(3)GLOBAL_UNCERTAINTY_ASSIGNED_CONTEXT((#45))GLOBAL_UNIT_ASSIGNED_CONTEXT((#41,#42,#44))REPRESENTATION_CONTEXT(' ',' ')) ;
ENDSEC;
END-ISO-10303-21;

