ISO-10303-21;
HEADER;
FILE_DESCRIPTION(('CATIA V5 STEP Exchange'),'2;1');

FILE_NAME('D:\\Users\\Barry\\14_Spindle_Load_Monitor\\02_CAD\\STEP\\sensor_final\\DIN_brkt_main_V2.stp','2025-12-03T07:57:09+00:00',('none'),('none'),'CATIA Version 5 Release 18 GA (IN-10)','CATIA V5 STEP AP203','none');

FILE_SCHEMA(('CONFIG_CONTROL_DESIGN'));

ENDSEC;
/* file written by CATIA V5R18 */
DATA;
#5=PRODUCT('DIN_brkt_main_V2','','',(#2)) ;
#1=APPLICATION_CONTEXT('configuration controlled 3D design of mechanical parts and assemblies') ;
#14=PRODUCT_DEFINITION(' ',' ',#6,#3) ;
#16=SECURITY_CLASSIFICATION(' ',' ',#15) ;
#15=SECURITY_CLASSIFICATION_LEVEL('unclassified') ;
#47=CARTESIAN_POINT(' ',(0.,0.,0.)) ;
#52=CARTESIAN_POINT('Axis2P3D Location',(-5.,95.,1.8)) ;
#57=CARTESIAN_POINT('Line Origine',(-3.28871400431,94.0651201997,-4.6)) ;
#61=CARTESIAN_POINT('Vertex',(-3.28871400431,94.0651201997,-7.6)) ;
#63=CARTESIAN_POINT('Vertex',(-3.28871400431,94.0651201997,1.9)) ;
#66=CARTESIAN_POINT('Axis2P3D Location',(-5.,95.,1.9)) ;
#70=CARTESIAN_POINT('Vertex',(-6.71128599569,95.9348798003,1.9)) ;
#73=CARTESIAN_POINT('Line Origine',(-6.71128599569,95.9348798003,-4.6)) ;
#77=CARTESIAN_POINT('Vertex',(-6.71128599569,95.9348798003,-7.40372822349)) ;
#81=CARTESIAN_POINT('Control Point',(-6.71128599569,95.9348798003,-7.40372822349)) ;
#82=CARTESIAN_POINT('Control Point',(-6.60682389734,96.1260963887,-7.48106107126)) ;
#83=CARTESIAN_POINT('Control Point',(-6.47363082813,96.3038434877,-7.5520034213)) ;
#84=CARTESIAN_POINT('Control Point',(-6.30586385806,96.4665183488,-7.6)) ;
#85=CARTESIAN_POINT('Control Point',(-6.11628940513,96.5988739675,-7.6)) ;
#86=CARTESIAN_POINT('Vertex',(-6.11628940513,96.5988739675,-7.6)) ;
#89=CARTESIAN_POINT('Axis2P3D Location',(-5.,95.,-7.6)) ;
#102=CARTESIAN_POINT('Axis2P3D Location',(-6.11628940513,100.,-7.6)) ;
#107=CARTESIAN_POINT('Line Origine',(-6.11628940513,98.2994369838,-7.6)) ;
#111=CARTESIAN_POINT('Vertex',(-6.11628940513,100.,-7.6)) ;
#114=CARTESIAN_POINT('Line Origine',(-3.4226897992,100.,-7.6)) ;
#118=CARTESIAN_POINT('Vertex',(-0.729090193271,100.,-7.6)) ;
#121=CARTESIAN_POINT('Line Origine',(-0.729090193271,95.,-7.6)) ;
#125=CARTESIAN_POINT('Vertex',(-0.729090193271,90.,-7.6)) ;
#128=CARTESIAN_POINT('Line Origine',(-3.4226897992,90.,-7.6)) ;
#132=CARTESIAN_POINT('Vertex',(-6.11628940513,90.,-7.6)) ;
#135=CARTESIAN_POINT('Line Origine',(-6.11628940513,91.7005630162,-7.6)) ;
#139=CARTESIAN_POINT('Vertex',(-6.11628940513,93.4011260325,-7.6)) ;
#142=CARTESIAN_POINT('Axis2P3D Location',(-5.,95.,-7.6)) ;
#157=CARTESIAN_POINT('Axis2P3D Location',(-6.11628940513,95.,-6.6)) ;
#162=CARTESIAN_POINT('Axis2P3D Location',(-6.11628940513,90.,-6.6)) ;
#166=CARTESIAN_POINT('Vertex',(-7.00729592932,90.,-7.05399049974)) ;
#169=CARTESIAN_POINT('Line Origine',(-7.00729592932,95.,-7.05399049974)) ;
#173=CARTESIAN_POINT('Vertex',(-7.00729592932,100.,-7.05399049974)) ;
#176=CARTESIAN_POINT('Axis2P3D Location',(-6.11628940513,100.,-6.6)) ;
#182=CARTESIAN_POINT('Control Point',(-6.71128599569,95.9348798003,-7.40372822349)) ;
#183=CARTESIAN_POINT('Control Point',(-6.77236418204,95.8230769301,-7.35851230152)) ;
#184=CARTESIAN_POINT('Control Point',(-6.82397600101,95.7069008905,-7.31132267228)) ;
#185=CARTESIAN_POINT('Control Point',(-6.86639367885,95.5863938768,-7.26485534385)) ;
#186=CARTESIAN_POINT('Control Point',(-6.94262374922,95.2958914491,-7.16824738976)) ;
#187=CARTESIAN_POINT('Control Point',(-6.96236107471,94.9814575067,-7.13225750974)) ;
#188=CARTESIAN_POINT('Control Point',(-6.95121360728,94.7977548303,-7.15289797708)) ;
#189=CARTESIAN_POINT('Control Point',(-6.87516431637,94.3609199924,-7.26650051255)) ;
#190=CARTESIAN_POINT('Control Point',(-6.68924856411,93.9767776549,-7.44391042786)) ;
#191=CARTESIAN_POINT('Control Point',(-6.54156850394,93.7577860406,-7.53578118006)) ;
#192=CARTESIAN_POINT('Control Point',(-6.34295006769,93.559374213,-7.6)) ;
#193=CARTESIAN_POINT('Control Point',(-6.11628940513,93.4011260325,-7.6)) ;
#205=CARTESIAN_POINT('Axis2P3D Location',(0.,100.,0.)) ;
#210=CARTESIAN_POINT('Line Origine',(8.58637567567,100.,-3.6)) ;
#214=CARTESIAN_POINT('Vertex',(8.58637567567,100.,-9.1)) ;
#216=CARTESIAN_POINT('Vertex',(8.58637567567,100.,1.9)) ;
#219=CARTESIAN_POINT('Axis2P3D Location',(6.58637567567,100.,-9.1)) ;
#223=CARTESIAN_POINT('Vertex',(6.58637567567,100.,-11.1)) ;
#226=CARTESIAN_POINT('Line Origine',(-1.40409887484,100.,-11.1)) ;
#230=CARTESIAN_POINT('Vertex',(-9.39457342534,100.,-11.1)) ;
#233=CARTESIAN_POINT('Axis2P3D Location',(-9.39457342534,100.,-9.1)) ;
#237=CARTESIAN_POINT('Vertex',(-11.0126074141,100.,-10.2755705046)) ;
#240=CARTESIAN_POINT('Line Origine',(-12.1159547955,100.,-8.75694311679)) ;
#244=CARTESIAN_POINT('Vertex',(-13.2193021769,100.,-7.238315729)) ;
#247=CARTESIAN_POINT('Axis2P3D Location',(-12.208030934,100.,-6.50358416364)) ;
#251=CARTESIAN_POINT('Vertex',(-13.1087910651,100.,-5.63690591533)) ;
#254=CARTESIAN_POINT('Line Origine',(-12.5543955326,100.,-5.06070893148)) ;
#258=CARTESIAN_POINT('Vertex',(-12.,100.,-4.48451194763)) ;
#261=CARTESIAN_POINT('Line Origine',(-11.3064003941,100.,-4.48451194763)) ;
#265=CARTESIAN_POINT('Vertex',(-10.6128007881,100.,-4.48451194763)) ;
#268=CARTESIAN_POINT('Axis2P3D Location',(-10.6128007881,100.,-5.48451194763)) ;
#272=CARTESIAN_POINT('Vertex',(-9.72179426395,100.,-5.03052144789)) ;
#275=CARTESIAN_POINT('Line Origine',(-8.95152705011,100.,-6.54225597382)) ;
#279=CARTESIAN_POINT('Vertex',(-8.18125983628,100.,-8.05399049974)) ;
#282=CARTESIAN_POINT('Axis2P3D Location',(-7.29025331209,100.,-7.6)) ;
#286=CARTESIAN_POINT('Vertex',(-7.29025331209,100.,-8.6)) ;
#289=CARTESIAN_POINT('Line Origine',(-3.75967175268,100.,-8.6)) ;
#293=CARTESIAN_POINT('Vertex',(-0.229090193271,100.,-8.6)) ;
#296=CARTESIAN_POINT('Axis2P3D Location',(-0.229090193271,100.,-6.6)) ;
#300=CARTESIAN_POINT('Vertex',(1.77090980673,100.,-6.6)) ;
#303=CARTESIAN_POINT('Line Origine',(1.77090980673,100.,-4.225)) ;
#307=CARTESIAN_POINT('Vertex',(1.77090980673,100.,-1.85)) ;
#310=CARTESIAN_POINT('Axis2P3D Location',(1.77090980673,100.,-1.6)) ;
#314=CARTESIAN_POINT('Vertex',(1.77090980673,100.,-1.35)) ;
#317=CARTESIAN_POINT('Line Origine',(1.27090980673,100.,-1.35)) ;
#321=CARTESIAN_POINT('Vertex',(0.770909806729,100.,-1.35)) ;
#324=CARTESIAN_POINT('Axis2P3D Location',(0.770909806729,100.,-1.6)) ;
#328=CARTESIAN_POINT('Vertex',(0.770909806729,100.,-1.85)) ;
#331=CARTESIAN_POINT('Line Origine',(0.770909806729,100.,-3.975)) ;
#335=CARTESIAN_POINT('Vertex',(0.770909806729,100.,-6.1)) ;
#338=CARTESIAN_POINT('Axis2P3D Location',(-0.729090193271,100.,-6.1)) ;
#343=CARTESIAN_POINT('Line Origine',(-7.5864910996,100.,-5.91725597382)) ;
#347=CARTESIAN_POINT('Vertex',(-8.16568626987,100.,-4.78052144789)) ;
#350=CARTESIAN_POINT('Axis2P3D Location',(-9.05669279406,100.,-5.23451194763)) ;
#354=CARTESIAN_POINT('Vertex',(-9.05669279406,100.,-4.23451194763)) ;
#357=CARTESIAN_POINT('Line Origine',(-10.528346397,100.,-4.23451194763)) ;
#361=CARTESIAN_POINT('Vertex',(-12.,100.,-4.23451194763)) ;
#364=CARTESIAN_POINT('Line Origine',(-30.,100.,-4.23451194763)) ;
#368=CARTESIAN_POINT('Vertex',(-48.,100.,-4.23451194763)) ;
#371=CARTESIAN_POINT('Line Origine',(-48.,100.,-4.60951194763)) ;
#375=CARTESIAN_POINT('Vertex',(-48.,100.,-4.98451194763)) ;
#378=CARTESIAN_POINT('Line Origine',(-47.,100.,-5.48451194763)) ;
#382=CARTESIAN_POINT('Vertex',(-46.,100.,-5.98451194763)) ;
#385=CARTESIAN_POINT('Line Origine',(-46.,100.,-8.04225597382)) ;
#389=CARTESIAN_POINT('Vertex',(-46.,100.,-10.1)) ;
#392=CARTESIAN_POINT('Line Origine',(-53.,100.,-10.1)) ;
#396=CARTESIAN_POINT('Vertex',(-60.,100.,-10.1)) ;
#399=CARTESIAN_POINT('Line Origine',(-60.,100.,-4.1)) ;
#403=CARTESIAN_POINT('Vertex',(-60.,100.,1.9)) ;
#406=CARTESIAN_POINT('Line Origine',(-55.5,100.,1.9)) ;
#410=CARTESIAN_POINT('Vertex',(-51.,100.,1.9)) ;
#413=CARTESIAN_POINT('Line Origine',(-50.5,100.,1.4)) ;
#417=CARTESIAN_POINT('Vertex',(-50.,100.,0.9)) ;
#420=CARTESIAN_POINT('Line Origine',(-50.,100.,0.55)) ;
#424=CARTESIAN_POINT('Vertex',(-50.,100.,0.2)) ;
#427=CARTESIAN_POINT('Axis2P3D Location',(-49.5,100.,0.2)) ;
#431=CARTESIAN_POINT('Vertex',(-49.5,100.,-0.3)) ;
#434=CARTESIAN_POINT('Line Origine',(-29.9860235691,100.,-0.3)) ;
#438=CARTESIAN_POINT('Vertex',(-10.4720471382,100.,-0.3)) ;
#441=CARTESIAN_POINT('Axis2P3D Location',(-10.4720471382,100.,0.172047138214)) ;
#445=CARTESIAN_POINT('Vertex',(-10.,100.,0.172047138214)) ;
#448=CARTESIAN_POINT('Line Origine',(-10.,100.,0.536023569107)) ;
#452=CARTESIAN_POINT('Vertex',(-10.,100.,0.9)) ;
#455=CARTESIAN_POINT('Line Origine',(-9.64881563187,100.,1.4)) ;
#459=CARTESIAN_POINT('Vertex',(-9.29763126373,100.,1.9)) ;
#462=CARTESIAN_POINT('Line Origine',(-0.355627794033,100.,1.9)) ;
#509=CARTESIAN_POINT('Axis2P3D Location',(-0.729090193271,95.,-6.1)) ;
#514=CARTESIAN_POINT('Line Origine',(0.770909806729,95.,-6.1)) ;
#518=CARTESIAN_POINT('Vertex',(0.770909806729,90.,-6.1)) ;
#521=CARTESIAN_POINT('Axis2P3D Location',(-0.729090193271,90.,-6.1)) ;
#533=CARTESIAN_POINT('Axis2P3D Location',(-9.29763126373,100.,1.9)) ;
#538=CARTESIAN_POINT('Line Origine',(-9.29763126373,95.,1.9)) ;
#542=CARTESIAN_POINT('Vertex',(-9.29763126373,90.,1.9)) ;
#545=CARTESIAN_POINT('Line Origine',(-10.,95.,0.9)) ;
#549=CARTESIAN_POINT('Vertex',(-10.,90.,0.9)) ;
#552=CARTESIAN_POINT('Line Origine',(-9.64881563187,90.,1.4)) ;
#564=CARTESIAN_POINT('Axis2P3D Location',(-55.,95.,1.8)) ;
#569=CARTESIAN_POINT('Line Origine',(-56.7112859957,95.9348798003,-4.6)) ;
#573=CARTESIAN_POINT('Vertex',(-56.7112859957,95.9348798003,-10.1)) ;
#575=CARTESIAN_POINT('Vertex',(-56.7112859957,95.9348798003,1.9)) ;
#578=CARTESIAN_POINT('Axis2P3D Location',(-55.,95.,-10.1)) ;
#582=CARTESIAN_POINT('Vertex',(-53.2887140043,94.0651201997,-10.1)) ;
#585=CARTESIAN_POINT('Line Origine',(-53.2887140043,94.0651201997,-4.6)) ;
#589=CARTESIAN_POINT('Vertex',(-53.2887140043,94.0651201997,1.9)) ;
#592=CARTESIAN_POINT('Axis2P3D Location',(-55.,95.,1.9)) ;
#604=CARTESIAN_POINT('Axis2P3D Location',(-55.,95.,-10.1)) ;
#609=CARTESIAN_POINT('Axis2P3D Location',(-55.,95.,1.9)) ;
#621=CARTESIAN_POINT('Axis2P3D Location',(6.58637567567,95.,-9.1)) ;
#626=CARTESIAN_POINT('Line Origine',(6.58637567567,95.,-11.1)) ;
#630=CARTESIAN_POINT('Vertex',(6.58637567567,90.,-11.1)) ;
#633=CARTESIAN_POINT('Line Origine',(8.58637567567,95.,-9.1)) ;
#637=CARTESIAN_POINT('Vertex',(8.58637567567,90.,-9.1)) ;
#640=CARTESIAN_POINT('Axis2P3D Location',(6.58637567567,90.,-9.1)) ;
#652=CARTESIAN_POINT('Axis2P3D Location',(-9.39457342534,100.,-11.1)) ;
#657=CARTESIAN_POINT('Line Origine',(-9.39457342534,95.,-11.1)) ;
#661=CARTESIAN_POINT('Vertex',(-9.39457342534,90.,-11.1)) ;
#664=CARTESIAN_POINT('Line Origine',(-1.40409887484,90.,-11.1)) ;
#676=CARTESIAN_POINT('Axis2P3D Location',(-9.39457342534,95.,-9.1)) ;
#681=CARTESIAN_POINT('Line Origine',(-11.0126074141,95.,-10.2755705046)) ;
#685=CARTESIAN_POINT('Vertex',(-11.0126074141,90.,-10.2755705046)) ;
#688=CARTESIAN_POINT('Axis2P3D Location',(-9.39457342534,90.,-9.1)) ;
#700=CARTESIAN_POINT('Axis2P3D Location',(-11.0126074141,100.,-10.2755705046)) ;
#705=CARTESIAN_POINT('Line Origine',(-13.2193021769,95.,-7.238315729)) ;
#709=CARTESIAN_POINT('Vertex',(-13.2193021769,90.,-7.238315729)) ;
#712=CARTESIAN_POINT('Line Origine',(-12.1159547955,90.,-8.75694311679)) ;
#724=CARTESIAN_POINT('Axis2P3D Location',(-12.208030934,95.,-6.50358416364)) ;
#729=CARTESIAN_POINT('Line Origine',(-13.1087910651,95.,-5.63690591533)) ;
#733=CARTESIAN_POINT('Vertex',(-13.1087910651,90.,-5.63690591533)) ;
#736=CARTESIAN_POINT('Axis2P3D Location',(-12.208030934,90.,-6.50358416364)) ;
#748=CARTESIAN_POINT('Axis2P3D Location',(-12.,100.,-4.48451194763)) ;
#753=CARTESIAN_POINT('Line Origine',(-12.,95.,-4.48451194763)) ;
#757=CARTESIAN_POINT('Vertex',(-12.,90.,-4.48451194763)) ;
#760=CARTESIAN_POINT('Line Origine',(-12.5543955326,90.,-5.06070893148)) ;
#772=CARTESIAN_POINT('Axis2P3D Location',(-12.,100.,-4.48451194763)) ;
#777=CARTESIAN_POINT('Line Origine',(-10.6128007881,95.,-4.48451194763)) ;
#781=CARTESIAN_POINT('Vertex',(-10.6128007881,90.,-4.48451194763)) ;
#784=CARTESIAN_POINT('Line Origine',(-11.3064003941,90.,-4.48451194763)) ;
#796=CARTESIAN_POINT('Axis2P3D Location',(-10.6128007881,95.,-5.48451194763)) ;
#801=CARTESIAN_POINT('Line Origine',(-9.72179426395,95.,-5.03052144789)) ;
#805=CARTESIAN_POINT('Vertex',(-9.72179426395,90.,-5.03052144789)) ;
#808=CARTESIAN_POINT('Axis2P3D Location',(-10.6128007881,90.,-5.48451194763)) ;
#820=CARTESIAN_POINT('Axis2P3D Location',(-9.72179426395,100.,-5.03052144789)) ;
#825=CARTESIAN_POINT('Line Origine',(-8.18125983628,95.,-8.05399049974)) ;
#829=CARTESIAN_POINT('Vertex',(-8.18125983628,90.,-8.05399049974)) ;
#832=CARTESIAN_POINT('Line Origine',(-8.95152705011,90.,-6.54225597382)) ;
#844=CARTESIAN_POINT('Axis2P3D Location',(-7.29025331209,95.,-7.6)) ;
#849=CARTESIAN_POINT('Line Origine',(-7.29025331209,95.,-8.6)) ;
#853=CARTESIAN_POINT('Vertex',(-7.29025331209,90.,-8.6)) ;
#856=CARTESIAN_POINT('Axis2P3D Location',(-7.29025331209,90.,-7.6)) ;
#868=CARTESIAN_POINT('Axis2P3D Location',(-0.229090193271,100.,-8.6)) ;
#873=CARTESIAN_POINT('Line Origine',(-0.229090193271,95.,-8.6)) ;
#877=CARTESIAN_POINT('Vertex',(-0.229090193271,90.,-8.6)) ;
#880=CARTESIAN_POINT('Line Origine',(-3.75967175268,90.,-8.6)) ;
#892=CARTESIAN_POINT('Axis2P3D Location',(-0.229090193271,95.,-6.6)) ;
#897=CARTESIAN_POINT('Line Origine',(1.77090980673,95.,-6.6)) ;
#901=CARTESIAN_POINT('Vertex',(1.77090980673,90.,-6.6)) ;
#904=CARTESIAN_POINT('Axis2P3D Location',(-0.229090193271,90.,-6.6)) ;
#916=CARTESIAN_POINT('Axis2P3D Location',(1.77090980673,100.,-1.85)) ;
#921=CARTESIAN_POINT('Line Origine',(1.77090980673,95.,-1.85)) ;
#925=CARTESIAN_POINT('Vertex',(1.77090980673,90.,-1.85)) ;
#928=CARTESIAN_POINT('Line Origine',(1.77090980673,90.,-4.225)) ;
#940=CARTESIAN_POINT('Axis2P3D Location',(1.77090980673,95.,-1.6)) ;
#945=CARTESIAN_POINT('Line Origine',(1.77090980673,95.,-1.35)) ;
#949=CARTESIAN_POINT('Vertex',(1.77090980673,90.,-1.35)) ;
#952=CARTESIAN_POINT('Axis2P3D Location',(1.77090980673,90.,-1.6)) ;
#964=CARTESIAN_POINT('Axis2P3D Location',(1.77090980673,100.,-1.35)) ;
#969=CARTESIAN_POINT('Line Origine',(0.770909806729,95.,-1.35)) ;
#973=CARTESIAN_POINT('Vertex',(0.770909806729,90.,-1.35)) ;
#976=CARTESIAN_POINT('Line Origine',(1.27090980673,90.,-1.35)) ;
#988=CARTESIAN_POINT('Axis2P3D Location',(0.770909806729,95.,-1.6)) ;
#993=CARTESIAN_POINT('Line Origine',(0.770909806729,95.,-1.85)) ;
#997=CARTESIAN_POINT('Vertex',(0.770909806729,90.,-1.85)) ;
#1000=CARTESIAN_POINT('Axis2P3D Location',(0.770909806729,90.,-1.6)) ;
#1012=CARTESIAN_POINT('Axis2P3D Location',(0.770909806729,100.,-6.1)) ;
#1017=CARTESIAN_POINT('Line Origine',(0.770909806729,90.,-3.975)) ;
#1029=CARTESIAN_POINT('Axis2P3D Location',(-9.05669279406,95.,-5.23451194763)) ;
#1034=CARTESIAN_POINT('Line Origine',(-9.05669279406,95.,-4.23451194763)) ;
#1038=CARTESIAN_POINT('Vertex',(-9.05669279406,90.,-4.23451194763)) ;
#1041=CARTESIAN_POINT('Line Origine',(-8.16568626987,95.,-4.78052144789)) ;
#1045=CARTESIAN_POINT('Vertex',(-8.16568626987,90.,-4.78052144789)) ;
#1048=CARTESIAN_POINT('Axis2P3D Location',(-9.05669279406,90.,-5.23451194763)) ;
#1060=CARTESIAN_POINT('Axis2P3D Location',(-48.,100.,-4.23451194763)) ;
#1065=CARTESIAN_POINT('Line Origine',(-12.,95.,-4.23451194763)) ;
#1069=CARTESIAN_POINT('Vertex',(-12.,90.,-4.23451194763)) ;
#1072=CARTESIAN_POINT('Line Origine',(-10.528346397,90.,-4.23451194763)) ;
#1084=CARTESIAN_POINT('Line Origine',(-48.,95.,-4.23451194763)) ;
#1088=CARTESIAN_POINT('Vertex',(-48.,90.,-4.23451194763)) ;
#1091=CARTESIAN_POINT('Line Origine',(-30.,90.,-4.23451194763)) ;
#1103=CARTESIAN_POINT('Axis2P3D Location',(-48.,100.,-4.98451194763)) ;
#1108=CARTESIAN_POINT('Line Origine',(-48.,95.,-4.98451194763)) ;
#1112=CARTESIAN_POINT('Vertex',(-48.,90.,-4.98451194763)) ;
#1115=CARTESIAN_POINT('Line Origine',(-48.,90.,-4.60951194763)) ;
#1127=CARTESIAN_POINT('Axis2P3D Location',(-46.,100.,-5.98451194763)) ;
#1132=CARTESIAN_POINT('Line Origine',(-46.,95.,-5.98451194763)) ;
#1136=CARTESIAN_POINT('Vertex',(-46.,90.,-5.98451194763)) ;
#1139=CARTESIAN_POINT('Line Origine',(-47.,90.,-5.48451194763)) ;
#1151=CARTESIAN_POINT('Axis2P3D Location',(-46.,100.,-10.1)) ;
#1156=CARTESIAN_POINT('Line Origine',(-46.,95.,-10.1)) ;
#1160=CARTESIAN_POINT('Vertex',(-46.,90.,-10.1)) ;
#1163=CARTESIAN_POINT('Line Origine',(-46.,90.,-8.04225597382)) ;
#1175=CARTESIAN_POINT('Axis2P3D Location',(-60.,100.,-10.1)) ;
#1180=CARTESIAN_POINT('Line Origine',(-60.,95.,-10.1)) ;
#1184=CARTESIAN_POINT('Vertex',(-60.,90.,-10.1)) ;
#1187=CARTESIAN_POINT('Line Origine',(-53.,90.,-10.1)) ;
#1203=CARTESIAN_POINT('Axis2P3D Location',(-60.,100.,1.9)) ;
#1208=CARTESIAN_POINT('Line Origine',(-60.,95.,1.9)) ;
#1212=CARTESIAN_POINT('Vertex',(-60.,90.,1.9)) ;
#1215=CARTESIAN_POINT('Line Origine',(-60.,90.,-4.1)) ;
#1227=CARTESIAN_POINT('Axis2P3D Location',(8.58637567567,100.,1.9)) ;
#1232=CARTESIAN_POINT('Line Origine',(-51.,95.,1.9)) ;
#1236=CARTESIAN_POINT('Vertex',(-51.,90.,1.9)) ;
#1239=CARTESIAN_POINT('Line Origine',(-55.5,90.,1.9)) ;
#1255=CARTESIAN_POINT('Axis2P3D Location',(-50.,100.,0.9)) ;
#1260=CARTESIAN_POINT('Line Origine',(-50.,95.,0.9)) ;
#1264=CARTESIAN_POINT('Vertex',(-50.,90.,0.9)) ;
#1267=CARTESIAN_POINT('Line Origine',(-50.5,90.,1.4)) ;
#1279=CARTESIAN_POINT('Axis2P3D Location',(-50.,100.,0.2)) ;
#1284=CARTESIAN_POINT('Line Origine',(-50.,95.,0.2)) ;
#1288=CARTESIAN_POINT('Vertex',(-50.,90.,0.2)) ;
#1291=CARTESIAN_POINT('Line Origine',(-50.,90.,0.55)) ;
#1303=CARTESIAN_POINT('Axis2P3D Location',(-49.5,95.,0.2)) ;
#1308=CARTESIAN_POINT('Line Origine',(-49.5,95.,-0.3)) ;
#1312=CARTESIAN_POINT('Vertex',(-49.5,90.,-0.3)) ;
#1315=CARTESIAN_POINT('Axis2P3D Location',(-49.5,90.,0.2)) ;
#1327=CARTESIAN_POINT('Axis2P3D Location',(-10.4720471382,100.,-0.3)) ;
#1332=CARTESIAN_POINT('Line Origine',(-10.4720471382,95.,-0.3)) ;
#1336=CARTESIAN_POINT('Vertex',(-10.4720471382,90.,-0.3)) ;
#1339=CARTESIAN_POINT('Line Origine',(-29.9860235691,90.,-0.3)) ;
#1351=CARTESIAN_POINT('Axis2P3D Location',(-10.4720471382,95.,0.172047138214)) ;
#1356=CARTESIAN_POINT('Line Origine',(-10.,95.,0.172047138214)) ;
#1360=CARTESIAN_POINT('Vertex',(-10.,90.,0.172047138214)) ;
#1363=CARTESIAN_POINT('Axis2P3D Location',(-10.4720471382,90.,0.172047138214)) ;
#1375=CARTESIAN_POINT('Axis2P3D Location',(-10.,100.,0.9)) ;
#1380=CARTESIAN_POINT('Line Origine',(-10.,90.,0.536023569107)) ;
#1392=CARTESIAN_POINT('Axis2P3D Location',(8.58637567567,100.,1.9)) ;
#1397=CARTESIAN_POINT('Line Origine',(8.58637567567,95.,1.9)) ;
#1401=CARTESIAN_POINT('Vertex',(8.58637567567,90.,1.9)) ;
#1404=CARTESIAN_POINT('Line Origine',(8.58637567567,90.,-3.6)) ;
#1416=CARTESIAN_POINT('Axis2P3D Location',(-8.16568626987,100.,-4.78052144789)) ;
#1421=CARTESIAN_POINT('Line Origine',(-7.5864910996,90.,-5.91725597382)) ;
#1433=CARTESIAN_POINT('Axis2P3D Location',(-5.,95.,1.9)) ;
#1446=CARTESIAN_POINT('Axis2P3D Location',(4.58637567567,93.75,-6.35)) ;
#1451=CARTESIAN_POINT('Line Origine',(3.83637567567,93.75,-6.35)) ;
#1455=CARTESIAN_POINT('Vertex',(3.83637567567,90.,-6.35)) ;
#1457=CARTESIAN_POINT('Vertex',(3.83637567567,97.5,-6.35)) ;
#1460=CARTESIAN_POINT('Axis2P3D Location',(4.58637567567,90.,-6.35)) ;
#1464=CARTESIAN_POINT('Vertex',(4.58637567567,90.,-7.1)) ;
#1467=CARTESIAN_POINT('Line Origine',(4.58637567567,93.75,-7.1)) ;
#1471=CARTESIAN_POINT('Vertex',(4.58637567567,97.5,-7.1)) ;
#1474=CARTESIAN_POINT('Axis2P3D Location',(4.58637567567,97.5,-6.35)) ;
#1486=CARTESIAN_POINT('Axis2P3D Location',(0.,0.,-7.1)) ;
#1491=CARTESIAN_POINT('Line Origine',(5.08637567567,97.5,-7.1)) ;
#1495=CARTESIAN_POINT('Vertex',(5.58637567567,97.5,-7.1)) ;
#1498=CARTESIAN_POINT('Line Origine',(5.08637567567,90.,-7.1)) ;
#1502=CARTESIAN_POINT('Vertex',(5.58637567567,90.,-7.1)) ;
#1505=CARTESIAN_POINT('Line Origine',(5.58637567567,93.75,-7.1)) ;
#1517=CARTESIAN_POINT('Axis2P3D Location',(5.58637567567,93.75,-6.35)) ;
#1522=CARTESIAN_POINT('Line Origine',(6.33637567567,93.75,-6.35)) ;
#1526=CARTESIAN_POINT('Vertex',(6.33637567567,97.5,-6.35)) ;
#1528=CARTESIAN_POINT('Vertex',(6.33637567567,90.,-6.35)) ;
#1531=CARTESIAN_POINT('Axis2P3D Location',(5.58637567567,97.5,-6.35)) ;
#1536=CARTESIAN_POINT('Axis2P3D Location',(5.58637567567,90.,-6.35)) ;
#1548=CARTESIAN_POINT('Axis2P3D Location',(3.83637567567,97.5,1.9)) ;
#1553=CARTESIAN_POINT('Line Origine',(3.83637567567,90.,-2.6)) ;
#1557=CARTESIAN_POINT('Vertex',(3.83637567567,90.,1.15)) ;
#1560=CARTESIAN_POINT('Line Origine',(3.83637567567,97.5,-2.6)) ;
#1564=CARTESIAN_POINT('Vertex',(3.83637567567,97.5,1.15)) ;
#1567=CARTESIAN_POINT('Line Origine',(3.83637567567,93.75,1.15)) ;
#1579=CARTESIAN_POINT('Axis2P3D Location',(3.08637567567,95.,1.15)) ;
#1584=CARTESIAN_POINT('Axis2P3D Location',(3.08637567567,90.,1.15)) ;
#1588=CARTESIAN_POINT('Vertex',(3.08637567567,90.,1.9)) ;
#1591=CARTESIAN_POINT('Axis2P3D Location',(3.08637567567,97.5,1.15)) ;
#1595=CARTESIAN_POINT('Vertex',(3.08637567567,97.5,1.9)) ;
#1598=CARTESIAN_POINT('Line Origine',(3.08637567567,95.,1.9)) ;
#1610=CARTESIAN_POINT('Axis2P3D Location',(3.83637567567,97.5,1.9)) ;
#1615=CARTESIAN_POINT('Line Origine',(5.08637567567,97.5,1.9)) ;
#1619=CARTESIAN_POINT('Vertex',(7.08637567567,97.5,1.9)) ;
#1622=CARTESIAN_POINT('Line Origine',(6.33637567567,97.5,-2.6)) ;
#1626=CARTESIAN_POINT('Vertex',(6.33637567567,97.5,1.15)) ;
#1629=CARTESIAN_POINT('Axis2P3D Location',(7.08637567567,97.5,1.15)) ;
#1645=CARTESIAN_POINT('Axis2P3D Location',(6.33637567567,90.,1.9)) ;
#1650=CARTESIAN_POINT('Line Origine',(6.33637567567,90.,-2.6)) ;
#1654=CARTESIAN_POINT('Vertex',(6.33637567567,90.,1.15)) ;
#1657=CARTESIAN_POINT('Line Origine',(6.33637567567,93.75,1.15)) ;
#1669=CARTESIAN_POINT('Line Origine',(7.83637567567,90.,1.9)) ;
#1673=CARTESIAN_POINT('Vertex',(7.08637567567,90.,1.9)) ;
#1676=CARTESIAN_POINT('Line Origine',(-3.10562779403,90.,1.9)) ;
#1681=CARTESIAN_POINT('Line Origine',(7.08637567567,93.75,1.9)) ;
#1701=CARTESIAN_POINT('Axis2P3D Location',(0.,90.,0.)) ;
#1706=CARTESIAN_POINT('Axis2P3D Location',(7.08637567567,90.,1.15)) ;
#1761=CARTESIAN_POINT('Axis2P3D Location',(7.08637567567,95.,1.15)) ;
#53=DIRECTION('Axis2P3D Direction',(0.,-0.,-1.)) ;
#54=DIRECTION('Axis2P3D XDirection',(0.87758256189,-0.479425538604,0.)) ;
#58=DIRECTION('Vector Direction',(0.,0.,-1.)) ;
#67=DIRECTION('Axis2P3D Direction',(0.,-0.,-1.)) ;
#74=DIRECTION('Vector Direction',(0.,0.,-1.)) ;
#90=DIRECTION('Axis2P3D Direction',(0.,-0.,-1.)) ;
#103=DIRECTION('Axis2P3D Direction',(0.,0.,-1.)) ;
#104=DIRECTION('Axis2P3D XDirection',(1.,0.,0.)) ;
#108=DIRECTION('Vector Direction',(0.,-1.,0.)) ;
#115=DIRECTION('Vector Direction',(1.,0.,0.)) ;
#122=DIRECTION('Vector Direction',(0.,-1.,0.)) ;
#129=DIRECTION('Vector Direction',(1.,0.,0.)) ;
#136=DIRECTION('Vector Direction',(0.,-1.,0.)) ;
#143=DIRECTION('Axis2P3D Direction',(0.,0.,-1.)) ;
#158=DIRECTION('Axis2P3D Direction',(0.,-1.,0.)) ;
#159=DIRECTION('Axis2P3D XDirection',(-0.891006524188,-0.,-0.45399049974)) ;
#163=DIRECTION('Axis2P3D Direction',(0.,-1.,0.)) ;
#170=DIRECTION('Vector Direction',(0.,-1.,0.)) ;
#177=DIRECTION('Axis2P3D Direction',(0.,-1.,0.)) ;
#206=DIRECTION('Axis2P3D Direction',(0.,-1.,0.)) ;
#207=DIRECTION('Axis2P3D XDirection',(1.,0.,0.)) ;
#211=DIRECTION('Vector Direction',(0.,0.,-1.)) ;
#220=DIRECTION('Axis2P3D Direction',(0.,-1.,0.)) ;
#227=DIRECTION('Vector Direction',(1.,0.,0.)) ;
#234=DIRECTION('Axis2P3D Direction',(0.,-1.,0.)) ;
#241=DIRECTION('Vector Direction',(-0.587785252292,0.,0.809016994375)) ;
#248=DIRECTION('Axis2P3D Direction',(0.,-1.,0.)) ;
#255=DIRECTION('Vector Direction',(-0.693342598645,0.,-0.720608104939)) ;
#262=DIRECTION('Vector Direction',(1.,0.,0.)) ;
#269=DIRECTION('Axis2P3D Direction',(0.,-1.,0.)) ;
#276=DIRECTION('Vector Direction',(0.45399049974,0.,-0.891006524188)) ;
#283=DIRECTION('Axis2P3D Direction',(0.,-1.,0.)) ;
#290=DIRECTION('Vector Direction',(-1.,0.,0.)) ;
#297=DIRECTION('Axis2P3D Direction',(0.,-1.,0.)) ;
#304=DIRECTION('Vector Direction',(0.,0.,-1.)) ;
#311=DIRECTION('Axis2P3D Direction',(0.,-1.,0.)) ;
#318=DIRECTION('Vector Direction',(-1.,0.,-8.881784197E-016)) ;
#325=DIRECTION('Axis2P3D Direction',(0.,-1.,0.)) ;
#332=DIRECTION('Vector Direction',(0.,0.,1.)) ;
#339=DIRECTION('Axis2P3D Direction',(0.,-1.,0.)) ;
#344=DIRECTION('Vector Direction',(0.45399049974,0.,-0.891006524188)) ;
#351=DIRECTION('Axis2P3D Direction',(0.,-1.,0.)) ;
#358=DIRECTION('Vector Direction',(1.,0.,0.)) ;
#365=DIRECTION('Vector Direction',(1.,0.,0.)) ;
#372=DIRECTION('Vector Direction',(0.,0.,1.)) ;
#379=DIRECTION('Vector Direction',(-0.894427191,0.,0.4472135955)) ;
#386=DIRECTION('Vector Direction',(0.,0.,1.)) ;
#393=DIRECTION('Vector Direction',(1.,0.,0.)) ;
#400=DIRECTION('Vector Direction',(0.,0.,-1.)) ;
#407=DIRECTION('Vector Direction',(-1.,0.,-7.89491928622E-016)) ;
#414=DIRECTION('Vector Direction',(-0.707106781187,0.,0.707106781187)) ;
#421=DIRECTION('Vector Direction',(0.,0.,1.)) ;
#428=DIRECTION('Axis2P3D Direction',(0.,-1.,0.)) ;
#435=DIRECTION('Vector Direction',(-1.,0.,-1.42234340161E-017)) ;
#442=DIRECTION('Axis2P3D Direction',(0.,-1.,0.)) ;
#449=DIRECTION('Vector Direction',(0.,0.,-1.)) ;
#456=DIRECTION('Vector Direction',(-0.574762550724,0.,-0.818320237001)) ;
#463=DIRECTION('Vector Direction',(-1.,0.,0.)) ;
#510=DIRECTION('Axis2P3D Direction',(0.,-1.,0.)) ;
#511=DIRECTION('Axis2P3D XDirection',(-1.83697019872E-016,-0.,-1.)) ;
#515=DIRECTION('Vector Direction',(0.,-1.,0.)) ;
#522=DIRECTION('Axis2P3D Direction',(0.,-1.,0.)) ;
#534=DIRECTION('Axis2P3D Direction',(-0.818320237001,0.,0.574762550724)) ;
#535=DIRECTION('Axis2P3D XDirection',(-0.574762550724,0.,-0.818320237001)) ;
#539=DIRECTION('Vector Direction',(0.,-1.,0.)) ;
#546=DIRECTION('Vector Direction',(0.,-1.,0.)) ;
#553=DIRECTION('Vector Direction',(-0.574762550724,0.,-0.818320237001)) ;
#565=DIRECTION('Axis2P3D Direction',(0.,-0.,-1.)) ;
#566=DIRECTION('Axis2P3D XDirection',(0.87758256189,-0.479425538604,0.)) ;
#570=DIRECTION('Vector Direction',(0.,0.,-1.)) ;
#579=DIRECTION('Axis2P3D Direction',(0.,-0.,-1.)) ;
#586=DIRECTION('Vector Direction',(0.,0.,-1.)) ;
#593=DIRECTION('Axis2P3D Direction',(0.,-0.,-1.)) ;
#605=DIRECTION('Axis2P3D Direction',(0.,-0.,-1.)) ;
#610=DIRECTION('Axis2P3D Direction',(0.,-0.,-1.)) ;
#622=DIRECTION('Axis2P3D Direction',(0.,-1.,0.)) ;
#623=DIRECTION('Axis2P3D XDirection',(7.04481399828E-016,0.,-1.)) ;
#627=DIRECTION('Vector Direction',(0.,-1.,0.)) ;
#634=DIRECTION('Vector Direction',(0.,-1.,0.)) ;
#641=DIRECTION('Axis2P3D Direction',(0.,-1.,0.)) ;
#653=DIRECTION('Axis2P3D Direction',(0.,0.,-1.)) ;
#654=DIRECTION('Axis2P3D XDirection',(1.,0.,0.)) ;
#658=DIRECTION('Vector Direction',(0.,-1.,0.)) ;
#665=DIRECTION('Vector Direction',(1.,0.,0.)) ;
#677=DIRECTION('Axis2P3D Direction',(0.,-1.,0.)) ;
#678=DIRECTION('Axis2P3D XDirection',(-0.809016994375,-0.,-0.587785252292)) ;
#682=DIRECTION('Vector Direction',(0.,-1.,0.)) ;
#689=DIRECTION('Axis2P3D Direction',(0.,-1.,0.)) ;
#701=DIRECTION('Axis2P3D Direction',(0.809016994375,0.,0.587785252292)) ;
#702=DIRECTION('Axis2P3D XDirection',(-0.587785252292,0.,0.809016994375)) ;
#706=DIRECTION('Vector Direction',(0.,-1.,0.)) ;
#713=DIRECTION('Vector Direction',(-0.587785252292,0.,0.809016994375)) ;
#725=DIRECTION('Axis2P3D Direction',(0.,-1.,0.)) ;
#726=DIRECTION('Axis2P3D XDirection',(-0.720608104939,0.,0.693342598645)) ;
#730=DIRECTION('Vector Direction',(0.,-1.,0.)) ;
#737=DIRECTION('Axis2P3D Direction',(0.,-1.,0.)) ;
#749=DIRECTION('Axis2P3D Direction',(-0.720608104939,0.,0.693342598645)) ;
#750=DIRECTION('Axis2P3D XDirection',(-0.693342598645,0.,-0.720608104939)) ;
#754=DIRECTION('Vector Direction',(0.,-1.,0.)) ;
#761=DIRECTION('Vector Direction',(-0.693342598645,0.,-0.720608104939)) ;
#773=DIRECTION('Axis2P3D Direction',(0.,0.,-1.)) ;
#774=DIRECTION('Axis2P3D XDirection',(1.,0.,0.)) ;
#778=DIRECTION('Vector Direction',(0.,-1.,0.)) ;
#785=DIRECTION('Vector Direction',(1.,0.,0.)) ;
#797=DIRECTION('Axis2P3D Direction',(0.,-1.,0.)) ;
#798=DIRECTION('Axis2P3D XDirection',(0.891006524188,0.,0.45399049974)) ;
#802=DIRECTION('Vector Direction',(0.,-1.,0.)) ;
#809=DIRECTION('Axis2P3D Direction',(0.,-1.,0.)) ;
#821=DIRECTION('Axis2P3D Direction',(-0.891006524188,-0.,-0.45399049974)) ;
#822=DIRECTION('Axis2P3D XDirection',(0.45399049974,0.,-0.891006524188)) ;
#826=DIRECTION('Vector Direction',(0.,-1.,0.)) ;
#833=DIRECTION('Vector Direction',(0.45399049974,0.,-0.891006524188)) ;
#845=DIRECTION('Axis2P3D Direction',(0.,-1.,0.)) ;
#846=DIRECTION('Axis2P3D XDirection',(-0.891006524188,-0.,-0.45399049974)) ;
#850=DIRECTION('Vector Direction',(0.,-1.,0.)) ;
#857=DIRECTION('Axis2P3D Direction',(0.,-1.,0.)) ;
#869=DIRECTION('Axis2P3D Direction',(0.,0.,1.)) ;
#870=DIRECTION('Axis2P3D XDirection',(-1.,0.,0.)) ;
#874=DIRECTION('Vector Direction',(0.,-1.,0.)) ;
#881=DIRECTION('Vector Direction',(-1.,0.,0.)) ;
#893=DIRECTION('Axis2P3D Direction',(0.,-1.,0.)) ;
#894=DIRECTION('Axis2P3D XDirection',(-1.83697019872E-016,-0.,-1.)) ;
#898=DIRECTION('Vector Direction',(0.,-1.,0.)) ;
#905=DIRECTION('Axis2P3D Direction',(0.,-1.,0.)) ;
#917=DIRECTION('Axis2P3D Direction',(-1.,-0.,-4.67462326158E-017)) ;
#918=DIRECTION('Axis2P3D XDirection',(4.67462326158E-017,0.,-1.)) ;
#922=DIRECTION('Vector Direction',(0.,-1.,0.)) ;
#929=DIRECTION('Vector Direction',(4.67462326158E-017,0.,-1.)) ;
#941=DIRECTION('Axis2P3D Direction',(0.,-1.,0.)) ;
#942=DIRECTION('Axis2P3D XDirection',(7.04481399828E-016,0.,-1.)) ;
#946=DIRECTION('Vector Direction',(0.,-1.,0.)) ;
#953=DIRECTION('Axis2P3D Direction',(0.,-1.,0.)) ;
#965=DIRECTION('Axis2P3D Direction',(-8.881784197E-016,0.,1.)) ;
#966=DIRECTION('Axis2P3D XDirection',(-1.,0.,-8.881784197E-016)) ;
#970=DIRECTION('Vector Direction',(0.,-1.,0.)) ;
#977=DIRECTION('Vector Direction',(-1.,0.,-8.881784197E-016)) ;
#989=DIRECTION('Axis2P3D Direction',(0.,-1.,0.)) ;
#990=DIRECTION('Axis2P3D XDirection',(9.49410759657E-016,0.,1.)) ;
#994=DIRECTION('Vector Direction',(0.,-1.,0.)) ;
#1001=DIRECTION('Axis2P3D Direction',(0.,-1.,0.)) ;
#1013=DIRECTION('Axis2P3D Direction',(1.,0.,-0.)) ;
#1014=DIRECTION('Axis2P3D XDirection',(0.,0.,1.)) ;
#1018=DIRECTION('Vector Direction',(0.,0.,1.)) ;
#1030=DIRECTION('Axis2P3D Direction',(0.,-1.,0.)) ;
#1031=DIRECTION('Axis2P3D XDirection',(0.891006524188,0.,0.45399049974)) ;
#1035=DIRECTION('Vector Direction',(0.,-1.,0.)) ;
#1042=DIRECTION('Vector Direction',(0.,-1.,0.)) ;
#1049=DIRECTION('Axis2P3D Direction',(0.,-1.,0.)) ;
#1061=DIRECTION('Axis2P3D Direction',(0.,0.,-1.)) ;
#1062=DIRECTION('Axis2P3D XDirection',(1.,0.,0.)) ;
#1066=DIRECTION('Vector Direction',(0.,-1.,0.)) ;
#1073=DIRECTION('Vector Direction',(1.,0.,0.)) ;
#1085=DIRECTION('Vector Direction',(0.,-1.,0.)) ;
#1092=DIRECTION('Vector Direction',(1.,0.,0.)) ;
#1104=DIRECTION('Axis2P3D Direction',(1.,0.,-0.)) ;
#1105=DIRECTION('Axis2P3D XDirection',(0.,0.,1.)) ;
#1109=DIRECTION('Vector Direction',(0.,-1.,0.)) ;
#1116=DIRECTION('Vector Direction',(0.,0.,1.)) ;
#1128=DIRECTION('Axis2P3D Direction',(0.4472135955,0.,0.894427191)) ;
#1129=DIRECTION('Axis2P3D XDirection',(-0.894427191,0.,0.4472135955)) ;
#1133=DIRECTION('Vector Direction',(0.,-1.,0.)) ;
#1140=DIRECTION('Vector Direction',(-0.894427191,0.,0.4472135955)) ;
#1152=DIRECTION('Axis2P3D Direction',(1.,0.,-0.)) ;
#1153=DIRECTION('Axis2P3D XDirection',(0.,0.,1.)) ;
#1157=DIRECTION('Vector Direction',(0.,-1.,0.)) ;
#1164=DIRECTION('Vector Direction',(0.,0.,1.)) ;
#1176=DIRECTION('Axis2P3D Direction',(0.,0.,-1.)) ;
#1177=DIRECTION('Axis2P3D XDirection',(1.,0.,0.)) ;
#1181=DIRECTION('Vector Direction',(0.,-1.,0.)) ;
#1188=DIRECTION('Vector Direction',(1.,0.,0.)) ;
#1204=DIRECTION('Axis2P3D Direction',(-1.,-0.,-0.)) ;
#1205=DIRECTION('Axis2P3D XDirection',(0.,0.,-1.)) ;
#1209=DIRECTION('Vector Direction',(0.,-1.,0.)) ;
#1216=DIRECTION('Vector Direction',(0.,0.,-1.)) ;
#1228=DIRECTION('Axis2P3D Direction',(0.,0.,1.)) ;
#1229=DIRECTION('Axis2P3D XDirection',(-1.,0.,0.)) ;
#1233=DIRECTION('Vector Direction',(0.,-1.,0.)) ;
#1240=DIRECTION('Vector Direction',(-1.,0.,0.)) ;
#1256=DIRECTION('Axis2P3D Direction',(0.707106781187,0.,0.707106781187)) ;
#1257=DIRECTION('Axis2P3D XDirection',(-0.707106781187,0.,0.707106781187)) ;
#1261=DIRECTION('Vector Direction',(0.,-1.,0.)) ;
#1268=DIRECTION('Vector Direction',(-0.707106781187,0.,0.707106781187)) ;
#1280=DIRECTION('Axis2P3D Direction',(1.,0.,-0.)) ;
#1281=DIRECTION('Axis2P3D XDirection',(0.,0.,1.)) ;
#1285=DIRECTION('Vector Direction',(0.,-1.,0.)) ;
#1292=DIRECTION('Vector Direction',(0.,0.,1.)) ;
#1304=DIRECTION('Axis2P3D Direction',(0.,-1.,0.)) ;
#1305=DIRECTION('Axis2P3D XDirection',(-1.,-0.,-3.09637800096E-014)) ;
#1309=DIRECTION('Vector Direction',(0.,-1.,0.)) ;
#1316=DIRECTION('Axis2P3D Direction',(0.,-1.,0.)) ;
#1328=DIRECTION('Axis2P3D Direction',(-1.42234340161E-017,0.,1.)) ;
#1329=DIRECTION('Axis2P3D XDirection',(-1.,0.,-1.42234340161E-017)) ;
#1333=DIRECTION('Vector Direction',(0.,-1.,0.)) ;
#1340=DIRECTION('Vector Direction',(-1.,0.,-1.42234340161E-017)) ;
#1352=DIRECTION('Axis2P3D Direction',(0.,-1.,0.)) ;
#1353=DIRECTION('Axis2P3D XDirection',(1.4915336115E-014,0.,-1.)) ;
#1357=DIRECTION('Vector Direction',(0.,-1.,0.)) ;
#1364=DIRECTION('Axis2P3D Direction',(0.,-1.,0.)) ;
#1376=DIRECTION('Axis2P3D Direction',(-1.,-0.,-0.)) ;
#1377=DIRECTION('Axis2P3D XDirection',(0.,0.,-1.)) ;
#1381=DIRECTION('Vector Direction',(0.,0.,-1.)) ;
#1393=DIRECTION('Axis2P3D Direction',(-1.,-0.,-0.)) ;
#1394=DIRECTION('Axis2P3D XDirection',(0.,0.,-1.)) ;
#1398=DIRECTION('Vector Direction',(0.,-1.,0.)) ;
#1405=DIRECTION('Vector Direction',(0.,0.,-1.)) ;
#1417=DIRECTION('Axis2P3D Direction',(-0.891006524188,-0.,-0.45399049974)) ;
#1418=DIRECTION('Axis2P3D XDirection',(0.45399049974,0.,-0.891006524188)) ;
#1422=DIRECTION('Vector Direction',(0.45399049974,0.,-0.891006524188)) ;
#1434=DIRECTION('Axis2P3D Direction',(0.,-0.,-1.)) ;
#1447=DIRECTION('Axis2P3D Direction',(0.,1.,0.)) ;
#1448=DIRECTION('Axis2P3D XDirection',(1.83697019872E-016,0.,-1.)) ;
#1452=DIRECTION('Vector Direction',(0.,1.,0.)) ;
#1461=DIRECTION('Axis2P3D Direction',(0.,1.,0.)) ;
#1468=DIRECTION('Vector Direction',(0.,1.,0.)) ;
#1475=DIRECTION('Axis2P3D Direction',(0.,1.,0.)) ;
#1487=DIRECTION('Axis2P3D Direction',(0.,0.,1.)) ;
#1488=DIRECTION('Axis2P3D XDirection',(1.,0.,0.)) ;
#1492=DIRECTION('Vector Direction',(1.,0.,0.)) ;
#1499=DIRECTION('Vector Direction',(-1.,0.,0.)) ;
#1506=DIRECTION('Vector Direction',(0.,1.,0.)) ;
#1518=DIRECTION('Axis2P3D Direction',(-0.,1.,0.)) ;
#1519=DIRECTION('Axis2P3D XDirection',(1.,0.,0.)) ;
#1523=DIRECTION('Vector Direction',(0.,1.,0.)) ;
#1532=DIRECTION('Axis2P3D Direction',(-0.,1.,0.)) ;
#1537=DIRECTION('Axis2P3D Direction',(-0.,1.,0.)) ;
#1549=DIRECTION('Axis2P3D Direction',(1.,0.,0.)) ;
#1550=DIRECTION('Axis2P3D XDirection',(0.,-1.,0.)) ;
#1554=DIRECTION('Vector Direction',(0.,0.,-1.)) ;
#1561=DIRECTION('Vector Direction',(0.,0.,-1.)) ;
#1568=DIRECTION('Vector Direction',(0.,-1.,0.)) ;
#1580=DIRECTION('Axis2P3D Direction',(0.,-1.,0.)) ;
#1581=DIRECTION('Axis2P3D XDirection',(1.,-0.,-1.83697019872E-016)) ;
#1585=DIRECTION('Axis2P3D Direction',(0.,-1.,0.)) ;
#1592=DIRECTION('Axis2P3D Direction',(0.,-1.,0.)) ;
#1599=DIRECTION('Vector Direction',(0.,-1.,0.)) ;
#1611=DIRECTION('Axis2P3D Direction',(-0.,1.,0.)) ;
#1612=DIRECTION('Axis2P3D XDirection',(1.,0.,0.)) ;
#1616=DIRECTION('Vector Direction',(-1.,0.,0.)) ;
#1623=DIRECTION('Vector Direction',(0.,0.,-1.)) ;
#1630=DIRECTION('Axis2P3D Direction',(-0.,1.,0.)) ;
#1646=DIRECTION('Axis2P3D Direction',(-1.,0.,0.)) ;
#1647=DIRECTION('Axis2P3D XDirection',(0.,1.,0.)) ;
#1651=DIRECTION('Vector Direction',(0.,0.,-1.)) ;
#1658=DIRECTION('Vector Direction',(0.,1.,0.)) ;
#1670=DIRECTION('Vector Direction',(-1.,0.,0.)) ;
#1677=DIRECTION('Vector Direction',(-1.,0.,0.)) ;
#1682=DIRECTION('Vector Direction',(0.,1.,0.)) ;
#1702=DIRECTION('Axis2P3D Direction',(0.,-1.,0.)) ;
#1703=DIRECTION('Axis2P3D XDirection',(1.,0.,0.)) ;
#1707=DIRECTION('Axis2P3D Direction',(0.,-1.,0.)) ;
#1762=DIRECTION('Axis2P3D Direction',(0.,1.,0.)) ;
#1763=DIRECTION('Axis2P3D XDirection',(-1.,-0.,-1.83697019872E-016)) ;
#48=AXIS2_PLACEMENT_3D(' ',#47,$,$) ;
#55=AXIS2_PLACEMENT_3D('Cylinder Axis2P3D',#52,#53,#54) ;
#68=AXIS2_PLACEMENT_3D('Circle Axis2P3D',#66,#67,$) ;
#91=AXIS2_PLACEMENT_3D('Circle Axis2P3D',#89,#90,$) ;
#105=AXIS2_PLACEMENT_3D('Plane Axis2P3D',#102,#103,#104) ;
#144=AXIS2_PLACEMENT_3D('Circle Axis2P3D',#142,#143,$) ;
#160=AXIS2_PLACEMENT_3D('Cylinder Axis2P3D',#157,#158,#159) ;
#164=AXIS2_PLACEMENT_3D('Circle Axis2P3D',#162,#163,$) ;
#178=AXIS2_PLACEMENT_3D('Circle Axis2P3D',#176,#177,$) ;
#208=AXIS2_PLACEMENT_3D('Plane Axis2P3D',#205,#206,#207) ;
#221=AXIS2_PLACEMENT_3D('Circle Axis2P3D',#219,#220,$) ;
#235=AXIS2_PLACEMENT_3D('Circle Axis2P3D',#233,#234,$) ;
#249=AXIS2_PLACEMENT_3D('Circle Axis2P3D',#247,#248,$) ;
#270=AXIS2_PLACEMENT_3D('Circle Axis2P3D',#268,#269,$) ;
#284=AXIS2_PLACEMENT_3D('Circle Axis2P3D',#282,#283,$) ;
#298=AXIS2_PLACEMENT_3D('Circle Axis2P3D',#296,#297,$) ;
#312=AXIS2_PLACEMENT_3D('Circle Axis2P3D',#310,#311,$) ;
#326=AXIS2_PLACEMENT_3D('Circle Axis2P3D',#324,#325,$) ;
#340=AXIS2_PLACEMENT_3D('Circle Axis2P3D',#338,#339,$) ;
#352=AXIS2_PLACEMENT_3D('Circle Axis2P3D',#350,#351,$) ;
#429=AXIS2_PLACEMENT_3D('Circle Axis2P3D',#427,#428,$) ;
#443=AXIS2_PLACEMENT_3D('Circle Axis2P3D',#441,#442,$) ;
#512=AXIS2_PLACEMENT_3D('Cylinder Axis2P3D',#509,#510,#511) ;
#523=AXIS2_PLACEMENT_3D('Circle Axis2P3D',#521,#522,$) ;
#536=AXIS2_PLACEMENT_3D('Plane Axis2P3D',#533,#534,#535) ;
#567=AXIS2_PLACEMENT_3D('Cylinder Axis2P3D',#564,#565,#566) ;
#580=AXIS2_PLACEMENT_3D('Circle Axis2P3D',#578,#579,$) ;
#594=AXIS2_PLACEMENT_3D('Circle Axis2P3D',#592,#593,$) ;
#606=AXIS2_PLACEMENT_3D('Circle Axis2P3D',#604,#605,$) ;
#611=AXIS2_PLACEMENT_3D('Circle Axis2P3D',#609,#610,$) ;
#624=AXIS2_PLACEMENT_3D('Cylinder Axis2P3D',#621,#622,#623) ;
#642=AXIS2_PLACEMENT_3D('Circle Axis2P3D',#640,#641,$) ;
#655=AXIS2_PLACEMENT_3D('Plane Axis2P3D',#652,#653,#654) ;
#679=AXIS2_PLACEMENT_3D('Cylinder Axis2P3D',#676,#677,#678) ;
#690=AXIS2_PLACEMENT_3D('Circle Axis2P3D',#688,#689,$) ;
#703=AXIS2_PLACEMENT_3D('Plane Axis2P3D',#700,#701,#702) ;
#727=AXIS2_PLACEMENT_3D('Cylinder Axis2P3D',#724,#725,#726) ;
#738=AXIS2_PLACEMENT_3D('Circle Axis2P3D',#736,#737,$) ;
#751=AXIS2_PLACEMENT_3D('Plane Axis2P3D',#748,#749,#750) ;
#775=AXIS2_PLACEMENT_3D('Plane Axis2P3D',#772,#773,#774) ;
#799=AXIS2_PLACEMENT_3D('Cylinder Axis2P3D',#796,#797,#798) ;
#810=AXIS2_PLACEMENT_3D('Circle Axis2P3D',#808,#809,$) ;
#823=AXIS2_PLACEMENT_3D('Plane Axis2P3D',#820,#821,#822) ;
#847=AXIS2_PLACEMENT_3D('Cylinder Axis2P3D',#844,#845,#846) ;
#858=AXIS2_PLACEMENT_3D('Circle Axis2P3D',#856,#857,$) ;
#871=AXIS2_PLACEMENT_3D('Plane Axis2P3D',#868,#869,#870) ;
#895=AXIS2_PLACEMENT_3D('Cylinder Axis2P3D',#892,#893,#894) ;
#906=AXIS2_PLACEMENT_3D('Circle Axis2P3D',#904,#905,$) ;
#919=AXIS2_PLACEMENT_3D('Plane Axis2P3D',#916,#917,#918) ;
#943=AXIS2_PLACEMENT_3D('Cylinder Axis2P3D',#940,#941,#942) ;
#954=AXIS2_PLACEMENT_3D('Circle Axis2P3D',#952,#953,$) ;
#967=AXIS2_PLACEMENT_3D('Plane Axis2P3D',#964,#965,#966) ;
#991=AXIS2_PLACEMENT_3D('Cylinder Axis2P3D',#988,#989,#990) ;
#1002=AXIS2_PLACEMENT_3D('Circle Axis2P3D',#1000,#1001,$) ;
#1015=AXIS2_PLACEMENT_3D('Plane Axis2P3D',#1012,#1013,#1014) ;
#1032=AXIS2_PLACEMENT_3D('Cylinder Axis2P3D',#1029,#1030,#1031) ;
#1050=AXIS2_PLACEMENT_3D('Circle Axis2P3D',#1048,#1049,$) ;
#1063=AXIS2_PLACEMENT_3D('Plane Axis2P3D',#1060,#1061,#1062) ;
#1106=AXIS2_PLACEMENT_3D('Plane Axis2P3D',#1103,#1104,#1105) ;
#1130=AXIS2_PLACEMENT_3D('Plane Axis2P3D',#1127,#1128,#1129) ;
#1154=AXIS2_PLACEMENT_3D('Plane Axis2P3D',#1151,#1152,#1153) ;
#1178=AXIS2_PLACEMENT_3D('Plane Axis2P3D',#1175,#1176,#1177) ;
#1206=AXIS2_PLACEMENT_3D('Plane Axis2P3D',#1203,#1204,#1205) ;
#1230=AXIS2_PLACEMENT_3D('Plane Axis2P3D',#1227,#1228,#1229) ;
#1258=AXIS2_PLACEMENT_3D('Plane Axis2P3D',#1255,#1256,#1257) ;
#1282=AXIS2_PLACEMENT_3D('Plane Axis2P3D',#1279,#1280,#1281) ;
#1306=AXIS2_PLACEMENT_3D('Cylinder Axis2P3D',#1303,#1304,#1305) ;
#1317=AXIS2_PLACEMENT_3D('Circle Axis2P3D',#1315,#1316,$) ;
#1330=AXIS2_PLACEMENT_3D('Plane Axis2P3D',#1327,#1328,#1329) ;
#1354=AXIS2_PLACEMENT_3D('Cylinder Axis2P3D',#1351,#1352,#1353) ;
#1365=AXIS2_PLACEMENT_3D('Circle Axis2P3D',#1363,#1364,$) ;
#1378=AXIS2_PLACEMENT_3D('Plane Axis2P3D',#1375,#1376,#1377) ;
#1395=AXIS2_PLACEMENT_3D('Plane Axis2P3D',#1392,#1393,#1394) ;
#1419=AXIS2_PLACEMENT_3D('Plane Axis2P3D',#1416,#1417,#1418) ;
#1435=AXIS2_PLACEMENT_3D('Circle Axis2P3D',#1433,#1434,$) ;
#1449=AXIS2_PLACEMENT_3D('Cylinder Axis2P3D',#1446,#1447,#1448) ;
#1462=AXIS2_PLACEMENT_3D('Circle Axis2P3D',#1460,#1461,$) ;
#1476=AXIS2_PLACEMENT_3D('Circle Axis2P3D',#1474,#1475,$) ;
#1489=AXIS2_PLACEMENT_3D('Plane Axis2P3D',#1486,#1487,#1488) ;
#1520=AXIS2_PLACEMENT_3D('Cylinder Axis2P3D',#1517,#1518,#1519) ;
#1533=AXIS2_PLACEMENT_3D('Circle Axis2P3D',#1531,#1532,$) ;
#1538=AXIS2_PLACEMENT_3D('Circle Axis2P3D',#1536,#1537,$) ;
#1551=AXIS2_PLACEMENT_3D('Plane Axis2P3D',#1548,#1549,#1550) ;
#1582=AXIS2_PLACEMENT_3D('Cylinder Axis2P3D',#1579,#1580,#1581) ;
#1586=AXIS2_PLACEMENT_3D('Circle Axis2P3D',#1584,#1585,$) ;
#1593=AXIS2_PLACEMENT_3D('Circle Axis2P3D',#1591,#1592,$) ;
#1613=AXIS2_PLACEMENT_3D('Plane Axis2P3D',#1610,#1611,#1612) ;
#1631=AXIS2_PLACEMENT_3D('Circle Axis2P3D',#1629,#1630,$) ;
#1648=AXIS2_PLACEMENT_3D('Plane Axis2P3D',#1645,#1646,#1647) ;
#1704=AXIS2_PLACEMENT_3D('Plane Axis2P3D',#1701,#1702,#1703) ;
#1708=AXIS2_PLACEMENT_3D('Circle Axis2P3D',#1706,#1707,$) ;
#1764=AXIS2_PLACEMENT_3D('Cylinder Axis2P3D',#1761,#1762,#1763) ;
#40=PRODUCT_DEFINITION_SHAPE(' ',' ',#14) ;
#31=APPROVAL_PERSON_ORGANIZATION(#25,#21,#19) ;
#25=PERSON_AND_ORGANIZATION(#22,#23) ;
#22=PERSON(' ',' ',' ',$,$,$) ;
#23=ORGANIZATION(' ',' ',' ') ;
#21=APPROVAL(#20,' ') ;
#20=APPROVAL_STATUS('not_yet_approved') ;
#19=APPROVAL_ROLE('APPROVER') ;
#13=DATE_AND_TIME(#11,#12) ;
#12=LOCAL_TIME(7,57,9.,#10) ;
#10=COORDINATED_UNIVERSAL_TIME_OFFSET(0,0,.AHEAD.) ;
#95=ORIENTED_EDGE('',*,*,#65,.T.) ;
#96=ORIENTED_EDGE('',*,*,#72,.T.) ;
#97=ORIENTED_EDGE('',*,*,#79,.F.) ;
#98=ORIENTED_EDGE('',*,*,#88,.T.) ;
#99=ORIENTED_EDGE('',*,*,#93,.T.) ;
#148=ORIENTED_EDGE('',*,*,#113,.F.) ;
#149=ORIENTED_EDGE('',*,*,#120,.T.) ;
#150=ORIENTED_EDGE('',*,*,#127,.T.) ;
#151=ORIENTED_EDGE('',*,*,#134,.F.) ;
#152=ORIENTED_EDGE('',*,*,#141,.F.) ;
#153=ORIENTED_EDGE('',*,*,#146,.F.) ;
#154=ORIENTED_EDGE('',*,*,#93,.F.) ;
#196=ORIENTED_EDGE('',*,*,#141,.T.) ;
#197=ORIENTED_EDGE('',*,*,#168,.F.) ;
#198=ORIENTED_EDGE('',*,*,#175,.F.) ;
#199=ORIENTED_EDGE('',*,*,#180,.T.) ;
#200=ORIENTED_EDGE('',*,*,#113,.T.) ;
#201=ORIENTED_EDGE('',*,*,#88,.F.) ;
#202=ORIENTED_EDGE('',*,*,#194,.T.) ;
#468=ORIENTED_EDGE('',*,*,#218,.F.) ;
#469=ORIENTED_EDGE('',*,*,#225,.F.) ;
#470=ORIENTED_EDGE('',*,*,#232,.F.) ;
#471=ORIENTED_EDGE('',*,*,#239,.F.) ;
#472=ORIENTED_EDGE('',*,*,#246,.F.) ;
#473=ORIENTED_EDGE('',*,*,#253,.F.) ;
#474=ORIENTED_EDGE('',*,*,#260,.F.) ;
#475=ORIENTED_EDGE('',*,*,#267,.F.) ;
#476=ORIENTED_EDGE('',*,*,#274,.F.) ;
#477=ORIENTED_EDGE('',*,*,#281,.F.) ;
#478=ORIENTED_EDGE('',*,*,#288,.F.) ;
#479=ORIENTED_EDGE('',*,*,#295,.F.) ;
#480=ORIENTED_EDGE('',*,*,#302,.F.) ;
#481=ORIENTED_EDGE('',*,*,#309,.F.) ;
#482=ORIENTED_EDGE('',*,*,#316,.F.) ;
#483=ORIENTED_EDGE('',*,*,#323,.F.) ;
#484=ORIENTED_EDGE('',*,*,#330,.F.) ;
#485=ORIENTED_EDGE('',*,*,#337,.F.) ;
#486=ORIENTED_EDGE('',*,*,#342,.F.) ;
#487=ORIENTED_EDGE('',*,*,#120,.F.) ;
#488=ORIENTED_EDGE('',*,*,#180,.F.) ;
#489=ORIENTED_EDGE('',*,*,#349,.F.) ;
#490=ORIENTED_EDGE('',*,*,#356,.F.) ;
#491=ORIENTED_EDGE('',*,*,#363,.F.) ;
#492=ORIENTED_EDGE('',*,*,#370,.F.) ;
#493=ORIENTED_EDGE('',*,*,#377,.F.) ;
#494=ORIENTED_EDGE('',*,*,#384,.F.) ;
#495=ORIENTED_EDGE('',*,*,#391,.F.) ;
#496=ORIENTED_EDGE('',*,*,#398,.F.) ;
#497=ORIENTED_EDGE('',*,*,#405,.F.) ;
#498=ORIENTED_EDGE('',*,*,#412,.F.) ;
#499=ORIENTED_EDGE('',*,*,#419,.F.) ;
#500=ORIENTED_EDGE('',*,*,#426,.F.) ;
#501=ORIENTED_EDGE('',*,*,#433,.F.) ;
#502=ORIENTED_EDGE('',*,*,#440,.F.) ;
#503=ORIENTED_EDGE('',*,*,#447,.F.) ;
#504=ORIENTED_EDGE('',*,*,#454,.F.) ;
#505=ORIENTED_EDGE('',*,*,#461,.F.) ;
#506=ORIENTED_EDGE('',*,*,#466,.F.) ;
#527=ORIENTED_EDGE('',*,*,#127,.F.) ;
#528=ORIENTED_EDGE('',*,*,#342,.T.) ;
#529=ORIENTED_EDGE('',*,*,#520,.T.) ;
#530=ORIENTED_EDGE('',*,*,#525,.F.) ;
#558=ORIENTED_EDGE('',*,*,#544,.F.) ;
#559=ORIENTED_EDGE('',*,*,#461,.T.) ;
#560=ORIENTED_EDGE('',*,*,#551,.T.) ;
#561=ORIENTED_EDGE('',*,*,#556,.F.) ;
#598=ORIENTED_EDGE('',*,*,#577,.F.) ;
#599=ORIENTED_EDGE('',*,*,#584,.T.) ;
#600=ORIENTED_EDGE('',*,*,#591,.T.) ;
#601=ORIENTED_EDGE('',*,*,#596,.T.) ;
#615=ORIENTED_EDGE('',*,*,#591,.F.) ;
#616=ORIENTED_EDGE('',*,*,#608,.T.) ;
#617=ORIENTED_EDGE('',*,*,#577,.T.) ;
#618=ORIENTED_EDGE('',*,*,#613,.T.) ;
#646=ORIENTED_EDGE('',*,*,#632,.F.) ;
#647=ORIENTED_EDGE('',*,*,#225,.T.) ;
#648=ORIENTED_EDGE('',*,*,#639,.T.) ;
#649=ORIENTED_EDGE('',*,*,#644,.F.) ;
#670=ORIENTED_EDGE('',*,*,#663,.F.) ;
#671=ORIENTED_EDGE('',*,*,#232,.T.) ;
#672=ORIENTED_EDGE('',*,*,#632,.T.) ;
#673=ORIENTED_EDGE('',*,*,#668,.F.) ;
#694=ORIENTED_EDGE('',*,*,#687,.F.) ;
#695=ORIENTED_EDGE('',*,*,#239,.T.) ;
#696=ORIENTED_EDGE('',*,*,#663,.T.) ;
#697=ORIENTED_EDGE('',*,*,#692,.F.) ;
#718=ORIENTED_EDGE('',*,*,#711,.F.) ;
#719=ORIENTED_EDGE('',*,*,#246,.T.) ;
#720=ORIENTED_EDGE('',*,*,#687,.T.) ;
#721=ORIENTED_EDGE('',*,*,#716,.F.) ;
#742=ORIENTED_EDGE('',*,*,#735,.F.) ;
#743=ORIENTED_EDGE('',*,*,#253,.T.) ;
#744=ORIENTED_EDGE('',*,*,#711,.T.) ;
#745=ORIENTED_EDGE('',*,*,#740,.F.) ;
#766=ORIENTED_EDGE('',*,*,#759,.F.) ;
#767=ORIENTED_EDGE('',*,*,#260,.T.) ;
#768=ORIENTED_EDGE('',*,*,#735,.T.) ;
#769=ORIENTED_EDGE('',*,*,#764,.F.) ;
#790=ORIENTED_EDGE('',*,*,#783,.F.) ;
#791=ORIENTED_EDGE('',*,*,#267,.T.) ;
#792=ORIENTED_EDGE('',*,*,#759,.T.) ;
#793=ORIENTED_EDGE('',*,*,#788,.F.) ;
#814=ORIENTED_EDGE('',*,*,#807,.F.) ;
#815=ORIENTED_EDGE('',*,*,#274,.T.) ;
#816=ORIENTED_EDGE('',*,*,#783,.T.) ;
#817=ORIENTED_EDGE('',*,*,#812,.F.) ;
#838=ORIENTED_EDGE('',*,*,#831,.F.) ;
#839=ORIENTED_EDGE('',*,*,#281,.T.) ;
#840=ORIENTED_EDGE('',*,*,#807,.T.) ;
#841=ORIENTED_EDGE('',*,*,#836,.F.) ;
#862=ORIENTED_EDGE('',*,*,#855,.F.) ;
#863=ORIENTED_EDGE('',*,*,#288,.T.) ;
#864=ORIENTED_EDGE('',*,*,#831,.T.) ;
#865=ORIENTED_EDGE('',*,*,#860,.F.) ;
#886=ORIENTED_EDGE('',*,*,#879,.F.) ;
#887=ORIENTED_EDGE('',*,*,#295,.T.) ;
#888=ORIENTED_EDGE('',*,*,#855,.T.) ;
#889=ORIENTED_EDGE('',*,*,#884,.F.) ;
#910=ORIENTED_EDGE('',*,*,#903,.F.) ;
#911=ORIENTED_EDGE('',*,*,#302,.T.) ;
#912=ORIENTED_EDGE('',*,*,#879,.T.) ;
#913=ORIENTED_EDGE('',*,*,#908,.F.) ;
#934=ORIENTED_EDGE('',*,*,#927,.F.) ;
#935=ORIENTED_EDGE('',*,*,#309,.T.) ;
#936=ORIENTED_EDGE('',*,*,#903,.T.) ;
#937=ORIENTED_EDGE('',*,*,#932,.F.) ;
#958=ORIENTED_EDGE('',*,*,#951,.F.) ;
#959=ORIENTED_EDGE('',*,*,#316,.T.) ;
#960=ORIENTED_EDGE('',*,*,#927,.T.) ;
#961=ORIENTED_EDGE('',*,*,#956,.F.) ;
#982=ORIENTED_EDGE('',*,*,#975,.F.) ;
#983=ORIENTED_EDGE('',*,*,#323,.T.) ;
#984=ORIENTED_EDGE('',*,*,#951,.T.) ;
#985=ORIENTED_EDGE('',*,*,#980,.F.) ;
#1006=ORIENTED_EDGE('',*,*,#999,.F.) ;
#1007=ORIENTED_EDGE('',*,*,#330,.T.) ;
#1008=ORIENTED_EDGE('',*,*,#975,.T.) ;
#1009=ORIENTED_EDGE('',*,*,#1004,.F.) ;
#1023=ORIENTED_EDGE('',*,*,#520,.F.) ;
#1024=ORIENTED_EDGE('',*,*,#337,.T.) ;
#1025=ORIENTED_EDGE('',*,*,#999,.T.) ;
#1026=ORIENTED_EDGE('',*,*,#1021,.F.) ;
#1054=ORIENTED_EDGE('',*,*,#1040,.F.) ;
#1055=ORIENTED_EDGE('',*,*,#356,.T.) ;
#1056=ORIENTED_EDGE('',*,*,#1047,.T.) ;
#1057=ORIENTED_EDGE('',*,*,#1052,.F.) ;
#1078=ORIENTED_EDGE('',*,*,#1071,.F.) ;
#1079=ORIENTED_EDGE('',*,*,#363,.T.) ;
#1080=ORIENTED_EDGE('',*,*,#1040,.T.) ;
#1081=ORIENTED_EDGE('',*,*,#1076,.F.) ;
#1097=ORIENTED_EDGE('',*,*,#1090,.F.) ;
#1098=ORIENTED_EDGE('',*,*,#370,.T.) ;
#1099=ORIENTED_EDGE('',*,*,#1071,.T.) ;
#1100=ORIENTED_EDGE('',*,*,#1095,.F.) ;
#1121=ORIENTED_EDGE('',*,*,#1114,.F.) ;
#1122=ORIENTED_EDGE('',*,*,#377,.T.) ;
#1123=ORIENTED_EDGE('',*,*,#1090,.T.) ;
#1124=ORIENTED_EDGE('',*,*,#1119,.F.) ;
#1145=ORIENTED_EDGE('',*,*,#1138,.F.) ;
#1146=ORIENTED_EDGE('',*,*,#384,.T.) ;
#1147=ORIENTED_EDGE('',*,*,#1114,.T.) ;
#1148=ORIENTED_EDGE('',*,*,#1143,.F.) ;
#1169=ORIENTED_EDGE('',*,*,#1162,.F.) ;
#1170=ORIENTED_EDGE('',*,*,#391,.T.) ;
#1171=ORIENTED_EDGE('',*,*,#1138,.T.) ;
#1172=ORIENTED_EDGE('',*,*,#1167,.F.) ;
#1193=ORIENTED_EDGE('',*,*,#1186,.F.) ;
#1194=ORIENTED_EDGE('',*,*,#398,.T.) ;
#1195=ORIENTED_EDGE('',*,*,#1162,.T.) ;
#1196=ORIENTED_EDGE('',*,*,#1191,.F.) ;
#1199=ORIENTED_EDGE('',*,*,#608,.F.) ;
#1200=ORIENTED_EDGE('',*,*,#584,.F.) ;
#1221=ORIENTED_EDGE('',*,*,#1214,.F.) ;
#1222=ORIENTED_EDGE('',*,*,#405,.T.) ;
#1223=ORIENTED_EDGE('',*,*,#1186,.T.) ;
#1224=ORIENTED_EDGE('',*,*,#1219,.F.) ;
#1245=ORIENTED_EDGE('',*,*,#1238,.F.) ;
#1246=ORIENTED_EDGE('',*,*,#412,.T.) ;
#1247=ORIENTED_EDGE('',*,*,#1214,.T.) ;
#1248=ORIENTED_EDGE('',*,*,#1243,.F.) ;
#1251=ORIENTED_EDGE('',*,*,#613,.F.) ;
#1252=ORIENTED_EDGE('',*,*,#596,.F.) ;
#1273=ORIENTED_EDGE('',*,*,#1266,.F.) ;
#1274=ORIENTED_EDGE('',*,*,#419,.T.) ;
#1275=ORIENTED_EDGE('',*,*,#1238,.T.) ;
#1276=ORIENTED_EDGE('',*,*,#1271,.F.) ;
#1297=ORIENTED_EDGE('',*,*,#1290,.F.) ;
#1298=ORIENTED_EDGE('',*,*,#426,.T.) ;
#1299=ORIENTED_EDGE('',*,*,#1266,.T.) ;
#1300=ORIENTED_EDGE('',*,*,#1295,.F.) ;
#1321=ORIENTED_EDGE('',*,*,#1314,.F.) ;
#1322=ORIENTED_EDGE('',*,*,#433,.T.) ;
#1323=ORIENTED_EDGE('',*,*,#1290,.T.) ;
#1324=ORIENTED_EDGE('',*,*,#1319,.F.) ;
#1345=ORIENTED_EDGE('',*,*,#1338,.F.) ;
#1346=ORIENTED_EDGE('',*,*,#440,.T.) ;
#1347=ORIENTED_EDGE('',*,*,#1314,.T.) ;
#1348=ORIENTED_EDGE('',*,*,#1343,.F.) ;
#1369=ORIENTED_EDGE('',*,*,#1362,.F.) ;
#1370=ORIENTED_EDGE('',*,*,#447,.T.) ;
#1371=ORIENTED_EDGE('',*,*,#1338,.T.) ;
#1372=ORIENTED_EDGE('',*,*,#1367,.F.) ;
#1386=ORIENTED_EDGE('',*,*,#551,.F.) ;
#1387=ORIENTED_EDGE('',*,*,#454,.T.) ;
#1388=ORIENTED_EDGE('',*,*,#1362,.T.) ;
#1389=ORIENTED_EDGE('',*,*,#1384,.F.) ;
#1410=ORIENTED_EDGE('',*,*,#639,.F.) ;
#1411=ORIENTED_EDGE('',*,*,#218,.T.) ;
#1412=ORIENTED_EDGE('',*,*,#1403,.T.) ;
#1413=ORIENTED_EDGE('',*,*,#1408,.F.) ;
#1427=ORIENTED_EDGE('',*,*,#1047,.F.) ;
#1428=ORIENTED_EDGE('',*,*,#349,.T.) ;
#1429=ORIENTED_EDGE('',*,*,#175,.T.) ;
#1430=ORIENTED_EDGE('',*,*,#1425,.F.) ;
#1439=ORIENTED_EDGE('',*,*,#79,.T.) ;
#1440=ORIENTED_EDGE('',*,*,#1437,.T.) ;
#1441=ORIENTED_EDGE('',*,*,#65,.F.) ;
#1442=ORIENTED_EDGE('',*,*,#146,.T.) ;
#1443=ORIENTED_EDGE('',*,*,#194,.F.) ;
#1480=ORIENTED_EDGE('',*,*,#1459,.F.) ;
#1481=ORIENTED_EDGE('',*,*,#1466,.F.) ;
#1482=ORIENTED_EDGE('',*,*,#1473,.T.) ;
#1483=ORIENTED_EDGE('',*,*,#1478,.F.) ;
#1511=ORIENTED_EDGE('',*,*,#1497,.T.) ;
#1512=ORIENTED_EDGE('',*,*,#1473,.F.) ;
#1513=ORIENTED_EDGE('',*,*,#1504,.T.) ;
#1514=ORIENTED_EDGE('',*,*,#1509,.F.) ;
#1542=ORIENTED_EDGE('',*,*,#1530,.F.) ;
#1543=ORIENTED_EDGE('',*,*,#1535,.F.) ;
#1544=ORIENTED_EDGE('',*,*,#1509,.T.) ;
#1545=ORIENTED_EDGE('',*,*,#1540,.F.) ;
#1573=ORIENTED_EDGE('',*,*,#1559,.T.) ;
#1574=ORIENTED_EDGE('',*,*,#1459,.T.) ;
#1575=ORIENTED_EDGE('',*,*,#1566,.F.) ;
#1576=ORIENTED_EDGE('',*,*,#1571,.T.) ;
#1604=ORIENTED_EDGE('',*,*,#1590,.T.) ;
#1605=ORIENTED_EDGE('',*,*,#1571,.F.) ;
#1606=ORIENTED_EDGE('',*,*,#1597,.T.) ;
#1607=ORIENTED_EDGE('',*,*,#1602,.T.) ;
#1635=ORIENTED_EDGE('',*,*,#1621,.T.) ;
#1636=ORIENTED_EDGE('',*,*,#1597,.F.) ;
#1637=ORIENTED_EDGE('',*,*,#1566,.T.) ;
#1638=ORIENTED_EDGE('',*,*,#1478,.T.) ;
#1639=ORIENTED_EDGE('',*,*,#1497,.F.) ;
#1640=ORIENTED_EDGE('',*,*,#1535,.T.) ;
#1641=ORIENTED_EDGE('',*,*,#1628,.F.) ;
#1642=ORIENTED_EDGE('',*,*,#1633,.F.) ;
#1663=ORIENTED_EDGE('',*,*,#1628,.T.) ;
#1664=ORIENTED_EDGE('',*,*,#1530,.T.) ;
#1665=ORIENTED_EDGE('',*,*,#1656,.F.) ;
#1666=ORIENTED_EDGE('',*,*,#1661,.T.) ;
#1687=ORIENTED_EDGE('',*,*,#1675,.F.) ;
#1688=ORIENTED_EDGE('',*,*,#1403,.F.) ;
#1689=ORIENTED_EDGE('',*,*,#466,.T.) ;
#1690=ORIENTED_EDGE('',*,*,#544,.T.) ;
#1691=ORIENTED_EDGE('',*,*,#1680,.F.) ;
#1692=ORIENTED_EDGE('',*,*,#1602,.F.) ;
#1693=ORIENTED_EDGE('',*,*,#1621,.F.) ;
#1694=ORIENTED_EDGE('',*,*,#1685,.F.) ;
#1697=ORIENTED_EDGE('',*,*,#1437,.F.) ;
#1698=ORIENTED_EDGE('',*,*,#72,.F.) ;
#1712=ORIENTED_EDGE('',*,*,#1656,.T.) ;
#1713=ORIENTED_EDGE('',*,*,#1540,.T.) ;
#1714=ORIENTED_EDGE('',*,*,#1504,.F.) ;
#1715=ORIENTED_EDGE('',*,*,#1466,.T.) ;
#1716=ORIENTED_EDGE('',*,*,#1559,.F.) ;
#1717=ORIENTED_EDGE('',*,*,#1590,.F.) ;
#1718=ORIENTED_EDGE('',*,*,#1680,.T.) ;
#1719=ORIENTED_EDGE('',*,*,#556,.T.) ;
#1720=ORIENTED_EDGE('',*,*,#1384,.T.) ;
#1721=ORIENTED_EDGE('',*,*,#1367,.T.) ;
#1722=ORIENTED_EDGE('',*,*,#1343,.T.) ;
#1723=ORIENTED_EDGE('',*,*,#1319,.T.) ;
#1724=ORIENTED_EDGE('',*,*,#1295,.T.) ;
#1725=ORIENTED_EDGE('',*,*,#1271,.T.) ;
#1726=ORIENTED_EDGE('',*,*,#1243,.T.) ;
#1727=ORIENTED_EDGE('',*,*,#1219,.T.) ;
#1728=ORIENTED_EDGE('',*,*,#1191,.T.) ;
#1729=ORIENTED_EDGE('',*,*,#1167,.T.) ;
#1730=ORIENTED_EDGE('',*,*,#1143,.T.) ;
#1731=ORIENTED_EDGE('',*,*,#1119,.T.) ;
#1732=ORIENTED_EDGE('',*,*,#1095,.T.) ;
#1733=ORIENTED_EDGE('',*,*,#1076,.T.) ;
#1734=ORIENTED_EDGE('',*,*,#1052,.T.) ;
#1735=ORIENTED_EDGE('',*,*,#1425,.T.) ;
#1736=ORIENTED_EDGE('',*,*,#168,.T.) ;
#1737=ORIENTED_EDGE('',*,*,#134,.T.) ;
#1738=ORIENTED_EDGE('',*,*,#525,.T.) ;
#1739=ORIENTED_EDGE('',*,*,#1021,.T.) ;
#1740=ORIENTED_EDGE('',*,*,#1004,.T.) ;
#1741=ORIENTED_EDGE('',*,*,#980,.T.) ;
#1742=ORIENTED_EDGE('',*,*,#956,.T.) ;
#1743=ORIENTED_EDGE('',*,*,#932,.T.) ;
#1744=ORIENTED_EDGE('',*,*,#908,.T.) ;
#1745=ORIENTED_EDGE('',*,*,#884,.T.) ;
#1746=ORIENTED_EDGE('',*,*,#860,.T.) ;
#1747=ORIENTED_EDGE('',*,*,#836,.T.) ;
#1748=ORIENTED_EDGE('',*,*,#812,.T.) ;
#1749=ORIENTED_EDGE('',*,*,#788,.T.) ;
#1750=ORIENTED_EDGE('',*,*,#764,.T.) ;
#1751=ORIENTED_EDGE('',*,*,#740,.T.) ;
#1752=ORIENTED_EDGE('',*,*,#716,.T.) ;
#1753=ORIENTED_EDGE('',*,*,#692,.T.) ;
#1754=ORIENTED_EDGE('',*,*,#668,.T.) ;
#1755=ORIENTED_EDGE('',*,*,#644,.T.) ;
#1756=ORIENTED_EDGE('',*,*,#1408,.T.) ;
#1757=ORIENTED_EDGE('',*,*,#1675,.T.) ;
#1758=ORIENTED_EDGE('',*,*,#1710,.F.) ;
#1767=ORIENTED_EDGE('',*,*,#1633,.T.) ;
#1768=ORIENTED_EDGE('',*,*,#1661,.F.) ;
#1769=ORIENTED_EDGE('',*,*,#1710,.T.) ;
#1770=ORIENTED_EDGE('',*,*,#1685,.T.) ;
#1201=FACE_BOUND('',#1198,.T.) ;
#1253=FACE_BOUND('',#1250,.T.) ;
#1699=FACE_BOUND('',#1696,.T.) ;
#51=CLOSED_SHELL('Closed Shell',(#101,#156,#204,#508,#532,#563,#603,#620,#651,#675,#699,#723,#747,#771,#795,#819,#843,#867,#891,#915,#939,#963,#987,#1011,#1028,#1059,#1083,#1102,#1126,#1150,#1174,#1202,#1226,#1254,#1278,#1302,#1326,#1350,#1374,#1391,#1415,#1432,#1445,#1485,#1516,#1547,#1578,#1609,#1644,#1668,#1700,#1760,#1772)) ;
#59=VECTOR('Line Direction',#58,1.) ;
#75=VECTOR('Line Direction',#74,1.) ;
#109=VECTOR('Line Direction',#108,1.) ;
#116=VECTOR('Line Direction',#115,1.) ;
#123=VECTOR('Line Direction',#122,1.) ;
#130=VECTOR('Line Direction',#129,1.) ;
#137=VECTOR('Line Direction',#136,1.) ;
#171=VECTOR('Line Direction',#170,1.) ;
#212=VECTOR('Line Direction',#211,1.) ;
#228=VECTOR('Line Direction',#227,1.) ;
#242=VECTOR('Line Direction',#241,1.) ;
#256=VECTOR('Line Direction',#255,1.) ;
#263=VECTOR('Line Direction',#262,1.) ;
#277=VECTOR('Line Direction',#276,1.) ;
#291=VECTOR('Line Direction',#290,1.) ;
#305=VECTOR('Line Direction',#304,1.) ;
#319=VECTOR('Line Direction',#318,1.) ;
#333=VECTOR('Line Direction',#332,1.) ;
#345=VECTOR('Line Direction',#344,1.) ;
#359=VECTOR('Line Direction',#358,1.) ;
#366=VECTOR('Line Direction',#365,1.) ;
#373=VECTOR('Line Direction',#372,1.) ;
#380=VECTOR('Line Direction',#379,1.) ;
#387=VECTOR('Line Direction',#386,1.) ;
#394=VECTOR('Line Direction',#393,1.) ;
#401=VECTOR('Line Direction',#400,1.) ;
#408=VECTOR('Line Direction',#407,1.) ;
#415=VECTOR('Line Direction',#414,1.) ;
#422=VECTOR('Line Direction',#421,1.) ;
#436=VECTOR('Line Direction',#435,1.) ;
#450=VECTOR('Line Direction',#449,1.) ;
#457=VECTOR('Line Direction',#456,1.) ;
#464=VECTOR('Line Direction',#463,1.) ;
#516=VECTOR('Line Direction',#515,1.) ;
#540=VECTOR('Line Direction',#539,1.) ;
#547=VECTOR('Line Direction',#546,1.) ;
#554=VECTOR('Line Direction',#553,1.) ;
#571=VECTOR('Line Direction',#570,1.) ;
#587=VECTOR('Line Direction',#586,1.) ;
#628=VECTOR('Line Direction',#627,1.) ;
#635=VECTOR('Line Direction',#634,1.) ;
#659=VECTOR('Line Direction',#658,1.) ;
#666=VECTOR('Line Direction',#665,1.) ;
#683=VECTOR('Line Direction',#682,1.) ;
#707=VECTOR('Line Direction',#706,1.) ;
#714=VECTOR('Line Direction',#713,1.) ;
#731=VECTOR('Line Direction',#730,1.) ;
#755=VECTOR('Line Direction',#754,1.) ;
#762=VECTOR('Line Direction',#761,1.) ;
#779=VECTOR('Line Direction',#778,1.) ;
#786=VECTOR('Line Direction',#785,1.) ;
#803=VECTOR('Line Direction',#802,1.) ;
#827=VECTOR('Line Direction',#826,1.) ;
#834=VECTOR('Line Direction',#833,1.) ;
#851=VECTOR('Line Direction',#850,1.) ;
#875=VECTOR('Line Direction',#874,1.) ;
#882=VECTOR('Line Direction',#881,1.) ;
#899=VECTOR('Line Direction',#898,1.) ;
#923=VECTOR('Line Direction',#922,1.) ;
#930=VECTOR('Line Direction',#929,1.) ;
#947=VECTOR('Line Direction',#946,1.) ;
#971=VECTOR('Line Direction',#970,1.) ;
#978=VECTOR('Line Direction',#977,1.) ;
#995=VECTOR('Line Direction',#994,1.) ;
#1019=VECTOR('Line Direction',#1018,1.) ;
#1036=VECTOR('Line Direction',#1035,1.) ;
#1043=VECTOR('Line Direction',#1042,1.) ;
#1067=VECTOR('Line Direction',#1066,1.) ;
#1074=VECTOR('Line Direction',#1073,1.) ;
#1086=VECTOR('Line Direction',#1085,1.) ;
#1093=VECTOR('Line Direction',#1092,1.) ;
#1110=VECTOR('Line Direction',#1109,1.) ;
#1117=VECTOR('Line Direction',#1116,1.) ;
#1134=VECTOR('Line Direction',#1133,1.) ;
#1141=VECTOR('Line Direction',#1140,1.) ;
#1158=VECTOR('Line Direction',#1157,1.) ;
#1165=VECTOR('Line Direction',#1164,1.) ;
#1182=VECTOR('Line Direction',#1181,1.) ;
#1189=VECTOR('Line Direction',#1188,1.) ;
#1210=VECTOR('Line Direction',#1209,1.) ;
#1217=VECTOR('Line Direction',#1216,1.) ;
#1234=VECTOR('Line Direction',#1233,1.) ;
#1241=VECTOR('Line Direction',#1240,1.) ;
#1262=VECTOR('Line Direction',#1261,1.) ;
#1269=VECTOR('Line Direction',#1268,1.) ;
#1286=VECTOR('Line Direction',#1285,1.) ;
#1293=VECTOR('Line Direction',#1292,1.) ;
#1310=VECTOR('Line Direction',#1309,1.) ;
#1334=VECTOR('Line Direction',#1333,1.) ;
#1341=VECTOR('Line Direction',#1340,1.) ;
#1358=VECTOR('Line Direction',#1357,1.) ;
#1382=VECTOR('Line Direction',#1381,1.) ;
#1399=VECTOR('Line Direction',#1398,1.) ;
#1406=VECTOR('Line Direction',#1405,1.) ;
#1423=VECTOR('Line Direction',#1422,1.) ;
#1453=VECTOR('Line Direction',#1452,1.) ;
#1469=VECTOR('Line Direction',#1468,1.) ;
#1493=VECTOR('Line Direction',#1492,1.) ;
#1500=VECTOR('Line Direction',#1499,1.) ;
#1507=VECTOR('Line Direction',#1506,1.) ;
#1524=VECTOR('Line Direction',#1523,1.) ;
#1555=VECTOR('Line Direction',#1554,1.) ;
#1562=VECTOR('Line Direction',#1561,1.) ;
#1569=VECTOR('Line Direction',#1568,1.) ;
#1600=VECTOR('Line Direction',#1599,1.) ;
#1617=VECTOR('Line Direction',#1616,1.) ;
#1624=VECTOR('Line Direction',#1623,1.) ;
#1652=VECTOR('Line Direction',#1651,1.) ;
#1659=VECTOR('Line Direction',#1658,1.) ;
#1671=VECTOR('Line Direction',#1670,1.) ;
#1678=VECTOR('Line Direction',#1677,1.) ;
#1683=VECTOR('Line Direction',#1682,1.) ;
#1774=ADVANCED_BREP_SHAPE_REPRESENTATION('NONE',(#1773),#46) ;
#49=SHAPE_REPRESENTATION(' ',(#48),#46) ;
#101=ADVANCED_FACE('PartBody',(#100),#56,.F.) ;
#156=ADVANCED_FACE('PartBody',(#155),#106,.T.) ;
#204=ADVANCED_FACE('PartBody',(#203),#161,.T.) ;
#508=ADVANCED_FACE('PartBody',(#507),#209,.F.) ;
#532=ADVANCED_FACE('PartBody',(#531),#513,.T.) ;
#563=ADVANCED_FACE('PartBody',(#562),#537,.T.) ;
#603=ADVANCED_FACE('PartBody',(#602),#568,.F.) ;
#620=ADVANCED_FACE('PartBody',(#619),#568,.F.) ;
#651=ADVANCED_FACE('PartBody',(#650),#625,.T.) ;
#675=ADVANCED_FACE('PartBody',(#674),#656,.T.) ;
#699=ADVANCED_FACE('PartBody',(#698),#680,.T.) ;
#723=ADVANCED_FACE('PartBody',(#722),#704,.F.) ;
#747=ADVANCED_FACE('PartBody',(#746),#728,.T.) ;
#771=ADVANCED_FACE('PartBody',(#770),#752,.T.) ;
#795=ADVANCED_FACE('PartBody',(#794),#776,.F.) ;
#819=ADVANCED_FACE('PartBody',(#818),#800,.T.) ;
#843=ADVANCED_FACE('PartBody',(#842),#824,.F.) ;
#867=ADVANCED_FACE('PartBody',(#866),#848,.F.) ;
#891=ADVANCED_FACE('PartBody',(#890),#872,.T.) ;
#915=ADVANCED_FACE('PartBody',(#914),#896,.F.) ;
#939=ADVANCED_FACE('PartBody',(#938),#920,.T.) ;
#963=ADVANCED_FACE('PartBody',(#962),#944,.F.) ;
#987=ADVANCED_FACE('PartBody',(#986),#968,.F.) ;
#1011=ADVANCED_FACE('PartBody',(#1010),#992,.F.) ;
#1028=ADVANCED_FACE('PartBody',(#1027),#1016,.T.) ;
#1059=ADVANCED_FACE('PartBody',(#1058),#1033,.F.) ;
#1083=ADVANCED_FACE('PartBody',(#1082),#1064,.T.) ;
#1102=ADVANCED_FACE('PartBody',(#1101),#1064,.T.) ;
#1126=ADVANCED_FACE('PartBody',(#1125),#1107,.T.) ;
#1150=ADVANCED_FACE('PartBody',(#1149),#1131,.T.) ;
#1174=ADVANCED_FACE('PartBody',(#1173),#1155,.T.) ;
#1202=ADVANCED_FACE('PartBody',(#1197,#1201),#1179,.T.) ;
#1226=ADVANCED_FACE('PartBody',(#1225),#1207,.T.) ;
#1254=ADVANCED_FACE('PartBody',(#1249,#1253),#1231,.T.) ;
#1278=ADVANCED_FACE('PartBody',(#1277),#1259,.T.) ;
#1302=ADVANCED_FACE('PartBody',(#1301),#1283,.T.) ;
#1326=ADVANCED_FACE('PartBody',(#1325),#1307,.F.) ;
#1350=ADVANCED_FACE('PartBody',(#1349),#1331,.T.) ;
#1374=ADVANCED_FACE('PartBody',(#1373),#1355,.F.) ;
#1391=ADVANCED_FACE('PartBody',(#1390),#1379,.T.) ;
#1415=ADVANCED_FACE('PartBody',(#1414),#1396,.F.) ;
#1432=ADVANCED_FACE('PartBody',(#1431),#1420,.T.) ;
#1445=ADVANCED_FACE('PartBody',(#1444),#56,.F.) ;
#1485=ADVANCED_FACE('PartBody',(#1484),#1450,.F.) ;
#1516=ADVANCED_FACE('PartBody',(#1515),#1490,.T.) ;
#1547=ADVANCED_FACE('PartBody',(#1546),#1521,.F.) ;
#1578=ADVANCED_FACE('PartBody',(#1577),#1552,.T.) ;
#1609=ADVANCED_FACE('PartBody',(#1608),#1583,.T.) ;
#1644=ADVANCED_FACE('PartBody',(#1643),#1614,.F.) ;
#1668=ADVANCED_FACE('PartBody',(#1667),#1649,.T.) ;
#1700=ADVANCED_FACE('PartBody',(#1695,#1699),#1231,.T.) ;
#1760=ADVANCED_FACE('PartBody',(#1759),#1705,.T.) ;
#1772=ADVANCED_FACE('PartBody',(#1771),#1765,.T.) ;
#4=APPLICATION_PROTOCOL_DEFINITION('international standard','config_control_design',1994,#1) ;
#32=APPROVAL_DATE_TIME(#13,#21) ;
#80=B_SPLINE_CURVE_WITH_KNOTS('',4,(#81,#82,#83,#84,#85),.UNSPECIFIED.,.F.,.U.,(5,5),(0.,1.30790192931),.UNSPECIFIED.) ;
#181=B_SPLINE_CURVE_WITH_KNOTS('',5,(#182,#183,#184,#185,#186,#187,#188,#189,#190,#191,#192,#193),.UNSPECIFIED.,.F.,.U.,(6,3,3,6),(0.,0.955900262244,2.21528973878,4.16999614352),.UNSPECIFIED.) ;
#1773=MANIFOLD_SOLID_BREP('PartBody',#51) ;
#11=CALENDAR_DATE(2025,3,12) ;
#30=CC_DESIGN_APPROVAL(#21,(#16,#6,#14)) ;
#18=CC_DESIGN_DATE_AND_TIME_ASSIGNMENT(#13,#17,(#16)) ;
#29=CC_DESIGN_DATE_AND_TIME_ASSIGNMENT(#13,#28,(#14)) ;
#17=DATE_TIME_ROLE('classification_date') ;
#28=DATE_TIME_ROLE('creation_date') ;
#27=CC_DESIGN_PERSON_AND_ORGANIZATION_ASSIGNMENT(#25,#26,(#16)) ;
#33=CC_DESIGN_PERSON_AND_ORGANIZATION_ASSIGNMENT(#25,#34,(#6)) ;
#35=CC_DESIGN_PERSON_AND_ORGANIZATION_ASSIGNMENT(#25,#36,(#6,#14)) ;
#37=CC_DESIGN_PERSON_AND_ORGANIZATION_ASSIGNMENT(#25,#38,(#5)) ;
#26=PERSON_AND_ORGANIZATION_ROLE('classification_officer') ;
#34=PERSON_AND_ORGANIZATION_ROLE('design_supplier') ;
#36=PERSON_AND_ORGANIZATION_ROLE('creator') ;
#38=PERSON_AND_ORGANIZATION_ROLE('design_owner') ;
#39=CC_DESIGN_SECURITY_CLASSIFICATION(#16,(#6)) ;
#69=CIRCLE('generated circle',#68,1.95) ;
#92=CIRCLE('generated circle',#91,1.95) ;
#145=CIRCLE('generated circle',#144,1.95) ;
#165=CIRCLE('generated circle',#164,1.) ;
#179=CIRCLE('generated circle',#178,1.) ;
#222=CIRCLE('generated circle',#221,2.) ;
#236=CIRCLE('generated circle',#235,2.) ;
#250=CIRCLE('generated circle',#249,1.25) ;
#271=CIRCLE('generated circle',#270,1.) ;
#285=CIRCLE('generated circle',#284,1.) ;
#299=CIRCLE('generated circle',#298,2.) ;
#313=CIRCLE('generated circle',#312,0.25) ;
#327=CIRCLE('generated circle',#326,0.25) ;
#341=CIRCLE('generated circle',#340,1.5) ;
#353=CIRCLE('generated circle',#352,1.) ;
#430=CIRCLE('generated circle',#429,0.5) ;
#444=CIRCLE('generated circle',#443,0.472047138214) ;
#524=CIRCLE('generated circle',#523,1.5) ;
#581=CIRCLE('generated circle',#580,1.95) ;
#595=CIRCLE('generated circle',#594,1.95) ;
#607=CIRCLE('generated circle',#606,1.95) ;
#612=CIRCLE('generated circle',#611,1.95) ;
#643=CIRCLE('generated circle',#642,2.) ;
#691=CIRCLE('generated circle',#690,2.) ;
#739=CIRCLE('generated circle',#738,1.25) ;
#811=CIRCLE('generated circle',#810,1.) ;
#859=CIRCLE('generated circle',#858,1.) ;
#907=CIRCLE('generated circle',#906,2.) ;
#955=CIRCLE('generated circle',#954,0.25) ;
#1003=CIRCLE('generated circle',#1002,0.25) ;
#1051=CIRCLE('generated circle',#1050,1.) ;
#1318=CIRCLE('generated circle',#1317,0.5) ;
#1366=CIRCLE('generated circle',#1365,0.472047138214) ;
#1436=CIRCLE('generated circle',#1435,1.95) ;
#1463=CIRCLE('generated circle',#1462,0.75) ;
#1477=CIRCLE('generated circle',#1476,0.75) ;
#1534=CIRCLE('generated circle',#1533,0.75) ;
#1539=CIRCLE('generated circle',#1538,0.75) ;
#1587=CIRCLE('generated circle',#1586,0.75) ;
#1594=CIRCLE('generated circle',#1593,0.75) ;
#1632=CIRCLE('generated circle',#1631,0.75) ;
#1709=CIRCLE('generated circle',#1708,0.75) ;
#1775=SHAPE_REPRESENTATION_RELATIONSHIP(' ',' ',#49,#1774) ;
#56=CYLINDRICAL_SURFACE('generated cylinder',#55,1.95) ;
#161=CYLINDRICAL_SURFACE('generated cylinder',#160,1.) ;
#513=CYLINDRICAL_SURFACE('generated cylinder',#512,1.5) ;
#568=CYLINDRICAL_SURFACE('generated cylinder',#567,1.95) ;
#625=CYLINDRICAL_SURFACE('generated cylinder',#624,2.) ;
#680=CYLINDRICAL_SURFACE('generated cylinder',#679,2.) ;
#728=CYLINDRICAL_SURFACE('generated cylinder',#727,1.25) ;
#800=CYLINDRICAL_SURFACE('generated cylinder',#799,1.) ;
#848=CYLINDRICAL_SURFACE('generated cylinder',#847,1.) ;
#896=CYLINDRICAL_SURFACE('generated cylinder',#895,2.) ;
#944=CYLINDRICAL_SURFACE('generated cylinder',#943,0.25) ;
#992=CYLINDRICAL_SURFACE('generated cylinder',#991,0.25) ;
#1033=CYLINDRICAL_SURFACE('generated cylinder',#1032,1.) ;
#1307=CYLINDRICAL_SURFACE('generated cylinder',#1306,0.5) ;
#1355=CYLINDRICAL_SURFACE('generated cylinder',#1354,0.472047138214) ;
#1450=CYLINDRICAL_SURFACE('generated cylinder',#1449,0.75) ;
#1521=CYLINDRICAL_SURFACE('generated cylinder',#1520,0.75) ;
#1583=CYLINDRICAL_SURFACE('generated cylinder',#1582,0.75) ;
#1765=CYLINDRICAL_SURFACE('generated cylinder',#1764,0.75) ;
#3=DESIGN_CONTEXT(' ',#1,'design') ;
#65=EDGE_CURVE('',#62,#64,#60,.F.) ;
#72=EDGE_CURVE('',#64,#71,#69,.F.) ;
#79=EDGE_CURVE('',#78,#71,#76,.F.) ;
#88=EDGE_CURVE('',#78,#87,#80,.T.) ;
#93=EDGE_CURVE('',#87,#62,#92,.T.) ;
#113=EDGE_CURVE('',#112,#87,#110,.T.) ;
#120=EDGE_CURVE('',#112,#119,#117,.T.) ;
#127=EDGE_CURVE('',#119,#126,#124,.T.) ;
#134=EDGE_CURVE('',#133,#126,#131,.T.) ;
#141=EDGE_CURVE('',#140,#133,#138,.T.) ;
#146=EDGE_CURVE('',#62,#140,#145,.T.) ;
#168=EDGE_CURVE('',#167,#133,#165,.T.) ;
#175=EDGE_CURVE('',#174,#167,#172,.T.) ;
#180=EDGE_CURVE('',#174,#112,#179,.T.) ;
#194=EDGE_CURVE('',#78,#140,#181,.T.) ;
#218=EDGE_CURVE('',#215,#217,#213,.F.) ;
#225=EDGE_CURVE('',#224,#215,#222,.T.) ;
#232=EDGE_CURVE('',#231,#224,#229,.T.) ;
#239=EDGE_CURVE('',#238,#231,#236,.T.) ;
#246=EDGE_CURVE('',#245,#238,#243,.F.) ;
#253=EDGE_CURVE('',#252,#245,#250,.T.) ;
#260=EDGE_CURVE('',#259,#252,#257,.T.) ;
#267=EDGE_CURVE('',#266,#259,#264,.F.) ;
#274=EDGE_CURVE('',#273,#266,#271,.T.) ;
#281=EDGE_CURVE('',#280,#273,#278,.F.) ;
#288=EDGE_CURVE('',#287,#280,#285,.F.) ;
#295=EDGE_CURVE('',#294,#287,#292,.T.) ;
#302=EDGE_CURVE('',#301,#294,#299,.F.) ;
#309=EDGE_CURVE('',#308,#301,#306,.T.) ;
#316=EDGE_CURVE('',#315,#308,#313,.F.) ;
#323=EDGE_CURVE('',#322,#315,#320,.F.) ;
#330=EDGE_CURVE('',#329,#322,#327,.F.) ;
#337=EDGE_CURVE('',#336,#329,#334,.T.) ;
#342=EDGE_CURVE('',#119,#336,#341,.T.) ;
#349=EDGE_CURVE('',#348,#174,#346,.T.) ;
#356=EDGE_CURVE('',#355,#348,#353,.F.) ;
#363=EDGE_CURVE('',#362,#355,#360,.T.) ;
#370=EDGE_CURVE('',#369,#362,#367,.T.) ;
#377=EDGE_CURVE('',#376,#369,#374,.T.) ;
#384=EDGE_CURVE('',#383,#376,#381,.T.) ;
#391=EDGE_CURVE('',#390,#383,#388,.T.) ;
#398=EDGE_CURVE('',#397,#390,#395,.T.) ;
#405=EDGE_CURVE('',#404,#397,#402,.T.) ;
#412=EDGE_CURVE('',#411,#404,#409,.T.) ;
#419=EDGE_CURVE('',#418,#411,#416,.T.) ;
#426=EDGE_CURVE('',#425,#418,#423,.T.) ;
#433=EDGE_CURVE('',#432,#425,#430,.F.) ;
#440=EDGE_CURVE('',#439,#432,#437,.T.) ;
#447=EDGE_CURVE('',#446,#439,#444,.F.) ;
#454=EDGE_CURVE('',#453,#446,#451,.T.) ;
#461=EDGE_CURVE('',#460,#453,#458,.T.) ;
#466=EDGE_CURVE('',#217,#460,#465,.T.) ;
#520=EDGE_CURVE('',#336,#519,#517,.T.) ;
#525=EDGE_CURVE('',#126,#519,#524,.T.) ;
#544=EDGE_CURVE('',#460,#543,#541,.T.) ;
#551=EDGE_CURVE('',#453,#550,#548,.T.) ;
#556=EDGE_CURVE('',#543,#550,#555,.T.) ;
#577=EDGE_CURVE('',#574,#576,#572,.F.) ;
#584=EDGE_CURVE('',#574,#583,#581,.T.) ;
#591=EDGE_CURVE('',#583,#590,#588,.F.) ;
#596=EDGE_CURVE('',#590,#576,#595,.F.) ;
#608=EDGE_CURVE('',#583,#574,#607,.T.) ;
#613=EDGE_CURVE('',#576,#590,#612,.F.) ;
#632=EDGE_CURVE('',#224,#631,#629,.T.) ;
#639=EDGE_CURVE('',#215,#638,#636,.T.) ;
#644=EDGE_CURVE('',#631,#638,#643,.T.) ;
#663=EDGE_CURVE('',#231,#662,#660,.T.) ;
#668=EDGE_CURVE('',#662,#631,#667,.T.) ;
#687=EDGE_CURVE('',#238,#686,#684,.T.) ;
#692=EDGE_CURVE('',#686,#662,#691,.T.) ;
#711=EDGE_CURVE('',#245,#710,#708,.T.) ;
#716=EDGE_CURVE('',#710,#686,#715,.F.) ;
#735=EDGE_CURVE('',#252,#734,#732,.T.) ;
#740=EDGE_CURVE('',#734,#710,#739,.T.) ;
#759=EDGE_CURVE('',#259,#758,#756,.T.) ;
#764=EDGE_CURVE('',#758,#734,#763,.T.) ;
#783=EDGE_CURVE('',#266,#782,#780,.T.) ;
#788=EDGE_CURVE('',#782,#758,#787,.F.) ;
#807=EDGE_CURVE('',#273,#806,#804,.T.) ;
#812=EDGE_CURVE('',#806,#782,#811,.T.) ;
#831=EDGE_CURVE('',#280,#830,#828,.T.) ;
#836=EDGE_CURVE('',#830,#806,#835,.F.) ;
#855=EDGE_CURVE('',#287,#854,#852,.T.) ;
#860=EDGE_CURVE('',#854,#830,#859,.F.) ;
#879=EDGE_CURVE('',#294,#878,#876,.T.) ;
#884=EDGE_CURVE('',#878,#854,#883,.T.) ;
#903=EDGE_CURVE('',#301,#902,#900,.T.) ;
#908=EDGE_CURVE('',#902,#878,#907,.F.) ;
#927=EDGE_CURVE('',#308,#926,#924,.T.) ;
#932=EDGE_CURVE('',#926,#902,#931,.T.) ;
#951=EDGE_CURVE('',#315,#950,#948,.T.) ;
#956=EDGE_CURVE('',#950,#926,#955,.F.) ;
#975=EDGE_CURVE('',#322,#974,#972,.T.) ;
#980=EDGE_CURVE('',#974,#950,#979,.F.) ;
#999=EDGE_CURVE('',#329,#998,#996,.T.) ;
#1004=EDGE_CURVE('',#998,#974,#1003,.F.) ;
#1021=EDGE_CURVE('',#519,#998,#1020,.T.) ;
#1040=EDGE_CURVE('',#355,#1039,#1037,.T.) ;
#1047=EDGE_CURVE('',#348,#1046,#1044,.T.) ;
#1052=EDGE_CURVE('',#1039,#1046,#1051,.F.) ;
#1071=EDGE_CURVE('',#362,#1070,#1068,.T.) ;
#1076=EDGE_CURVE('',#1070,#1039,#1075,.T.) ;
#1090=EDGE_CURVE('',#369,#1089,#1087,.T.) ;
#1095=EDGE_CURVE('',#1089,#1070,#1094,.T.) ;
#1114=EDGE_CURVE('',#376,#1113,#1111,.T.) ;
#1119=EDGE_CURVE('',#1113,#1089,#1118,.T.) ;
#1138=EDGE_CURVE('',#383,#1137,#1135,.T.) ;
#1143=EDGE_CURVE('',#1137,#1113,#1142,.T.) ;
#1162=EDGE_CURVE('',#390,#1161,#1159,.T.) ;
#1167=EDGE_CURVE('',#1161,#1137,#1166,.T.) ;
#1186=EDGE_CURVE('',#397,#1185,#1183,.T.) ;
#1191=EDGE_CURVE('',#1185,#1161,#1190,.T.) ;
#1214=EDGE_CURVE('',#404,#1213,#1211,.T.) ;
#1219=EDGE_CURVE('',#1213,#1185,#1218,.T.) ;
#1238=EDGE_CURVE('',#411,#1237,#1235,.T.) ;
#1243=EDGE_CURVE('',#1237,#1213,#1242,.T.) ;
#1266=EDGE_CURVE('',#418,#1265,#1263,.T.) ;
#1271=EDGE_CURVE('',#1265,#1237,#1270,.T.) ;
#1290=EDGE_CURVE('',#425,#1289,#1287,.T.) ;
#1295=EDGE_CURVE('',#1289,#1265,#1294,.T.) ;
#1314=EDGE_CURVE('',#432,#1313,#1311,.T.) ;
#1319=EDGE_CURVE('',#1313,#1289,#1318,.F.) ;
#1338=EDGE_CURVE('',#439,#1337,#1335,.T.) ;
#1343=EDGE_CURVE('',#1337,#1313,#1342,.T.) ;
#1362=EDGE_CURVE('',#446,#1361,#1359,.T.) ;
#1367=EDGE_CURVE('',#1361,#1337,#1366,.F.) ;
#1384=EDGE_CURVE('',#550,#1361,#1383,.T.) ;
#1403=EDGE_CURVE('',#217,#1402,#1400,.T.) ;
#1408=EDGE_CURVE('',#638,#1402,#1407,.F.) ;
#1425=EDGE_CURVE('',#1046,#167,#1424,.T.) ;
#1437=EDGE_CURVE('',#71,#64,#1436,.F.) ;
#1459=EDGE_CURVE('',#1456,#1458,#1454,.T.) ;
#1466=EDGE_CURVE('',#1465,#1456,#1463,.T.) ;
#1473=EDGE_CURVE('',#1465,#1472,#1470,.T.) ;
#1478=EDGE_CURVE('',#1458,#1472,#1477,.F.) ;
#1497=EDGE_CURVE('',#1496,#1472,#1494,.F.) ;
#1504=EDGE_CURVE('',#1465,#1503,#1501,.F.) ;
#1509=EDGE_CURVE('',#1496,#1503,#1508,.F.) ;
#1530=EDGE_CURVE('',#1527,#1529,#1525,.F.) ;
#1535=EDGE_CURVE('',#1496,#1527,#1534,.F.) ;
#1540=EDGE_CURVE('',#1529,#1503,#1539,.T.) ;
#1559=EDGE_CURVE('',#1558,#1456,#1556,.T.) ;
#1566=EDGE_CURVE('',#1565,#1458,#1563,.T.) ;
#1571=EDGE_CURVE('',#1565,#1558,#1570,.T.) ;
#1590=EDGE_CURVE('',#1589,#1558,#1587,.F.) ;
#1597=EDGE_CURVE('',#1565,#1596,#1594,.T.) ;
#1602=EDGE_CURVE('',#1596,#1589,#1601,.T.) ;
#1621=EDGE_CURVE('',#1620,#1596,#1618,.T.) ;
#1628=EDGE_CURVE('',#1627,#1527,#1625,.T.) ;
#1633=EDGE_CURVE('',#1620,#1627,#1632,.F.) ;
#1656=EDGE_CURVE('',#1655,#1529,#1653,.T.) ;
#1661=EDGE_CURVE('',#1655,#1627,#1660,.T.) ;
#1675=EDGE_CURVE('',#1402,#1674,#1672,.T.) ;
#1680=EDGE_CURVE('',#1589,#543,#1679,.T.) ;
#1685=EDGE_CURVE('',#1674,#1620,#1684,.T.) ;
#1710=EDGE_CURVE('',#1655,#1674,#1709,.F.) ;
#94=EDGE_LOOP('',(#95,#96,#97,#98,#99)) ;
#147=EDGE_LOOP('',(#148,#149,#150,#151,#152,#153,#154)) ;
#195=EDGE_LOOP('',(#196,#197,#198,#199,#200,#201,#202)) ;
#467=EDGE_LOOP('',(#468,#469,#470,#471,#472,#473,#474,#475,#476,#477,#478,#479,#480,#481,#482,#483,#484,#485,#486,#487,#488,#489,#490,#491,#492,#493,#494,#495,#496,#497,#498,#499,#500,#501,#502,#503,#504,#505,#506)) ;
#526=EDGE_LOOP('',(#527,#528,#529,#530)) ;
#557=EDGE_LOOP('',(#558,#559,#560,#561)) ;
#597=EDGE_LOOP('',(#598,#599,#600,#601)) ;
#614=EDGE_LOOP('',(#615,#616,#617,#618)) ;
#645=EDGE_LOOP('',(#646,#647,#648,#649)) ;
#669=EDGE_LOOP('',(#670,#671,#672,#673)) ;
#693=EDGE_LOOP('',(#694,#695,#696,#697)) ;
#717=EDGE_LOOP('',(#718,#719,#720,#721)) ;
#741=EDGE_LOOP('',(#742,#743,#744,#745)) ;
#765=EDGE_LOOP('',(#766,#767,#768,#769)) ;
#789=EDGE_LOOP('',(#790,#791,#792,#793)) ;
#813=EDGE_LOOP('',(#814,#815,#816,#817)) ;
#837=EDGE_LOOP('',(#838,#839,#840,#841)) ;
#861=EDGE_LOOP('',(#862,#863,#864,#865)) ;
#885=EDGE_LOOP('',(#886,#887,#888,#889)) ;
#909=EDGE_LOOP('',(#910,#911,#912,#913)) ;
#933=EDGE_LOOP('',(#934,#935,#936,#937)) ;
#957=EDGE_LOOP('',(#958,#959,#960,#961)) ;
#981=EDGE_LOOP('',(#982,#983,#984,#985)) ;
#1005=EDGE_LOOP('',(#1006,#1007,#1008,#1009)) ;
#1022=EDGE_LOOP('',(#1023,#1024,#1025,#1026)) ;
#1053=EDGE_LOOP('',(#1054,#1055,#1056,#1057)) ;
#1077=EDGE_LOOP('',(#1078,#1079,#1080,#1081)) ;
#1096=EDGE_LOOP('',(#1097,#1098,#1099,#1100)) ;
#1120=EDGE_LOOP('',(#1121,#1122,#1123,#1124)) ;
#1144=EDGE_LOOP('',(#1145,#1146,#1147,#1148)) ;
#1168=EDGE_LOOP('',(#1169,#1170,#1171,#1172)) ;
#1192=EDGE_LOOP('',(#1193,#1194,#1195,#1196)) ;
#1198=EDGE_LOOP('',(#1199,#1200)) ;
#1220=EDGE_LOOP('',(#1221,#1222,#1223,#1224)) ;
#1244=EDGE_LOOP('',(#1245,#1246,#1247,#1248)) ;
#1250=EDGE_LOOP('',(#1251,#1252)) ;
#1272=EDGE_LOOP('',(#1273,#1274,#1275,#1276)) ;
#1296=EDGE_LOOP('',(#1297,#1298,#1299,#1300)) ;
#1320=EDGE_LOOP('',(#1321,#1322,#1323,#1324)) ;
#1344=EDGE_LOOP('',(#1345,#1346,#1347,#1348)) ;
#1368=EDGE_LOOP('',(#1369,#1370,#1371,#1372)) ;
#1385=EDGE_LOOP('',(#1386,#1387,#1388,#1389)) ;
#1409=EDGE_LOOP('',(#1410,#1411,#1412,#1413)) ;
#1426=EDGE_LOOP('',(#1427,#1428,#1429,#1430)) ;
#1438=EDGE_LOOP('',(#1439,#1440,#1441,#1442,#1443)) ;
#1479=EDGE_LOOP('',(#1480,#1481,#1482,#1483)) ;
#1510=EDGE_LOOP('',(#1511,#1512,#1513,#1514)) ;
#1541=EDGE_LOOP('',(#1542,#1543,#1544,#1545)) ;
#1572=EDGE_LOOP('',(#1573,#1574,#1575,#1576)) ;
#1603=EDGE_LOOP('',(#1604,#1605,#1606,#1607)) ;
#1634=EDGE_LOOP('',(#1635,#1636,#1637,#1638,#1639,#1640,#1641,#1642)) ;
#1662=EDGE_LOOP('',(#1663,#1664,#1665,#1666)) ;
#1686=EDGE_LOOP('',(#1687,#1688,#1689,#1690,#1691,#1692,#1693,#1694)) ;
#1696=EDGE_LOOP('',(#1697,#1698)) ;
#1711=EDGE_LOOP('',(#1712,#1713,#1714,#1715,#1716,#1717,#1718,#1719,#1720,#1721,#1722,#1723,#1724,#1725,#1726,#1727,#1728,#1729,#1730,#1731,#1732,#1733,#1734,#1735,#1736,#1737,#1738,#1739,#1740,#1741,#1742,#1743,#1744,#1745,#1746,#1747,#1748,#1749,#1750,#1751,#1752,#1753,#1754,#1755,#1756,#1757,#1758)) ;
#1766=EDGE_LOOP('',(#1767,#1768,#1769,#1770)) ;
#100=FACE_OUTER_BOUND('',#94,.T.) ;
#155=FACE_OUTER_BOUND('',#147,.T.) ;
#203=FACE_OUTER_BOUND('',#195,.T.) ;
#507=FACE_OUTER_BOUND('',#467,.T.) ;
#531=FACE_OUTER_BOUND('',#526,.T.) ;
#562=FACE_OUTER_BOUND('',#557,.T.) ;
#602=FACE_OUTER_BOUND('',#597,.T.) ;
#619=FACE_OUTER_BOUND('',#614,.T.) ;
#650=FACE_OUTER_BOUND('',#645,.T.) ;
#674=FACE_OUTER_BOUND('',#669,.T.) ;
#698=FACE_OUTER_BOUND('',#693,.T.) ;
#722=FACE_OUTER_BOUND('',#717,.T.) ;
#746=FACE_OUTER_BOUND('',#741,.T.) ;
#770=FACE_OUTER_BOUND('',#765,.T.) ;
#794=FACE_OUTER_BOUND('',#789,.T.) ;
#818=FACE_OUTER_BOUND('',#813,.T.) ;
#842=FACE_OUTER_BOUND('',#837,.T.) ;
#866=FACE_OUTER_BOUND('',#861,.T.) ;
#890=FACE_OUTER_BOUND('',#885,.T.) ;
#914=FACE_OUTER_BOUND('',#909,.T.) ;
#938=FACE_OUTER_BOUND('',#933,.T.) ;
#962=FACE_OUTER_BOUND('',#957,.T.) ;
#986=FACE_OUTER_BOUND('',#981,.T.) ;
#1010=FACE_OUTER_BOUND('',#1005,.T.) ;
#1027=FACE_OUTER_BOUND('',#1022,.T.) ;
#1058=FACE_OUTER_BOUND('',#1053,.T.) ;
#1082=FACE_OUTER_BOUND('',#1077,.T.) ;
#1101=FACE_OUTER_BOUND('',#1096,.T.) ;
#1125=FACE_OUTER_BOUND('',#1120,.T.) ;
#1149=FACE_OUTER_BOUND('',#1144,.T.) ;
#1173=FACE_OUTER_BOUND('',#1168,.T.) ;
#1197=FACE_OUTER_BOUND('',#1192,.T.) ;
#1225=FACE_OUTER_BOUND('',#1220,.T.) ;
#1249=FACE_OUTER_BOUND('',#1244,.T.) ;
#1277=FACE_OUTER_BOUND('',#1272,.T.) ;
#1301=FACE_OUTER_BOUND('',#1296,.T.) ;
#1325=FACE_OUTER_BOUND('',#1320,.T.) ;
#1349=FACE_OUTER_BOUND('',#1344,.T.) ;
#1373=FACE_OUTER_BOUND('',#1368,.T.) ;
#1390=FACE_OUTER_BOUND('',#1385,.T.) ;
#1414=FACE_OUTER_BOUND('',#1409,.T.) ;
#1431=FACE_OUTER_BOUND('',#1426,.T.) ;
#1444=FACE_OUTER_BOUND('',#1438,.T.) ;
#1484=FACE_OUTER_BOUND('',#1479,.T.) ;
#1515=FACE_OUTER_BOUND('',#1510,.T.) ;
#1546=FACE_OUTER_BOUND('',#1541,.T.) ;
#1577=FACE_OUTER_BOUND('',#1572,.T.) ;
#1608=FACE_OUTER_BOUND('',#1603,.T.) ;
#1643=FACE_OUTER_BOUND('',#1634,.T.) ;
#1667=FACE_OUTER_BOUND('',#1662,.T.) ;
#1695=FACE_OUTER_BOUND('',#1686,.T.) ;
#1759=FACE_OUTER_BOUND('',#1711,.T.) ;
#1771=FACE_OUTER_BOUND('',#1766,.T.) ;
#45=UNCERTAINTY_MEASURE_WITH_UNIT(LENGTH_MEASURE(0.005),#41,'distance_accuracy_value','CONFUSED CURVE UNCERTAINTY') ;
#60=LINE('Line',#57,#59) ;
#76=LINE('Line',#73,#75) ;
#110=LINE('Line',#107,#109) ;
#117=LINE('Line',#114,#116) ;
#124=LINE('Line',#121,#123) ;
#131=LINE('Line',#128,#130) ;
#138=LINE('Line',#135,#137) ;
#172=LINE('Line',#169,#171) ;
#213=LINE('Line',#210,#212) ;
#229=LINE('Line',#226,#228) ;
#243=LINE('Line',#240,#242) ;
#257=LINE('Line',#254,#256) ;
#264=LINE('Line',#261,#263) ;
#278=LINE('Line',#275,#277) ;
#292=LINE('Line',#289,#291) ;
#306=LINE('Line',#303,#305) ;
#320=LINE('Line',#317,#319) ;
#334=LINE('Line',#331,#333) ;
#346=LINE('Line',#343,#345) ;
#360=LINE('Line',#357,#359) ;
#367=LINE('Line',#364,#366) ;
#374=LINE('Line',#371,#373) ;
#381=LINE('Line',#378,#380) ;
#388=LINE('Line',#385,#387) ;
#395=LINE('Line',#392,#394) ;
#402=LINE('Line',#399,#401) ;
#409=LINE('Line',#406,#408) ;
#416=LINE('Line',#413,#415) ;
#423=LINE('Line',#420,#422) ;
#437=LINE('Line',#434,#436) ;
#451=LINE('Line',#448,#450) ;
#458=LINE('Line',#455,#457) ;
#465=LINE('Line',#462,#464) ;
#517=LINE('Line',#514,#516) ;
#541=LINE('Line',#538,#540) ;
#548=LINE('Line',#545,#547) ;
#555=LINE('Line',#552,#554) ;
#572=LINE('Line',#569,#571) ;
#588=LINE('Line',#585,#587) ;
#629=LINE('Line',#626,#628) ;
#636=LINE('Line',#633,#635) ;
#660=LINE('Line',#657,#659) ;
#667=LINE('Line',#664,#666) ;
#684=LINE('Line',#681,#683) ;
#708=LINE('Line',#705,#707) ;
#715=LINE('Line',#712,#714) ;
#732=LINE('Line',#729,#731) ;
#756=LINE('Line',#753,#755) ;
#763=LINE('Line',#760,#762) ;
#780=LINE('Line',#777,#779) ;
#787=LINE('Line',#784,#786) ;
#804=LINE('Line',#801,#803) ;
#828=LINE('Line',#825,#827) ;
#835=LINE('Line',#832,#834) ;
#852=LINE('Line',#849,#851) ;
#876=LINE('Line',#873,#875) ;
#883=LINE('Line',#880,#882) ;
#900=LINE('Line',#897,#899) ;
#924=LINE('Line',#921,#923) ;
#931=LINE('Line',#928,#930) ;
#948=LINE('Line',#945,#947) ;
#972=LINE('Line',#969,#971) ;
#979=LINE('Line',#976,#978) ;
#996=LINE('Line',#993,#995) ;
#1020=LINE('Line',#1017,#1019) ;
#1037=LINE('Line',#1034,#1036) ;
#1044=LINE('Line',#1041,#1043) ;
#1068=LINE('Line',#1065,#1067) ;
#1075=LINE('Line',#1072,#1074) ;
#1087=LINE('Line',#1084,#1086) ;
#1094=LINE('Line',#1091,#1093) ;
#1111=LINE('Line',#1108,#1110) ;
#1118=LINE('Line',#1115,#1117) ;
#1135=LINE('Line',#1132,#1134) ;
#1142=LINE('Line',#1139,#1141) ;
#1159=LINE('Line',#1156,#1158) ;
#1166=LINE('Line',#1163,#1165) ;
#1183=LINE('Line',#1180,#1182) ;
#1190=LINE('Line',#1187,#1189) ;
#1211=LINE('Line',#1208,#1210) ;
#1218=LINE('Line',#1215,#1217) ;
#1235=LINE('Line',#1232,#1234) ;
#1242=LINE('Line',#1239,#1241) ;
#1263=LINE('Line',#1260,#1262) ;
#1270=LINE('Line',#1267,#1269) ;
#1287=LINE('Line',#1284,#1286) ;
#1294=LINE('Line',#1291,#1293) ;
#1311=LINE('Line',#1308,#1310) ;
#1335=LINE('Line',#1332,#1334) ;
#1342=LINE('Line',#1339,#1341) ;
#1359=LINE('Line',#1356,#1358) ;
#1383=LINE('Line',#1380,#1382) ;
#1400=LINE('Line',#1397,#1399) ;
#1407=LINE('Line',#1404,#1406) ;
#1424=LINE('Line',#1421,#1423) ;
#1454=LINE('Line',#1451,#1453) ;
#1470=LINE('Line',#1467,#1469) ;
#1494=LINE('Line',#1491,#1493) ;
#1501=LINE('Line',#1498,#1500) ;
#1508=LINE('Line',#1505,#1507) ;
#1525=LINE('Line',#1522,#1524) ;
#1556=LINE('Line',#1553,#1555) ;
#1563=LINE('Line',#1560,#1562) ;
#1570=LINE('Line',#1567,#1569) ;
#1601=LINE('Line',#1598,#1600) ;
#1618=LINE('Line',#1615,#1617) ;
#1625=LINE('Line',#1622,#1624) ;
#1653=LINE('Line',#1650,#1652) ;
#1660=LINE('Line',#1657,#1659) ;
#1672=LINE('Line',#1669,#1671) ;
#1679=LINE('Line',#1676,#1678) ;
#1684=LINE('Line',#1681,#1683) ;
#2=MECHANICAL_CONTEXT(' ',#1,'mechanical') ;
#24=PERSONAL_ADDRESS(' ',' ',' ',' ',' ',' ',' ',' ',' ',' ',' ',' ',(#22),' ') ;
#106=PLANE('Plane',#105) ;
#209=PLANE('Plane',#208) ;
#537=PLANE('Plane',#536) ;
#656=PLANE('Plane',#655) ;
#704=PLANE('Plane',#703) ;
#752=PLANE('Plane',#751) ;
#776=PLANE('Plane',#775) ;
#824=PLANE('Plane',#823) ;
#872=PLANE('Plane',#871) ;
#920=PLANE('Plane',#919) ;
#968=PLANE('Plane',#967) ;
#1016=PLANE('Plane',#1015) ;
#1064=PLANE('Plane',#1063) ;
#1107=PLANE('Plane',#1106) ;
#1131=PLANE('Plane',#1130) ;
#1155=PLANE('Plane',#1154) ;
#1179=PLANE('Plane',#1178) ;
#1207=PLANE('Plane',#1206) ;
#1231=PLANE('Plane',#1230) ;
#1259=PLANE('Plane',#1258) ;
#1283=PLANE('Plane',#1282) ;
#1331=PLANE('Plane',#1330) ;
#1379=PLANE('Plane',#1378) ;
#1396=PLANE('Plane',#1395) ;
#1420=PLANE('Plane',#1419) ;
#1490=PLANE('Plane',#1489) ;
#1552=PLANE('Plane',#1551) ;
#1614=PLANE('Plane',#1613) ;
#1649=PLANE('Plane',#1648) ;
#1705=PLANE('Plane',#1704) ;
#43=PLANE_ANGLE_MEASURE_WITH_UNIT(PLANE_ANGLE_MEASURE(0.0174532925199),#42) ;
#7=PRODUCT_CATEGORY('part',$) ;
#9=PRODUCT_CATEGORY_RELATIONSHIP(' ',' ',#7,#8) ;
#6=PRODUCT_DEFINITION_FORMATION_WITH_SPECIFIED_SOURCE('',' ',#5,.NOT_KNOWN.) ;
#8=PRODUCT_RELATED_PRODUCT_CATEGORY('detail',$,(#5)) ;
#50=SHAPE_DEFINITION_REPRESENTATION(#40,#49) ;
#62=VERTEX_POINT('',#61) ;
#64=VERTEX_POINT('',#63) ;
#71=VERTEX_POINT('',#70) ;
#78=VERTEX_POINT('',#77) ;
#87=VERTEX_POINT('',#86) ;
#112=VERTEX_POINT('',#111) ;
#119=VERTEX_POINT('',#118) ;
#126=VERTEX_POINT('',#125) ;
#133=VERTEX_POINT('',#132) ;
#140=VERTEX_POINT('',#139) ;
#167=VERTEX_POINT('',#166) ;
#174=VERTEX_POINT('',#173) ;
#215=VERTEX_POINT('',#214) ;
#217=VERTEX_POINT('',#216) ;
#224=VERTEX_POINT('',#223) ;
#231=VERTEX_POINT('',#230) ;
#238=VERTEX_POINT('',#237) ;
#245=VERTEX_POINT('',#244) ;
#252=VERTEX_POINT('',#251) ;
#259=VERTEX_POINT('',#258) ;
#266=VERTEX_POINT('',#265) ;
#273=VERTEX_POINT('',#272) ;
#280=VERTEX_POINT('',#279) ;
#287=VERTEX_POINT('',#286) ;
#294=VERTEX_POINT('',#293) ;
#301=VERTEX_POINT('',#300) ;
#308=VERTEX_POINT('',#307) ;
#315=VERTEX_POINT('',#314) ;
#322=VERTEX_POINT('',#321) ;
#329=VERTEX_POINT('',#328) ;
#336=VERTEX_POINT('',#335) ;
#348=VERTEX_POINT('',#347) ;
#355=VERTEX_POINT('',#354) ;
#362=VERTEX_POINT('',#361) ;
#369=VERTEX_POINT('',#368) ;
#376=VERTEX_POINT('',#375) ;
#383=VERTEX_POINT('',#382) ;
#390=VERTEX_POINT('',#389) ;
#397=VERTEX_POINT('',#396) ;
#404=VERTEX_POINT('',#403) ;
#411=VERTEX_POINT('',#410) ;
#418=VERTEX_POINT('',#417) ;
#425=VERTEX_POINT('',#424) ;
#432=VERTEX_POINT('',#431) ;
#439=VERTEX_POINT('',#438) ;
#446=VERTEX_POINT('',#445) ;
#453=VERTEX_POINT('',#452) ;
#460=VERTEX_POINT('',#459) ;
#519=VERTEX_POINT('',#518) ;
#543=VERTEX_POINT('',#542) ;
#550=VERTEX_POINT('',#549) ;
#574=VERTEX_POINT('',#573) ;
#576=VERTEX_POINT('',#575) ;
#583=VERTEX_POINT('',#582) ;
#590=VERTEX_POINT('',#589) ;
#631=VERTEX_POINT('',#630) ;
#638=VERTEX_POINT('',#637) ;
#662=VERTEX_POINT('',#661) ;
#686=VERTEX_POINT('',#685) ;
#710=VERTEX_POINT('',#709) ;
#734=VERTEX_POINT('',#733) ;
#758=VERTEX_POINT('',#757) ;
#782=VERTEX_POINT('',#781) ;
#806=VERTEX_POINT('',#805) ;
#830=VERTEX_POINT('',#829) ;
#854=VERTEX_POINT('',#853) ;
#878=VERTEX_POINT('',#877) ;
#902=VERTEX_POINT('',#901) ;
#926=VERTEX_POINT('',#925) ;
#950=VERTEX_POINT('',#949) ;
#974=VERTEX_POINT('',#973) ;
#998=VERTEX_POINT('',#997) ;
#1039=VERTEX_POINT('',#1038) ;
#1046=VERTEX_POINT('',#1045) ;
#1070=VERTEX_POINT('',#1069) ;
#1089=VERTEX_POINT('',#1088) ;
#1113=VERTEX_POINT('',#1112) ;
#1137=VERTEX_POINT('',#1136) ;
#1161=VERTEX_POINT('',#1160) ;
#1185=VERTEX_POINT('',#1184) ;
#1213=VERTEX_POINT('',#1212) ;
#1237=VERTEX_POINT('',#1236) ;
#1265=VERTEX_POINT('',#1264) ;
#1289=VERTEX_POINT('',#1288) ;
#1313=VERTEX_POINT('',#1312) ;
#1337=VERTEX_POINT('',#1336) ;
#1361=VERTEX_POINT('',#1360) ;
#1402=VERTEX_POINT('',#1401) ;
#1456=VERTEX_POINT('',#1455) ;
#1458=VERTEX_POINT('',#1457) ;
#1465=VERTEX_POINT('',#1464) ;
#1472=VERTEX_POINT('',#1471) ;
#1496=VERTEX_POINT('',#1495) ;
#1503=VERTEX_POINT('',#1502) ;
#1527=VERTEX_POINT('',#1526) ;
#1529=VERTEX_POINT('',#1528) ;
#1558=VERTEX_POINT('',#1557) ;
#1565=VERTEX_POINT('',#1564) ;
#1589=VERTEX_POINT('',#1588) ;
#1596=VERTEX_POINT('',#1595) ;
#1620=VERTEX_POINT('',#1619) ;
#1627=VERTEX_POINT('',#1626) ;
#1655=VERTEX_POINT('',#1654) ;
#1674=VERTEX_POINT('',#1673) ;
#41=(LENGTH_UNIT()NAMED_UNIT(*)SI_UNIT(.MILLI.,.METRE.)) ;
#42=(NAMED_UNIT(*)PLANE_ANGLE_UNIT()SI_UNIT($,.RADIAN.)) ;
#44=(NAMED_UNIT(*)SI_UNIT($,.STERADIAN.)SOLID_ANGLE_UNIT()) ;
#46=(GEOMETRIC_REPRESENTATION_CONTEXT(3)GLOBAL_UNCERTAINTY_ASSIGNED_CONTEXT((#45))GLOBAL_UNIT_ASSIGNED_CONTEXT((#41,#42,#44))REPRESENTATION_CONTEXT(' ',' ')) ;
ENDSEC;
END-ISO-10303-21;
