ISO-10303-21;
HEADER;


ENDSEC;

DATA;
#5=PRODUCT('Housing_Lid_v12','','',(#2)) ;
#1=APPLICATION_CONTEXT('configuration controlled 3D design of mechanical parts and assemblies') ;
#14=PRODUCT_DEFINITION(' ',' ',#6,#3) ;
#16=SECURITY_CLASSIFICATION(' ',' ',#15) ;
#15=SECURITY_CLASSIFICATION_LEVEL('unclassified') ;
#47=CARTESIAN_POINT(' ',(0.,0.,0.)) ;
#52=CARTESIAN_POINT('Axis2P3D Location',(514.135452735,-347.054108166,-191.750618805)) ;
#57=CARTESIAN_POINT('Axis2P3D Location',(513.840879071,-349.032060902,-191.781103718)) ;
#61=CARTESIAN_POINT('Vertex',(514.228648137,-346.406171057,-193.179079997)) ;
#63=CARTESIAN_POINT('Vertex',(513.453110005,-351.657950747,-190.38312744)) ;
#66=CARTESIAN_POINT('Axis2P3D Location',(513.840879071,-349.032060902,-191.781103718)) ;
#75=CARTESIAN_POINT('Axis2P3D Location',(513.840879071,-349.032060902,-191.781103718)) ;
#79=CARTESIAN_POINT('Vertex',(513.58236636,-350.782654132,-190.849119533)) ;
#81=CARTESIAN_POINT('Vertex',(514.099391782,-347.281467672,-192.713087904)) ;
#84=CARTESIAN_POINT('Axis2P3D Location',(513.840879071,-349.032060902,-191.781103718)) ;
#94=CARTESIAN_POINT('Axis2P3D Location',(518.6874388,-349.753680677,-191.79222558)) ;
#99=CARTESIAN_POINT('Axis2P3D Location',(509.884503782,-348.442983534,-191.772024648)) ;
#103=CARTESIAN_POINT('Vertex',(510.143016493,-346.692390305,-192.704008833)) ;
#105=CARTESIAN_POINT('Vertex',(509.625991071,-350.193576764,-190.840040462)) ;
#108=CARTESIAN_POINT('Line Origine',(508.657639959,-350.049395871,-190.837818295)) ;
#113=CARTESIAN_POINT('Line Origine',(509.174665381,-346.548209411,-192.701786666)) ;
#125=CARTESIAN_POINT('Axis2P3D Location',(509.884503782,-348.442983534,-191.772024648)) ;
#137=CARTESIAN_POINT('Axis2P3D Location',(510.970744169,-341.212620927,-187.550044975)) ;
#142=CARTESIAN_POINT('Line Origine',(507.677653331,-349.747168769,-187.681582473)) ;
#146=CARTESIAN_POINT('Vertex',(506.362750138,-358.576255295,-187.817659507)) ;
#148=CARTESIAN_POINT('Vertex',(508.992556524,-340.918082243,-187.545505439)) ;
#151=CARTESIAN_POINT('Line Origine',(509.981650347,-341.065351585,-187.547775207)) ;
#155=CARTESIAN_POINT('Vertex',(510.970744169,-341.212620927,-187.550044975)) ;
#158=CARTESIAN_POINT('Line Origine',(509.655840975,-350.041707453,-187.686122008)) ;
#162=CARTESIAN_POINT('Vertex',(508.340937782,-358.870793979,-187.822199042)) ;
#165=CARTESIAN_POINT('Line Origine',(507.35184396,-358.723524637,-187.819929275)) ;
#177=CARTESIAN_POINT('Axis2P3D Location',(509.96783867,-341.108799357,-190.747450429)) ;
#182=CARTESIAN_POINT('Axis2P3D Location',(508.978744848,-340.961530015,-190.745180662)) ;
#186=CARTESIAN_POINT('Vertex',(509.449882138,-337.79938304,-190.607862913)) ;
#189=CARTESIAN_POINT('Line Origine',(510.43897596,-337.946652382,-190.610132681)) ;
#193=CARTESIAN_POINT('Vertex',(511.428069782,-338.093921724,-190.612402449)) ;
#196=CARTESIAN_POINT('Axis2P3D Location',(510.956932492,-341.256068699,-190.749720197)) ;
#208=CARTESIAN_POINT('Axis2P3D Location',(511.428069782,-337.616195391,-221.608721327)) ;
#213=CARTESIAN_POINT('Line Origine',(509.449882138,-337.560519873,-206.106022352)) ;
#217=CARTESIAN_POINT('Vertex',(509.449882138,-337.321656707,-221.604181792)) ;
#220=CARTESIAN_POINT('Line Origine',(510.43897596,-337.468926049,-221.606451559)) ;
#224=CARTESIAN_POINT('Vertex',(511.428069782,-337.616195391,-221.608721327)) ;
#227=CARTESIAN_POINT('Line Origine',(511.428069782,-337.855058557,-206.110561888)) ;
#239=CARTESIAN_POINT('Axis2P3D Location',(509.967882292,-340.633665894,-221.55652694)) ;
#244=CARTESIAN_POINT('Axis2P3D Location',(508.97878847,-340.486396552,-221.554257173)) ;
#248=CARTESIAN_POINT('Vertex',(508.992556524,-340.344656538,-224.751086885)) ;
#251=CARTESIAN_POINT('Line Origine',(509.981650347,-340.49192588,-224.753356653)) ;
#255=CARTESIAN_POINT('Vertex',(510.970744169,-340.639195222,-224.75562642)) ;
#258=CARTESIAN_POINT('Axis2P3D Location',(510.956976114,-340.780935236,-221.558796708)) ;
#270=CARTESIAN_POINT('Axis2P3D Location',(508.340937782,-358.297368274,-225.027780488)) ;
#275=CARTESIAN_POINT('Line Origine',(507.677653331,-349.173743064,-224.887163919)) ;
#279=CARTESIAN_POINT('Vertex',(506.362750137,-358.00282959,-225.023240952)) ;
#282=CARTESIAN_POINT('Line Origine',(507.35184396,-358.150098932,-225.02551072)) ;
#286=CARTESIAN_POINT('Vertex',(508.340937782,-358.297368274,-225.027780488)) ;
#289=CARTESIAN_POINT('Line Origine',(509.655840975,-349.468281748,-224.891703454)) ;
#301=CARTESIAN_POINT('Axis2P3D Location',(508.340937782,-358.870793979,-187.822199042)) ;
#306=CARTESIAN_POINT('Line Origine',(506.362750137,-358.289542443,-206.42045023)) ;
#311=CARTESIAN_POINT('Line Origine',(508.340937782,-358.584081126,-206.424989765)) ;
#323=CARTESIAN_POINT('Axis2P3D Location',(548.031031504,-81.5980926541,-1.25761893746)) ;
#328=CARTESIAN_POINT('Line Origine',(507.68538589,-349.716745195,-186.285947899)) ;
#332=CARTESIAN_POINT('Vertex',(506.157285007,-359.977375013,-186.444088389)) ;
#334=CARTESIAN_POINT('Vertex',(509.213486773,-339.456115376,-186.127807409)) ;
#337=CARTESIAN_POINT('Axis2P3D Location',(509.213486773,-339.409883795,-189.127451161)) ;
#341=CARTESIAN_POINT('Vertex',(509.655347269,-336.442954691,-189.081723791)) ;
#344=CARTESIAN_POINT('Line Origine',(509.655347269,-336.180975734,-206.079705106)) ;
#348=CARTESIAN_POINT('Vertex',(509.655347269,-335.918996778,-223.077686421)) ;
#351=CARTESIAN_POINT('Axis2P3D Location',(509.213486773,-338.885925882,-223.123413792)) ;
#355=CARTESIAN_POINT('Vertex',(509.213486773,-338.839694301,-226.123057544)) ;
#358=CARTESIAN_POINT('Line Origine',(507.68538589,-349.10032412,-226.281198034)) ;
#362=CARTESIAN_POINT('Vertex',(506.157285007,-359.360953939,-226.439338525)) ;
#365=CARTESIAN_POINT('Line Origine',(506.157285007,-359.669164476,-206.441713457)) ;
#387=CARTESIAN_POINT('Axis2P3D Location',(511.191674417,-339.75065406,-186.132346944)) ;
#392=CARTESIAN_POINT('Line Origine',(511.597301029,-360.787356394,-186.456572112)) ;
#396=CARTESIAN_POINT('Vertex',(517.037317051,-361.597337774,-186.469055834)) ;
#399=CARTESIAN_POINT('Line Origine',(518.565417934,-351.336707955,-186.310915344)) ;
#403=CARTESIAN_POINT('Vertex',(520.093518817,-341.076078137,-186.152774854)) ;
#406=CARTESIAN_POINT('Line Origine',(514.653502795,-340.266096756,-186.140291131)) ;
#418=CARTESIAN_POINT('Axis2P3D Location',(515.642596617,-340.367134518,-189.142204651)) ;
#423=CARTESIAN_POINT('Axis2P3D Location',(520.093518817,-341.029846556,-189.152418606)) ;
#427=CARTESIAN_POINT('Vertex',(520.535379313,-338.062917452,-189.106691235)) ;
#430=CARTESIAN_POINT('Line Origine',(511.633534913,-336.737493375,-189.086263326)) ;
#442=CARTESIAN_POINT('Axis2P3D Location',(511.633534913,-336.737493375,-189.086263326)) ;
#447=CARTESIAN_POINT('Line Origine',(520.535379313,-337.800938495,-206.104672551)) ;
#451=CARTESIAN_POINT('Vertex',(520.535379313,-337.538959538,-223.102653866)) ;
#454=CARTESIAN_POINT('Line Origine',(515.095363291,-336.728978158,-223.090170144)) ;
#466=CARTESIAN_POINT('Axis2P3D Location',(515.642596617,-339.843176604,-223.138167282)) ;
#471=CARTESIAN_POINT('Axis2P3D Location',(520.093518817,-340.505888643,-223.148381236)) ;
#475=CARTESIAN_POINT('Vertex',(520.093518817,-340.459657062,-226.148024989)) ;
#478=CARTESIAN_POINT('Line Origine',(511.191674417,-339.134232985,-226.12759708)) ;
#490=CARTESIAN_POINT('Axis2P3D Location',(508.135472651,-359.655492623,-226.44387806)) ;
#495=CARTESIAN_POINT('Line Origine',(518.565417934,-350.720286881,-226.306165479)) ;
#499=CARTESIAN_POINT('Vertex',(517.037317051,-360.9809167,-226.464305969)) ;
#502=CARTESIAN_POINT('Line Origine',(511.597301029,-360.170935319,-226.451822247)) ;
#514=CARTESIAN_POINT('Axis2P3D Location',(508.135472651,-359.655492623,-226.44387806)) ;
#519=CARTESIAN_POINT('Line Origine',(517.037317051,-361.289127237,-206.466680901)) ;
#531=CARTESIAN_POINT('Axis2P3D Location',(514.206550004,-349.747672927,-206.288944138)) ;
#536=CARTESIAN_POINT('Axis2P3D Location',(515.690190737,-349.96857694,-206.292348789)) ;
#540=CARTESIAN_POINT('Vertex',(516.632716953,-343.638360172,-206.292348789)) ;
#542=CARTESIAN_POINT('Vertex',(514.747664521,-356.298793708,-206.292348789)) ;
#545=CARTESIAN_POINT('Line Origine',(513.264023788,-356.077889695,-206.288944138)) ;
#549=CARTESIAN_POINT('Vertex',(517.714945988,-356.740601734,-206.299158092)) ;
#552=CARTESIAN_POINT('Axis2P3D Location',(518.657472204,-350.410384965,-206.299158092)) ;
#556=CARTESIAN_POINT('Vertex',(519.59999842,-344.080168197,-206.299158092)) ;
#559=CARTESIAN_POINT('Line Origine',(515.14907622,-343.417456159,-206.288944138)) ;
#571=CARTESIAN_POINT('Axis2P3D Location',(515.690190737,-349.96857694,-206.292348789)) ;
#576=CARTESIAN_POINT('Axis2P3D Location',(518.657472204,-350.410384965,-206.299158092)) ;
#588=CARTESIAN_POINT('Axis2P3D Location',(555.943782082,-82.7762473893,-1.27577707889)) ;
#593=CARTESIAN_POINT('Axis2P3D Location',(516.721198562,-343.172837145,-197.939360563)) ;
#597=CARTESIAN_POINT('Vertex',(516.721198562,-343.203658198,-195.939598061)) ;
#599=CARTESIAN_POINT('Vertex',(517.015772226,-341.194884409,-197.908875649)) ;
#602=CARTESIAN_POINT('Line Origine',(517.015772226,-341.067747563,-206.157895941)) ;
#606=CARTESIAN_POINT('Vertex',(517.015772226,-340.940610717,-214.406916233)) ;
#609=CARTESIAN_POINT('Axis2P3D Location',(516.721198562,-342.918563453,-214.437401147)) ;
#613=CARTESIAN_POINT('Vertex',(516.721198562,-342.887742399,-216.437163648)) ;
#616=CARTESIAN_POINT('Line Origine',(515.727012445,-349.563332884,-216.540050232)) ;
#620=CARTESIAN_POINT('Vertex',(514.732826329,-356.238923368,-216.642936816)) ;
#623=CARTESIAN_POINT('Axis2P3D Location',(514.732826329,-356.269744422,-214.643174315)) ;
#627=CARTESIAN_POINT('Vertex',(514.438252664,-358.247697158,-214.673659228)) ;
#630=CARTESIAN_POINT('Line Origine',(514.438252664,-358.374834004,-206.424638936)) ;
#634=CARTESIAN_POINT('Vertex',(514.438252664,-358.50197085,-198.175618644)) ;
#637=CARTESIAN_POINT('Axis2P3D Location',(514.732826329,-356.524018114,-198.145133731)) ;
#641=CARTESIAN_POINT('Vertex',(514.732826329,-356.554839167,-196.145371229)) ;
#644=CARTESIAN_POINT('Line Origine',(515.727012445,-349.879248683,-196.042484645)) ;
#664=CARTESIAN_POINT('Axis2P3D Location',(510.786635629,-342.320042147,-195.925979455)) ;
#669=CARTESIAN_POINT('Line Origine',(511.765544862,-356.113031142,-196.138561926)) ;
#673=CARTESIAN_POINT('Vertex',(508.798263396,-355.671223116,-196.131752623)) ;
#676=CARTESIAN_POINT('Line Origine',(509.792449512,-348.995632631,-196.028866039)) ;
#680=CARTESIAN_POINT('Vertex',(510.786635629,-342.320042147,-195.925979455)) ;
#683=CARTESIAN_POINT('Line Origine',(513.753917095,-342.761850173,-195.932788758)) ;
#695=CARTESIAN_POINT('Axis2P3D Location',(513.753917095,-342.731029119,-197.93255126)) ;
#700=CARTESIAN_POINT('Axis2P3D Location',(510.786635629,-342.289221093,-197.925741957)) ;
#704=CARTESIAN_POINT('Vertex',(511.081209293,-340.311268357,-197.895257043)) ;
#707=CARTESIAN_POINT('Line Origine',(514.048490759,-340.753076383,-197.902066346)) ;
#719=CARTESIAN_POINT('Axis2P3D Location',(511.081209293,-340.311268357,-197.895257043)) ;
#724=CARTESIAN_POINT('Line Origine',(511.081209293,-340.184131511,-206.144277335)) ;
#728=CARTESIAN_POINT('Vertex',(511.081209293,-340.056994665,-214.393297627)) ;
#731=CARTESIAN_POINT('Line Origine',(514.048490759,-340.498802691,-214.40010693)) ;
#743=CARTESIAN_POINT('Axis2P3D Location',(513.753917095,-342.476755427,-214.430591844)) ;
#748=CARTESIAN_POINT('Axis2P3D Location',(510.786635629,-342.034947402,-214.423782541)) ;
#752=CARTESIAN_POINT('Vertex',(510.786635629,-342.004126348,-216.423545042)) ;
#755=CARTESIAN_POINT('Line Origine',(513.753917095,-342.445934374,-216.430354345)) ;
#767=CARTESIAN_POINT('Axis2P3D Location',(508.798263396,-355.355307317,-216.62931821)) ;
#772=CARTESIAN_POINT('Line Origine',(509.792449512,-348.679716832,-216.526431626)) ;
#776=CARTESIAN_POINT('Vertex',(508.798263396,-355.355307317,-216.62931821)) ;
#779=CARTESIAN_POINT('Line Origine',(511.765544862,-355.797115343,-216.636127513)) ;
#791=CARTESIAN_POINT('Axis2P3D Location',(511.765544862,-355.827936396,-214.636365012)) ;
#796=CARTESIAN_POINT('Axis2P3D Location',(508.798263396,-355.386128371,-214.629555709)) ;
#800=CARTESIAN_POINT('Vertex',(508.503689731,-357.364081107,-214.660040622)) ;
#803=CARTESIAN_POINT('Line Origine',(511.470971198,-357.805889132,-214.666849925)) ;
#815=CARTESIAN_POINT('Axis2P3D Location',(508.503689731,-357.364081107,-214.660040622)) ;
#820=CARTESIAN_POINT('Line Origine',(508.503689731,-357.491217953,-206.41102033)) ;
#824=CARTESIAN_POINT('Vertex',(508.503689731,-357.618354798,-198.162000038)) ;
#827=CARTESIAN_POINT('Line Origine',(511.470971198,-358.060162824,-198.168809341)) ;
#839=CARTESIAN_POINT('Axis2P3D Location',(511.765544862,-356.082210088,-198.138324428)) ;
#844=CARTESIAN_POINT('Axis2P3D Location',(508.798263396,-355.640402062,-198.131515125)) ;
#856=CARTESIAN_POINT('Axis2P3D Location',(518.6874388,-349.753680677,-191.79222558)) ;
#861=CARTESIAN_POINT('Axis2P3D Location',(518.786348182,-349.768407611,-191.792452557)) ;
#865=CARTESIAN_POINT('Vertex',(519.174117248,-347.142517767,-193.190428835)) ;
#867=CARTESIAN_POINT('Vertex',(518.398579116,-352.394297456,-190.394476278)) ;
#870=CARTESIAN_POINT('Line Origine',(518.658827627,-347.065794647,-193.189246351)) ;
#875=CARTESIAN_POINT('Line Origine',(517.883289494,-352.317574337,-190.393293794)) ;
#887=CARTESIAN_POINT('Axis2P3D Location',(518.786348182,-349.768407611,-191.792452557)) ;
#899=CARTESIAN_POINT('Axis2P3D Location',(558.911063548,-83.2180554149,-1.28258638192)) ;
#912=CARTESIAN_POINT('Axis2P3D Location',(518.786348182,-349.321502334,-220.789008829)) ;
#916=CARTESIAN_POINT('Vertex',(519.174117248,-346.695612489,-222.186985108)) ;
#918=CARTESIAN_POINT('Vertex',(518.398579116,-351.947392178,-219.391032551)) ;
#921=CARTESIAN_POINT('Axis2P3D Location',(518.786348182,-349.321502334,-220.789008829)) ;
#939=CARTESIAN_POINT('Axis2P3D Location',(550.009219148,-81.8926313379,-1.26215847282)) ;
#952=CARTESIAN_POINT('Axis2P3D Location',(509.884503782,-347.996078257,-220.76858092)) ;
#956=CARTESIAN_POINT('Vertex',(509.625991071,-349.746671486,-219.836596735)) ;
#958=CARTESIAN_POINT('Vertex',(510.143016493,-346.245485027,-221.700565106)) ;
#961=CARTESIAN_POINT('Axis2P3D Location',(509.884503782,-347.996078257,-220.76858092)) ;
#985=CARTESIAN_POINT('Axis2P3D Location',(513.840879071,-348.585155624,-220.777659991)) ;
#989=CARTESIAN_POINT('Vertex',(514.228648137,-345.959265779,-222.17563627)) ;
#991=CARTESIAN_POINT('Vertex',(513.453110005,-351.211045469,-219.379683713)) ;
#994=CARTESIAN_POINT('Axis2P3D Location',(513.840879071,-348.585155624,-220.777659991)) ;
#1003=CARTESIAN_POINT('Axis2P3D Location',(513.840879071,-348.585155624,-220.777659991)) ;
#1007=CARTESIAN_POINT('Vertex',(513.58236636,-350.335748854,-219.845675805)) ;
#1009=CARTESIAN_POINT('Vertex',(514.099391782,-346.834562394,-221.709644177)) ;
#1012=CARTESIAN_POINT('Axis2P3D Location',(513.840879071,-348.585155624,-220.777659991)) ;
#1022=CARTESIAN_POINT('Axis2P3D Location',(518.6874388,-349.306775399,-220.788781853)) ;
#1027=CARTESIAN_POINT('Line Origine',(517.883289494,-351.870669059,-219.389850067)) ;
#1032=CARTESIAN_POINT('Line Origine',(518.658827627,-346.61888937,-222.185802624)) ;
#1051=CARTESIAN_POINT('Axis2P3D Location',(518.6874388,-349.306775399,-220.788781853)) ;
#1056=CARTESIAN_POINT('Line Origine',(508.657639959,-349.602490593,-219.834374567)) ;
#1061=CARTESIAN_POINT('Line Origine',(509.174665381,-346.101304133,-221.698342939)) ;
#53=DIRECTION('Axis2P3D Direction',(-0.989093822189,0.147269341893,0.00226976767775)) ;
#54=DIRECTION('Axis2P3D XDirection',(0.147286832089,0.98897636807,0.0152424568851)) ;
#58=DIRECTION('Axis2P3D Direction',(-0.989093822189,0.147269341893,0.00226976767775)) ;
#67=DIRECTION('Axis2P3D Direction',(-0.989093822189,0.147269341893,0.00226976767775)) ;
#76=DIRECTION('Axis2P3D Direction',(-0.989093822189,0.147269341893,0.00226976767775)) ;
#85=DIRECTION('Axis2P3D Direction',(-0.989093822189,0.147269341893,0.00226976767775)) ;
#95=DIRECTION('Axis2P3D Direction',(-0.989093822189,0.147269341893,0.00226976767775)) ;
#96=DIRECTION('Axis2P3D XDirection',(0.129256355438,0.875296614866,-0.465992092833)) ;
#100=DIRECTION('Axis2P3D Direction',(-0.989093822189,0.147269341893,0.00226976767775)) ;
#109=DIRECTION('Vector Direction',(-0.989093822189,0.147269341893,0.00226976767775)) ;
#114=DIRECTION('Vector Direction',(-0.989093822189,0.147269341893,0.00226976767775)) ;
#126=DIRECTION('Axis2P3D Direction',(-0.989093822189,0.147269341893,0.00226976767775)) ;
#138=DIRECTION('Axis2P3D Direction',(-9.6489873383E-013,0.0154105268244,-0.999881250781)) ;
#139=DIRECTION('Axis2P3D XDirection',(-0.147286832089,-0.98897636807,-0.0152424568786)) ;
#143=DIRECTION('Vector Direction',(-0.147286832089,-0.98897636807,-0.0152424568786)) ;
#152=DIRECTION('Vector Direction',(-0.989093822189,0.147269341893,0.00226976767776)) ;
#159=DIRECTION('Vector Direction',(-0.147286832089,-0.98897636807,-0.0152424568786)) ;
#166=DIRECTION('Vector Direction',(-0.989093822189,0.147269341893,0.00226976767776)) ;
#178=DIRECTION('Axis2P3D Direction',(-0.989093822189,0.147269341893,0.00226976767775)) ;
#179=DIRECTION('Axis2P3D XDirection',(0.00431614898509,0.0135774286684,0.999898506994)) ;
#183=DIRECTION('Axis2P3D Direction',(-0.989093822189,0.147269341893,0.00226976767775)) ;
#190=DIRECTION('Vector Direction',(-0.989093822189,0.147269341893,0.00226976767775)) ;
#197=DIRECTION('Axis2P3D Direction',(-0.989093822189,0.147269341893,0.00226976767775)) ;
#209=DIRECTION('Axis2P3D Direction',(-0.147286832089,-0.98897636807,-0.0152424568786)) ;
#210=DIRECTION('Axis2P3D XDirection',(9.6431022889E-013,-0.0154105268244,0.999881250781)) ;
#214=DIRECTION('Vector Direction',(9.64504458724E-013,-0.0154105268244,0.999881250781)) ;
#221=DIRECTION('Vector Direction',(-0.989093822189,0.147269341893,0.00226976767776)) ;
#228=DIRECTION('Vector Direction',(9.64504458724E-013,-0.0154105268244,0.999881250781)) ;
#240=DIRECTION('Axis2P3D Direction',(-0.989093822189,0.147269341893,0.00226976767775)) ;
#241=DIRECTION('Axis2P3D XDirection',(0.147216771343,0.988981201641,-0.015601443426)) ;
#245=DIRECTION('Axis2P3D Direction',(-0.989093822189,0.147269341893,0.00226976767775)) ;
#252=DIRECTION('Vector Direction',(-0.989093822189,0.147269341893,0.00226976767775)) ;
#259=DIRECTION('Axis2P3D Direction',(-0.989093822189,0.147269341893,0.00226976767775)) ;
#271=DIRECTION('Axis2P3D Direction',(9.64536176623E-013,-0.0154105268244,0.999881250781)) ;
#272=DIRECTION('Axis2P3D XDirection',(0.147286832089,0.98897636807,0.0152424568786)) ;
#276=DIRECTION('Vector Direction',(0.147286832089,0.98897636807,0.0152424568786)) ;
#283=DIRECTION('Vector Direction',(-0.989093822189,0.147269341893,0.00226976767776)) ;
#290=DIRECTION('Vector Direction',(0.147286832089,0.98897636807,0.0152424568786)) ;
#302=DIRECTION('Axis2P3D Direction',(0.147286832089,0.98897636807,0.0152424568786)) ;
#303=DIRECTION('Axis2P3D XDirection',(-9.64012290133E-013,0.0154105268244,-0.999881250781)) ;
#307=DIRECTION('Vector Direction',(-9.63939725904E-013,0.0154105268244,-0.999881250781)) ;
#312=DIRECTION('Vector Direction',(-9.63939725904E-013,0.0154105268244,-0.999881250781)) ;
#324=DIRECTION('Axis2P3D Direction',(-0.989093822189,0.147269341893,0.00226976767775)) ;
#325=DIRECTION('Axis2P3D XDirection',(-0.147269721249,-0.989096370028,0.)) ;
#329=DIRECTION('Vector Direction',(0.147286832089,0.98897636807,0.0152424568786)) ;
#338=DIRECTION('Axis2P3D Direction',(-0.989093822189,0.147269341893,0.00226976767775)) ;
#345=DIRECTION('Vector Direction',(-9.62994387166E-013,0.0154105268244,-0.999881250781)) ;
#352=DIRECTION('Axis2P3D Direction',(-0.989093822189,0.147269341893,0.00226976767775)) ;
#359=DIRECTION('Vector Direction',(-0.147286832089,-0.98897636807,-0.0152424568786)) ;
#366=DIRECTION('Vector Direction',(9.64917032653E-013,-0.0154105268244,0.999881250781)) ;
#388=DIRECTION('Axis2P3D Direction',(9.64435128981E-013,-0.0154105268244,0.999881250781)) ;
#389=DIRECTION('Axis2P3D XDirection',(-0.147286832089,-0.98897636807,-0.0152424568786)) ;
#393=DIRECTION('Vector Direction',(0.989093822189,-0.147269341893,-0.00226976767776)) ;
#400=DIRECTION('Vector Direction',(-0.147286832089,-0.98897636807,-0.0152424568786)) ;
#407=DIRECTION('Vector Direction',(0.989093822189,-0.147269341893,-0.00226976767776)) ;
#419=DIRECTION('Axis2P3D Direction',(-0.989093822189,0.147269341893,0.00226976767775)) ;
#420=DIRECTION('Axis2P3D XDirection',(9.61030734159E-013,-0.0154105268245,0.999881250781)) ;
#424=DIRECTION('Axis2P3D Direction',(-0.989093822189,0.147269341893,0.00226976767775)) ;
#431=DIRECTION('Vector Direction',(-0.989093822189,0.147269341893,0.00226976767775)) ;
#443=DIRECTION('Axis2P3D Direction',(-0.147286832089,-0.98897636807,-0.0152424568786)) ;
#444=DIRECTION('Axis2P3D XDirection',(-9.64486737004E-013,0.0154105268244,-0.999881250781)) ;
#448=DIRECTION('Vector Direction',(-9.66338117677E-013,0.0154105268244,-0.999881250781)) ;
#455=DIRECTION('Vector Direction',(0.989093822189,-0.147269341893,-0.00226976767776)) ;
#467=DIRECTION('Axis2P3D Direction',(-0.989093822189,0.147269341893,0.00226976767775)) ;
#468=DIRECTION('Axis2P3D XDirection',(0.147286832089,0.98897636807,0.0152424568786)) ;
#472=DIRECTION('Axis2P3D Direction',(-0.989093822189,0.147269341893,0.00226976767775)) ;
#479=DIRECTION('Vector Direction',(-0.989093822189,0.147269341893,0.00226976767775)) ;
#491=DIRECTION('Axis2P3D Direction',(-9.64422985916E-013,0.0154105268244,-0.999881250781)) ;
#492=DIRECTION('Axis2P3D XDirection',(0.147286832089,0.98897636807,0.0152424568786)) ;
#496=DIRECTION('Vector Direction',(0.147286832089,0.98897636807,0.0152424568786)) ;
#503=DIRECTION('Vector Direction',(0.989093822189,-0.147269341893,-0.00226976767776)) ;
#515=DIRECTION('Axis2P3D Direction',(0.147286832089,0.98897636807,0.0152424568786)) ;
#516=DIRECTION('Axis2P3D XDirection',(9.64048285645E-013,-0.0154105268244,0.999881250781)) ;
#520=DIRECTION('Vector Direction',(9.63495947185E-013,-0.0154105268244,0.999881250781)) ;
#532=DIRECTION('Axis2P3D Direction',(-0.989093822189,0.147269341893,0.00226976767775)) ;
#533=DIRECTION('Axis2P3D XDirection',(-0.147269721249,-0.989096370028,5.74191991468E-015)) ;
#537=DIRECTION('Axis2P3D Direction',(-0.989093822189,0.147269341893,0.00226976767775)) ;
#546=DIRECTION('Vector Direction',(-0.989093822189,0.147269341893,0.00226976767775)) ;
#553=DIRECTION('Axis2P3D Direction',(-0.989093822189,0.147269341893,0.00226976767775)) ;
#560=DIRECTION('Vector Direction',(-0.989093822189,0.147269341893,0.00226976767775)) ;
#572=DIRECTION('Axis2P3D Direction',(-0.989093822189,0.147269341893,0.00226976767775)) ;
#577=DIRECTION('Axis2P3D Direction',(-0.989093822189,0.147269341893,0.00226976767775)) ;
#589=DIRECTION('Axis2P3D Direction',(-0.989093822189,0.147269341893,0.00226976767775)) ;
#590=DIRECTION('Axis2P3D XDirection',(-0.147269721249,-0.989096370028,0.)) ;
#594=DIRECTION('Axis2P3D Direction',(-0.989093822189,0.147269341893,0.00226976767775)) ;
#603=DIRECTION('Vector Direction',(-9.6461559594E-013,0.0154105268244,-0.999881250781)) ;
#610=DIRECTION('Axis2P3D Direction',(-0.989093822189,0.147269341893,0.00226976767775)) ;
#617=DIRECTION('Vector Direction',(0.147286832089,0.98897636807,0.0152424568786)) ;
#624=DIRECTION('Axis2P3D Direction',(-0.989093822189,0.147269341893,0.00226976767775)) ;
#631=DIRECTION('Vector Direction',(9.5772548454E-013,-0.0154105268244,0.999881250781)) ;
#638=DIRECTION('Axis2P3D Direction',(-0.989093822189,0.147269341893,0.00226976767775)) ;
#645=DIRECTION('Vector Direction',(-0.147286832089,-0.98897636807,-0.0152424568786)) ;
#665=DIRECTION('Axis2P3D Direction',(9.64325407721E-013,-0.0154105268244,0.999881250781)) ;
#666=DIRECTION('Axis2P3D XDirection',(-0.147286832089,-0.98897636807,-0.0152424568786)) ;
#670=DIRECTION('Vector Direction',(0.989093822189,-0.147269341893,-0.00226976767775)) ;
#677=DIRECTION('Vector Direction',(-0.147286832089,-0.98897636807,-0.0152424568786)) ;
#684=DIRECTION('Vector Direction',(0.989093822189,-0.147269341893,-0.00226976767775)) ;
#696=DIRECTION('Axis2P3D Direction',(-0.989093822189,0.147269341893,0.00226976767775)) ;
#697=DIRECTION('Axis2P3D XDirection',(9.63777668783E-013,-0.0154105268244,0.999881250781)) ;
#701=DIRECTION('Axis2P3D Direction',(-0.989093822189,0.147269341893,0.00226976767775)) ;
#708=DIRECTION('Vector Direction',(-0.989093822189,0.147269341893,0.00226976767775)) ;
#720=DIRECTION('Axis2P3D Direction',(-0.147286832089,-0.98897636807,-0.0152424568786)) ;
#721=DIRECTION('Axis2P3D XDirection',(-9.63326206999E-013,0.0154105268244,-0.999881250781)) ;
#725=DIRECTION('Vector Direction',(-9.6461559594E-013,0.0154105268244,-0.999881250781)) ;
#732=DIRECTION('Vector Direction',(0.989093822189,-0.147269341893,-0.00226976767775)) ;
#744=DIRECTION('Axis2P3D Direction',(-0.989093822189,0.147269341893,0.00226976767775)) ;
#745=DIRECTION('Axis2P3D XDirection',(0.147286832089,0.98897636807,0.0152424568786)) ;
#749=DIRECTION('Axis2P3D Direction',(-0.989093822189,0.147269341893,0.00226976767775)) ;
#756=DIRECTION('Vector Direction',(-0.989093822189,0.147269341893,0.00226976767775)) ;
#768=DIRECTION('Axis2P3D Direction',(-9.64024433198E-013,0.0154105268244,-0.999881250781)) ;
#769=DIRECTION('Axis2P3D XDirection',(0.147286832089,0.98897636807,0.0152424568786)) ;
#773=DIRECTION('Vector Direction',(0.147286832089,0.98897636807,0.0152424568786)) ;
#780=DIRECTION('Vector Direction',(0.989093822189,-0.147269341893,-0.00226976767775)) ;
#792=DIRECTION('Axis2P3D Direction',(-0.989093822189,0.147269341893,0.00226976767775)) ;
#793=DIRECTION('Axis2P3D XDirection',(-9.5905011363E-013,0.0154105268245,-0.999881250781)) ;
#797=DIRECTION('Axis2P3D Direction',(-0.989093822189,0.147269341893,0.00226976767775)) ;
#804=DIRECTION('Vector Direction',(-0.989093822189,0.147269341893,0.00226976767775)) ;
#816=DIRECTION('Axis2P3D Direction',(0.147286832089,0.98897636807,0.0152424568786)) ;
#817=DIRECTION('Axis2P3D XDirection',(9.63833179934E-013,-0.0154105268244,0.999881250781)) ;
#821=DIRECTION('Vector Direction',(9.6461559594E-013,-0.0154105268244,0.999881250781)) ;
#828=DIRECTION('Vector Direction',(0.989093822189,-0.147269341893,-0.00226976767775)) ;
#840=DIRECTION('Axis2P3D Direction',(-0.989093822189,0.147269341893,0.00226976767775)) ;
#841=DIRECTION('Axis2P3D XDirection',(-0.147286832089,-0.98897636807,-0.0152424568786)) ;
#845=DIRECTION('Axis2P3D Direction',(-0.989093822189,0.147269341893,0.00226976767775)) ;
#857=DIRECTION('Axis2P3D Direction',(-0.989093822189,0.147269341893,0.00226976767775)) ;
#858=DIRECTION('Axis2P3D XDirection',(0.129256355438,0.875296614866,-0.465992092833)) ;
#862=DIRECTION('Axis2P3D Direction',(-0.989093822189,0.147269341893,0.00226976767775)) ;
#871=DIRECTION('Vector Direction',(-0.989093822189,0.147269341893,0.00226976767775)) ;
#876=DIRECTION('Vector Direction',(-0.989093822189,0.147269341893,0.00226976767775)) ;
#888=DIRECTION('Axis2P3D Direction',(-0.989093822189,0.147269341893,0.00226976767775)) ;
#900=DIRECTION('Axis2P3D Direction',(-0.989093822189,0.147269341893,0.00226976767775)) ;
#901=DIRECTION('Axis2P3D XDirection',(-0.147269721249,-0.989096370028,0.)) ;
#913=DIRECTION('Axis2P3D Direction',(-0.989093822189,0.147269341893,0.00226976767775)) ;
#922=DIRECTION('Axis2P3D Direction',(-0.989093822189,0.147269341893,0.00226976767775)) ;
#940=DIRECTION('Axis2P3D Direction',(-0.989093822189,0.147269341893,0.00226976767775)) ;
#941=DIRECTION('Axis2P3D XDirection',(-0.147269721249,-0.989096370028,0.)) ;
#953=DIRECTION('Axis2P3D Direction',(-0.989093822189,0.147269341893,0.00226976767775)) ;
#962=DIRECTION('Axis2P3D Direction',(-0.989093822189,0.147269341893,0.00226976767775)) ;
#986=DIRECTION('Axis2P3D Direction',(-0.989093822189,0.147269341893,0.00226976767775)) ;
#995=DIRECTION('Axis2P3D Direction',(-0.989093822189,0.147269341893,0.00226976767775)) ;
#1004=DIRECTION('Axis2P3D Direction',(-0.989093822189,0.147269341893,0.00226976767775)) ;
#1013=DIRECTION('Axis2P3D Direction',(-0.989093822189,0.147269341893,0.00226976767775)) ;
#1023=DIRECTION('Axis2P3D Direction',(-0.989093822189,0.147269341893,0.00226976767775)) ;
#1024=DIRECTION('Axis2P3D XDirection',(0.129256355438,0.875296614866,-0.465992092833)) ;
#1028=DIRECTION('Vector Direction',(-0.989093822189,0.147269341893,0.00226976767775)) ;
#1033=DIRECTION('Vector Direction',(-0.989093822189,0.147269341893,0.00226976767775)) ;
#1052=DIRECTION('Axis2P3D Direction',(-0.989093822189,0.147269341893,0.00226976767775)) ;
#1053=DIRECTION('Axis2P3D XDirection',(0.129256355438,0.875296614866,-0.465992092833)) ;
#1057=DIRECTION('Vector Direction',(-0.989093822189,0.147269341893,0.00226976767775)) ;
#1062=DIRECTION('Vector Direction',(-0.989093822189,0.147269341893,0.00226976767775)) ;
#48=AXIS2_PLACEMENT_3D(' ',#47,$,$) ;
#55=AXIS2_PLACEMENT_3D('Plane Axis2P3D',#52,#53,#54) ;
#59=AXIS2_PLACEMENT_3D('Circle Axis2P3D',#57,#58,$) ;
#68=AXIS2_PLACEMENT_3D('Circle Axis2P3D',#66,#67,$) ;
#77=AXIS2_PLACEMENT_3D('Circle Axis2P3D',#75,#76,$) ;
#86=AXIS2_PLACEMENT_3D('Circle Axis2P3D',#84,#85,$) ;
#97=AXIS2_PLACEMENT_3D('Cylinder Axis2P3D',#94,#95,#96) ;
#101=AXIS2_PLACEMENT_3D('Circle Axis2P3D',#99,#100,$) ;
#127=AXIS2_PLACEMENT_3D('Circle Axis2P3D',#125,#126,$) ;
#140=AXIS2_PLACEMENT_3D('Plane Axis2P3D',#137,#138,#139) ;
#180=AXIS2_PLACEMENT_3D('Cylinder Axis2P3D',#177,#178,#179) ;
#184=AXIS2_PLACEMENT_3D('Circle Axis2P3D',#182,#183,$) ;
#198=AXIS2_PLACEMENT_3D('Circle Axis2P3D',#196,#197,$) ;
#211=AXIS2_PLACEMENT_3D('Plane Axis2P3D',#208,#209,#210) ;
#242=AXIS2_PLACEMENT_3D('Cylinder Axis2P3D',#239,#240,#241) ;
#246=AXIS2_PLACEMENT_3D('Circle Axis2P3D',#244,#245,$) ;
#260=AXIS2_PLACEMENT_3D('Circle Axis2P3D',#258,#259,$) ;
#273=AXIS2_PLACEMENT_3D('Plane Axis2P3D',#270,#271,#272) ;
#304=AXIS2_PLACEMENT_3D('Plane Axis2P3D',#301,#302,#303) ;
#326=AXIS2_PLACEMENT_3D('Plane Axis2P3D',#323,#324,#325) ;
#339=AXIS2_PLACEMENT_3D('Circle Axis2P3D',#337,#338,$) ;
#353=AXIS2_PLACEMENT_3D('Circle Axis2P3D',#351,#352,$) ;
#390=AXIS2_PLACEMENT_3D('Plane Axis2P3D',#387,#388,#389) ;
#421=AXIS2_PLACEMENT_3D('Cylinder Axis2P3D',#418,#419,#420) ;
#425=AXIS2_PLACEMENT_3D('Circle Axis2P3D',#423,#424,$) ;
#445=AXIS2_PLACEMENT_3D('Plane Axis2P3D',#442,#443,#444) ;
#469=AXIS2_PLACEMENT_3D('Cylinder Axis2P3D',#466,#467,#468) ;
#473=AXIS2_PLACEMENT_3D('Circle Axis2P3D',#471,#472,$) ;
#493=AXIS2_PLACEMENT_3D('Plane Axis2P3D',#490,#491,#492) ;
#517=AXIS2_PLACEMENT_3D('Plane Axis2P3D',#514,#515,#516) ;
#534=AXIS2_PLACEMENT_3D('Cylinder Axis2P3D',#531,#532,#533) ;
#538=AXIS2_PLACEMENT_3D('Circle Axis2P3D',#536,#537,$) ;
#554=AXIS2_PLACEMENT_3D('Circle Axis2P3D',#552,#553,$) ;
#573=AXIS2_PLACEMENT_3D('Circle Axis2P3D',#571,#572,$) ;
#578=AXIS2_PLACEMENT_3D('Circle Axis2P3D',#576,#577,$) ;
#591=AXIS2_PLACEMENT_3D('Plane Axis2P3D',#588,#589,#590) ;
#595=AXIS2_PLACEMENT_3D('Circle Axis2P3D',#593,#594,$) ;
#611=AXIS2_PLACEMENT_3D('Circle Axis2P3D',#609,#610,$) ;
#625=AXIS2_PLACEMENT_3D('Circle Axis2P3D',#623,#624,$) ;
#639=AXIS2_PLACEMENT_3D('Circle Axis2P3D',#637,#638,$) ;
#667=AXIS2_PLACEMENT_3D('Plane Axis2P3D',#664,#665,#666) ;
#698=AXIS2_PLACEMENT_3D('Cylinder Axis2P3D',#695,#696,#697) ;
#702=AXIS2_PLACEMENT_3D('Circle Axis2P3D',#700,#701,$) ;
#722=AXIS2_PLACEMENT_3D('Plane Axis2P3D',#719,#720,#721) ;
#746=AXIS2_PLACEMENT_3D('Cylinder Axis2P3D',#743,#744,#745) ;
#750=AXIS2_PLACEMENT_3D('Circle Axis2P3D',#748,#749,$) ;
#770=AXIS2_PLACEMENT_3D('Plane Axis2P3D',#767,#768,#769) ;
#794=AXIS2_PLACEMENT_3D('Cylinder Axis2P3D',#791,#792,#793) ;
#798=AXIS2_PLACEMENT_3D('Circle Axis2P3D',#796,#797,$) ;
#818=AXIS2_PLACEMENT_3D('Plane Axis2P3D',#815,#816,#817) ;
#842=AXIS2_PLACEMENT_3D('Cylinder Axis2P3D',#839,#840,#841) ;
#846=AXIS2_PLACEMENT_3D('Circle Axis2P3D',#844,#845,$) ;
#859=AXIS2_PLACEMENT_3D('Cylinder Axis2P3D',#856,#857,#858) ;
#863=AXIS2_PLACEMENT_3D('Circle Axis2P3D',#861,#862,$) ;
#889=AXIS2_PLACEMENT_3D('Circle Axis2P3D',#887,#888,$) ;
#902=AXIS2_PLACEMENT_3D('Plane Axis2P3D',#899,#900,#901) ;
#914=AXIS2_PLACEMENT_3D('Circle Axis2P3D',#912,#913,$) ;
#923=AXIS2_PLACEMENT_3D('Circle Axis2P3D',#921,#922,$) ;
#942=AXIS2_PLACEMENT_3D('Plane Axis2P3D',#939,#940,#941) ;
#954=AXIS2_PLACEMENT_3D('Circle Axis2P3D',#952,#953,$) ;
#963=AXIS2_PLACEMENT_3D('Circle Axis2P3D',#961,#962,$) ;
#987=AXIS2_PLACEMENT_3D('Circle Axis2P3D',#985,#986,$) ;
#996=AXIS2_PLACEMENT_3D('Circle Axis2P3D',#994,#995,$) ;
#1005=AXIS2_PLACEMENT_3D('Circle Axis2P3D',#1003,#1004,$) ;
#1014=AXIS2_PLACEMENT_3D('Circle Axis2P3D',#1012,#1013,$) ;
#1025=AXIS2_PLACEMENT_3D('Cylinder Axis2P3D',#1022,#1023,#1024) ;
#1054=AXIS2_PLACEMENT_3D('Cylinder Axis2P3D',#1051,#1052,#1053) ;
#40=PRODUCT_DEFINITION_SHAPE(' ',' ',#14) ;
#31=APPROVAL_PERSON_ORGANIZATION(#25,#21,#19) ;
#25=PERSON_AND_ORGANIZATION(#22,#23) ;
#22=PERSON(' ',' ',' ',$,$,$) ;
#23=ORGANIZATION(' ',' ',' ') ;
#21=APPROVAL(#20,' ') ;
#20=APPROVAL_STATUS('not_yet_approved') ;
#19=APPROVAL_ROLE('APPROVER') ;
#13=DATE_AND_TIME(#11,#12) ;
#12=LOCAL_TIME(8,10,33.,#10) ;
#10=COORDINATED_UNIVERSAL_TIME_OFFSET(0,0,.AHEAD.) ;
#72=ORIENTED_EDGE('',*,*,#65,.F.) ;
#73=ORIENTED_EDGE('',*,*,#70,.F.) ;
#90=ORIENTED_EDGE('',*,*,#83,.T.) ;
#91=ORIENTED_EDGE('',*,*,#88,.T.) ;
#119=ORIENTED_EDGE('',*,*,#107,.T.) ;
#120=ORIENTED_EDGE('',*,*,#112,.T.) ;
#121=ORIENTED_EDGE('',*,*,#88,.F.) ;
#122=ORIENTED_EDGE('',*,*,#117,.F.) ;
#131=ORIENTED_EDGE('',*,*,#129,.T.) ;
#132=ORIENTED_EDGE('',*,*,#117,.T.) ;
#133=ORIENTED_EDGE('',*,*,#83,.F.) ;
#134=ORIENTED_EDGE('',*,*,#112,.F.) ;
#171=ORIENTED_EDGE('',*,*,#150,.T.) ;
#172=ORIENTED_EDGE('',*,*,#157,.F.) ;
#173=ORIENTED_EDGE('',*,*,#164,.F.) ;
#174=ORIENTED_EDGE('',*,*,#169,.T.) ;
#202=ORIENTED_EDGE('',*,*,#188,.T.) ;
#203=ORIENTED_EDGE('',*,*,#195,.F.) ;
#204=ORIENTED_EDGE('',*,*,#200,.F.) ;
#205=ORIENTED_EDGE('',*,*,#157,.T.) ;
#233=ORIENTED_EDGE('',*,*,#219,.T.) ;
#234=ORIENTED_EDGE('',*,*,#226,.F.) ;
#235=ORIENTED_EDGE('',*,*,#231,.F.) ;
#236=ORIENTED_EDGE('',*,*,#195,.T.) ;
#264=ORIENTED_EDGE('',*,*,#250,.T.) ;
#265=ORIENTED_EDGE('',*,*,#257,.F.) ;
#266=ORIENTED_EDGE('',*,*,#262,.F.) ;
#267=ORIENTED_EDGE('',*,*,#226,.T.) ;
#295=ORIENTED_EDGE('',*,*,#281,.T.) ;
#296=ORIENTED_EDGE('',*,*,#288,.F.) ;
#297=ORIENTED_EDGE('',*,*,#293,.F.) ;
#298=ORIENTED_EDGE('',*,*,#257,.T.) ;
#317=ORIENTED_EDGE('',*,*,#310,.T.) ;
#318=ORIENTED_EDGE('',*,*,#169,.F.) ;
#319=ORIENTED_EDGE('',*,*,#315,.F.) ;
#320=ORIENTED_EDGE('',*,*,#288,.T.) ;
#371=ORIENTED_EDGE('',*,*,#336,.T.) ;
#372=ORIENTED_EDGE('',*,*,#343,.T.) ;
#373=ORIENTED_EDGE('',*,*,#350,.T.) ;
#374=ORIENTED_EDGE('',*,*,#357,.T.) ;
#375=ORIENTED_EDGE('',*,*,#364,.T.) ;
#376=ORIENTED_EDGE('',*,*,#369,.T.) ;
#379=ORIENTED_EDGE('',*,*,#281,.F.) ;
#380=ORIENTED_EDGE('',*,*,#250,.F.) ;
#381=ORIENTED_EDGE('',*,*,#219,.F.) ;
#382=ORIENTED_EDGE('',*,*,#188,.F.) ;
#383=ORIENTED_EDGE('',*,*,#150,.F.) ;
#384=ORIENTED_EDGE('',*,*,#310,.F.) ;
#412=ORIENTED_EDGE('',*,*,#398,.T.) ;
#413=ORIENTED_EDGE('',*,*,#405,.T.) ;
#414=ORIENTED_EDGE('',*,*,#410,.F.) ;
#415=ORIENTED_EDGE('',*,*,#336,.F.) ;
#436=ORIENTED_EDGE('',*,*,#410,.T.) ;
#437=ORIENTED_EDGE('',*,*,#429,.T.) ;
#438=ORIENTED_EDGE('',*,*,#434,.F.) ;
#439=ORIENTED_EDGE('',*,*,#343,.F.) ;
#460=ORIENTED_EDGE('',*,*,#434,.T.) ;
#461=ORIENTED_EDGE('',*,*,#453,.T.) ;
#462=ORIENTED_EDGE('',*,*,#458,.F.) ;
#463=ORIENTED_EDGE('',*,*,#350,.F.) ;
#484=ORIENTED_EDGE('',*,*,#458,.T.) ;
#485=ORIENTED_EDGE('',*,*,#477,.T.) ;
#486=ORIENTED_EDGE('',*,*,#482,.F.) ;
#487=ORIENTED_EDGE('',*,*,#357,.F.) ;
#508=ORIENTED_EDGE('',*,*,#482,.T.) ;
#509=ORIENTED_EDGE('',*,*,#501,.T.) ;
#510=ORIENTED_EDGE('',*,*,#506,.F.) ;
#511=ORIENTED_EDGE('',*,*,#364,.F.) ;
#525=ORIENTED_EDGE('',*,*,#506,.T.) ;
#526=ORIENTED_EDGE('',*,*,#523,.T.) ;
#527=ORIENTED_EDGE('',*,*,#398,.F.) ;
#528=ORIENTED_EDGE('',*,*,#369,.F.) ;
#565=ORIENTED_EDGE('',*,*,#544,.T.) ;
#566=ORIENTED_EDGE('',*,*,#551,.T.) ;
#567=ORIENTED_EDGE('',*,*,#558,.F.) ;
#568=ORIENTED_EDGE('',*,*,#563,.F.) ;
#582=ORIENTED_EDGE('',*,*,#575,.T.) ;
#583=ORIENTED_EDGE('',*,*,#563,.T.) ;
#584=ORIENTED_EDGE('',*,*,#580,.F.) ;
#585=ORIENTED_EDGE('',*,*,#551,.F.) ;
#650=ORIENTED_EDGE('',*,*,#601,.T.) ;
#651=ORIENTED_EDGE('',*,*,#608,.T.) ;
#652=ORIENTED_EDGE('',*,*,#615,.T.) ;
#653=ORIENTED_EDGE('',*,*,#622,.T.) ;
#654=ORIENTED_EDGE('',*,*,#629,.T.) ;
#655=ORIENTED_EDGE('',*,*,#636,.T.) ;
#656=ORIENTED_EDGE('',*,*,#643,.T.) ;
#657=ORIENTED_EDGE('',*,*,#648,.T.) ;
#660=ORIENTED_EDGE('',*,*,#544,.F.) ;
#661=ORIENTED_EDGE('',*,*,#575,.F.) ;
#689=ORIENTED_EDGE('',*,*,#675,.F.) ;
#690=ORIENTED_EDGE('',*,*,#682,.T.) ;
#691=ORIENTED_EDGE('',*,*,#687,.T.) ;
#692=ORIENTED_EDGE('',*,*,#648,.F.) ;
#713=ORIENTED_EDGE('',*,*,#687,.F.) ;
#714=ORIENTED_EDGE('',*,*,#706,.T.) ;
#715=ORIENTED_EDGE('',*,*,#711,.T.) ;
#716=ORIENTED_EDGE('',*,*,#601,.F.) ;
#737=ORIENTED_EDGE('',*,*,#711,.F.) ;
#738=ORIENTED_EDGE('',*,*,#730,.T.) ;
#739=ORIENTED_EDGE('',*,*,#735,.T.) ;
#740=ORIENTED_EDGE('',*,*,#608,.F.) ;
#761=ORIENTED_EDGE('',*,*,#735,.F.) ;
#762=ORIENTED_EDGE('',*,*,#754,.T.) ;
#763=ORIENTED_EDGE('',*,*,#759,.T.) ;
#764=ORIENTED_EDGE('',*,*,#615,.F.) ;
#785=ORIENTED_EDGE('',*,*,#759,.F.) ;
#786=ORIENTED_EDGE('',*,*,#778,.T.) ;
#787=ORIENTED_EDGE('',*,*,#783,.T.) ;
#788=ORIENTED_EDGE('',*,*,#622,.F.) ;
#809=ORIENTED_EDGE('',*,*,#783,.F.) ;
#810=ORIENTED_EDGE('',*,*,#802,.T.) ;
#811=ORIENTED_EDGE('',*,*,#807,.T.) ;
#812=ORIENTED_EDGE('',*,*,#629,.F.) ;
#833=ORIENTED_EDGE('',*,*,#807,.F.) ;
#834=ORIENTED_EDGE('',*,*,#826,.T.) ;
#835=ORIENTED_EDGE('',*,*,#831,.T.) ;
#836=ORIENTED_EDGE('',*,*,#636,.F.) ;
#850=ORIENTED_EDGE('',*,*,#831,.F.) ;
#851=ORIENTED_EDGE('',*,*,#848,.T.) ;
#852=ORIENTED_EDGE('',*,*,#675,.T.) ;
#853=ORIENTED_EDGE('',*,*,#643,.F.) ;
#881=ORIENTED_EDGE('',*,*,#869,.F.) ;
#882=ORIENTED_EDGE('',*,*,#874,.F.) ;
#883=ORIENTED_EDGE('',*,*,#65,.T.) ;
#884=ORIENTED_EDGE('',*,*,#879,.T.) ;
#893=ORIENTED_EDGE('',*,*,#891,.F.) ;
#894=ORIENTED_EDGE('',*,*,#879,.F.) ;
#895=ORIENTED_EDGE('',*,*,#70,.T.) ;
#896=ORIENTED_EDGE('',*,*,#874,.T.) ;
#905=ORIENTED_EDGE('',*,*,#405,.F.) ;
#906=ORIENTED_EDGE('',*,*,#523,.F.) ;
#907=ORIENTED_EDGE('',*,*,#501,.F.) ;
#908=ORIENTED_EDGE('',*,*,#477,.F.) ;
#909=ORIENTED_EDGE('',*,*,#453,.F.) ;
#910=ORIENTED_EDGE('',*,*,#429,.F.) ;
#927=ORIENTED_EDGE('',*,*,#920,.T.) ;
#928=ORIENTED_EDGE('',*,*,#925,.T.) ;
#931=ORIENTED_EDGE('',*,*,#891,.T.) ;
#932=ORIENTED_EDGE('',*,*,#869,.T.) ;
#935=ORIENTED_EDGE('',*,*,#580,.T.) ;
#936=ORIENTED_EDGE('',*,*,#558,.T.) ;
#945=ORIENTED_EDGE('',*,*,#164,.T.) ;
#946=ORIENTED_EDGE('',*,*,#200,.T.) ;
#947=ORIENTED_EDGE('',*,*,#231,.T.) ;
#948=ORIENTED_EDGE('',*,*,#262,.T.) ;
#949=ORIENTED_EDGE('',*,*,#293,.T.) ;
#950=ORIENTED_EDGE('',*,*,#315,.T.) ;
#967=ORIENTED_EDGE('',*,*,#960,.F.) ;
#968=ORIENTED_EDGE('',*,*,#965,.F.) ;
#971=ORIENTED_EDGE('',*,*,#107,.F.) ;
#972=ORIENTED_EDGE('',*,*,#129,.F.) ;
#975=ORIENTED_EDGE('',*,*,#848,.F.) ;
#976=ORIENTED_EDGE('',*,*,#826,.F.) ;
#977=ORIENTED_EDGE('',*,*,#802,.F.) ;
#978=ORIENTED_EDGE('',*,*,#778,.F.) ;
#979=ORIENTED_EDGE('',*,*,#754,.F.) ;
#980=ORIENTED_EDGE('',*,*,#730,.F.) ;
#981=ORIENTED_EDGE('',*,*,#706,.F.) ;
#982=ORIENTED_EDGE('',*,*,#682,.F.) ;
#1000=ORIENTED_EDGE('',*,*,#993,.F.) ;
#1001=ORIENTED_EDGE('',*,*,#998,.F.) ;
#1018=ORIENTED_EDGE('',*,*,#1011,.T.) ;
#1019=ORIENTED_EDGE('',*,*,#1016,.T.) ;
#1038=ORIENTED_EDGE('',*,*,#925,.F.) ;
#1039=ORIENTED_EDGE('',*,*,#1031,.F.) ;
#1040=ORIENTED_EDGE('',*,*,#998,.T.) ;
#1041=ORIENTED_EDGE('',*,*,#1036,.T.) ;
#1045=ORIENTED_EDGE('',*,*,#920,.F.) ;
#1046=ORIENTED_EDGE('',*,*,#1036,.F.) ;
#1047=ORIENTED_EDGE('',*,*,#993,.T.) ;
#1048=ORIENTED_EDGE('',*,*,#1031,.T.) ;
#1067=ORIENTED_EDGE('',*,*,#965,.T.) ;
#1068=ORIENTED_EDGE('',*,*,#1060,.T.) ;
#1069=ORIENTED_EDGE('',*,*,#1016,.F.) ;
#1070=ORIENTED_EDGE('',*,*,#1065,.F.) ;
#1074=ORIENTED_EDGE('',*,*,#960,.T.) ;
#1075=ORIENTED_EDGE('',*,*,#1065,.T.) ;
#1076=ORIENTED_EDGE('',*,*,#1011,.F.) ;
#1077=ORIENTED_EDGE('',*,*,#1060,.F.) ;
#92=FACE_BOUND('',#89,.T.) ;
#385=FACE_BOUND('',#378,.T.) ;
#662=FACE_BOUND('',#659,.T.) ;
#929=FACE_BOUND('',#926,.T.) ;
#933=FACE_BOUND('',#930,.T.) ;
#937=FACE_BOUND('',#934,.T.) ;
#969=FACE_BOUND('',#966,.T.) ;
#973=FACE_BOUND('',#970,.T.) ;
#983=FACE_BOUND('',#974,.T.) ;
#1020=FACE_BOUND('',#1017,.T.) ;
#51=CLOSED_SHELL('Closed Shell',(#93,#124,#136,#176,#207,#238,#269,#300,#322,#386,#417,#441,#465,#489,#513,#530,#570,#587,#663,#694,#718,#742,#766,#790,#814,#838,#855,#886,#898,#938,#984,#1021,#1043,#1050,#1072,#1079)) ;
#110=VECTOR('Line Direction',#109,1.) ;
#115=VECTOR('Line Direction',#114,1.) ;
#144=VECTOR('Line Direction',#143,1.) ;
#153=VECTOR('Line Direction',#152,1.) ;
#160=VECTOR('Line Direction',#159,1.) ;
#167=VECTOR('Line Direction',#166,1.) ;
#191=VECTOR('Line Direction',#190,1.) ;
#215=VECTOR('Line Direction',#214,1.) ;
#222=VECTOR('Line Direction',#221,1.) ;
#229=VECTOR('Line Direction',#228,1.) ;
#253=VECTOR('Line Direction',#252,1.) ;
#277=VECTOR('Line Direction',#276,1.) ;
#284=VECTOR('Line Direction',#283,1.) ;
#291=VECTOR('Line Direction',#290,1.) ;
#308=VECTOR('Line Direction',#307,1.) ;
#313=VECTOR('Line Direction',#312,1.) ;
#330=VECTOR('Line Direction',#329,1.) ;
#346=VECTOR('Line Direction',#345,1.) ;
#360=VECTOR('Line Direction',#359,1.) ;
#367=VECTOR('Line Direction',#366,1.) ;
#394=VECTOR('Line Direction',#393,1.) ;
#401=VECTOR('Line Direction',#400,1.) ;
#408=VECTOR('Line Direction',#407,1.) ;
#432=VECTOR('Line Direction',#431,1.) ;
#449=VECTOR('Line Direction',#448,1.) ;
#456=VECTOR('Line Direction',#455,1.) ;
#480=VECTOR('Line Direction',#479,1.) ;
#497=VECTOR('Line Direction',#496,1.) ;
#504=VECTOR('Line Direction',#503,1.) ;
#521=VECTOR('Line Direction',#520,1.) ;
#547=VECTOR('Line Direction',#546,1.) ;
#561=VECTOR('Line Direction',#560,1.) ;
#604=VECTOR('Line Direction',#603,1.) ;
#618=VECTOR('Line Direction',#617,1.) ;
#632=VECTOR('Line Direction',#631,1.) ;
#646=VECTOR('Line Direction',#645,1.) ;
#671=VECTOR('Line Direction',#670,1.) ;
#678=VECTOR('Line Direction',#677,1.) ;
#685=VECTOR('Line Direction',#684,1.) ;
#709=VECTOR('Line Direction',#708,1.) ;
#726=VECTOR('Line Direction',#725,1.) ;
#733=VECTOR('Line Direction',#732,1.) ;
#757=VECTOR('Line Direction',#756,1.) ;
#774=VECTOR('Line Direction',#773,1.) ;
#781=VECTOR('Line Direction',#780,1.) ;
#805=VECTOR('Line Direction',#804,1.) ;
#822=VECTOR('Line Direction',#821,1.) ;
#829=VECTOR('Line Direction',#828,1.) ;
#872=VECTOR('Line Direction',#871,1.) ;
#877=VECTOR('Line Direction',#876,1.) ;
#1029=VECTOR('Line Direction',#1028,1.) ;
#1034=VECTOR('Line Direction',#1033,1.) ;
#1058=VECTOR('Line Direction',#1057,1.) ;
#1063=VECTOR('Line Direction',#1062,1.) ;
#1081=ADVANCED_BREP_SHAPE_REPRESENTATION('NONE',(#1080),#46) ;
#49=SHAPE_REPRESENTATION(' ',(#48),#46) ;
#93=ADVANCED_FACE('PartBody',(#74,#92),#56,.F.) ;
#124=ADVANCED_FACE('PartBody',(#123),#98,.F.) ;
#136=ADVANCED_FACE('PartBody',(#135),#98,.F.) ;
#176=ADVANCED_FACE('PartBody',(#175),#141,.T.) ;
#207=ADVANCED_FACE('PartBody',(#206),#181,.F.) ;
#238=ADVANCED_FACE('PartBody',(#237),#212,.T.) ;
#269=ADVANCED_FACE('PartBody',(#268),#243,.F.) ;
#300=ADVANCED_FACE('PartBody',(#299),#274,.T.) ;
#322=ADVANCED_FACE('PartBody',(#321),#305,.T.) ;
#386=ADVANCED_FACE('PartBody',(#377,#385),#327,.T.) ;
#417=ADVANCED_FACE('PartBody',(#416),#391,.T.) ;
#441=ADVANCED_FACE('PartBody',(#440),#422,.T.) ;
#465=ADVANCED_FACE('PartBody',(#464),#446,.F.) ;
#489=ADVANCED_FACE('PartBody',(#488),#470,.T.) ;
#513=ADVANCED_FACE('PartBody',(#512),#494,.T.) ;
#530=ADVANCED_FACE('PartBody',(#529),#518,.F.) ;
#570=ADVANCED_FACE('PartBody',(#569),#535,.F.) ;
#587=ADVANCED_FACE('PartBody',(#586),#535,.F.) ;
#663=ADVANCED_FACE('PartBody',(#658,#662),#592,.T.) ;
#694=ADVANCED_FACE('PartBody',(#693),#668,.F.) ;
#718=ADVANCED_FACE('PartBody',(#717),#699,.F.) ;
#742=ADVANCED_FACE('PartBody',(#741),#723,.T.) ;
#766=ADVANCED_FACE('PartBody',(#765),#747,.F.) ;
#790=ADVANCED_FACE('PartBody',(#789),#771,.F.) ;
#814=ADVANCED_FACE('PartBody',(#813),#795,.F.) ;
#838=ADVANCED_FACE('PartBody',(#837),#819,.T.) ;
#855=ADVANCED_FACE('PartBody',(#854),#843,.F.) ;
#886=ADVANCED_FACE('PartBody',(#885),#860,.F.) ;
#898=ADVANCED_FACE('PartBody',(#897),#860,.F.) ;
#938=ADVANCED_FACE('PartBody',(#911,#929,#933,#937),#903,.F.) ;
#984=ADVANCED_FACE('PartBody',(#951,#969,#973,#983),#943,.T.) ;
#1021=ADVANCED_FACE('PartBody',(#1002,#1020),#56,.F.) ;
#1043=ADVANCED_FACE('PartBody',(#1042),#1026,.F.) ;
#1050=ADVANCED_FACE('PartBody',(#1049),#1026,.F.) ;
#1072=ADVANCED_FACE('PartBody',(#1071),#1055,.F.) ;
#1079=ADVANCED_FACE('PartBody',(#1078),#1055,.F.) ;
#4=APPLICATION_PROTOCOL_DEFINITION('international standard','config_control_design',1994,#1) ;
#32=APPROVAL_DATE_TIME(#13,#21) ;
#1080=MANIFOLD_SOLID_BREP('PartBody',#51) ;
#11=CALENDAR_DATE(2025,3,12) ;
#30=CC_DESIGN_APPROVAL(#21,(#16,#6,#14)) ;
#18=CC_DESIGN_DATE_AND_TIME_ASSIGNMENT(#13,#17,(#16)) ;
#29=CC_DESIGN_DATE_AND_TIME_ASSIGNMENT(#13,#28,(#14)) ;
#17=DATE_TIME_ROLE('classification_date') ;
#28=DATE_TIME_ROLE('creation_date') ;
#27=CC_DESIGN_PERSON_AND_ORGANIZATION_ASSIGNMENT(#25,#26,(#16)) ;
#33=CC_DESIGN_PERSON_AND_ORGANIZATION_ASSIGNMENT(#25,#34,(#6)) ;
#35=CC_DESIGN_PERSON_AND_ORGANIZATION_ASSIGNMENT(#25,#36,(#6,#14)) ;
#37=CC_DESIGN_PERSON_AND_ORGANIZATION_ASSIGNMENT(#25,#38,(#5)) ;
#26=PERSON_AND_ORGANIZATION_ROLE('classification_officer') ;
#34=PERSON_AND_ORGANIZATION_ROLE('design_supplier') ;
#36=PERSON_AND_ORGANIZATION_ROLE('creator') ;
#38=PERSON_AND_ORGANIZATION_ROLE('design_owner') ;
#39=CC_DESIGN_SECURITY_CLASSIFICATION(#16,(#6)) ;
#60=CIRCLE('generated circle',#59,3.) ;
#69=CIRCLE('generated circle',#68,3.) ;
#78=CIRCLE('generated circle',#77,2.) ;
#87=CIRCLE('generated circle',#86,2.) ;
#102=CIRCLE('generated circle',#101,2.) ;
#128=CIRCLE('generated circle',#127,2.) ;
#185=CIRCLE('generated circle',#184,3.2) ;
#199=CIRCLE('generated circle',#198,3.2) ;
#247=CIRCLE('generated circle',#246,3.2) ;
#261=CIRCLE('generated circle',#260,3.2) ;
#340=CIRCLE('generated circle',#339,3.) ;
#354=CIRCLE('generated circle',#353,3.) ;
#426=CIRCLE('generated circle',#425,3.) ;
#474=CIRCLE('generated circle',#473,3.) ;
#539=CIRCLE('generated circle',#538,6.4) ;
#555=CIRCLE('generated circle',#554,6.4) ;
#574=CIRCLE('generated circle',#573,6.4) ;
#579=CIRCLE('generated circle',#578,6.4) ;
#596=CIRCLE('generated circle',#595,2.) ;
#612=CIRCLE('generated circle',#611,2.) ;
#626=CIRCLE('generated circle',#625,2.) ;
#640=CIRCLE('generated circle',#639,2.) ;
#703=CIRCLE('generated circle',#702,2.) ;
#751=CIRCLE('generated circle',#750,2.) ;
#799=CIRCLE('generated circle',#798,2.) ;
#847=CIRCLE('generated circle',#846,2.) ;
#864=CIRCLE('generated circle',#863,3.) ;
#890=CIRCLE('generated circle',#889,3.) ;
#915=CIRCLE('generated circle',#914,3.) ;
#924=CIRCLE('generated circle',#923,3.) ;
#955=CIRCLE('generated circle',#954,2.) ;
#964=CIRCLE('generated circle',#963,2.) ;
#988=CIRCLE('generated circle',#987,3.) ;
#997=CIRCLE('generated circle',#996,3.) ;
#1006=CIRCLE('generated circle',#1005,2.) ;
#1015=CIRCLE('generated circle',#1014,2.) ;
#1082=SHAPE_REPRESENTATION_RELATIONSHIP(' ',' ',#49,#1081) ;
#98=CYLINDRICAL_SURFACE('generated cylinder',#97,2.) ;
#181=CYLINDRICAL_SURFACE('generated cylinder',#180,3.2) ;
#243=CYLINDRICAL_SURFACE('generated cylinder',#242,3.2) ;
#422=CYLINDRICAL_SURFACE('generated cylinder',#421,3.) ;
#470=CYLINDRICAL_SURFACE('generated cylinder',#469,3.) ;
#535=CYLINDRICAL_SURFACE('generated cylinder',#534,6.4) ;
#699=CYLINDRICAL_SURFACE('generated cylinder',#698,2.) ;
#747=CYLINDRICAL_SURFACE('generated cylinder',#746,2.) ;
#795=CYLINDRICAL_SURFACE('generated cylinder',#794,2.) ;
#843=CYLINDRICAL_SURFACE('generated cylinder',#842,2.) ;
#860=CYLINDRICAL_SURFACE('generated cylinder',#859,3.) ;
#1026=CYLINDRICAL_SURFACE('generated cylinder',#1025,3.) ;
#1055=CYLINDRICAL_SURFACE('generated cylinder',#1054,2.) ;
#3=DESIGN_CONTEXT(' ',#1,'design') ;
#65=EDGE_CURVE('',#62,#64,#60,.T.) ;
#70=EDGE_CURVE('',#64,#62,#69,.T.) ;
#83=EDGE_CURVE('',#80,#82,#78,.T.) ;
#88=EDGE_CURVE('',#82,#80,#87,.T.) ;
#107=EDGE_CURVE('',#104,#106,#102,.T.) ;
#112=EDGE_CURVE('',#106,#80,#111,.F.) ;
#117=EDGE_CURVE('',#104,#82,#116,.F.) ;
#129=EDGE_CURVE('',#106,#104,#128,.T.) ;
#150=EDGE_CURVE('',#147,#149,#145,.F.) ;
#157=EDGE_CURVE('',#156,#149,#154,.T.) ;
#164=EDGE_CURVE('',#163,#156,#161,.F.) ;
#169=EDGE_CURVE('',#163,#147,#168,.T.) ;
#188=EDGE_CURVE('',#149,#187,#185,.T.) ;
#195=EDGE_CURVE('',#194,#187,#192,.T.) ;
#200=EDGE_CURVE('',#156,#194,#199,.T.) ;
#219=EDGE_CURVE('',#187,#218,#216,.F.) ;
#226=EDGE_CURVE('',#225,#218,#223,.T.) ;
#231=EDGE_CURVE('',#194,#225,#230,.F.) ;
#250=EDGE_CURVE('',#218,#249,#247,.T.) ;
#257=EDGE_CURVE('',#256,#249,#254,.T.) ;
#262=EDGE_CURVE('',#225,#256,#261,.T.) ;
#281=EDGE_CURVE('',#249,#280,#278,.F.) ;
#288=EDGE_CURVE('',#287,#280,#285,.T.) ;
#293=EDGE_CURVE('',#256,#287,#292,.F.) ;
#310=EDGE_CURVE('',#280,#147,#309,.F.) ;
#315=EDGE_CURVE('',#287,#163,#314,.F.) ;
#336=EDGE_CURVE('',#333,#335,#331,.T.) ;
#343=EDGE_CURVE('',#335,#342,#340,.T.) ;
#350=EDGE_CURVE('',#342,#349,#347,.T.) ;
#357=EDGE_CURVE('',#349,#356,#354,.T.) ;
#364=EDGE_CURVE('',#356,#363,#361,.T.) ;
#369=EDGE_CURVE('',#363,#333,#368,.T.) ;
#398=EDGE_CURVE('',#333,#397,#395,.T.) ;
#405=EDGE_CURVE('',#397,#404,#402,.F.) ;
#410=EDGE_CURVE('',#335,#404,#409,.T.) ;
#429=EDGE_CURVE('',#404,#428,#426,.T.) ;
#434=EDGE_CURVE('',#342,#428,#433,.F.) ;
#453=EDGE_CURVE('',#428,#452,#450,.T.) ;
#458=EDGE_CURVE('',#349,#452,#457,.T.) ;
#477=EDGE_CURVE('',#452,#476,#474,.T.) ;
#482=EDGE_CURVE('',#356,#476,#481,.F.) ;
#501=EDGE_CURVE('',#476,#500,#498,.F.) ;
#506=EDGE_CURVE('',#363,#500,#505,.T.) ;
#523=EDGE_CURVE('',#500,#397,#522,.T.) ;
#544=EDGE_CURVE('',#541,#543,#539,.T.) ;
#551=EDGE_CURVE('',#543,#550,#548,.F.) ;
#558=EDGE_CURVE('',#557,#550,#555,.T.) ;
#563=EDGE_CURVE('',#541,#557,#562,.F.) ;
#575=EDGE_CURVE('',#543,#541,#574,.T.) ;
#580=EDGE_CURVE('',#550,#557,#579,.T.) ;
#601=EDGE_CURVE('',#598,#600,#596,.T.) ;
#608=EDGE_CURVE('',#600,#607,#605,.T.) ;
#615=EDGE_CURVE('',#607,#614,#612,.T.) ;
#622=EDGE_CURVE('',#614,#621,#619,.F.) ;
#629=EDGE_CURVE('',#621,#628,#626,.T.) ;
#636=EDGE_CURVE('',#628,#635,#633,.T.) ;
#643=EDGE_CURVE('',#635,#642,#640,.T.) ;
#648=EDGE_CURVE('',#642,#598,#647,.F.) ;
#675=EDGE_CURVE('',#674,#642,#672,.T.) ;
#682=EDGE_CURVE('',#674,#681,#679,.F.) ;
#687=EDGE_CURVE('',#681,#598,#686,.T.) ;
#706=EDGE_CURVE('',#681,#705,#703,.T.) ;
#711=EDGE_CURVE('',#705,#600,#710,.F.) ;
#730=EDGE_CURVE('',#705,#729,#727,.T.) ;
#735=EDGE_CURVE('',#729,#607,#734,.T.) ;
#754=EDGE_CURVE('',#729,#753,#751,.T.) ;
#759=EDGE_CURVE('',#753,#614,#758,.F.) ;
#778=EDGE_CURVE('',#753,#777,#775,.F.) ;
#783=EDGE_CURVE('',#777,#621,#782,.T.) ;
#802=EDGE_CURVE('',#777,#801,#799,.T.) ;
#807=EDGE_CURVE('',#801,#628,#806,.F.) ;
#826=EDGE_CURVE('',#801,#825,#823,.T.) ;
#831=EDGE_CURVE('',#825,#635,#830,.T.) ;
#848=EDGE_CURVE('',#825,#674,#847,.T.) ;
#869=EDGE_CURVE('',#866,#868,#864,.T.) ;
#874=EDGE_CURVE('',#62,#866,#873,.F.) ;
#879=EDGE_CURVE('',#64,#868,#878,.F.) ;
#891=EDGE_CURVE('',#868,#866,#890,.T.) ;
#920=EDGE_CURVE('',#917,#919,#915,.T.) ;
#925=EDGE_CURVE('',#919,#917,#924,.T.) ;
#960=EDGE_CURVE('',#957,#959,#955,.T.) ;
#965=EDGE_CURVE('',#959,#957,#964,.T.) ;
#993=EDGE_CURVE('',#990,#992,#988,.T.) ;
#998=EDGE_CURVE('',#992,#990,#997,.T.) ;
#1011=EDGE_CURVE('',#1008,#1010,#1006,.T.) ;
#1016=EDGE_CURVE('',#1010,#1008,#1015,.T.) ;
#1031=EDGE_CURVE('',#992,#919,#1030,.F.) ;
#1036=EDGE_CURVE('',#990,#917,#1035,.F.) ;
#1060=EDGE_CURVE('',#957,#1008,#1059,.F.) ;
#1065=EDGE_CURVE('',#959,#1010,#1064,.F.) ;
#71=EDGE_LOOP('',(#72,#73)) ;
#89=EDGE_LOOP('',(#90,#91)) ;
#118=EDGE_LOOP('',(#119,#120,#121,#122)) ;
#130=EDGE_LOOP('',(#131,#132,#133,#134)) ;
#170=EDGE_LOOP('',(#171,#172,#173,#174)) ;
#201=EDGE_LOOP('',(#202,#203,#204,#205)) ;
#232=EDGE_LOOP('',(#233,#234,#235,#236)) ;
#263=EDGE_LOOP('',(#264,#265,#266,#267)) ;
#294=EDGE_LOOP('',(#295,#296,#297,#298)) ;
#316=EDGE_LOOP('',(#317,#318,#319,#320)) ;
#370=EDGE_LOOP('',(#371,#372,#373,#374,#375,#376)) ;
#378=EDGE_LOOP('',(#379,#380,#381,#382,#383,#384)) ;
#411=EDGE_LOOP('',(#412,#413,#414,#415)) ;
#435=EDGE_LOOP('',(#436,#437,#438,#439)) ;
#459=EDGE_LOOP('',(#460,#461,#462,#463)) ;
#483=EDGE_LOOP('',(#484,#485,#486,#487)) ;
#507=EDGE_LOOP('',(#508,#509,#510,#511)) ;
#524=EDGE_LOOP('',(#525,#526,#527,#528)) ;
#564=EDGE_LOOP('',(#565,#566,#567,#568)) ;
#581=EDGE_LOOP('',(#582,#583,#584,#585)) ;
#649=EDGE_LOOP('',(#650,#651,#652,#653,#654,#655,#656,#657)) ;
#659=EDGE_LOOP('',(#660,#661)) ;
#688=EDGE_LOOP('',(#689,#690,#691,#692)) ;
#712=EDGE_LOOP('',(#713,#714,#715,#716)) ;
#736=EDGE_LOOP('',(#737,#738,#739,#740)) ;
#760=EDGE_LOOP('',(#761,#762,#763,#764)) ;
#784=EDGE_LOOP('',(#785,#786,#787,#788)) ;
#808=EDGE_LOOP('',(#809,#810,#811,#812)) ;
#832=EDGE_LOOP('',(#833,#834,#835,#836)) ;
#849=EDGE_LOOP('',(#850,#851,#852,#853)) ;
#880=EDGE_LOOP('',(#881,#882,#883,#884)) ;
#892=EDGE_LOOP('',(#893,#894,#895,#896)) ;
#904=EDGE_LOOP('',(#905,#906,#907,#908,#909,#910)) ;
#926=EDGE_LOOP('',(#927,#928)) ;
#930=EDGE_LOOP('',(#931,#932)) ;
#934=EDGE_LOOP('',(#935,#936)) ;
#944=EDGE_LOOP('',(#945,#946,#947,#948,#949,#950)) ;
#966=EDGE_LOOP('',(#967,#968)) ;
#970=EDGE_LOOP('',(#971,#972)) ;
#974=EDGE_LOOP('',(#975,#976,#977,#978,#979,#980,#981,#982)) ;
#999=EDGE_LOOP('',(#1000,#1001)) ;
#1017=EDGE_LOOP('',(#1018,#1019)) ;
#1037=EDGE_LOOP('',(#1038,#1039,#1040,#1041)) ;
#1044=EDGE_LOOP('',(#1045,#1046,#1047,#1048)) ;
#1066=EDGE_LOOP('',(#1067,#1068,#1069,#1070)) ;
#1073=EDGE_LOOP('',(#1074,#1075,#1076,#1077)) ;
#74=FACE_OUTER_BOUND('',#71,.T.) ;
#123=FACE_OUTER_BOUND('',#118,.T.) ;
#135=FACE_OUTER_BOUND('',#130,.T.) ;
#175=FACE_OUTER_BOUND('',#170,.T.) ;
#206=FACE_OUTER_BOUND('',#201,.T.) ;
#237=FACE_OUTER_BOUND('',#232,.T.) ;
#268=FACE_OUTER_BOUND('',#263,.T.) ;
#299=FACE_OUTER_BOUND('',#294,.T.) ;
#321=FACE_OUTER_BOUND('',#316,.T.) ;
#377=FACE_OUTER_BOUND('',#370,.T.) ;
#416=FACE_OUTER_BOUND('',#411,.T.) ;
#440=FACE_OUTER_BOUND('',#435,.T.) ;
#464=FACE_OUTER_BOUND('',#459,.T.) ;
#488=FACE_OUTER_BOUND('',#483,.T.) ;
#512=FACE_OUTER_BOUND('',#507,.T.) ;
#529=FACE_OUTER_BOUND('',#524,.T.) ;
#569=FACE_OUTER_BOUND('',#564,.T.) ;
#586=FACE_OUTER_BOUND('',#581,.T.) ;
#658=FACE_OUTER_BOUND('',#649,.T.) ;
#693=FACE_OUTER_BOUND('',#688,.T.) ;
#717=FACE_OUTER_BOUND('',#712,.T.) ;
#741=FACE_OUTER_BOUND('',#736,.T.) ;
#765=FACE_OUTER_BOUND('',#760,.T.) ;
#789=FACE_OUTER_BOUND('',#784,.T.) ;
#813=FACE_OUTER_BOUND('',#808,.T.) ;
#837=FACE_OUTER_BOUND('',#832,.T.) ;
#854=FACE_OUTER_BOUND('',#849,.T.) ;
#885=FACE_OUTER_BOUND('',#880,.T.) ;
#897=FACE_OUTER_BOUND('',#892,.T.) ;
#911=FACE_OUTER_BOUND('',#904,.T.) ;
#951=FACE_OUTER_BOUND('',#944,.T.) ;
#1002=FACE_OUTER_BOUND('',#999,.T.) ;
#1042=FACE_OUTER_BOUND('',#1037,.T.) ;
#1049=FACE_OUTER_BOUND('',#1044,.T.) ;
#1071=FACE_OUTER_BOUND('',#1066,.T.) ;
#1078=FACE_OUTER_BOUND('',#1073,.T.) ;
#45=UNCERTAINTY_MEASURE_WITH_UNIT(LENGTH_MEASURE(0.005),#41,'distance_accuracy_value','CONFUSED CURVE UNCERTAINTY') ;
#111=LINE('Line',#108,#110) ;
#116=LINE('Line',#113,#115) ;
#145=LINE('Line',#142,#144) ;
#154=LINE('Line',#151,#153) ;
#161=LINE('Line',#158,#160) ;
#168=LINE('Line',#165,#167) ;
#192=LINE('Line',#189,#191) ;
#216=LINE('Line',#213,#215) ;
#223=LINE('Line',#220,#222) ;
#230=LINE('Line',#227,#229) ;
#254=LINE('Line',#251,#253) ;
#278=LINE('Line',#275,#277) ;
#285=LINE('Line',#282,#284) ;
#292=LINE('Line',#289,#291) ;
#309=LINE('Line',#306,#308) ;
#314=LINE('Line',#311,#313) ;
#331=LINE('Line',#328,#330) ;
#347=LINE('Line',#344,#346) ;
#361=LINE('Line',#358,#360) ;
#368=LINE('Line',#365,#367) ;
#395=LINE('Line',#392,#394) ;
#402=LINE('Line',#399,#401) ;
#409=LINE('Line',#406,#408) ;
#433=LINE('Line',#430,#432) ;
#450=LINE('Line',#447,#449) ;
#457=LINE('Line',#454,#456) ;
#481=LINE('Line',#478,#480) ;
#498=LINE('Line',#495,#497) ;
#505=LINE('Line',#502,#504) ;
#522=LINE('Line',#519,#521) ;
#548=LINE('Line',#545,#547) ;
#562=LINE('Line',#559,#561) ;
#605=LINE('Line',#602,#604) ;
#619=LINE('Line',#616,#618) ;
#633=LINE('Line',#630,#632) ;
#647=LINE('Line',#644,#646) ;
#672=LINE('Line',#669,#671) ;
#679=LINE('Line',#676,#678) ;
#686=LINE('Line',#683,#685) ;
#710=LINE('Line',#707,#709) ;
#727=LINE('Line',#724,#726) ;
#734=LINE('Line',#731,#733) ;
#758=LINE('Line',#755,#757) ;
#775=LINE('Line',#772,#774) ;
#782=LINE('Line',#779,#781) ;
#806=LINE('Line',#803,#805) ;
#823=LINE('Line',#820,#822) ;
#830=LINE('Line',#827,#829) ;
#873=LINE('Line',#870,#872) ;
#878=LINE('Line',#875,#877) ;
#1030=LINE('Line',#1027,#1029) ;
#1035=LINE('Line',#1032,#1034) ;
#1059=LINE('Line',#1056,#1058) ;
#1064=LINE('Line',#1061,#1063) ;
#2=MECHANICAL_CONTEXT(' ',#1,'mechanical') ;
#24=PERSONAL_ADDRESS(' ',' ',' ',' ',' ',' ',' ',' ',' ',' ',' ',' ',(#22),' ') ;
#56=PLANE('Plane',#55) ;
#141=PLANE('Plane',#140) ;
#212=PLANE('Plane',#211) ;
#274=PLANE('Plane',#273) ;
#305=PLANE('Plane',#304) ;
#327=PLANE('Plane',#326) ;
#391=PLANE('Plane',#390) ;
#446=PLANE('Plane',#445) ;
#494=PLANE('Plane',#493) ;
#518=PLANE('Plane',#517) ;
#592=PLANE('Plane',#591) ;
#668=PLANE('Plane',#667) ;
#723=PLANE('Plane',#722) ;
#771=PLANE('Plane',#770) ;
#819=PLANE('Plane',#818) ;
#903=PLANE('Plane',#902) ;
#943=PLANE('Plane',#942) ;
#43=PLANE_ANGLE_MEASURE_WITH_UNIT(PLANE_ANGLE_MEASURE(0.0174532925199),#42) ;
#7=PRODUCT_CATEGORY('part',$) ;
#9=PRODUCT_CATEGORY_RELATIONSHIP(' ',' ',#7,#8) ;
#6=PRODUCT_DEFINITION_FORMATION_WITH_SPECIFIED_SOURCE('',' ',#5,.NOT_KNOWN.) ;
#8=PRODUCT_RELATED_PRODUCT_CATEGORY('detail',$,(#5)) ;
#50=SHAPE_DEFINITION_REPRESENTATION(#40,#49) ;
#62=VERTEX_POINT('',#61) ;
#64=VERTEX_POINT('',#63) ;
#80=VERTEX_POINT('',#79) ;
#82=VERTEX_POINT('',#81) ;
#104=VERTEX_POINT('',#103) ;
#106=VERTEX_POINT('',#105) ;
#147=VERTEX_POINT('',#146) ;
#149=VERTEX_POINT('',#148) ;
#156=VERTEX_POINT('',#155) ;
#163=VERTEX_POINT('',#162) ;
#187=VERTEX_POINT('',#186) ;
#194=VERTEX_POINT('',#193) ;
#218=VERTEX_POINT('',#217) ;
#225=VERTEX_POINT('',#224) ;
#249=VERTEX_POINT('',#248) ;
#256=VERTEX_POINT('',#255) ;
#280=VERTEX_POINT('',#279) ;
#287=VERTEX_POINT('',#286) ;
#333=VERTEX_POINT('',#332) ;
#335=VERTEX_POINT('',#334) ;
#342=VERTEX_POINT('',#341) ;
#349=VERTEX_POINT('',#348) ;
#356=VERTEX_POINT('',#355) ;
#363=VERTEX_POINT('',#362) ;
#397=VERTEX_POINT('',#396) ;
#404=VERTEX_POINT('',#403) ;
#428=VERTEX_POINT('',#427) ;
#452=VERTEX_POINT('',#451) ;
#476=VERTEX_POINT('',#475) ;
#500=VERTEX_POINT('',#499) ;
#541=VERTEX_POINT('',#540) ;
#543=VERTEX_POINT('',#542) ;
#550=VERTEX_POINT('',#549) ;
#557=VERTEX_POINT('',#556) ;
#598=VERTEX_POINT('',#597) ;
#600=VERTEX_POINT('',#599) ;
#607=VERTEX_POINT('',#606) ;
#614=VERTEX_POINT('',#613) ;
#621=VERTEX_POINT('',#620) ;
#628=VERTEX_POINT('',#627) ;
#635=VERTEX_POINT('',#634) ;
#642=VERTEX_POINT('',#641) ;
#674=VERTEX_POINT('',#673) ;
#681=VERTEX_POINT('',#680) ;
#705=VERTEX_POINT('',#704) ;
#729=VERTEX_POINT('',#728) ;
#753=VERTEX_POINT('',#752) ;
#777=VERTEX_POINT('',#776) ;
#801=VERTEX_POINT('',#800) ;
#825=VERTEX_POINT('',#824) ;
#866=VERTEX_POINT('',#865) ;
#868=VERTEX_POINT('',#867) ;
#917=VERTEX_POINT('',#916) ;
#919=VERTEX_POINT('',#918) ;
#957=VERTEX_POINT('',#956) ;
#959=VERTEX_POINT('',#958) ;
#990=VERTEX_POINT('',#989) ;
#992=VERTEX_POINT('',#991) ;
#1008=VERTEX_POINT('',#1007) ;
#1010=VERTEX_POINT('',#1009) ;
#41=(LENGTH_UNIT()NAMED_UNIT(*)SI_UNIT(.MILLI.,.METRE.)) ;
#42=(NAMED_UNIT(*)PLANE_ANGLE_UNIT()SI_UNIT($,.RADIAN.)) ;
#44=(NAMED_UNIT(*)SI_UNIT($,.STERADIAN.)SOLID_ANGLE_UNIT()) ;
#46=(GEOMETRIC_REPRESENTATION_CONTEXT(3)GLOBAL_UNCERTAINTY_ASSIGNED_CONTEXT((#45))GLOBAL_UNIT_ASSIGNED_CONTEXT((#41,#42,#44))REPRESENTATION_CONTEXT(' ',' ')) ;
ENDSEC;
END-ISO-10303-21;

