ISO-10303-21;
HEADER;
FILE_DESCRIPTION(('CATIA V5 STEP Exchange'),'2;1');

FILE_NAME('D:\\Users\\Barry\\14_Spindle_Load_Monitor\\02_CAD\\STEP\\sensor_final\\SensorDisc_V14.stp','2025-12-03T12:51:52+00:00',('none'),('none'),'CATIA Version 5 Release 18 GA (IN-10)','CATIA V5 STEP AP203','none');

FILE_SCHEMA(('CONFIG_CONTROL_DESIGN'));

ENDSEC;
/* file written by CATIA V5R18 */
DATA;
#5=PRODUCT('SensorDisc_V14','','',(#2)) ;
#1=APPLICATION_CONTEXT('configuration controlled 3D design of mechanical parts and assemblies') ;
#14=PRODUCT_DEFINITION(' ',' ',#6,#3) ;
#16=SECURITY_CLASSIFICATION(' ',' ',#15) ;
#15=SECURITY_CLASSIFICATION_LEVEL('unclassified') ;
#47=CARTESIAN_POINT(' ',(0.,0.,0.)) ;
#51=CARTESIAN_POINT('Point.1',(467.680010061,-361.238344394,-196.006060443)) ;
#56=CARTESIAN_POINT('Axis2P3D Location',(0.,3.04228320255,-197.392468695)) ;
#61=CARTESIAN_POINT('Axis2P3D Location',(467.680010061,-361.130470706,-203.005229199)) ;
#65=CARTESIAN_POINT('Vertex',(453.680010061,-361.130470706,-203.005229199)) ;
#67=CARTESIAN_POINT('Vertex',(481.680010061,-361.130470706,-203.005229199)) ;
#70=CARTESIAN_POINT('Axis2P3D Location',(467.680010061,-361.130470706,-203.005229199)) ;
#79=CARTESIAN_POINT('Axis2P3D Location',(467.680010061,-361.130470706,-203.005229199)) ;
#83=CARTESIAN_POINT('Vertex',(474.680010061,-361.130470706,-203.005229199)) ;
#85=CARTESIAN_POINT('Vertex',(460.680010061,-361.130470706,-203.005229199)) ;
#88=CARTESIAN_POINT('Axis2P3D Location',(467.680010061,-361.130470706,-203.005229199)) ;
#98=CARTESIAN_POINT('Axis2P3D Location',(467.680010061,-361.139717022,-202.405300448)) ;
#103=CARTESIAN_POINT('Line Origine',(474.680010061,-361.139717022,-202.405300448)) ;
#107=CARTESIAN_POINT('Vertex',(474.680010061,-361.148963338,-201.805371698)) ;
#110=CARTESIAN_POINT('Axis2P3D Location',(467.680010061,-361.148963338,-201.805371698)) ;
#114=CARTESIAN_POINT('Vertex',(464.721682229,-354.805562192,-201.707604935)) ;
#117=CARTESIAN_POINT('Axis2P3D Location',(467.680010061,-361.148963338,-201.805371698)) ;
#121=CARTESIAN_POINT('Vertex',(460.680010061,-361.148963338,-201.805371698)) ;
#124=CARTESIAN_POINT('Line Origine',(460.680010061,-361.139717022,-202.405300448)) ;
#137=CARTESIAN_POINT('Axis2P3D Location',(467.680010061,-361.219081235,-197.255912007)) ;
#141=CARTESIAN_POINT('Vertex',(464.721682229,-354.875680089,-197.158145244)) ;
#143=CARTESIAN_POINT('Vertex',(464.721682229,-367.562482381,-197.35367877)) ;
#146=CARTESIAN_POINT('Line Origine',(464.721682229,-354.796315876,-202.307533685)) ;
#151=CARTESIAN_POINT('Axis2P3D Location',(467.680010061,-361.148963338,-201.805371698)) ;
#155=CARTESIAN_POINT('Vertex',(464.721682229,-367.492364484,-201.903138461)) ;
#158=CARTESIAN_POINT('Line Origine',(464.721682229,-367.483118168,-202.503067212)) ;
#174=CARTESIAN_POINT('Axis2P3D Location',(462.714245485,-350.59049247,-195.841951948)) ;
#179=CARTESIAN_POINT('Line Origine',(464.668854946,-354.764331385,-197.031414252)) ;
#183=CARTESIAN_POINT('Vertex',(464.616027663,-354.65298268,-196.904683261)) ;
#186=CARTESIAN_POINT('Line Origine',(464.005418255,-353.343682076,-196.884503852)) ;
#190=CARTESIAN_POINT('Vertex',(463.394808847,-352.034381472,-196.864324444)) ;
#193=CARTESIAN_POINT('Line Origine',(463.394808847,-351.997396207,-199.264039446)) ;
#197=CARTESIAN_POINT('Vertex',(463.394808847,-351.960410943,-201.663754448)) ;
#200=CARTESIAN_POINT('Line Origine',(464.058245538,-353.382986568,-201.685679691)) ;
#213=CARTESIAN_POINT('Axis2P3D Location',(462.714245485,-371.886196317,-196.170168939)) ;
#218=CARTESIAN_POINT('Line Origine',(464.058245538,-368.914940108,-201.925063704)) ;
#222=CARTESIAN_POINT('Vertex',(463.394808847,-370.337515733,-201.946988948)) ;
#225=CARTESIAN_POINT('Line Origine',(463.394808847,-370.374500997,-199.547273946)) ;
#229=CARTESIAN_POINT('Vertex',(463.394808847,-370.411486262,-197.147558944)) ;
#232=CARTESIAN_POINT('Line Origine',(464.005418255,-369.102185658,-197.127379536)) ;
#236=CARTESIAN_POINT('Vertex',(464.616027663,-367.792885054,-197.107200127)) ;
#239=CARTESIAN_POINT('Line Origine',(464.668854946,-367.677683717,-197.230439449)) ;
#252=CARTESIAN_POINT('Axis2P3D Location',(467.680010061,-361.111207547,-204.255080762)) ;
#257=CARTESIAN_POINT('Axis2P3D Location',(467.680010061,-361.222933867,-197.005941694)) ;
#269=CARTESIAN_POINT('Axis2P3D Location',(467.680010061,-361.139717022,-202.405300448)) ;
#274=CARTESIAN_POINT('Line Origine',(481.680010061,-361.139717022,-202.405300448)) ;
#278=CARTESIAN_POINT('Vertex',(481.680010061,-361.13148385,-202.93949337)) ;
#281=CARTESIAN_POINT('Line Origine',(453.680010061,-361.139717022,-202.405300448)) ;
#285=CARTESIAN_POINT('Vertex',(453.680010061,-361.13148385,-202.93949337)) ;
#288=CARTESIAN_POINT('Axis2P3D Location',(467.680010061,-361.13148385,-202.93949337)) ;
#300=CARTESIAN_POINT('Axis2P3D Location',(467.680010061,-361.13148385,-202.93949337)) ;
#312=CARTESIAN_POINT('Axis2P3D Location',(467.680010061,-362.355048018,-123.550976339)) ;
#317=CARTESIAN_POINT('Line Origine',(481.580010061,-361.140224098,-202.372432541)) ;
#321=CARTESIAN_POINT('Vertex',(481.480010061,-361.148962821,-201.80537169)) ;
#324=CARTESIAN_POINT('Axis2P3D Location',(467.680010061,-361.148963338,-201.805371698)) ;
#328=CARTESIAN_POINT('Vertex',(453.880010061,-361.148963338,-201.805371698)) ;
#331=CARTESIAN_POINT('Line Origine',(453.780010061,-361.140223594,-202.372432534)) ;
#343=CARTESIAN_POINT('Axis2P3D Location',(467.680010061,-362.355048018,-123.550976339)) ;
#348=CARTESIAN_POINT('Axis2P3D Location',(467.680010061,-361.148963338,-201.805371698)) ;
#360=CARTESIAN_POINT('Axis2P3D Location',(467.680010061,-361.222933867,-197.005941694)) ;
#365=CARTESIAN_POINT('Axis2P3D Location',(464.754270528,-351.400529358,-196.854555289)) ;
#369=CARTESIAN_POINT('Vertex',(463.708557778,-350.325257207,-196.837982811)) ;
#372=CARTESIAN_POINT('Axis2P3D Location',(464.754270528,-371.045338376,-197.157328099)) ;
#376=CARTESIAN_POINT('Vertex',(463.708557778,-372.120610526,-197.173900578)) ;
#379=CARTESIAN_POINT('Axis2P3D Location',(467.680010061,-361.222933867,-197.005941694)) ;
#383=CARTESIAN_POINT('Vertex',(473.241346309,-351.044185011,-196.849063183)) ;
#386=CARTESIAN_POINT('Axis2P3D Location',(467.680010061,-361.222933867,-197.005941694)) ;
#401=CARTESIAN_POINT('Axis2P3D Location',(464.754270528,-371.008353112,-199.557043101)) ;
#406=CARTESIAN_POINT('Axis2P3D Location',(464.754270528,-370.971367847,-201.956758103)) ;
#410=CARTESIAN_POINT('Vertex',(463.260857454,-371.111769797,-201.958922028)) ;
#414=CARTESIAN_POINT('Control Point',(463.708557778,-372.120610526,-197.173900578)) ;
#415=CARTESIAN_POINT('Control Point',(463.509809305,-371.91537382,-197.949373119)) ;
#416=CARTESIAN_POINT('Control Point',(463.365674168,-371.661747773,-199.077662977)) ;
#417=CARTESIAN_POINT('Control Point',(463.284688225,-371.388652118,-200.440554715)) ;
#418=CARTESIAN_POINT('Control Point',(463.260857454,-371.111769797,-201.958922028)) ;
#427=CARTESIAN_POINT('Axis2P3D Location',(464.754270528,-351.363544093,-199.254270291)) ;
#432=CARTESIAN_POINT('Axis2P3D Location',(464.754270528,-351.326558829,-201.653985293)) ;
#436=CARTESIAN_POINT('Vertex',(463.260857454,-351.186156879,-201.651821368)) ;
#440=CARTESIAN_POINT('Control Point',(463.708557778,-350.325257207,-196.837982811)) ;
#441=CARTESIAN_POINT('Control Point',(463.509809305,-350.506498389,-197.619411886)) ;
#442=CARTESIAN_POINT('Control Point',(463.365674168,-350.72523302,-198.75498194)) ;
#443=CARTESIAN_POINT('Control Point',(463.284688225,-350.956198192,-200.125642443)) ;
#444=CARTESIAN_POINT('Control Point',(463.260857454,-351.186156879,-201.651821368)) ;
#453=CARTESIAN_POINT('Axis2P3D Location',(467.680010061,-361.148963338,-201.805371698)) ;
#458=CARTESIAN_POINT('Line Origine',(473.07354737,-351.314317169,-199.253511588)) ;
#462=CARTESIAN_POINT('Vertex',(472.905748432,-351.584449327,-201.657959993)) ;
#465=CARTESIAN_POINT('Axis2P3D Location',(467.680010061,-361.148963338,-201.805371698)) ;
#477=CARTESIAN_POINT('Axis2P3D Location',(467.680010061,-361.148963338,-201.805371698)) ;
#489=CARTESIAN_POINT('Axis2P3D Location',(467.680010061,-361.148963338,-201.805371698)) ;
#57=DIRECTION('Axis2P3D Direction',(0.,0.0154105268246,-0.999881250781)) ;
#58=DIRECTION('Axis2P3D XDirection',(-1.,0.,0.)) ;
#62=DIRECTION('Axis2P3D Direction',(0.,0.0154105268246,-0.999881250781)) ;
#71=DIRECTION('Axis2P3D Direction',(0.,0.0154105268246,-0.999881250781)) ;
#80=DIRECTION('Axis2P3D Direction',(0.,0.0154105268246,-0.999881250781)) ;
#89=DIRECTION('Axis2P3D Direction',(0.,0.0154105268246,-0.999881250781)) ;
#99=DIRECTION('Axis2P3D Direction',(0.,0.0154105268246,-0.999881250781)) ;
#100=DIRECTION('Axis2P3D XDirection',(-1.,0.,0.)) ;
#104=DIRECTION('Vector Direction',(0.,0.0154105268246,-0.999881250781)) ;
#111=DIRECTION('Axis2P3D Direction',(0.,0.0154105268246,-0.999881250781)) ;
#118=DIRECTION('Axis2P3D Direction',(0.,0.0154105268246,-0.999881250781)) ;
#125=DIRECTION('Vector Direction',(0.,0.0154105268246,-0.999881250781)) ;
#138=DIRECTION('Axis2P3D Direction',(0.,0.0154105268246,-0.999881250781)) ;
#147=DIRECTION('Vector Direction',(0.,0.0154105268246,-0.999881250781)) ;
#152=DIRECTION('Axis2P3D Direction',(0.,0.0154105268246,-0.999881250781)) ;
#159=DIRECTION('Vector Direction',(0.,0.0154105268246,-0.999881250781)) ;
#175=DIRECTION('Axis2P3D Direction',(0.906307787037,0.422568076152,0.00651277005912)) ;
#176=DIRECTION('Axis2P3D XDirection',(0.422618261741,-0.906200163695,-0.0139666804635)) ;
#180=DIRECTION('Vector Direction',(-0.29883623873,0.629883392842,0.716898747275)) ;
#187=DIRECTION('Vector Direction',(0.422618261741,-0.906200163695,-0.0139666804635)) ;
#194=DIRECTION('Vector Direction',(0.,0.0154105268246,-0.999881250781)) ;
#201=DIRECTION('Vector Direction',(0.422618261741,-0.906200163695,-0.0139666804635)) ;
#214=DIRECTION('Axis2P3D Direction',(-0.906307787037,0.422568076152,0.00651277005912)) ;
#215=DIRECTION('Axis2P3D XDirection',(0.422618261741,0.906200163695,0.0139666804635)) ;
#219=DIRECTION('Vector Direction',(0.422618261741,0.906200163695,0.0139666804635)) ;
#226=DIRECTION('Vector Direction',(0.,-0.0154105268246,0.999881250781)) ;
#233=DIRECTION('Vector Direction',(0.422618261741,0.906200163695,0.0139666804635)) ;
#240=DIRECTION('Vector Direction',(-0.29883623873,-0.65167716888,0.697146878342)) ;
#253=DIRECTION('Axis2P3D Direction',(0.,-0.0154105268246,0.999881250781)) ;
#254=DIRECTION('Axis2P3D XDirection',(-1.,4.11590317489E-018,-2.63417803193E-016)) ;
#258=DIRECTION('Axis2P3D Direction',(0.,-0.0154105268246,0.999881250781)) ;
#270=DIRECTION('Axis2P3D Direction',(0.,0.0154105268246,-0.999881250781)) ;
#271=DIRECTION('Axis2P3D XDirection',(-1.,0.,0.)) ;
#275=DIRECTION('Vector Direction',(0.,0.0154105268246,-0.999881250781)) ;
#282=DIRECTION('Vector Direction',(0.,0.0154105268246,-0.999881250781)) ;
#289=DIRECTION('Axis2P3D Direction',(0.,0.0154105268246,-0.999881250781)) ;
#301=DIRECTION('Axis2P3D Direction',(0.,0.0154105268246,-0.999881250781)) ;
#313=DIRECTION('Axis2P3D Direction',(0.,0.0154105268245,-0.999881250781)) ;
#314=DIRECTION('Axis2P3D XDirection',(-1.,0.,0.)) ;
#318=DIRECTION('Vector Direction',(0.173648177667,0.0151764000024,-0.984690807957)) ;
#325=DIRECTION('Axis2P3D Direction',(0.,-0.0154105268245,0.999881250781)) ;
#332=DIRECTION('Vector Direction',(-0.173648177667,0.0151764062948,-0.98469080786)) ;
#344=DIRECTION('Axis2P3D Direction',(0.,0.0154105268246,-0.999881250781)) ;
#345=DIRECTION('Axis2P3D XDirection',(0.938407779761,-0.345488763101,-0.00532479616675)) ;
#349=DIRECTION('Axis2P3D Direction',(-5.38631639291E-016,-0.0154105268246,0.999881250781)) ;
#361=DIRECTION('Axis2P3D Direction',(0.,-0.0154105268246,0.999881250781)) ;
#362=DIRECTION('Axis2P3D XDirection',(-1.,0.,0.)) ;
#366=DIRECTION('Axis2P3D Direction',(0.,-0.0154105268246,0.999881250781)) ;
#373=DIRECTION('Axis2P3D Direction',(0.,-0.0154105268246,0.999881250781)) ;
#380=DIRECTION('Axis2P3D Direction',(0.,-0.0154105268246,0.999881250781)) ;
#387=DIRECTION('Axis2P3D Direction',(0.,-0.0154105268246,0.999881250781)) ;
#402=DIRECTION('Axis2P3D Direction',(-3.87363752186E-015,-0.0154105268246,0.999881250781)) ;
#403=DIRECTION('Axis2P3D XDirection',(-0.906307787037,0.422568076152,0.00651277005911)) ;
#407=DIRECTION('Axis2P3D Direction',(-3.87363752186E-015,-0.0154105268246,0.999881250781)) ;
#428=DIRECTION('Axis2P3D Direction',(7.65880414644E-016,0.0154105268246,-0.999881250781)) ;
#429=DIRECTION('Axis2P3D XDirection',(-0.906307787037,-0.422568076152,-0.00651277005911)) ;
#433=DIRECTION('Axis2P3D Direction',(7.65880414644E-016,0.0154105268246,-0.999881250781)) ;
#454=DIRECTION('Axis2P3D Direction',(-0.,-0.0154105268246,0.999881250781)) ;
#455=DIRECTION('Axis2P3D XDirection',(-0.479425538604,-0.877478349646,-0.0135240096108)) ;
#459=DIRECTION('Vector Direction',(0.0691844099352,0.111376949827,0.991367082603)) ;
#466=DIRECTION('Axis2P3D Direction',(0.,-0.0154105268246,0.999881250781)) ;
#478=DIRECTION('Axis2P3D Direction',(0.,-0.0154105268246,0.999881250781)) ;
#490=DIRECTION('Axis2P3D Direction',(0.,-0.0154105268246,0.999881250781)) ;
#491=DIRECTION('Axis2P3D XDirection',(-1.,0.,0.)) ;
#48=AXIS2_PLACEMENT_3D(' ',#47,$,$) ;
#59=AXIS2_PLACEMENT_3D('Plane Axis2P3D',#56,#57,#58) ;
#63=AXIS2_PLACEMENT_3D('Circle Axis2P3D',#61,#62,$) ;
#72=AXIS2_PLACEMENT_3D('Circle Axis2P3D',#70,#71,$) ;
#81=AXIS2_PLACEMENT_3D('Circle Axis2P3D',#79,#80,$) ;
#90=AXIS2_PLACEMENT_3D('Circle Axis2P3D',#88,#89,$) ;
#101=AXIS2_PLACEMENT_3D('Cylinder Axis2P3D',#98,#99,#100) ;
#112=AXIS2_PLACEMENT_3D('Circle Axis2P3D',#110,#111,$) ;
#119=AXIS2_PLACEMENT_3D('Circle Axis2P3D',#117,#118,$) ;
#139=AXIS2_PLACEMENT_3D('Circle Axis2P3D',#137,#138,$) ;
#153=AXIS2_PLACEMENT_3D('Circle Axis2P3D',#151,#152,$) ;
#177=AXIS2_PLACEMENT_3D('Plane Axis2P3D',#174,#175,#176) ;
#216=AXIS2_PLACEMENT_3D('Plane Axis2P3D',#213,#214,#215) ;
#255=AXIS2_PLACEMENT_3D('Cone Axis2P3D',#252,#253,#254) ;
#259=AXIS2_PLACEMENT_3D('Circle Axis2P3D',#257,#258,$) ;
#272=AXIS2_PLACEMENT_3D('Cylinder Axis2P3D',#269,#270,#271) ;
#290=AXIS2_PLACEMENT_3D('Circle Axis2P3D',#288,#289,$) ;
#302=AXIS2_PLACEMENT_3D('Circle Axis2P3D',#300,#301,$) ;
#315=AXIS2_PLACEMENT_3D('Cone Axis2P3D',#312,#313,#314) ;
#326=AXIS2_PLACEMENT_3D('Circle Axis2P3D',#324,#325,$) ;
#346=AXIS2_PLACEMENT_3D('Cone Axis2P3D',#343,#344,#345) ;
#350=AXIS2_PLACEMENT_3D('Circle Axis2P3D',#348,#349,$) ;
#363=AXIS2_PLACEMENT_3D('Plane Axis2P3D',#360,#361,#362) ;
#367=AXIS2_PLACEMENT_3D('Circle Axis2P3D',#365,#366,$) ;
#374=AXIS2_PLACEMENT_3D('Circle Axis2P3D',#372,#373,$) ;
#381=AXIS2_PLACEMENT_3D('Circle Axis2P3D',#379,#380,$) ;
#388=AXIS2_PLACEMENT_3D('Circle Axis2P3D',#386,#387,$) ;
#404=AXIS2_PLACEMENT_3D('Cylinder Axis2P3D',#401,#402,#403) ;
#408=AXIS2_PLACEMENT_3D('Circle Axis2P3D',#406,#407,$) ;
#430=AXIS2_PLACEMENT_3D('Cylinder Axis2P3D',#427,#428,#429) ;
#434=AXIS2_PLACEMENT_3D('Circle Axis2P3D',#432,#433,$) ;
#456=AXIS2_PLACEMENT_3D('Cone Axis2P3D',#453,#454,#455) ;
#467=AXIS2_PLACEMENT_3D('Circle Axis2P3D',#465,#466,$) ;
#479=AXIS2_PLACEMENT_3D('Circle Axis2P3D',#477,#478,$) ;
#492=AXIS2_PLACEMENT_3D('Plane Axis2P3D',#489,#490,#491) ;
#40=PRODUCT_DEFINITION_SHAPE(' ',' ',#14) ;
#31=APPROVAL_PERSON_ORGANIZATION(#25,#21,#19) ;
#25=PERSON_AND_ORGANIZATION(#22,#23) ;
#22=PERSON(' ',' ',' ',$,$,$) ;
#23=ORGANIZATION(' ',' ',' ') ;
#21=APPROVAL(#20,' ') ;
#20=APPROVAL_STATUS('not_yet_approved') ;
#19=APPROVAL_ROLE('APPROVER') ;
#13=DATE_AND_TIME(#11,#12) ;
#12=LOCAL_TIME(12,51,52.,#10) ;
#10=COORDINATED_UNIVERSAL_TIME_OFFSET(0,0,.AHEAD.) ;
#76=ORIENTED_EDGE('',*,*,#69,.T.) ;
#77=ORIENTED_EDGE('',*,*,#74,.T.) ;
#94=ORIENTED_EDGE('',*,*,#87,.F.) ;
#95=ORIENTED_EDGE('',*,*,#92,.F.) ;
#130=ORIENTED_EDGE('',*,*,#92,.T.) ;
#131=ORIENTED_EDGE('',*,*,#109,.F.) ;
#132=ORIENTED_EDGE('',*,*,#116,.F.) ;
#133=ORIENTED_EDGE('',*,*,#123,.F.) ;
#134=ORIENTED_EDGE('',*,*,#128,.T.) ;
#164=ORIENTED_EDGE('',*,*,#145,.F.) ;
#165=ORIENTED_EDGE('',*,*,#150,.T.) ;
#166=ORIENTED_EDGE('',*,*,#116,.T.) ;
#167=ORIENTED_EDGE('',*,*,#109,.T.) ;
#168=ORIENTED_EDGE('',*,*,#87,.T.) ;
#169=ORIENTED_EDGE('',*,*,#128,.F.) ;
#170=ORIENTED_EDGE('',*,*,#157,.F.) ;
#171=ORIENTED_EDGE('',*,*,#162,.F.) ;
#206=ORIENTED_EDGE('',*,*,#185,.F.) ;
#207=ORIENTED_EDGE('',*,*,#192,.F.) ;
#208=ORIENTED_EDGE('',*,*,#199,.T.) ;
#209=ORIENTED_EDGE('',*,*,#204,.T.) ;
#210=ORIENTED_EDGE('',*,*,#150,.F.) ;
#245=ORIENTED_EDGE('',*,*,#162,.T.) ;
#246=ORIENTED_EDGE('',*,*,#224,.T.) ;
#247=ORIENTED_EDGE('',*,*,#231,.F.) ;
#248=ORIENTED_EDGE('',*,*,#238,.F.) ;
#249=ORIENTED_EDGE('',*,*,#243,.F.) ;
#263=ORIENTED_EDGE('',*,*,#261,.F.) ;
#264=ORIENTED_EDGE('',*,*,#185,.T.) ;
#265=ORIENTED_EDGE('',*,*,#145,.T.) ;
#266=ORIENTED_EDGE('',*,*,#243,.T.) ;
#294=ORIENTED_EDGE('',*,*,#280,.T.) ;
#295=ORIENTED_EDGE('',*,*,#69,.F.) ;
#296=ORIENTED_EDGE('',*,*,#287,.F.) ;
#297=ORIENTED_EDGE('',*,*,#292,.T.) ;
#306=ORIENTED_EDGE('',*,*,#287,.T.) ;
#307=ORIENTED_EDGE('',*,*,#74,.F.) ;
#308=ORIENTED_EDGE('',*,*,#280,.F.) ;
#309=ORIENTED_EDGE('',*,*,#304,.T.) ;
#337=ORIENTED_EDGE('',*,*,#323,.T.) ;
#338=ORIENTED_EDGE('',*,*,#330,.T.) ;
#339=ORIENTED_EDGE('',*,*,#335,.F.) ;
#340=ORIENTED_EDGE('',*,*,#304,.F.) ;
#354=ORIENTED_EDGE('',*,*,#335,.T.) ;
#355=ORIENTED_EDGE('',*,*,#352,.T.) ;
#356=ORIENTED_EDGE('',*,*,#323,.F.) ;
#357=ORIENTED_EDGE('',*,*,#292,.F.) ;
#392=ORIENTED_EDGE('',*,*,#371,.F.) ;
#393=ORIENTED_EDGE('',*,*,#192,.T.) ;
#394=ORIENTED_EDGE('',*,*,#261,.T.) ;
#395=ORIENTED_EDGE('',*,*,#238,.T.) ;
#396=ORIENTED_EDGE('',*,*,#378,.F.) ;
#397=ORIENTED_EDGE('',*,*,#385,.F.) ;
#398=ORIENTED_EDGE('',*,*,#390,.F.) ;
#421=ORIENTED_EDGE('',*,*,#378,.T.) ;
#422=ORIENTED_EDGE('',*,*,#231,.T.) ;
#423=ORIENTED_EDGE('',*,*,#412,.T.) ;
#424=ORIENTED_EDGE('',*,*,#419,.F.) ;
#447=ORIENTED_EDGE('',*,*,#438,.T.) ;
#448=ORIENTED_EDGE('',*,*,#199,.F.) ;
#449=ORIENTED_EDGE('',*,*,#371,.T.) ;
#450=ORIENTED_EDGE('',*,*,#445,.T.) ;
#471=ORIENTED_EDGE('',*,*,#390,.T.) ;
#472=ORIENTED_EDGE('',*,*,#464,.T.) ;
#473=ORIENTED_EDGE('',*,*,#469,.F.) ;
#474=ORIENTED_EDGE('',*,*,#445,.F.) ;
#483=ORIENTED_EDGE('',*,*,#481,.F.) ;
#484=ORIENTED_EDGE('',*,*,#464,.F.) ;
#485=ORIENTED_EDGE('',*,*,#385,.T.) ;
#486=ORIENTED_EDGE('',*,*,#419,.T.) ;
#495=ORIENTED_EDGE('',*,*,#330,.F.) ;
#496=ORIENTED_EDGE('',*,*,#352,.F.) ;
#499=ORIENTED_EDGE('',*,*,#412,.F.) ;
#500=ORIENTED_EDGE('',*,*,#224,.F.) ;
#501=ORIENTED_EDGE('',*,*,#157,.T.) ;
#502=ORIENTED_EDGE('',*,*,#123,.T.) ;
#503=ORIENTED_EDGE('',*,*,#204,.F.) ;
#504=ORIENTED_EDGE('',*,*,#438,.F.) ;
#505=ORIENTED_EDGE('',*,*,#469,.T.) ;
#506=ORIENTED_EDGE('',*,*,#481,.T.) ;
#96=FACE_BOUND('',#93,.T.) ;
#507=FACE_BOUND('',#498,.T.) ;
#55=CLOSED_SHELL('Closed Shell',(#97,#136,#173,#212,#251,#268,#299,#311,#342,#359,#400,#426,#452,#476,#488,#508)) ;
#105=VECTOR('Line Direction',#104,1.) ;
#126=VECTOR('Line Direction',#125,1.) ;
#148=VECTOR('Line Direction',#147,1.) ;
#160=VECTOR('Line Direction',#159,1.) ;
#181=VECTOR('Line Direction',#180,1.) ;
#188=VECTOR('Line Direction',#187,1.) ;
#195=VECTOR('Line Direction',#194,1.) ;
#202=VECTOR('Line Direction',#201,1.) ;
#220=VECTOR('Line Direction',#219,1.) ;
#227=VECTOR('Line Direction',#226,1.) ;
#234=VECTOR('Line Direction',#233,1.) ;
#241=VECTOR('Line Direction',#240,1.) ;
#276=VECTOR('Line Direction',#275,1.) ;
#283=VECTOR('Line Direction',#282,1.) ;
#319=VECTOR('Line Direction',#318,1.) ;
#333=VECTOR('Line Direction',#332,1.) ;
#460=VECTOR('Line Direction',#459,1.) ;
#510=ADVANCED_BREP_SHAPE_REPRESENTATION('NONE',(#509),#46) ;
#49=SHAPE_REPRESENTATION(' ',(#48),#46) ;
#97=ADVANCED_FACE('PartBody',(#78,#96),#60,.T.) ;
#136=ADVANCED_FACE('PartBody',(#135),#102,.F.) ;
#173=ADVANCED_FACE('PartBody',(#172),#102,.F.) ;
#212=ADVANCED_FACE('PartBody',(#211),#178,.F.) ;
#251=ADVANCED_FACE('PartBody',(#250),#217,.T.) ;
#268=ADVANCED_FACE('PartBody',(#267),#256,.F.) ;
#299=ADVANCED_FACE('PartBody',(#298),#273,.T.) ;
#311=ADVANCED_FACE('PartBody',(#310),#273,.T.) ;
#342=ADVANCED_FACE('PartBody',(#341),#316,.T.) ;
#359=ADVANCED_FACE('PartBody',(#358),#347,.T.) ;
#400=ADVANCED_FACE('PartBody',(#399),#364,.T.) ;
#426=ADVANCED_FACE('PartBody',(#425),#405,.T.) ;
#452=ADVANCED_FACE('PartBody',(#451),#431,.T.) ;
#476=ADVANCED_FACE('PartBody',(#475),#457,.T.) ;
#488=ADVANCED_FACE('PartBody',(#487),#457,.T.) ;
#508=ADVANCED_FACE('PartBody',(#497,#507),#493,.T.) ;
#4=APPLICATION_PROTOCOL_DEFINITION('international standard','config_control_design',1994,#1) ;
#32=APPROVAL_DATE_TIME(#13,#21) ;
#413=B_SPLINE_CURVE_WITH_KNOTS('',4,(#414,#415,#416,#417,#418),.UNSPECIFIED.,.F.,.U.,(5,5),(0.,9.84300453895),.UNSPECIFIED.) ;
#439=B_SPLINE_CURVE_WITH_KNOTS('',4,(#440,#441,#442,#443,#444),.UNSPECIFIED.,.F.,.U.,(5,5),(0.,9.84300452316),.UNSPECIFIED.) ;
#509=MANIFOLD_SOLID_BREP('PartBody',#55) ;
#11=CALENDAR_DATE(2025,3,12) ;
#30=CC_DESIGN_APPROVAL(#21,(#16,#6,#14)) ;
#18=CC_DESIGN_DATE_AND_TIME_ASSIGNMENT(#13,#17,(#16)) ;
#29=CC_DESIGN_DATE_AND_TIME_ASSIGNMENT(#13,#28,(#14)) ;
#17=DATE_TIME_ROLE('classification_date') ;
#28=DATE_TIME_ROLE('creation_date') ;
#27=CC_DESIGN_PERSON_AND_ORGANIZATION_ASSIGNMENT(#25,#26,(#16)) ;
#33=CC_DESIGN_PERSON_AND_ORGANIZATION_ASSIGNMENT(#25,#34,(#6)) ;
#35=CC_DESIGN_PERSON_AND_ORGANIZATION_ASSIGNMENT(#25,#36,(#6,#14)) ;
#37=CC_DESIGN_PERSON_AND_ORGANIZATION_ASSIGNMENT(#25,#38,(#5)) ;
#26=PERSON_AND_ORGANIZATION_ROLE('classification_officer') ;
#34=PERSON_AND_ORGANIZATION_ROLE('design_supplier') ;
#36=PERSON_AND_ORGANIZATION_ROLE('creator') ;
#38=PERSON_AND_ORGANIZATION_ROLE('design_owner') ;
#39=CC_DESIGN_SECURITY_CLASSIFICATION(#16,(#6)) ;
#64=CIRCLE('generated circle',#63,14.) ;
#73=CIRCLE('generated circle',#72,14.) ;
#82=CIRCLE('generated circle',#81,7.) ;
#91=CIRCLE('generated circle',#90,7.) ;
#113=CIRCLE('generated circle',#112,7.) ;
#120=CIRCLE('generated circle',#119,7.) ;
#140=CIRCLE('generated circle',#139,7.) ;
#154=CIRCLE('generated circle',#153,7.) ;
#260=CIRCLE('generated circle',#259,7.25) ;
#291=CIRCLE('generated circle',#290,14.) ;
#303=CIRCLE('generated circle',#302,14.) ;
#327=CIRCLE('generated circle',#326,13.8) ;
#351=CIRCLE('generated circle',#350,13.8) ;
#368=CIRCLE('generated circle',#367,1.5) ;
#375=CIRCLE('generated circle',#374,1.5) ;
#382=CIRCLE('generated circle',#381,11.6) ;
#389=CIRCLE('generated circle',#388,11.6) ;
#409=CIRCLE('generated circle',#408,1.5) ;
#435=CIRCLE('generated circle',#434,1.5) ;
#468=CIRCLE('generated circle',#467,10.9) ;
#480=CIRCLE('generated circle',#479,10.9) ;
#256=CONICAL_SURFACE('Cone',#255,0.,0.785398163397) ;
#316=CONICAL_SURFACE('Cone',#315,0.,0.174532925199) ;
#347=CONICAL_SURFACE('Cone',#346,0.,0.174532925199) ;
#457=CONICAL_SURFACE('Cone',#456,10.9,0.144812498239) ;
#54=SHAPE_REPRESENTATION_RELATIONSHIP(' ',' ',#49,#52) ;
#511=SHAPE_REPRESENTATION_RELATIONSHIP(' ',' ',#49,#510) ;
#102=CYLINDRICAL_SURFACE('generated cylinder',#101,7.) ;
#273=CYLINDRICAL_SURFACE('generated cylinder',#272,14.) ;
#405=CYLINDRICAL_SURFACE('generated cylinder',#404,1.5) ;
#431=CYLINDRICAL_SURFACE('generated cylinder',#430,1.5) ;
#3=DESIGN_CONTEXT(' ',#1,'design') ;
#69=EDGE_CURVE('',#66,#68,#64,.T.) ;
#74=EDGE_CURVE('',#68,#66,#73,.T.) ;
#87=EDGE_CURVE('',#84,#86,#82,.T.) ;
#92=EDGE_CURVE('',#86,#84,#91,.T.) ;
#109=EDGE_CURVE('',#108,#84,#106,.T.) ;
#116=EDGE_CURVE('',#115,#108,#113,.T.) ;
#123=EDGE_CURVE('',#122,#115,#120,.T.) ;
#128=EDGE_CURVE('',#122,#86,#127,.T.) ;
#145=EDGE_CURVE('',#142,#144,#140,.T.) ;
#150=EDGE_CURVE('',#142,#115,#149,.T.) ;
#157=EDGE_CURVE('',#156,#122,#154,.T.) ;
#162=EDGE_CURVE('',#144,#156,#161,.T.) ;
#185=EDGE_CURVE('',#184,#142,#182,.F.) ;
#192=EDGE_CURVE('',#191,#184,#189,.T.) ;
#199=EDGE_CURVE('',#191,#198,#196,.T.) ;
#204=EDGE_CURVE('',#198,#115,#203,.T.) ;
#224=EDGE_CURVE('',#156,#223,#221,.F.) ;
#231=EDGE_CURVE('',#230,#223,#228,.F.) ;
#238=EDGE_CURVE('',#237,#230,#235,.F.) ;
#243=EDGE_CURVE('',#144,#237,#242,.T.) ;
#261=EDGE_CURVE('',#184,#237,#260,.F.) ;
#280=EDGE_CURVE('',#279,#68,#277,.T.) ;
#287=EDGE_CURVE('',#286,#66,#284,.T.) ;
#292=EDGE_CURVE('',#286,#279,#291,.T.) ;
#304=EDGE_CURVE('',#279,#286,#303,.T.) ;
#323=EDGE_CURVE('',#279,#322,#320,.F.) ;
#330=EDGE_CURVE('',#322,#329,#327,.F.) ;
#335=EDGE_CURVE('',#286,#329,#334,.F.) ;
#352=EDGE_CURVE('',#329,#322,#351,.F.) ;
#371=EDGE_CURVE('',#191,#370,#368,.F.) ;
#378=EDGE_CURVE('',#377,#230,#375,.F.) ;
#385=EDGE_CURVE('',#384,#377,#382,.F.) ;
#390=EDGE_CURVE('',#370,#384,#389,.F.) ;
#412=EDGE_CURVE('',#223,#411,#409,.T.) ;
#419=EDGE_CURVE('',#377,#411,#413,.T.) ;
#438=EDGE_CURVE('',#437,#198,#435,.F.) ;
#445=EDGE_CURVE('',#370,#437,#439,.T.) ;
#464=EDGE_CURVE('',#384,#463,#461,.F.) ;
#469=EDGE_CURVE('',#437,#463,#468,.F.) ;
#481=EDGE_CURVE('',#463,#411,#480,.F.) ;
#75=EDGE_LOOP('',(#76,#77)) ;
#93=EDGE_LOOP('',(#94,#95)) ;
#129=EDGE_LOOP('',(#130,#131,#132,#133,#134)) ;
#163=EDGE_LOOP('',(#164,#165,#166,#167,#168,#169,#170,#171)) ;
#205=EDGE_LOOP('',(#206,#207,#208,#209,#210)) ;
#244=EDGE_LOOP('',(#245,#246,#247,#248,#249)) ;
#262=EDGE_LOOP('',(#263,#264,#265,#266)) ;
#293=EDGE_LOOP('',(#294,#295,#296,#297)) ;
#305=EDGE_LOOP('',(#306,#307,#308,#309)) ;
#336=EDGE_LOOP('',(#337,#338,#339,#340)) ;
#353=EDGE_LOOP('',(#354,#355,#356,#357)) ;
#391=EDGE_LOOP('',(#392,#393,#394,#395,#396,#397,#398)) ;
#420=EDGE_LOOP('',(#421,#422,#423,#424)) ;
#446=EDGE_LOOP('',(#447,#448,#449,#450)) ;
#470=EDGE_LOOP('',(#471,#472,#473,#474)) ;
#482=EDGE_LOOP('',(#483,#484,#485,#486)) ;
#494=EDGE_LOOP('',(#495,#496)) ;
#498=EDGE_LOOP('',(#499,#500,#501,#502,#503,#504,#505,#506)) ;
#78=FACE_OUTER_BOUND('',#75,.T.) ;
#135=FACE_OUTER_BOUND('',#129,.T.) ;
#172=FACE_OUTER_BOUND('',#163,.T.) ;
#211=FACE_OUTER_BOUND('',#205,.T.) ;
#250=FACE_OUTER_BOUND('',#244,.T.) ;
#267=FACE_OUTER_BOUND('',#262,.T.) ;
#298=FACE_OUTER_BOUND('',#293,.T.) ;
#310=FACE_OUTER_BOUND('',#305,.T.) ;
#341=FACE_OUTER_BOUND('',#336,.T.) ;
#358=FACE_OUTER_BOUND('',#353,.T.) ;
#399=FACE_OUTER_BOUND('',#391,.T.) ;
#425=FACE_OUTER_BOUND('',#420,.T.) ;
#451=FACE_OUTER_BOUND('',#446,.T.) ;
#475=FACE_OUTER_BOUND('',#470,.T.) ;
#487=FACE_OUTER_BOUND('',#482,.T.) ;
#497=FACE_OUTER_BOUND('',#494,.T.) ;
#53=GEOMETRIC_SET('NONE',(#51)) ;
#52=GEOMETRICALLY_BOUNDED_SURFACE_SHAPE_REPRESENTATION('NONE',(#53),#46) ;
#45=UNCERTAINTY_MEASURE_WITH_UNIT(LENGTH_MEASURE(0.005),#41,'distance_accuracy_value','CONFUSED CURVE UNCERTAINTY') ;
#106=LINE('Line',#103,#105) ;
#127=LINE('Line',#124,#126) ;
#149=LINE('Line',#146,#148) ;
#161=LINE('Line',#158,#160) ;
#182=LINE('Line',#179,#181) ;
#189=LINE('Line',#186,#188) ;
#196=LINE('Line',#193,#195) ;
#203=LINE('Line',#200,#202) ;
#221=LINE('Line',#218,#220) ;
#228=LINE('Line',#225,#227) ;
#235=LINE('Line',#232,#234) ;
#242=LINE('Line',#239,#241) ;
#277=LINE('Line',#274,#276) ;
#284=LINE('Line',#281,#283) ;
#320=LINE('Line',#317,#319) ;
#334=LINE('Line',#331,#333) ;
#461=LINE('Line',#458,#460) ;
#2=MECHANICAL_CONTEXT(' ',#1,'mechanical') ;
#24=PERSONAL_ADDRESS(' ',' ',' ',' ',' ',' ',' ',' ',' ',' ',' ',' ',(#22),' ') ;
#60=PLANE('Plane',#59) ;
#178=PLANE('Plane',#177) ;
#217=PLANE('Plane',#216) ;
#364=PLANE('Plane',#363) ;
#493=PLANE('Plane',#492) ;
#43=PLANE_ANGLE_MEASURE_WITH_UNIT(PLANE_ANGLE_MEASURE(0.0174532925199),#42) ;
#7=PRODUCT_CATEGORY('part',$) ;
#9=PRODUCT_CATEGORY_RELATIONSHIP(' ',' ',#7,#8) ;
#6=PRODUCT_DEFINITION_FORMATION_WITH_SPECIFIED_SOURCE('',' ',#5,.NOT_KNOWN.) ;
#8=PRODUCT_RELATED_PRODUCT_CATEGORY('detail',$,(#5)) ;
#50=SHAPE_DEFINITION_REPRESENTATION(#40,#49) ;
#66=VERTEX_POINT('',#65) ;
#68=VERTEX_POINT('',#67) ;
#84=VERTEX_POINT('',#83) ;
#86=VERTEX_POINT('',#85) ;
#108=VERTEX_POINT('',#107) ;
#115=VERTEX_POINT('',#114) ;
#122=VERTEX_POINT('',#121) ;
#142=VERTEX_POINT('',#141) ;
#144=VERTEX_POINT('',#143) ;
#156=VERTEX_POINT('',#155) ;
#184=VERTEX_POINT('',#183) ;
#191=VERTEX_POINT('',#190) ;
#198=VERTEX_POINT('',#197) ;
#223=VERTEX_POINT('',#222) ;
#230=VERTEX_POINT('',#229) ;
#237=VERTEX_POINT('',#236) ;
#279=VERTEX_POINT('',#278) ;
#286=VERTEX_POINT('',#285) ;
#322=VERTEX_POINT('',#321) ;
#329=VERTEX_POINT('',#328) ;
#370=VERTEX_POINT('',#369) ;
#377=VERTEX_POINT('',#376) ;
#384=VERTEX_POINT('',#383) ;
#411=VERTEX_POINT('',#410) ;
#437=VERTEX_POINT('',#436) ;
#463=VERTEX_POINT('',#462) ;
#41=(LENGTH_UNIT()NAMED_UNIT(*)SI_UNIT(.MILLI.,.METRE.)) ;
#42=(NAMED_UNIT(*)PLANE_ANGLE_UNIT()SI_UNIT($,.RADIAN.)) ;
#44=(NAMED_UNIT(*)SI_UNIT($,.STERADIAN.)SOLID_ANGLE_UNIT()) ;
#46=(GEOMETRIC_REPRESENTATION_CONTEXT(3)GLOBAL_UNCERTAINTY_ASSIGNED_CONTEXT((#45))GLOBAL_UNIT_ASSIGNED_CONTEXT((#41,#42,#44))REPRESENTATION_CONTEXT(' ',' ')) ;
ENDSEC;
END-ISO-10303-21;
