ISO-10303-21;
HEADER;
FILE_DESCRIPTION(('CATIA V5 STEP Exchange'),'2;1');

FILE_NAME('D:\\Users\\Barry\\14_Spindle_Load_Monitor\\02_CAD\\STEP\\sensor_final\\Button_Panel.stp','2025-12-03T08:01:17+00:00',('none'),('none'),'CATIA Version 5 Release 18 GA (IN-10)','CATIA V5 STEP AP203','none');

FILE_SCHEMA(('CONFIG_CONTROL_DESIGN'));

ENDSEC;
/* file written by CATIA V5R18 */
DATA;
#5=PRODUCT('Button_Panel','','',(#2)) ;
#1=APPLICATION_CONTEXT('configuration controlled 3D design of mechanical parts and assemblies') ;
#14=PRODUCT_DEFINITION(' ',' ',#6,#3) ;
#16=SECURITY_CLASSIFICATION(' ',' ',#15) ;
#15=SECURITY_CLASSIFICATION_LEVEL('unclassified') ;
#47=CARTESIAN_POINT(' ',(0.,0.,0.)) ;
#52=CARTESIAN_POINT('Axis2P3D Location',(2.8673357986E-029,9.23681736518E-016,15.7300687473)) ;
#57=CARTESIAN_POINT('Line Origine',(-440.890301991,31.5504168445,15.7300687473)) ;
#61=CARTESIAN_POINT('Vertex',(-440.890301991,47.5504168445,15.7300687473)) ;
#63=CARTESIAN_POINT('Vertex',(-440.890301991,15.5504168445,15.7300687473)) ;
#66=CARTESIAN_POINT('Axis2P3D Location',(-431.890301991,47.5504168445,15.7300687473)) ;
#70=CARTESIAN_POINT('Vertex',(-422.890301991,47.5504168445,15.7300687473)) ;
#73=CARTESIAN_POINT('Line Origine',(-422.890301991,31.5504168445,15.7300687473)) ;
#77=CARTESIAN_POINT('Vertex',(-422.890301991,15.5504168445,15.7300687473)) ;
#80=CARTESIAN_POINT('Axis2P3D Location',(-431.890301991,15.5504168445,15.7300687473)) ;
#91=CARTESIAN_POINT('Line Origine',(-439.640301991,31.5504168445,15.7300687473)) ;
#95=CARTESIAN_POINT('Vertex',(-439.640301991,44.5504168445,15.7300687473)) ;
#97=CARTESIAN_POINT('Vertex',(-439.640301991,18.5504168445,15.7300687473)) ;
#100=CARTESIAN_POINT('Line Origine',(-439.790301991,18.5504168445,15.7300687473)) ;
#104=CARTESIAN_POINT('Vertex',(-439.940301991,18.5504168445,15.7300687473)) ;
#107=CARTESIAN_POINT('Line Origine',(-439.940301991,17.0504168445,15.7300687473)) ;
#111=CARTESIAN_POINT('Vertex',(-439.940301991,15.5504168445,15.7300687473)) ;
#114=CARTESIAN_POINT('Line Origine',(-439.790301991,15.5504168445,15.7300687473)) ;
#118=CARTESIAN_POINT('Vertex',(-439.640301991,15.5504168445,15.7300687473)) ;
#121=CARTESIAN_POINT('Axis2P3D Location',(-431.890301991,15.5504168445,15.7300687473)) ;
#125=CARTESIAN_POINT('Vertex',(-424.140301991,15.5504168445,15.7300687473)) ;
#128=CARTESIAN_POINT('Line Origine',(-423.990301991,15.5504168445,15.7300687473)) ;
#132=CARTESIAN_POINT('Vertex',(-423.840301991,15.5504168445,15.7300687473)) ;
#135=CARTESIAN_POINT('Line Origine',(-423.840301991,17.0078248468,15.7300687473)) ;
#139=CARTESIAN_POINT('Vertex',(-423.840301991,18.4652328491,15.7300687473)) ;
#142=CARTESIAN_POINT('Line Origine',(-423.990301991,18.4652328491,15.7300687473)) ;
#146=CARTESIAN_POINT('Vertex',(-424.140301991,18.4652328491,15.7300687473)) ;
#149=CARTESIAN_POINT('Line Origine',(-424.140301991,31.5078248468,15.7300687473)) ;
#153=CARTESIAN_POINT('Vertex',(-424.140301991,44.5504168445,15.7300687473)) ;
#156=CARTESIAN_POINT('Line Origine',(-423.990301991,44.5504168445,15.7300687473)) ;
#160=CARTESIAN_POINT('Vertex',(-423.840301991,44.5504168445,15.7300687473)) ;
#163=CARTESIAN_POINT('Line Origine',(-423.840301991,46.0504168445,15.7300687473)) ;
#167=CARTESIAN_POINT('Vertex',(-423.840301991,47.5504168445,15.7300687473)) ;
#170=CARTESIAN_POINT('Line Origine',(-423.990301991,47.5504168445,15.7300687473)) ;
#174=CARTESIAN_POINT('Vertex',(-424.140301991,47.5504168445,15.7300687473)) ;
#177=CARTESIAN_POINT('Axis2P3D Location',(-431.890301991,47.5504168445,15.7300687473)) ;
#181=CARTESIAN_POINT('Vertex',(-430.390301991,55.1538700073,15.7300687473)) ;
#184=CARTESIAN_POINT('Line Origine',(-430.390301991,55.6021434259,15.7300687473)) ;
#188=CARTESIAN_POINT('Vertex',(-430.390301991,56.0504168445,15.7300687473)) ;
#191=CARTESIAN_POINT('Line Origine',(-431.890301991,56.0504168445,15.7300687473)) ;
#195=CARTESIAN_POINT('Vertex',(-433.390301991,56.0504168445,15.7300687473)) ;
#198=CARTESIAN_POINT('Line Origine',(-433.390301991,55.6021434259,15.7300687473)) ;
#202=CARTESIAN_POINT('Vertex',(-433.390301991,55.1538700073,15.7300687473)) ;
#205=CARTESIAN_POINT('Axis2P3D Location',(-431.890301991,47.5504168445,15.7300687473)) ;
#209=CARTESIAN_POINT('Vertex',(-439.640301991,47.5504168445,15.7300687473)) ;
#212=CARTESIAN_POINT('Line Origine',(-439.790301991,47.5504168445,15.7300687473)) ;
#216=CARTESIAN_POINT('Vertex',(-439.940301991,47.5504168445,15.7300687473)) ;
#219=CARTESIAN_POINT('Line Origine',(-439.940301991,46.0504168445,15.7300687473)) ;
#223=CARTESIAN_POINT('Vertex',(-439.940301991,44.5504168445,15.7300687473)) ;
#226=CARTESIAN_POINT('Line Origine',(-439.790301991,44.5504168445,15.7300687473)) ;
#254=CARTESIAN_POINT('Axis2P3D Location',(-440.890301991,15.5504168445,15.7300687473)) ;
#259=CARTESIAN_POINT('Line Origine',(-440.890301991,47.5504168445,16.3550687473)) ;
#263=CARTESIAN_POINT('Vertex',(-440.890301991,47.5504168445,16.9800687473)) ;
#266=CARTESIAN_POINT('Line Origine',(-440.890301991,15.5504168445,16.3550687473)) ;
#270=CARTESIAN_POINT('Vertex',(-440.890301991,15.5504168445,16.9800687473)) ;
#273=CARTESIAN_POINT('Line Origine',(-440.890301991,31.5504168445,16.9800687473)) ;
#285=CARTESIAN_POINT('Axis2P3D Location',(-431.890301991,47.5504168445,16.3550687473)) ;
#290=CARTESIAN_POINT('Line Origine',(-422.890301991,47.5504168445,16.3550687473)) ;
#294=CARTESIAN_POINT('Vertex',(-422.890301991,47.5504168445,16.9800687473)) ;
#297=CARTESIAN_POINT('Axis2P3D Location',(-431.890301991,47.5504168445,16.9800687473)) ;
#309=CARTESIAN_POINT('Axis2P3D Location',(-422.890301991,47.5504168445,15.7300687473)) ;
#314=CARTESIAN_POINT('Line Origine',(-422.890301991,15.5504168445,16.3550687473)) ;
#318=CARTESIAN_POINT('Vertex',(-422.890301991,15.5504168445,16.9800687473)) ;
#321=CARTESIAN_POINT('Line Origine',(-422.890301991,31.5504168445,16.9800687473)) ;
#333=CARTESIAN_POINT('Axis2P3D Location',(-431.890301991,15.5504168445,16.3550687473)) ;
#338=CARTESIAN_POINT('Axis2P3D Location',(-431.890301991,15.5504168445,16.9800687473)) ;
#350=CARTESIAN_POINT('Axis2P3D Location',(-439.640301991,18.5504168445,15.7300687473)) ;
#355=CARTESIAN_POINT('Line Origine',(-439.790301991,18.5504168445,12.2300687473)) ;
#359=CARTESIAN_POINT('Vertex',(-439.640301991,18.5504168445,12.2300687473)) ;
#361=CARTESIAN_POINT('Vertex',(-439.940301991,18.5504168445,12.2300687473)) ;
#364=CARTESIAN_POINT('Line Origine',(-439.940301991,18.5504168445,13.9800687473)) ;
#369=CARTESIAN_POINT('Line Origine',(-439.640301991,18.5504168445,13.9800687473)) ;
#381=CARTESIAN_POINT('Axis2P3D Location',(-439.640301991,18.5504168445,15.7300687473)) ;
#386=CARTESIAN_POINT('Line Origine',(-439.640301991,31.5504168445,12.2300687473)) ;
#390=CARTESIAN_POINT('Vertex',(-439.640301991,44.5504168445,12.2300687473)) ;
#393=CARTESIAN_POINT('Line Origine',(-439.640301991,44.5504168445,13.9800687473)) ;
#405=CARTESIAN_POINT('Axis2P3D Location',(-439.940301991,15.5504168445,15.7300687473)) ;
#410=CARTESIAN_POINT('Line Origine',(-439.940301991,17.0504168445,12.2300687473)) ;
#414=CARTESIAN_POINT('Vertex',(-439.940301991,15.5504168445,12.2300687473)) ;
#417=CARTESIAN_POINT('Line Origine',(-439.940301991,15.5504168445,13.9800687473)) ;
#429=CARTESIAN_POINT('Axis2P3D Location',(-423.840301991,44.5504168445,15.7300687473)) ;
#434=CARTESIAN_POINT('Line Origine',(-439.790301991,44.5504168445,12.2300687473)) ;
#438=CARTESIAN_POINT('Vertex',(-439.940301991,44.5504168445,12.2300687473)) ;
#441=CARTESIAN_POINT('Line Origine',(-439.940301991,44.5504168445,13.9800687473)) ;
#453=CARTESIAN_POINT('Axis2P3D Location',(-439.940301991,15.5504168445,15.7300687473)) ;
#458=CARTESIAN_POINT('Line Origine',(-439.790301991,15.5504168445,12.2300687473)) ;
#462=CARTESIAN_POINT('Vertex',(-439.640301991,15.5504168445,12.2300687473)) ;
#465=CARTESIAN_POINT('Line Origine',(-439.640301991,15.5504168445,13.9800687473)) ;
#477=CARTESIAN_POINT('Axis2P3D Location',(-431.890301991,15.5504168445,13.9800687473)) ;
#482=CARTESIAN_POINT('Axis2P3D Location',(-431.890301991,15.5504168445,12.2300687473)) ;
#486=CARTESIAN_POINT('Vertex',(-424.140301991,15.5504168445,12.2300687473)) ;
#489=CARTESIAN_POINT('Line Origine',(-424.140301991,15.5504168445,13.9800687473)) ;
#501=CARTESIAN_POINT('Line Origine',(-423.990301991,15.5504168445,12.2300687473)) ;
#505=CARTESIAN_POINT('Vertex',(-423.840301991,15.5504168445,12.2300687473)) ;
#508=CARTESIAN_POINT('Line Origine',(-423.840301991,15.5504168445,13.9800687473)) ;
#520=CARTESIAN_POINT('Axis2P3D Location',(-423.840301991,15.5504168445,15.7300687473)) ;
#525=CARTESIAN_POINT('Line Origine',(-423.840301991,17.0078248468,12.2300687473)) ;
#529=CARTESIAN_POINT('Vertex',(-423.840301991,18.4652328491,12.2300687473)) ;
#532=CARTESIAN_POINT('Line Origine',(-423.840301991,18.4652328491,13.9800687473)) ;
#544=CARTESIAN_POINT('Axis2P3D Location',(-423.840301991,18.4652328491,15.7300687473)) ;
#549=CARTESIAN_POINT('Line Origine',(-423.990301991,18.4652328491,12.2300687473)) ;
#553=CARTESIAN_POINT('Vertex',(-424.140301991,18.4652328491,12.2300687473)) ;
#556=CARTESIAN_POINT('Line Origine',(-424.140301991,18.4652328491,13.9800687473)) ;
#568=CARTESIAN_POINT('Axis2P3D Location',(-424.140301991,44.5504168445,15.7300687473)) ;
#573=CARTESIAN_POINT('Line Origine',(-424.140301991,31.5078248468,12.2300687473)) ;
#577=CARTESIAN_POINT('Vertex',(-424.140301991,44.5504168445,12.2300687473)) ;
#580=CARTESIAN_POINT('Line Origine',(-424.140301991,44.5504168445,13.9800687473)) ;
#592=CARTESIAN_POINT('Line Origine',(-423.990301991,44.5504168445,12.2300687473)) ;
#596=CARTESIAN_POINT('Vertex',(-423.840301991,44.5504168445,12.2300687473)) ;
#599=CARTESIAN_POINT('Line Origine',(-423.840301991,44.5504168445,13.9800687473)) ;
#611=CARTESIAN_POINT('Line Origine',(-423.840301991,46.0504168445,12.2300687473)) ;
#615=CARTESIAN_POINT('Vertex',(-423.840301991,47.5504168445,12.2300687473)) ;
#618=CARTESIAN_POINT('Line Origine',(-423.840301991,47.5504168445,13.9800687473)) ;
#630=CARTESIAN_POINT('Axis2P3D Location',(-424.140301991,47.5504168445,15.7300687473)) ;
#635=CARTESIAN_POINT('Line Origine',(-423.990301991,47.5504168445,12.2300687473)) ;
#639=CARTESIAN_POINT('Vertex',(-424.140301991,47.5504168445,12.2300687473)) ;
#642=CARTESIAN_POINT('Line Origine',(-424.140301991,47.5504168445,13.9800687473)) ;
#654=CARTESIAN_POINT('Axis2P3D Location',(-431.890301991,47.5504168445,13.9800687473)) ;
#659=CARTESIAN_POINT('Axis2P3D Location',(-431.890301991,47.5504168445,12.2300687473)) ;
#663=CARTESIAN_POINT('Vertex',(-430.390301991,55.1538700073,12.2300687473)) ;
#666=CARTESIAN_POINT('Line Origine',(-430.390301991,55.1538700073,13.9800687473)) ;
#678=CARTESIAN_POINT('Axis2P3D Location',(-430.390301991,56.0504168445,15.7300687473)) ;
#683=CARTESIAN_POINT('Line Origine',(-430.390301991,55.6021434259,12.2300687473)) ;
#687=CARTESIAN_POINT('Vertex',(-430.390301991,56.0504168445,12.2300687473)) ;
#690=CARTESIAN_POINT('Line Origine',(-430.390301991,56.0504168445,13.9800687473)) ;
#702=CARTESIAN_POINT('Axis2P3D Location',(-433.390301991,56.0504168445,15.7300687473)) ;
#707=CARTESIAN_POINT('Line Origine',(-431.890301991,56.0504168445,12.2300687473)) ;
#711=CARTESIAN_POINT('Vertex',(-433.390301991,56.0504168445,12.2300687473)) ;
#714=CARTESIAN_POINT('Line Origine',(-433.390301991,56.0504168445,13.9800687473)) ;
#726=CARTESIAN_POINT('Axis2P3D Location',(-433.390301991,55.1538700073,15.7300687473)) ;
#731=CARTESIAN_POINT('Line Origine',(-433.390301991,55.6021434259,12.2300687473)) ;
#735=CARTESIAN_POINT('Vertex',(-433.390301991,55.1538700073,12.2300687473)) ;
#738=CARTESIAN_POINT('Line Origine',(-433.390301991,55.1538700073,13.9800687473)) ;
#750=CARTESIAN_POINT('Axis2P3D Location',(-431.890301991,47.5504168445,12.2300687473)) ;
#754=CARTESIAN_POINT('Vertex',(-439.640301991,47.5504168445,12.2300687473)) ;
#757=CARTESIAN_POINT('Line Origine',(-439.640301991,47.5504168445,13.9800687473)) ;
#769=CARTESIAN_POINT('Line Origine',(-439.790301991,47.5504168445,12.2300687473)) ;
#773=CARTESIAN_POINT('Vertex',(-439.940301991,47.5504168445,12.2300687473)) ;
#776=CARTESIAN_POINT('Line Origine',(-439.940301991,47.5504168445,13.9800687473)) ;
#788=CARTESIAN_POINT('Line Origine',(-439.940301991,46.0504168445,12.2300687473)) ;
#800=CARTESIAN_POINT('Axis2P3D Location',(-431.815964785,15.3809148775,12.3630687473)) ;
#805=CARTESIAN_POINT('Axis2P3D Location',(-431.815964785,15.3809148775,12.2300687473)) ;
#809=CARTESIAN_POINT('Vertex',(-433.22211989,17.9548645316,12.2300687473)) ;
#811=CARTESIAN_POINT('Vertex',(-430.409809681,12.8069652235,12.2300687473)) ;
#814=CARTESIAN_POINT('Line Origine',(-433.230270124,17.9697834351,12.2130687473)) ;
#818=CARTESIAN_POINT('Vertex',(-433.158356294,17.8381460508,12.3630687473)) ;
#821=CARTESIAN_POINT('Axis2P3D Location',(-431.815964785,15.3809148775,12.3630687473)) ;
#825=CARTESIAN_POINT('Vertex',(-430.473573277,12.9236837042,12.3630687473)) ;
#828=CARTESIAN_POINT('Line Origine',(-430.401659447,12.79204632,12.2130687473)) ;
#840=CARTESIAN_POINT('Axis2P3D Location',(-431.815964785,15.3809148775,12.2300687473)) ;
#845=CARTESIAN_POINT('Axis2P3D Location',(-431.815964785,15.3809148775,12.3630687473)) ;
#857=CARTESIAN_POINT('Axis2P3D Location',(-431.815964785,15.3809148775,14.5630687473)) ;
#862=CARTESIAN_POINT('Axis2P3D Location',(-431.815964785,15.3809148775,16.9800687473)) ;
#866=CARTESIAN_POINT('Vertex',(-433.158356294,17.8381460508,16.9800687473)) ;
#868=CARTESIAN_POINT('Vertex',(-430.473573277,12.9236837042,16.9800687473)) ;
#871=CARTESIAN_POINT('Line Origine',(-430.473573277,12.9236837042,15.4130687473)) ;
#876=CARTESIAN_POINT('Line Origine',(-433.158356294,17.8381460508,15.4130687473)) ;
#888=CARTESIAN_POINT('Axis2P3D Location',(-431.815964785,15.3809148775,16.9800687473)) ;
#900=CARTESIAN_POINT('Axis2P3D Location',(-431.815964785,23.3850148775,12.3630687473)) ;
#905=CARTESIAN_POINT('Axis2P3D Location',(-431.815964785,23.3850148775,12.2300687473)) ;
#909=CARTESIAN_POINT('Vertex',(-433.22211989,25.9589645316,12.2300687473)) ;
#911=CARTESIAN_POINT('Vertex',(-430.409809681,20.8110652235,12.2300687473)) ;
#914=CARTESIAN_POINT('Line Origine',(-433.230270124,25.9738834351,12.2130687473)) ;
#918=CARTESIAN_POINT('Vertex',(-433.158356294,25.8422460508,12.3630687473)) ;
#921=CARTESIAN_POINT('Axis2P3D Location',(-431.815964785,23.3850148775,12.3630687473)) ;
#925=CARTESIAN_POINT('Vertex',(-430.473573277,20.9277837042,12.3630687473)) ;
#928=CARTESIAN_POINT('Line Origine',(-430.401659447,20.79614632,12.2130687473)) ;
#940=CARTESIAN_POINT('Axis2P3D Location',(-431.815964785,23.3850148775,12.2300687473)) ;
#945=CARTESIAN_POINT('Axis2P3D Location',(-431.815964785,23.3850148775,12.3630687473)) ;
#957=CARTESIAN_POINT('Axis2P3D Location',(-431.815964785,23.3850148775,14.5630687473)) ;
#962=CARTESIAN_POINT('Axis2P3D Location',(-431.815964785,23.3850148775,16.9800687473)) ;
#966=CARTESIAN_POINT('Vertex',(-433.158356294,25.8422460508,16.9800687473)) ;
#968=CARTESIAN_POINT('Vertex',(-430.473573277,20.9277837042,16.9800687473)) ;
#971=CARTESIAN_POINT('Line Origine',(-430.473573277,20.9277837042,15.4130687473)) ;
#976=CARTESIAN_POINT('Line Origine',(-433.158356294,25.8422460508,15.4130687473)) ;
#988=CARTESIAN_POINT('Axis2P3D Location',(-431.815964785,23.3850148775,16.9800687473)) ;
#1000=CARTESIAN_POINT('Axis2P3D Location',(-429.415951231,32.4343607798,12.3630687473)) ;
#1005=CARTESIAN_POINT('Axis2P3D Location',(-429.415951231,32.4343607798,12.2300687473)) ;
#1009=CARTESIAN_POINT('Vertex',(-430.822106336,35.0083104338,12.2300687473)) ;
#1011=CARTESIAN_POINT('Vertex',(-428.009796126,29.8604111258,12.2300687473)) ;
#1014=CARTESIAN_POINT('Line Origine',(-430.83025657,35.0232293374,12.2130687473)) ;
#1018=CARTESIAN_POINT('Vertex',(-430.758342739,34.8915919531,12.3630687473)) ;
#1021=CARTESIAN_POINT('Axis2P3D Location',(-429.415951231,32.4343607798,12.3630687473)) ;
#1025=CARTESIAN_POINT('Vertex',(-428.073559723,29.9771296065,12.3630687473)) ;
#1028=CARTESIAN_POINT('Line Origine',(-428.001645892,29.8454922222,12.2130687473)) ;
#1040=CARTESIAN_POINT('Axis2P3D Location',(-429.415951231,32.4343607798,12.2300687473)) ;
#1045=CARTESIAN_POINT('Axis2P3D Location',(-429.415951231,32.4343607798,12.3630687473)) ;
#1057=CARTESIAN_POINT('Axis2P3D Location',(-429.415951231,32.4343607798,14.5630687473)) ;
#1062=CARTESIAN_POINT('Axis2P3D Location',(-429.415951231,32.4343607798,16.9800687473)) ;
#1066=CARTESIAN_POINT('Vertex',(-430.758342739,34.8915919531,16.9800687473)) ;
#1068=CARTESIAN_POINT('Vertex',(-428.073559723,29.9771296065,16.9800687473)) ;
#1071=CARTESIAN_POINT('Line Origine',(-428.073559723,29.9771296065,15.4130687473)) ;
#1076=CARTESIAN_POINT('Line Origine',(-430.758342739,34.8915919531,15.4130687473)) ;
#1088=CARTESIAN_POINT('Axis2P3D Location',(-429.415951231,32.4343607798,16.9800687473)) ;
#1100=CARTESIAN_POINT('Axis2P3D Location',(-436.19676754,32.436661535,12.3630687473)) ;
#1105=CARTESIAN_POINT('Axis2P3D Location',(-436.19676754,32.436661535,12.2300687473)) ;
#1109=CARTESIAN_POINT('Vertex',(-437.602922644,35.0106111891,12.2300687473)) ;
#1111=CARTESIAN_POINT('Vertex',(-434.790612435,29.862711881,12.2300687473)) ;
#1114=CARTESIAN_POINT('Line Origine',(-437.611072879,35.0255300926,12.2130687473)) ;
#1118=CARTESIAN_POINT('Vertex',(-437.539159048,34.8938927083,12.3630687473)) ;
#1121=CARTESIAN_POINT('Axis2P3D Location',(-436.19676754,32.436661535,12.3630687473)) ;
#1125=CARTESIAN_POINT('Vertex',(-434.854376032,29.9794303617,12.3630687473)) ;
#1128=CARTESIAN_POINT('Line Origine',(-434.782462201,29.8477929774,12.2130687473)) ;
#1140=CARTESIAN_POINT('Axis2P3D Location',(-436.19676754,32.436661535,12.2300687473)) ;
#1145=CARTESIAN_POINT('Axis2P3D Location',(-436.19676754,32.436661535,12.3630687473)) ;
#1157=CARTESIAN_POINT('Axis2P3D Location',(-436.19676754,32.436661535,14.5630687473)) ;
#1162=CARTESIAN_POINT('Axis2P3D Location',(-436.19676754,32.436661535,16.9800687473)) ;
#1166=CARTESIAN_POINT('Vertex',(-437.539159048,34.8938927083,16.9800687473)) ;
#1168=CARTESIAN_POINT('Vertex',(-434.854376032,29.9794303617,16.9800687473)) ;
#1171=CARTESIAN_POINT('Line Origine',(-434.854376032,29.9794303617,15.4130687473)) ;
#1176=CARTESIAN_POINT('Line Origine',(-437.539159048,34.8938927083,15.4130687473)) ;
#1188=CARTESIAN_POINT('Axis2P3D Location',(-436.19676754,32.436661535,16.9800687473)) ;
#1200=CARTESIAN_POINT('Axis2P3D Location',(-431.815964785,41.3850148775,12.3630687473)) ;
#1205=CARTESIAN_POINT('Axis2P3D Location',(-431.815964785,41.3850148775,12.2300687473)) ;
#1209=CARTESIAN_POINT('Vertex',(-433.22211989,43.9589645316,12.2300687473)) ;
#1211=CARTESIAN_POINT('Vertex',(-430.409809681,38.8110652235,12.2300687473)) ;
#1214=CARTESIAN_POINT('Line Origine',(-433.230270124,43.9738834351,12.2130687473)) ;
#1218=CARTESIAN_POINT('Vertex',(-433.158356294,43.8422460508,12.3630687473)) ;
#1221=CARTESIAN_POINT('Axis2P3D Location',(-431.815964785,41.3850148775,12.3630687473)) ;
#1225=CARTESIAN_POINT('Vertex',(-430.473573277,38.9277837042,12.3630687473)) ;
#1228=CARTESIAN_POINT('Line Origine',(-430.401659447,38.79614632,12.2130687473)) ;
#1240=CARTESIAN_POINT('Axis2P3D Location',(-431.815964785,41.3850148775,12.2300687473)) ;
#1245=CARTESIAN_POINT('Axis2P3D Location',(-431.815964785,41.3850148775,12.3630687473)) ;
#1257=CARTESIAN_POINT('Axis2P3D Location',(-431.815964785,41.3850148775,14.5630687473)) ;
#1262=CARTESIAN_POINT('Axis2P3D Location',(-431.815964785,41.3850148775,16.9800687473)) ;
#1266=CARTESIAN_POINT('Vertex',(-433.158356294,43.8422460508,16.9800687473)) ;
#1268=CARTESIAN_POINT('Vertex',(-430.473573277,38.9277837042,16.9800687473)) ;
#1271=CARTESIAN_POINT('Line Origine',(-430.473573277,38.9277837042,15.4130687473)) ;
#1276=CARTESIAN_POINT('Line Origine',(-433.158356294,43.8422460508,15.4130687473)) ;
#1288=CARTESIAN_POINT('Axis2P3D Location',(-431.815964785,41.3850148775,16.9800687473)) ;
#1300=CARTESIAN_POINT('Axis2P3D Location',(3.09519047654E-029,9.97082698027E-016,16.9800687473)) ;
#1311=CARTESIAN_POINT('Axis2P3D Location',(-431.815964785,49.3850148775,16.9800687473)) ;
#1315=CARTESIAN_POINT('Vertex',(-430.473573277,46.9277837042,16.9800687473)) ;
#1317=CARTESIAN_POINT('Vertex',(-433.158356294,51.8422460508,16.9800687473)) ;
#1320=CARTESIAN_POINT('Axis2P3D Location',(-431.815964785,49.3850148775,16.9800687473)) ;
#1350=CARTESIAN_POINT('Axis2P3D Location',(2.2293427004E-029,7.18159044294E-016,12.2300687473)) ;
#1377=CARTESIAN_POINT('Axis2P3D Location',(-431.815964785,49.3850148775,12.2300687473)) ;
#1381=CARTESIAN_POINT('Vertex',(-433.22211989,51.9589645316,12.2300687473)) ;
#1383=CARTESIAN_POINT('Vertex',(-430.409809681,46.8110652235,12.2300687473)) ;
#1386=CARTESIAN_POINT('Axis2P3D Location',(-431.815964785,49.3850148775,12.2300687473)) ;
#1416=CARTESIAN_POINT('Axis2P3D Location',(-431.815964785,49.3850148775,12.3630687473)) ;
#1421=CARTESIAN_POINT('Line Origine',(-433.230270124,51.9738834351,12.2130687473)) ;
#1425=CARTESIAN_POINT('Vertex',(-433.158356294,51.8422460508,12.3630687473)) ;
#1428=CARTESIAN_POINT('Axis2P3D Location',(-431.815964785,49.3850148775,12.3630687473)) ;
#1432=CARTESIAN_POINT('Vertex',(-430.473573277,46.9277837042,12.3630687473)) ;
#1435=CARTESIAN_POINT('Line Origine',(-430.401659447,46.79614632,12.2130687473)) ;
#1447=CARTESIAN_POINT('Axis2P3D Location',(-431.815964785,49.3850148775,12.3630687473)) ;
#1459=CARTESIAN_POINT('Axis2P3D Location',(-431.815964785,49.3850148775,14.5630687473)) ;
#1464=CARTESIAN_POINT('Line Origine',(-430.473573277,46.9277837042,15.4130687473)) ;
#1469=CARTESIAN_POINT('Line Origine',(-433.158356294,51.8422460508,15.4130687473)) ;
#1491=CARTESIAN_POINT('Line Origine',(-432.915964785,20.8361922839,16.9800687473)) ;
#1495=CARTESIAN_POINT('Limit',(-432.915964785,21.4873696902,16.9800687473)) ;
#1496=CARTESIAN_POINT('Limit',(-432.915964785,20.1850148775,16.9800687473)) ;
#1499=CARTESIAN_POINT('Line Origine',(-431.815964785,20.1850148775,16.9800687473)) ;
#1503=CARTESIAN_POINT('Limit',(-432.915964785,20.1850148775,16.9800687473)) ;
#1504=CARTESIAN_POINT('Limit',(-430.715964785,20.1850148775,16.9800687473)) ;
#1507=CARTESIAN_POINT('Line Origine',(-430.715964785,20.8361922839,16.9800687473)) ;
#1511=CARTESIAN_POINT('Limit',(-430.715964785,20.1850148775,16.9800687473)) ;
#1512=CARTESIAN_POINT('Limit',(-430.715964785,21.4873696902,16.9800687473)) ;
#1515=CARTESIAN_POINT('Line Origine',(-431.815964785,21.4873696902,16.9800687473)) ;
#1519=CARTESIAN_POINT('Limit',(-430.715964785,21.4873696902,16.9800687473)) ;
#1520=CARTESIAN_POINT('Limit',(-432.915964785,21.4873696902,16.9800687473)) ;
#1527=CARTESIAN_POINT('Line Origine',(-427.380299357,32.4343607798,16.9800687473)) ;
#1531=CARTESIAN_POINT('Limit',(-427.380299357,33.5343607798,16.9800687473)) ;
#1532=CARTESIAN_POINT('Limit',(-427.380299357,31.3343607798,16.9800687473)) ;
#1535=CARTESIAN_POINT('Line Origine',(-426.798125294,31.3343607798,16.9800687473)) ;
#1539=CARTESIAN_POINT('Limit',(-427.380299357,31.3343607798,16.9800687473)) ;
#1540=CARTESIAN_POINT('Limit',(-426.215951231,31.3343607798,16.9800687473)) ;
#1543=CARTESIAN_POINT('Line Origine',(-426.215951231,32.4343607798,16.9800687473)) ;
#1547=CARTESIAN_POINT('Limit',(-426.215951231,31.3343607798,16.9800687473)) ;
#1548=CARTESIAN_POINT('Limit',(-426.215951231,33.5343607798,16.9800687473)) ;
#1551=CARTESIAN_POINT('Line Origine',(-426.798125294,33.5343607798,16.9800687473)) ;
#1555=CARTESIAN_POINT('Limit',(-426.215951231,33.5343607798,16.9800687473)) ;
#1556=CARTESIAN_POINT('Limit',(-427.380299357,33.5343607798,16.9800687473)) ;
#1560=CARTESIAN_POINT('Line Origine',(-433.986358305,32.436661535,16.9800687473)) ;
#1564=CARTESIAN_POINT('Limit',(-433.986358305,33.536661535,16.9800687473)) ;
#1565=CARTESIAN_POINT('Limit',(-433.986358305,31.336661535,16.9800687473)) ;
#1568=CARTESIAN_POINT('Line Origine',(-433.491562922,31.336661535,16.9800687473)) ;
#1572=CARTESIAN_POINT('Limit',(-433.986358305,31.336661535,16.9800687473)) ;
#1573=CARTESIAN_POINT('Limit',(-432.99676754,31.336661535,16.9800687473)) ;
#1576=CARTESIAN_POINT('Line Origine',(-432.99676754,32.436661535,16.9800687473)) ;
#1580=CARTESIAN_POINT('Limit',(-432.99676754,31.336661535,16.9800687473)) ;
#1581=CARTESIAN_POINT('Limit',(-432.99676754,33.536661535,16.9800687473)) ;
#1584=CARTESIAN_POINT('Line Origine',(-433.491562922,33.536661535,16.9800687473)) ;
#1588=CARTESIAN_POINT('Limit',(-432.99676754,33.536661535,16.9800687473)) ;
#1589=CARTESIAN_POINT('Limit',(-433.986358305,33.536661535,16.9800687473)) ;
#1593=CARTESIAN_POINT('Line Origine',(-433.415964785,43.8096136555,16.9800687473)) ;
#1597=CARTESIAN_POINT('Limit',(-433.415964785,44.5850148775,16.9800687473)) ;
#1598=CARTESIAN_POINT('Limit',(-433.415964785,43.0342124336,16.9800687473)) ;
#1601=CARTESIAN_POINT('Line Origine',(-431.815964785,43.0342124336,16.9800687473)) ;
#1605=CARTESIAN_POINT('Limit',(-433.415964785,43.0342124336,16.9800687473)) ;
#1606=CARTESIAN_POINT('Limit',(-430.215964785,43.0342124336,16.9800687473)) ;
#1609=CARTESIAN_POINT('Line Origine',(-430.215964785,43.8096136555,16.9800687473)) ;
#1613=CARTESIAN_POINT('Limit',(-430.215964785,43.0342124336,16.9800687473)) ;
#1614=CARTESIAN_POINT('Limit',(-430.215964785,44.5850148775,16.9800687473)) ;
#1617=CARTESIAN_POINT('Line Origine',(-431.815964785,44.5850148775,16.9800687473)) ;
#1621=CARTESIAN_POINT('Limit',(-430.215964785,44.5850148775,16.9800687473)) ;
#1622=CARTESIAN_POINT('Limit',(-433.415964785,44.5850148775,16.9800687473)) ;
#53=DIRECTION('Axis2P3D Direction',(1.82283742345E-030,5.87207692069E-017,1.)) ;
#54=DIRECTION('Axis2P3D XDirection',(1.,-1.07038415644E-046,-1.82283742345E-030)) ;
#58=DIRECTION('Vector Direction',(0.,1.,-5.55111512313E-017)) ;
#67=DIRECTION('Axis2P3D Direction',(1.82283742345E-030,5.87207692069E-017,1.)) ;
#74=DIRECTION('Vector Direction',(0.,-1.,5.55111512313E-017)) ;
#81=DIRECTION('Axis2P3D Direction',(1.82283742345E-030,5.87207692069E-017,1.)) ;
#92=DIRECTION('Vector Direction',(0.,1.,0.)) ;
#101=DIRECTION('Vector Direction',(-1.,0.,0.)) ;
#108=DIRECTION('Vector Direction',(0.,1.,0.)) ;
#115=DIRECTION('Vector Direction',(1.,0.,0.)) ;
#122=DIRECTION('Axis2P3D Direction',(1.82283742345E-030,5.87207692069E-017,1.)) ;
#129=DIRECTION('Vector Direction',(1.,0.,0.)) ;
#136=DIRECTION('Vector Direction',(0.,1.,0.)) ;
#143=DIRECTION('Vector Direction',(-1.,0.,0.)) ;
#150=DIRECTION('Vector Direction',(0.,-1.,0.)) ;
#157=DIRECTION('Vector Direction',(-1.,0.,0.)) ;
#164=DIRECTION('Vector Direction',(0.,1.,-5.92118946467E-016)) ;
#171=DIRECTION('Vector Direction',(1.,0.,0.)) ;
#178=DIRECTION('Axis2P3D Direction',(1.82283742345E-030,5.87207692069E-017,1.)) ;
#185=DIRECTION('Vector Direction',(0.,-1.,0.)) ;
#192=DIRECTION('Vector Direction',(1.,0.,0.)) ;
#199=DIRECTION('Vector Direction',(0.,1.,0.)) ;
#206=DIRECTION('Axis2P3D Direction',(1.82283742345E-030,5.87207692069E-017,1.)) ;
#213=DIRECTION('Vector Direction',(1.,0.,0.)) ;
#220=DIRECTION('Vector Direction',(0.,-1.,5.92118946467E-016)) ;
#227=DIRECTION('Vector Direction',(-1.,0.,0.)) ;
#255=DIRECTION('Axis2P3D Direction',(1.,-1.07038415644E-046,-1.82283742345E-030)) ;
#256=DIRECTION('Axis2P3D XDirection',(0.,1.,-5.87207692069E-017)) ;
#260=DIRECTION('Vector Direction',(0.,0.,1.)) ;
#267=DIRECTION('Vector Direction',(0.,0.,1.)) ;
#274=DIRECTION('Vector Direction',(0.,1.,0.)) ;
#286=DIRECTION('Axis2P3D Direction',(1.82283742345E-030,5.87207692069E-017,1.)) ;
#287=DIRECTION('Axis2P3D XDirection',(1.,2.9211201359E-014,-3.53814163672E-030)) ;
#291=DIRECTION('Vector Direction',(0.,0.,1.)) ;
#298=DIRECTION('Axis2P3D Direction',(1.82283742345E-030,5.87207692069E-017,1.)) ;
#310=DIRECTION('Axis2P3D Direction',(-1.,1.07038415644E-046,1.82283742345E-030)) ;
#311=DIRECTION('Axis2P3D XDirection',(0.,-1.,5.87207692069E-017)) ;
#315=DIRECTION('Vector Direction',(0.,0.,1.)) ;
#322=DIRECTION('Vector Direction',(0.,-1.,0.)) ;
#334=DIRECTION('Axis2P3D Direction',(1.82283742345E-030,5.87207692069E-017,1.)) ;
#335=DIRECTION('Axis2P3D XDirection',(-1.,-2.78551555406E-014,3.45851358318E-030)) ;
#339=DIRECTION('Axis2P3D Direction',(1.82283742345E-030,5.87207692069E-017,1.)) ;
#351=DIRECTION('Axis2P3D Direction',(0.,-1.,5.87207692069E-017)) ;
#352=DIRECTION('Axis2P3D XDirection',(-1.,1.07038415644E-046,1.82283742345E-030)) ;
#356=DIRECTION('Vector Direction',(-1.,0.,0.)) ;
#365=DIRECTION('Vector Direction',(0.,0.,-1.)) ;
#370=DIRECTION('Vector Direction',(0.,0.,-1.)) ;
#382=DIRECTION('Axis2P3D Direction',(-1.,1.07038415644E-046,1.82283742345E-030)) ;
#383=DIRECTION('Axis2P3D XDirection',(0.,1.,-5.87207692069E-017)) ;
#387=DIRECTION('Vector Direction',(0.,1.,-6.83214169E-017)) ;
#394=DIRECTION('Vector Direction',(0.,0.,-1.)) ;
#406=DIRECTION('Axis2P3D Direction',(-1.,1.07038415644E-046,1.82283742345E-030)) ;
#407=DIRECTION('Axis2P3D XDirection',(0.,1.,-5.87207692069E-017)) ;
#411=DIRECTION('Vector Direction',(0.,1.,0.)) ;
#418=DIRECTION('Vector Direction',(0.,0.,-1.)) ;
#430=DIRECTION('Axis2P3D Direction',(0.,-1.,5.87207692069E-017)) ;
#431=DIRECTION('Axis2P3D XDirection',(-1.,1.07038415644E-046,1.82283742345E-030)) ;
#435=DIRECTION('Vector Direction',(-1.,0.,0.)) ;
#442=DIRECTION('Vector Direction',(0.,0.,-1.)) ;
#454=DIRECTION('Axis2P3D Direction',(0.,1.,-5.87207692069E-017)) ;
#455=DIRECTION('Axis2P3D XDirection',(1.,-1.07038415644E-046,-1.82283742345E-030)) ;
#459=DIRECTION('Vector Direction',(1.,0.,0.)) ;
#466=DIRECTION('Vector Direction',(0.,0.,-1.)) ;
#478=DIRECTION('Axis2P3D Direction',(1.82283742345E-030,5.87207692069E-017,1.)) ;
#479=DIRECTION('Axis2P3D XDirection',(-1.,-3.21624529935E-016,1.84172346325E-030)) ;
#483=DIRECTION('Axis2P3D Direction',(1.82283742345E-030,5.87207692069E-017,1.)) ;
#490=DIRECTION('Vector Direction',(0.,0.,1.)) ;
#502=DIRECTION('Vector Direction',(1.,0.,0.)) ;
#509=DIRECTION('Vector Direction',(0.,0.,-1.)) ;
#521=DIRECTION('Axis2P3D Direction',(-1.,1.07038415644E-046,1.82283742345E-030)) ;
#522=DIRECTION('Axis2P3D XDirection',(0.,1.,-5.87207692069E-017)) ;
#526=DIRECTION('Vector Direction',(0.,1.,0.)) ;
#533=DIRECTION('Vector Direction',(0.,0.,-1.)) ;
#545=DIRECTION('Axis2P3D Direction',(0.,-1.,5.87207692069E-017)) ;
#546=DIRECTION('Axis2P3D XDirection',(-1.,1.07038415644E-046,1.82283742345E-030)) ;
#550=DIRECTION('Vector Direction',(-1.,0.,0.)) ;
#557=DIRECTION('Vector Direction',(0.,0.,-1.)) ;
#569=DIRECTION('Axis2P3D Direction',(1.,-1.07038415644E-046,-1.82283742345E-030)) ;
#570=DIRECTION('Axis2P3D XDirection',(0.,-1.,5.87207692069E-017)) ;
#574=DIRECTION('Vector Direction',(0.,-1.,6.80983059087E-017)) ;
#581=DIRECTION('Vector Direction',(0.,0.,-1.)) ;
#593=DIRECTION('Vector Direction',(-1.,0.,0.)) ;
#600=DIRECTION('Vector Direction',(0.,0.,-1.)) ;
#612=DIRECTION('Vector Direction',(0.,1.,0.)) ;
#619=DIRECTION('Vector Direction',(0.,0.,-1.)) ;
#631=DIRECTION('Axis2P3D Direction',(0.,1.,-5.87207692069E-017)) ;
#632=DIRECTION('Axis2P3D XDirection',(1.,-1.07038415644E-046,-1.82283742345E-030)) ;
#636=DIRECTION('Vector Direction',(1.,0.,0.)) ;
#643=DIRECTION('Vector Direction',(0.,0.,-1.)) ;
#655=DIRECTION('Axis2P3D Direction',(1.82283742345E-030,5.87207692069E-017,1.)) ;
#656=DIRECTION('Axis2P3D XDirection',(1.,1.82283742345E-030,-1.82283742345E-030)) ;
#660=DIRECTION('Axis2P3D Direction',(1.82283742345E-030,5.87207692069E-017,1.)) ;
#667=DIRECTION('Vector Direction',(0.,0.,1.)) ;
#679=DIRECTION('Axis2P3D Direction',(1.,-1.07038415644E-046,-1.82283742345E-030)) ;
#680=DIRECTION('Axis2P3D XDirection',(0.,-1.,5.87207692069E-017)) ;
#684=DIRECTION('Vector Direction',(0.,-1.,0.)) ;
#691=DIRECTION('Vector Direction',(0.,0.,-1.)) ;
#703=DIRECTION('Axis2P3D Direction',(0.,1.,-5.87207692069E-017)) ;
#704=DIRECTION('Axis2P3D XDirection',(1.,-1.07038415644E-046,-1.82283742345E-030)) ;
#708=DIRECTION('Vector Direction',(1.,0.,0.)) ;
#715=DIRECTION('Vector Direction',(0.,0.,-1.)) ;
#727=DIRECTION('Axis2P3D Direction',(-1.,1.07038415644E-046,1.82283742345E-030)) ;
#728=DIRECTION('Axis2P3D XDirection',(0.,1.,-5.87207692069E-017)) ;
#732=DIRECTION('Vector Direction',(0.,1.,0.)) ;
#739=DIRECTION('Vector Direction',(0.,0.,-1.)) ;
#751=DIRECTION('Axis2P3D Direction',(1.82283742345E-030,5.87207692069E-017,1.)) ;
#758=DIRECTION('Vector Direction',(0.,0.,1.)) ;
#770=DIRECTION('Vector Direction',(1.,0.,0.)) ;
#777=DIRECTION('Vector Direction',(0.,0.,-1.)) ;
#789=DIRECTION('Vector Direction',(0.,-1.,0.)) ;
#801=DIRECTION('Axis2P3D Direction',(-0.,-0.,-1.)) ;
#802=DIRECTION('Axis2P3D XDirection',(0.479425538604,-0.87758256189,0.)) ;
#806=DIRECTION('Axis2P3D Direction',(0.,0.,-1.)) ;
#815=DIRECTION('Vector Direction',(-0.339005049421,0.620544580564,-0.707106781187)) ;
#822=DIRECTION('Axis2P3D Direction',(0.,0.,-1.)) ;
#829=DIRECTION('Vector Direction',(0.339005049421,-0.620544580564,-0.707106781187)) ;
#841=DIRECTION('Axis2P3D Direction',(0.,0.,-1.)) ;
#846=DIRECTION('Axis2P3D Direction',(0.,0.,-1.)) ;
#858=DIRECTION('Axis2P3D Direction',(0.,0.,1.)) ;
#859=DIRECTION('Axis2P3D XDirection',(0.479425538604,-0.87758256189,0.)) ;
#863=DIRECTION('Axis2P3D Direction',(0.,0.,1.)) ;
#872=DIRECTION('Vector Direction',(0.,0.,1.)) ;
#877=DIRECTION('Vector Direction',(0.,0.,1.)) ;
#889=DIRECTION('Axis2P3D Direction',(0.,0.,1.)) ;
#901=DIRECTION('Axis2P3D Direction',(-0.,-0.,-1.)) ;
#902=DIRECTION('Axis2P3D XDirection',(0.479425538604,-0.87758256189,0.)) ;
#906=DIRECTION('Axis2P3D Direction',(0.,0.,-1.)) ;
#915=DIRECTION('Vector Direction',(-0.339005049421,0.620544580564,-0.707106781187)) ;
#922=DIRECTION('Axis2P3D Direction',(0.,0.,-1.)) ;
#929=DIRECTION('Vector Direction',(0.339005049421,-0.620544580564,-0.707106781187)) ;
#941=DIRECTION('Axis2P3D Direction',(0.,0.,-1.)) ;
#946=DIRECTION('Axis2P3D Direction',(0.,0.,-1.)) ;
#958=DIRECTION('Axis2P3D Direction',(0.,0.,1.)) ;
#959=DIRECTION('Axis2P3D XDirection',(0.479425538604,-0.87758256189,0.)) ;
#963=DIRECTION('Axis2P3D Direction',(0.,0.,1.)) ;
#972=DIRECTION('Vector Direction',(0.,0.,1.)) ;
#977=DIRECTION('Vector Direction',(0.,0.,1.)) ;
#989=DIRECTION('Axis2P3D Direction',(0.,0.,1.)) ;
#1001=DIRECTION('Axis2P3D Direction',(-0.,-0.,-1.)) ;
#1002=DIRECTION('Axis2P3D XDirection',(0.479425538604,-0.87758256189,0.)) ;
#1006=DIRECTION('Axis2P3D Direction',(0.,0.,-1.)) ;
#1015=DIRECTION('Vector Direction',(-0.339005049421,0.620544580564,-0.707106781187)) ;
#1022=DIRECTION('Axis2P3D Direction',(0.,0.,-1.)) ;
#1029=DIRECTION('Vector Direction',(0.339005049421,-0.620544580564,-0.707106781187)) ;
#1041=DIRECTION('Axis2P3D Direction',(0.,0.,-1.)) ;
#1046=DIRECTION('Axis2P3D Direction',(0.,0.,-1.)) ;
#1058=DIRECTION('Axis2P3D Direction',(0.,0.,1.)) ;
#1059=DIRECTION('Axis2P3D XDirection',(0.479425538604,-0.87758256189,0.)) ;
#1063=DIRECTION('Axis2P3D Direction',(0.,0.,1.)) ;
#1072=DIRECTION('Vector Direction',(0.,0.,1.)) ;
#1077=DIRECTION('Vector Direction',(0.,0.,1.)) ;
#1089=DIRECTION('Axis2P3D Direction',(0.,0.,1.)) ;
#1101=DIRECTION('Axis2P3D Direction',(-0.,-0.,-1.)) ;
#1102=DIRECTION('Axis2P3D XDirection',(0.479425538604,-0.87758256189,0.)) ;
#1106=DIRECTION('Axis2P3D Direction',(0.,0.,-1.)) ;
#1115=DIRECTION('Vector Direction',(-0.339005049421,0.620544580564,-0.707106781187)) ;
#1122=DIRECTION('Axis2P3D Direction',(0.,0.,-1.)) ;
#1129=DIRECTION('Vector Direction',(0.339005049421,-0.620544580564,-0.707106781187)) ;
#1141=DIRECTION('Axis2P3D Direction',(0.,0.,-1.)) ;
#1146=DIRECTION('Axis2P3D Direction',(0.,0.,-1.)) ;
#1158=DIRECTION('Axis2P3D Direction',(0.,0.,1.)) ;
#1159=DIRECTION('Axis2P3D XDirection',(0.479425538604,-0.87758256189,0.)) ;
#1163=DIRECTION('Axis2P3D Direction',(0.,0.,1.)) ;
#1172=DIRECTION('Vector Direction',(0.,0.,1.)) ;
#1177=DIRECTION('Vector Direction',(0.,0.,1.)) ;
#1189=DIRECTION('Axis2P3D Direction',(0.,0.,1.)) ;
#1201=DIRECTION('Axis2P3D Direction',(-0.,-0.,-1.)) ;
#1202=DIRECTION('Axis2P3D XDirection',(0.479425538604,-0.87758256189,0.)) ;
#1206=DIRECTION('Axis2P3D Direction',(0.,0.,-1.)) ;
#1215=DIRECTION('Vector Direction',(-0.339005049421,0.620544580564,-0.707106781187)) ;
#1222=DIRECTION('Axis2P3D Direction',(0.,0.,-1.)) ;
#1229=DIRECTION('Vector Direction',(0.339005049421,-0.620544580564,-0.707106781187)) ;
#1241=DIRECTION('Axis2P3D Direction',(0.,0.,-1.)) ;
#1246=DIRECTION('Axis2P3D Direction',(0.,0.,-1.)) ;
#1258=DIRECTION('Axis2P3D Direction',(0.,0.,1.)) ;
#1259=DIRECTION('Axis2P3D XDirection',(0.479425538604,-0.87758256189,0.)) ;
#1263=DIRECTION('Axis2P3D Direction',(0.,0.,1.)) ;
#1272=DIRECTION('Vector Direction',(0.,0.,1.)) ;
#1277=DIRECTION('Vector Direction',(0.,0.,1.)) ;
#1289=DIRECTION('Axis2P3D Direction',(0.,0.,1.)) ;
#1301=DIRECTION('Axis2P3D Direction',(1.82283742345E-030,5.87207692069E-017,1.)) ;
#1302=DIRECTION('Axis2P3D XDirection',(1.,-1.07038415644E-046,-1.82283742345E-030)) ;
#1312=DIRECTION('Axis2P3D Direction',(1.82283742345E-030,5.87207692069E-017,1.)) ;
#1321=DIRECTION('Axis2P3D Direction',(1.82283742345E-030,5.87207692069E-017,1.)) ;
#1351=DIRECTION('Axis2P3D Direction',(1.82283742345E-030,5.87207692069E-017,1.)) ;
#1352=DIRECTION('Axis2P3D XDirection',(1.,-1.07038415644E-046,-1.82283742345E-030)) ;
#1378=DIRECTION('Axis2P3D Direction',(1.82283742345E-030,5.87207692069E-017,1.)) ;
#1387=DIRECTION('Axis2P3D Direction',(1.82283742345E-030,5.87207692069E-017,1.)) ;
#1417=DIRECTION('Axis2P3D Direction',(-0.,-0.,-1.)) ;
#1418=DIRECTION('Axis2P3D XDirection',(0.479425538604,-0.87758256189,0.)) ;
#1422=DIRECTION('Vector Direction',(-0.339005049421,0.620544580564,-0.707106781187)) ;
#1429=DIRECTION('Axis2P3D Direction',(0.,0.,-1.)) ;
#1436=DIRECTION('Vector Direction',(0.339005049421,-0.620544580564,-0.707106781187)) ;
#1448=DIRECTION('Axis2P3D Direction',(0.,0.,-1.)) ;
#1460=DIRECTION('Axis2P3D Direction',(0.,0.,1.)) ;
#1461=DIRECTION('Axis2P3D XDirection',(0.479425538604,-0.87758256189,0.)) ;
#1465=DIRECTION('Vector Direction',(0.,0.,1.)) ;
#1470=DIRECTION('Vector Direction',(0.,0.,1.)) ;
#1492=DIRECTION('Vector Direction',(0.,-1.,0.)) ;
#1500=DIRECTION('Vector Direction',(-1.,0.,0.)) ;
#1508=DIRECTION('Vector Direction',(0.,1.,0.)) ;
#1516=DIRECTION('Vector Direction',(1.,0.,0.)) ;
#1528=DIRECTION('Vector Direction',(0.,-1.,0.)) ;
#1536=DIRECTION('Vector Direction',(-1.,0.,0.)) ;
#1544=DIRECTION('Vector Direction',(0.,1.,0.)) ;
#1552=DIRECTION('Vector Direction',(1.,0.,0.)) ;
#1561=DIRECTION('Vector Direction',(0.,-1.,0.)) ;
#1569=DIRECTION('Vector Direction',(-1.,0.,0.)) ;
#1577=DIRECTION('Vector Direction',(0.,1.,0.)) ;
#1585=DIRECTION('Vector Direction',(1.,0.,0.)) ;
#1594=DIRECTION('Vector Direction',(0.,-1.,0.)) ;
#1602=DIRECTION('Vector Direction',(-1.,0.,0.)) ;
#1610=DIRECTION('Vector Direction',(0.,1.,0.)) ;
#1618=DIRECTION('Vector Direction',(1.,0.,0.)) ;
#48=AXIS2_PLACEMENT_3D(' ',#47,$,$) ;
#55=AXIS2_PLACEMENT_3D('Plane Axis2P3D',#52,#53,#54) ;
#68=AXIS2_PLACEMENT_3D('Circle Axis2P3D',#66,#67,$) ;
#82=AXIS2_PLACEMENT_3D('Circle Axis2P3D',#80,#81,$) ;
#123=AXIS2_PLACEMENT_3D('Circle Axis2P3D',#121,#122,$) ;
#179=AXIS2_PLACEMENT_3D('Circle Axis2P3D',#177,#178,$) ;
#207=AXIS2_PLACEMENT_3D('Circle Axis2P3D',#205,#206,$) ;
#257=AXIS2_PLACEMENT_3D('Plane Axis2P3D',#254,#255,#256) ;
#288=AXIS2_PLACEMENT_3D('Cylinder Axis2P3D',#285,#286,#287) ;
#299=AXIS2_PLACEMENT_3D('Circle Axis2P3D',#297,#298,$) ;
#312=AXIS2_PLACEMENT_3D('Plane Axis2P3D',#309,#310,#311) ;
#336=AXIS2_PLACEMENT_3D('Cylinder Axis2P3D',#333,#334,#335) ;
#340=AXIS2_PLACEMENT_3D('Circle Axis2P3D',#338,#339,$) ;
#353=AXIS2_PLACEMENT_3D('Plane Axis2P3D',#350,#351,#352) ;
#384=AXIS2_PLACEMENT_3D('Plane Axis2P3D',#381,#382,#383) ;
#408=AXIS2_PLACEMENT_3D('Plane Axis2P3D',#405,#406,#407) ;
#432=AXIS2_PLACEMENT_3D('Plane Axis2P3D',#429,#430,#431) ;
#456=AXIS2_PLACEMENT_3D('Plane Axis2P3D',#453,#454,#455) ;
#480=AXIS2_PLACEMENT_3D('Cylinder Axis2P3D',#477,#478,#479) ;
#484=AXIS2_PLACEMENT_3D('Circle Axis2P3D',#482,#483,$) ;
#523=AXIS2_PLACEMENT_3D('Plane Axis2P3D',#520,#521,#522) ;
#547=AXIS2_PLACEMENT_3D('Plane Axis2P3D',#544,#545,#546) ;
#571=AXIS2_PLACEMENT_3D('Plane Axis2P3D',#568,#569,#570) ;
#633=AXIS2_PLACEMENT_3D('Plane Axis2P3D',#630,#631,#632) ;
#657=AXIS2_PLACEMENT_3D('Cylinder Axis2P3D',#654,#655,#656) ;
#661=AXIS2_PLACEMENT_3D('Circle Axis2P3D',#659,#660,$) ;
#681=AXIS2_PLACEMENT_3D('Plane Axis2P3D',#678,#679,#680) ;
#705=AXIS2_PLACEMENT_3D('Plane Axis2P3D',#702,#703,#704) ;
#729=AXIS2_PLACEMENT_3D('Plane Axis2P3D',#726,#727,#728) ;
#752=AXIS2_PLACEMENT_3D('Circle Axis2P3D',#750,#751,$) ;
#803=AXIS2_PLACEMENT_3D('Cone Axis2P3D',#800,#801,#802) ;
#807=AXIS2_PLACEMENT_3D('Circle Axis2P3D',#805,#806,$) ;
#823=AXIS2_PLACEMENT_3D('Circle Axis2P3D',#821,#822,$) ;
#842=AXIS2_PLACEMENT_3D('Circle Axis2P3D',#840,#841,$) ;
#847=AXIS2_PLACEMENT_3D('Circle Axis2P3D',#845,#846,$) ;
#860=AXIS2_PLACEMENT_3D('Cylinder Axis2P3D',#857,#858,#859) ;
#864=AXIS2_PLACEMENT_3D('Circle Axis2P3D',#862,#863,$) ;
#890=AXIS2_PLACEMENT_3D('Circle Axis2P3D',#888,#889,$) ;
#903=AXIS2_PLACEMENT_3D('Cone Axis2P3D',#900,#901,#902) ;
#907=AXIS2_PLACEMENT_3D('Circle Axis2P3D',#905,#906,$) ;
#923=AXIS2_PLACEMENT_3D('Circle Axis2P3D',#921,#922,$) ;
#942=AXIS2_PLACEMENT_3D('Circle Axis2P3D',#940,#941,$) ;
#947=AXIS2_PLACEMENT_3D('Circle Axis2P3D',#945,#946,$) ;
#960=AXIS2_PLACEMENT_3D('Cylinder Axis2P3D',#957,#958,#959) ;
#964=AXIS2_PLACEMENT_3D('Circle Axis2P3D',#962,#963,$) ;
#990=AXIS2_PLACEMENT_3D('Circle Axis2P3D',#988,#989,$) ;
#1003=AXIS2_PLACEMENT_3D('Cone Axis2P3D',#1000,#1001,#1002) ;
#1007=AXIS2_PLACEMENT_3D('Circle Axis2P3D',#1005,#1006,$) ;
#1023=AXIS2_PLACEMENT_3D('Circle Axis2P3D',#1021,#1022,$) ;
#1042=AXIS2_PLACEMENT_3D('Circle Axis2P3D',#1040,#1041,$) ;
#1047=AXIS2_PLACEMENT_3D('Circle Axis2P3D',#1045,#1046,$) ;
#1060=AXIS2_PLACEMENT_3D('Cylinder Axis2P3D',#1057,#1058,#1059) ;
#1064=AXIS2_PLACEMENT_3D('Circle Axis2P3D',#1062,#1063,$) ;
#1090=AXIS2_PLACEMENT_3D('Circle Axis2P3D',#1088,#1089,$) ;
#1103=AXIS2_PLACEMENT_3D('Cone Axis2P3D',#1100,#1101,#1102) ;
#1107=AXIS2_PLACEMENT_3D('Circle Axis2P3D',#1105,#1106,$) ;
#1123=AXIS2_PLACEMENT_3D('Circle Axis2P3D',#1121,#1122,$) ;
#1142=AXIS2_PLACEMENT_3D('Circle Axis2P3D',#1140,#1141,$) ;
#1147=AXIS2_PLACEMENT_3D('Circle Axis2P3D',#1145,#1146,$) ;
#1160=AXIS2_PLACEMENT_3D('Cylinder Axis2P3D',#1157,#1158,#1159) ;
#1164=AXIS2_PLACEMENT_3D('Circle Axis2P3D',#1162,#1163,$) ;
#1190=AXIS2_PLACEMENT_3D('Circle Axis2P3D',#1188,#1189,$) ;
#1203=AXIS2_PLACEMENT_3D('Cone Axis2P3D',#1200,#1201,#1202) ;
#1207=AXIS2_PLACEMENT_3D('Circle Axis2P3D',#1205,#1206,$) ;
#1223=AXIS2_PLACEMENT_3D('Circle Axis2P3D',#1221,#1222,$) ;
#1242=AXIS2_PLACEMENT_3D('Circle Axis2P3D',#1240,#1241,$) ;
#1247=AXIS2_PLACEMENT_3D('Circle Axis2P3D',#1245,#1246,$) ;
#1260=AXIS2_PLACEMENT_3D('Cylinder Axis2P3D',#1257,#1258,#1259) ;
#1264=AXIS2_PLACEMENT_3D('Circle Axis2P3D',#1262,#1263,$) ;
#1290=AXIS2_PLACEMENT_3D('Circle Axis2P3D',#1288,#1289,$) ;
#1303=AXIS2_PLACEMENT_3D('Plane Axis2P3D',#1300,#1301,#1302) ;
#1313=AXIS2_PLACEMENT_3D('Circle Axis2P3D',#1311,#1312,$) ;
#1322=AXIS2_PLACEMENT_3D('Circle Axis2P3D',#1320,#1321,$) ;
#1353=AXIS2_PLACEMENT_3D('Plane Axis2P3D',#1350,#1351,#1352) ;
#1379=AXIS2_PLACEMENT_3D('Circle Axis2P3D',#1377,#1378,$) ;
#1388=AXIS2_PLACEMENT_3D('Circle Axis2P3D',#1386,#1387,$) ;
#1419=AXIS2_PLACEMENT_3D('Cone Axis2P3D',#1416,#1417,#1418) ;
#1430=AXIS2_PLACEMENT_3D('Circle Axis2P3D',#1428,#1429,$) ;
#1449=AXIS2_PLACEMENT_3D('Circle Axis2P3D',#1447,#1448,$) ;
#1462=AXIS2_PLACEMENT_3D('Cylinder Axis2P3D',#1459,#1460,#1461) ;
#40=PRODUCT_DEFINITION_SHAPE(' ',' ',#14) ;
#1523=COMPOSITE_CURVE('Sketch.3',(#1498,#1506,#1514,#1522),.U.) ;
#1559=COMPOSITE_CURVE('Sketch.3',(#1534,#1542,#1550,#1558),.U.) ;
#1592=COMPOSITE_CURVE('Sketch.3',(#1567,#1575,#1583,#1591),.U.) ;
#1625=COMPOSITE_CURVE('Sketch.3',(#1600,#1608,#1616,#1624),.U.) ;
#1498=COMPOSITE_CURVE_SEGMENT(.CONTINUOUS.,.T.,#1497) ;
#1506=COMPOSITE_CURVE_SEGMENT(.CONTINUOUS.,.T.,#1505) ;
#1514=COMPOSITE_CURVE_SEGMENT(.CONTINUOUS.,.T.,#1513) ;
#1522=COMPOSITE_CURVE_SEGMENT(.DISCONTINUOUS.,.T.,#1521) ;
#1534=COMPOSITE_CURVE_SEGMENT(.CONTINUOUS.,.T.,#1533) ;
#1542=COMPOSITE_CURVE_SEGMENT(.CONTINUOUS.,.T.,#1541) ;
#1550=COMPOSITE_CURVE_SEGMENT(.CONTINUOUS.,.T.,#1549) ;
#1558=COMPOSITE_CURVE_SEGMENT(.DISCONTINUOUS.,.T.,#1557) ;
#1567=COMPOSITE_CURVE_SEGMENT(.CONTINUOUS.,.T.,#1566) ;
#1575=COMPOSITE_CURVE_SEGMENT(.CONTINUOUS.,.T.,#1574) ;
#1583=COMPOSITE_CURVE_SEGMENT(.CONTINUOUS.,.T.,#1582) ;
#1591=COMPOSITE_CURVE_SEGMENT(.DISCONTINUOUS.,.T.,#1590) ;
#1600=COMPOSITE_CURVE_SEGMENT(.CONTINUOUS.,.T.,#1599) ;
#1608=COMPOSITE_CURVE_SEGMENT(.CONTINUOUS.,.T.,#1607) ;
#1616=COMPOSITE_CURVE_SEGMENT(.CONTINUOUS.,.T.,#1615) ;
#1624=COMPOSITE_CURVE_SEGMENT(.DISCONTINUOUS.,.T.,#1623) ;
#31=APPROVAL_PERSON_ORGANIZATION(#25,#21,#19) ;
#25=PERSON_AND_ORGANIZATION(#22,#23) ;
#22=PERSON(' ',' ',' ',$,$,$) ;
#23=ORGANIZATION(' ',' ',' ') ;
#21=APPROVAL(#20,' ') ;
#20=APPROVAL_STATUS('not_yet_approved') ;
#19=APPROVAL_ROLE('APPROVER') ;
#13=DATE_AND_TIME(#11,#12) ;
#12=LOCAL_TIME(8,1,17.,#10) ;
#10=COORDINATED_UNIVERSAL_TIME_OFFSET(0,0,.AHEAD.) ;
#86=ORIENTED_EDGE('',*,*,#65,.F.) ;
#87=ORIENTED_EDGE('',*,*,#72,.F.) ;
#88=ORIENTED_EDGE('',*,*,#79,.F.) ;
#89=ORIENTED_EDGE('',*,*,#84,.F.) ;
#232=ORIENTED_EDGE('',*,*,#99,.T.) ;
#233=ORIENTED_EDGE('',*,*,#106,.T.) ;
#234=ORIENTED_EDGE('',*,*,#113,.T.) ;
#235=ORIENTED_EDGE('',*,*,#120,.T.) ;
#236=ORIENTED_EDGE('',*,*,#127,.T.) ;
#237=ORIENTED_EDGE('',*,*,#134,.T.) ;
#238=ORIENTED_EDGE('',*,*,#141,.T.) ;
#239=ORIENTED_EDGE('',*,*,#148,.T.) ;
#240=ORIENTED_EDGE('',*,*,#155,.T.) ;
#241=ORIENTED_EDGE('',*,*,#162,.T.) ;
#242=ORIENTED_EDGE('',*,*,#169,.T.) ;
#243=ORIENTED_EDGE('',*,*,#176,.T.) ;
#244=ORIENTED_EDGE('',*,*,#183,.T.) ;
#245=ORIENTED_EDGE('',*,*,#190,.T.) ;
#246=ORIENTED_EDGE('',*,*,#197,.T.) ;
#247=ORIENTED_EDGE('',*,*,#204,.T.) ;
#248=ORIENTED_EDGE('',*,*,#211,.T.) ;
#249=ORIENTED_EDGE('',*,*,#218,.T.) ;
#250=ORIENTED_EDGE('',*,*,#225,.T.) ;
#251=ORIENTED_EDGE('',*,*,#230,.T.) ;
#279=ORIENTED_EDGE('',*,*,#265,.F.) ;
#280=ORIENTED_EDGE('',*,*,#65,.T.) ;
#281=ORIENTED_EDGE('',*,*,#272,.T.) ;
#282=ORIENTED_EDGE('',*,*,#277,.F.) ;
#303=ORIENTED_EDGE('',*,*,#296,.F.) ;
#304=ORIENTED_EDGE('',*,*,#72,.T.) ;
#305=ORIENTED_EDGE('',*,*,#265,.T.) ;
#306=ORIENTED_EDGE('',*,*,#301,.F.) ;
#327=ORIENTED_EDGE('',*,*,#320,.F.) ;
#328=ORIENTED_EDGE('',*,*,#79,.T.) ;
#329=ORIENTED_EDGE('',*,*,#296,.T.) ;
#330=ORIENTED_EDGE('',*,*,#325,.F.) ;
#344=ORIENTED_EDGE('',*,*,#272,.F.) ;
#345=ORIENTED_EDGE('',*,*,#84,.T.) ;
#346=ORIENTED_EDGE('',*,*,#320,.T.) ;
#347=ORIENTED_EDGE('',*,*,#342,.F.) ;
#375=ORIENTED_EDGE('',*,*,#363,.T.) ;
#376=ORIENTED_EDGE('',*,*,#368,.F.) ;
#377=ORIENTED_EDGE('',*,*,#106,.F.) ;
#378=ORIENTED_EDGE('',*,*,#373,.T.) ;
#399=ORIENTED_EDGE('',*,*,#392,.T.) ;
#400=ORIENTED_EDGE('',*,*,#373,.F.) ;
#401=ORIENTED_EDGE('',*,*,#99,.F.) ;
#402=ORIENTED_EDGE('',*,*,#397,.T.) ;
#423=ORIENTED_EDGE('',*,*,#416,.T.) ;
#424=ORIENTED_EDGE('',*,*,#421,.F.) ;
#425=ORIENTED_EDGE('',*,*,#113,.F.) ;
#426=ORIENTED_EDGE('',*,*,#368,.T.) ;
#447=ORIENTED_EDGE('',*,*,#440,.T.) ;
#448=ORIENTED_EDGE('',*,*,#397,.F.) ;
#449=ORIENTED_EDGE('',*,*,#230,.F.) ;
#450=ORIENTED_EDGE('',*,*,#445,.T.) ;
#471=ORIENTED_EDGE('',*,*,#464,.T.) ;
#472=ORIENTED_EDGE('',*,*,#469,.F.) ;
#473=ORIENTED_EDGE('',*,*,#120,.F.) ;
#474=ORIENTED_EDGE('',*,*,#421,.T.) ;
#495=ORIENTED_EDGE('',*,*,#488,.T.) ;
#496=ORIENTED_EDGE('',*,*,#493,.F.) ;
#497=ORIENTED_EDGE('',*,*,#127,.F.) ;
#498=ORIENTED_EDGE('',*,*,#469,.T.) ;
#514=ORIENTED_EDGE('',*,*,#507,.T.) ;
#515=ORIENTED_EDGE('',*,*,#512,.F.) ;
#516=ORIENTED_EDGE('',*,*,#134,.F.) ;
#517=ORIENTED_EDGE('',*,*,#493,.T.) ;
#538=ORIENTED_EDGE('',*,*,#531,.T.) ;
#539=ORIENTED_EDGE('',*,*,#536,.F.) ;
#540=ORIENTED_EDGE('',*,*,#141,.F.) ;
#541=ORIENTED_EDGE('',*,*,#512,.T.) ;
#562=ORIENTED_EDGE('',*,*,#555,.T.) ;
#563=ORIENTED_EDGE('',*,*,#560,.F.) ;
#564=ORIENTED_EDGE('',*,*,#148,.F.) ;
#565=ORIENTED_EDGE('',*,*,#536,.T.) ;
#586=ORIENTED_EDGE('',*,*,#579,.T.) ;
#587=ORIENTED_EDGE('',*,*,#584,.F.) ;
#588=ORIENTED_EDGE('',*,*,#155,.F.) ;
#589=ORIENTED_EDGE('',*,*,#560,.T.) ;
#605=ORIENTED_EDGE('',*,*,#598,.T.) ;
#606=ORIENTED_EDGE('',*,*,#603,.F.) ;
#607=ORIENTED_EDGE('',*,*,#162,.F.) ;
#608=ORIENTED_EDGE('',*,*,#584,.T.) ;
#624=ORIENTED_EDGE('',*,*,#617,.T.) ;
#625=ORIENTED_EDGE('',*,*,#622,.F.) ;
#626=ORIENTED_EDGE('',*,*,#169,.F.) ;
#627=ORIENTED_EDGE('',*,*,#603,.T.) ;
#648=ORIENTED_EDGE('',*,*,#641,.T.) ;
#649=ORIENTED_EDGE('',*,*,#646,.F.) ;
#650=ORIENTED_EDGE('',*,*,#176,.F.) ;
#651=ORIENTED_EDGE('',*,*,#622,.T.) ;
#672=ORIENTED_EDGE('',*,*,#665,.T.) ;
#673=ORIENTED_EDGE('',*,*,#670,.F.) ;
#674=ORIENTED_EDGE('',*,*,#183,.F.) ;
#675=ORIENTED_EDGE('',*,*,#646,.T.) ;
#696=ORIENTED_EDGE('',*,*,#689,.T.) ;
#697=ORIENTED_EDGE('',*,*,#694,.F.) ;
#698=ORIENTED_EDGE('',*,*,#190,.F.) ;
#699=ORIENTED_EDGE('',*,*,#670,.T.) ;
#720=ORIENTED_EDGE('',*,*,#713,.T.) ;
#721=ORIENTED_EDGE('',*,*,#718,.F.) ;
#722=ORIENTED_EDGE('',*,*,#197,.F.) ;
#723=ORIENTED_EDGE('',*,*,#694,.T.) ;
#744=ORIENTED_EDGE('',*,*,#737,.T.) ;
#745=ORIENTED_EDGE('',*,*,#742,.F.) ;
#746=ORIENTED_EDGE('',*,*,#204,.F.) ;
#747=ORIENTED_EDGE('',*,*,#718,.T.) ;
#763=ORIENTED_EDGE('',*,*,#756,.T.) ;
#764=ORIENTED_EDGE('',*,*,#761,.F.) ;
#765=ORIENTED_EDGE('',*,*,#211,.F.) ;
#766=ORIENTED_EDGE('',*,*,#742,.T.) ;
#782=ORIENTED_EDGE('',*,*,#775,.T.) ;
#783=ORIENTED_EDGE('',*,*,#780,.F.) ;
#784=ORIENTED_EDGE('',*,*,#218,.F.) ;
#785=ORIENTED_EDGE('',*,*,#761,.T.) ;
#794=ORIENTED_EDGE('',*,*,#792,.T.) ;
#795=ORIENTED_EDGE('',*,*,#445,.F.) ;
#796=ORIENTED_EDGE('',*,*,#225,.F.) ;
#797=ORIENTED_EDGE('',*,*,#780,.T.) ;
#834=ORIENTED_EDGE('',*,*,#813,.F.) ;
#835=ORIENTED_EDGE('',*,*,#820,.F.) ;
#836=ORIENTED_EDGE('',*,*,#827,.T.) ;
#837=ORIENTED_EDGE('',*,*,#832,.T.) ;
#851=ORIENTED_EDGE('',*,*,#844,.F.) ;
#852=ORIENTED_EDGE('',*,*,#832,.F.) ;
#853=ORIENTED_EDGE('',*,*,#849,.T.) ;
#854=ORIENTED_EDGE('',*,*,#820,.T.) ;
#882=ORIENTED_EDGE('',*,*,#870,.T.) ;
#883=ORIENTED_EDGE('',*,*,#875,.T.) ;
#884=ORIENTED_EDGE('',*,*,#827,.F.) ;
#885=ORIENTED_EDGE('',*,*,#880,.F.) ;
#894=ORIENTED_EDGE('',*,*,#892,.T.) ;
#895=ORIENTED_EDGE('',*,*,#880,.T.) ;
#896=ORIENTED_EDGE('',*,*,#849,.F.) ;
#897=ORIENTED_EDGE('',*,*,#875,.F.) ;
#934=ORIENTED_EDGE('',*,*,#913,.F.) ;
#935=ORIENTED_EDGE('',*,*,#920,.F.) ;
#936=ORIENTED_EDGE('',*,*,#927,.T.) ;
#937=ORIENTED_EDGE('',*,*,#932,.T.) ;
#951=ORIENTED_EDGE('',*,*,#944,.F.) ;
#952=ORIENTED_EDGE('',*,*,#932,.F.) ;
#953=ORIENTED_EDGE('',*,*,#949,.T.) ;
#954=ORIENTED_EDGE('',*,*,#920,.T.) ;
#982=ORIENTED_EDGE('',*,*,#970,.T.) ;
#983=ORIENTED_EDGE('',*,*,#975,.T.) ;
#984=ORIENTED_EDGE('',*,*,#927,.F.) ;
#985=ORIENTED_EDGE('',*,*,#980,.F.) ;
#994=ORIENTED_EDGE('',*,*,#992,.T.) ;
#995=ORIENTED_EDGE('',*,*,#980,.T.) ;
#996=ORIENTED_EDGE('',*,*,#949,.F.) ;
#997=ORIENTED_EDGE('',*,*,#975,.F.) ;
#1034=ORIENTED_EDGE('',*,*,#1013,.F.) ;
#1035=ORIENTED_EDGE('',*,*,#1020,.F.) ;
#1036=ORIENTED_EDGE('',*,*,#1027,.T.) ;
#1037=ORIENTED_EDGE('',*,*,#1032,.T.) ;
#1051=ORIENTED_EDGE('',*,*,#1044,.F.) ;
#1052=ORIENTED_EDGE('',*,*,#1032,.F.) ;
#1053=ORIENTED_EDGE('',*,*,#1049,.T.) ;
#1054=ORIENTED_EDGE('',*,*,#1020,.T.) ;
#1082=ORIENTED_EDGE('',*,*,#1070,.T.) ;
#1083=ORIENTED_EDGE('',*,*,#1075,.T.) ;
#1084=ORIENTED_EDGE('',*,*,#1027,.F.) ;
#1085=ORIENTED_EDGE('',*,*,#1080,.F.) ;
#1094=ORIENTED_EDGE('',*,*,#1092,.T.) ;
#1095=ORIENTED_EDGE('',*,*,#1080,.T.) ;
#1096=ORIENTED_EDGE('',*,*,#1049,.F.) ;
#1097=ORIENTED_EDGE('',*,*,#1075,.F.) ;
#1134=ORIENTED_EDGE('',*,*,#1113,.F.) ;
#1135=ORIENTED_EDGE('',*,*,#1120,.F.) ;
#1136=ORIENTED_EDGE('',*,*,#1127,.T.) ;
#1137=ORIENTED_EDGE('',*,*,#1132,.T.) ;
#1151=ORIENTED_EDGE('',*,*,#1144,.F.) ;
#1152=ORIENTED_EDGE('',*,*,#1132,.F.) ;
#1153=ORIENTED_EDGE('',*,*,#1149,.T.) ;
#1154=ORIENTED_EDGE('',*,*,#1120,.T.) ;
#1182=ORIENTED_EDGE('',*,*,#1170,.T.) ;
#1183=ORIENTED_EDGE('',*,*,#1175,.T.) ;
#1184=ORIENTED_EDGE('',*,*,#1127,.F.) ;
#1185=ORIENTED_EDGE('',*,*,#1180,.F.) ;
#1194=ORIENTED_EDGE('',*,*,#1192,.T.) ;
#1195=ORIENTED_EDGE('',*,*,#1180,.T.) ;
#1196=ORIENTED_EDGE('',*,*,#1149,.F.) ;
#1197=ORIENTED_EDGE('',*,*,#1175,.F.) ;
#1234=ORIENTED_EDGE('',*,*,#1213,.F.) ;
#1235=ORIENTED_EDGE('',*,*,#1220,.F.) ;
#1236=ORIENTED_EDGE('',*,*,#1227,.T.) ;
#1237=ORIENTED_EDGE('',*,*,#1232,.T.) ;
#1251=ORIENTED_EDGE('',*,*,#1244,.F.) ;
#1252=ORIENTED_EDGE('',*,*,#1232,.F.) ;
#1253=ORIENTED_EDGE('',*,*,#1249,.T.) ;
#1254=ORIENTED_EDGE('',*,*,#1220,.T.) ;
#1282=ORIENTED_EDGE('',*,*,#1270,.T.) ;
#1283=ORIENTED_EDGE('',*,*,#1275,.T.) ;
#1284=ORIENTED_EDGE('',*,*,#1227,.F.) ;
#1285=ORIENTED_EDGE('',*,*,#1280,.F.) ;
#1294=ORIENTED_EDGE('',*,*,#1292,.T.) ;
#1295=ORIENTED_EDGE('',*,*,#1280,.T.) ;
#1296=ORIENTED_EDGE('',*,*,#1249,.F.) ;
#1297=ORIENTED_EDGE('',*,*,#1275,.F.) ;
#1306=ORIENTED_EDGE('',*,*,#342,.T.) ;
#1307=ORIENTED_EDGE('',*,*,#325,.T.) ;
#1308=ORIENTED_EDGE('',*,*,#301,.T.) ;
#1309=ORIENTED_EDGE('',*,*,#277,.T.) ;
#1326=ORIENTED_EDGE('',*,*,#1319,.F.) ;
#1327=ORIENTED_EDGE('',*,*,#1324,.F.) ;
#1330=ORIENTED_EDGE('',*,*,#1292,.F.) ;
#1331=ORIENTED_EDGE('',*,*,#1270,.F.) ;
#1334=ORIENTED_EDGE('',*,*,#1192,.F.) ;
#1335=ORIENTED_EDGE('',*,*,#1170,.F.) ;
#1338=ORIENTED_EDGE('',*,*,#1092,.F.) ;
#1339=ORIENTED_EDGE('',*,*,#1070,.F.) ;
#1342=ORIENTED_EDGE('',*,*,#992,.F.) ;
#1343=ORIENTED_EDGE('',*,*,#970,.F.) ;
#1346=ORIENTED_EDGE('',*,*,#892,.F.) ;
#1347=ORIENTED_EDGE('',*,*,#870,.F.) ;
#1356=ORIENTED_EDGE('',*,*,#392,.F.) ;
#1357=ORIENTED_EDGE('',*,*,#440,.F.) ;
#1358=ORIENTED_EDGE('',*,*,#792,.F.) ;
#1359=ORIENTED_EDGE('',*,*,#775,.F.) ;
#1360=ORIENTED_EDGE('',*,*,#756,.F.) ;
#1361=ORIENTED_EDGE('',*,*,#737,.F.) ;
#1362=ORIENTED_EDGE('',*,*,#713,.F.) ;
#1363=ORIENTED_EDGE('',*,*,#689,.F.) ;
#1364=ORIENTED_EDGE('',*,*,#665,.F.) ;
#1365=ORIENTED_EDGE('',*,*,#641,.F.) ;
#1366=ORIENTED_EDGE('',*,*,#617,.F.) ;
#1367=ORIENTED_EDGE('',*,*,#598,.F.) ;
#1368=ORIENTED_EDGE('',*,*,#579,.F.) ;
#1369=ORIENTED_EDGE('',*,*,#555,.F.) ;
#1370=ORIENTED_EDGE('',*,*,#531,.F.) ;
#1371=ORIENTED_EDGE('',*,*,#507,.F.) ;
#1372=ORIENTED_EDGE('',*,*,#488,.F.) ;
#1373=ORIENTED_EDGE('',*,*,#464,.F.) ;
#1374=ORIENTED_EDGE('',*,*,#416,.F.) ;
#1375=ORIENTED_EDGE('',*,*,#363,.F.) ;
#1392=ORIENTED_EDGE('',*,*,#1385,.T.) ;
#1393=ORIENTED_EDGE('',*,*,#1390,.T.) ;
#1396=ORIENTED_EDGE('',*,*,#1213,.T.) ;
#1397=ORIENTED_EDGE('',*,*,#1244,.T.) ;
#1400=ORIENTED_EDGE('',*,*,#1113,.T.) ;
#1401=ORIENTED_EDGE('',*,*,#1144,.T.) ;
#1404=ORIENTED_EDGE('',*,*,#1013,.T.) ;
#1405=ORIENTED_EDGE('',*,*,#1044,.T.) ;
#1408=ORIENTED_EDGE('',*,*,#913,.T.) ;
#1409=ORIENTED_EDGE('',*,*,#944,.T.) ;
#1412=ORIENTED_EDGE('',*,*,#813,.T.) ;
#1413=ORIENTED_EDGE('',*,*,#844,.T.) ;
#1441=ORIENTED_EDGE('',*,*,#1385,.F.) ;
#1442=ORIENTED_EDGE('',*,*,#1427,.F.) ;
#1443=ORIENTED_EDGE('',*,*,#1434,.T.) ;
#1444=ORIENTED_EDGE('',*,*,#1439,.T.) ;
#1453=ORIENTED_EDGE('',*,*,#1390,.F.) ;
#1454=ORIENTED_EDGE('',*,*,#1439,.F.) ;
#1455=ORIENTED_EDGE('',*,*,#1451,.T.) ;
#1456=ORIENTED_EDGE('',*,*,#1427,.T.) ;
#1475=ORIENTED_EDGE('',*,*,#1324,.T.) ;
#1476=ORIENTED_EDGE('',*,*,#1468,.T.) ;
#1477=ORIENTED_EDGE('',*,*,#1434,.F.) ;
#1478=ORIENTED_EDGE('',*,*,#1473,.F.) ;
#1482=ORIENTED_EDGE('',*,*,#1319,.T.) ;
#1483=ORIENTED_EDGE('',*,*,#1473,.T.) ;
#1484=ORIENTED_EDGE('',*,*,#1451,.F.) ;
#1485=ORIENTED_EDGE('',*,*,#1468,.F.) ;
#252=FACE_BOUND('',#231,.T.) ;
#1328=FACE_BOUND('',#1325,.T.) ;
#1332=FACE_BOUND('',#1329,.T.) ;
#1336=FACE_BOUND('',#1333,.T.) ;
#1340=FACE_BOUND('',#1337,.T.) ;
#1344=FACE_BOUND('',#1341,.T.) ;
#1348=FACE_BOUND('',#1345,.T.) ;
#1394=FACE_BOUND('',#1391,.T.) ;
#1398=FACE_BOUND('',#1395,.T.) ;
#1402=FACE_BOUND('',#1399,.T.) ;
#1406=FACE_BOUND('',#1403,.T.) ;
#1410=FACE_BOUND('',#1407,.T.) ;
#1414=FACE_BOUND('',#1411,.T.) ;
#51=CLOSED_SHELL('Closed Shell',(#253,#284,#308,#332,#349,#380,#404,#428,#452,#476,#500,#519,#543,#567,#591,#610,#629,#653,#677,#701,#725,#749,#768,#787,#799,#839,#856,#887,#899,#939,#956,#987,#999,#1039,#1056,#1087,#1099,#1139,#1156,#1187,#1199,#1239,#1256,#1287,#1299,#1349,#1415,#1446,#1458,#1480,#1487)) ;
#59=VECTOR('Line Direction',#58,1.) ;
#75=VECTOR('Line Direction',#74,1.) ;
#93=VECTOR('Line Direction',#92,1.) ;
#102=VECTOR('Line Direction',#101,1.) ;
#109=VECTOR('Line Direction',#108,1.) ;
#116=VECTOR('Line Direction',#115,1.) ;
#130=VECTOR('Line Direction',#129,1.) ;
#137=VECTOR('Line Direction',#136,1.) ;
#144=VECTOR('Line Direction',#143,1.) ;
#151=VECTOR('Line Direction',#150,1.) ;
#158=VECTOR('Line Direction',#157,1.) ;
#165=VECTOR('Line Direction',#164,1.) ;
#172=VECTOR('Line Direction',#171,1.) ;
#186=VECTOR('Line Direction',#185,1.) ;
#193=VECTOR('Line Direction',#192,1.) ;
#200=VECTOR('Line Direction',#199,1.) ;
#214=VECTOR('Line Direction',#213,1.) ;
#221=VECTOR('Line Direction',#220,1.) ;
#228=VECTOR('Line Direction',#227,1.) ;
#261=VECTOR('Line Direction',#260,1.) ;
#268=VECTOR('Line Direction',#267,1.) ;
#275=VECTOR('Line Direction',#274,1.) ;
#292=VECTOR('Line Direction',#291,1.) ;
#316=VECTOR('Line Direction',#315,1.) ;
#323=VECTOR('Line Direction',#322,1.) ;
#357=VECTOR('Line Direction',#356,1.) ;
#366=VECTOR('Line Direction',#365,1.) ;
#371=VECTOR('Line Direction',#370,1.) ;
#388=VECTOR('Line Direction',#387,1.) ;
#395=VECTOR('Line Direction',#394,1.) ;
#412=VECTOR('Line Direction',#411,1.) ;
#419=VECTOR('Line Direction',#418,1.) ;
#436=VECTOR('Line Direction',#435,1.) ;
#443=VECTOR('Line Direction',#442,1.) ;
#460=VECTOR('Line Direction',#459,1.) ;
#467=VECTOR('Line Direction',#466,1.) ;
#491=VECTOR('Line Direction',#490,1.) ;
#503=VECTOR('Line Direction',#502,1.) ;
#510=VECTOR('Line Direction',#509,1.) ;
#527=VECTOR('Line Direction',#526,1.) ;
#534=VECTOR('Line Direction',#533,1.) ;
#551=VECTOR('Line Direction',#550,1.) ;
#558=VECTOR('Line Direction',#557,1.) ;
#575=VECTOR('Line Direction',#574,1.) ;
#582=VECTOR('Line Direction',#581,1.) ;
#594=VECTOR('Line Direction',#593,1.) ;
#601=VECTOR('Line Direction',#600,1.) ;
#613=VECTOR('Line Direction',#612,1.) ;
#620=VECTOR('Line Direction',#619,1.) ;
#637=VECTOR('Line Direction',#636,1.) ;
#644=VECTOR('Line Direction',#643,1.) ;
#668=VECTOR('Line Direction',#667,1.) ;
#685=VECTOR('Line Direction',#684,1.) ;
#692=VECTOR('Line Direction',#691,1.) ;
#709=VECTOR('Line Direction',#708,1.) ;
#716=VECTOR('Line Direction',#715,1.) ;
#733=VECTOR('Line Direction',#732,1.) ;
#740=VECTOR('Line Direction',#739,1.) ;
#759=VECTOR('Line Direction',#758,1.) ;
#771=VECTOR('Line Direction',#770,1.) ;
#778=VECTOR('Line Direction',#777,1.) ;
#790=VECTOR('Line Direction',#789,1.) ;
#816=VECTOR('Line Direction',#815,1.) ;
#830=VECTOR('Line Direction',#829,1.) ;
#873=VECTOR('Line Direction',#872,1.) ;
#878=VECTOR('Line Direction',#877,1.) ;
#916=VECTOR('Line Direction',#915,1.) ;
#930=VECTOR('Line Direction',#929,1.) ;
#973=VECTOR('Line Direction',#972,1.) ;
#978=VECTOR('Line Direction',#977,1.) ;
#1016=VECTOR('Line Direction',#1015,1.) ;
#1030=VECTOR('Line Direction',#1029,1.) ;
#1073=VECTOR('Line Direction',#1072,1.) ;
#1078=VECTOR('Line Direction',#1077,1.) ;
#1116=VECTOR('Line Direction',#1115,1.) ;
#1130=VECTOR('Line Direction',#1129,1.) ;
#1173=VECTOR('Line Direction',#1172,1.) ;
#1178=VECTOR('Line Direction',#1177,1.) ;
#1216=VECTOR('Line Direction',#1215,1.) ;
#1230=VECTOR('Line Direction',#1229,1.) ;
#1273=VECTOR('Line Direction',#1272,1.) ;
#1278=VECTOR('Line Direction',#1277,1.) ;
#1423=VECTOR('Line Direction',#1422,1.) ;
#1437=VECTOR('Line Direction',#1436,1.) ;
#1466=VECTOR('Line Direction',#1465,1.) ;
#1471=VECTOR('Line Direction',#1470,1.) ;
#1493=VECTOR('Line Direction',#1492,1.) ;
#1501=VECTOR('Line Direction',#1500,1.) ;
#1509=VECTOR('Line Direction',#1508,1.) ;
#1517=VECTOR('Line Direction',#1516,1.) ;
#1529=VECTOR('Line Direction',#1528,1.) ;
#1537=VECTOR('Line Direction',#1536,1.) ;
#1545=VECTOR('Line Direction',#1544,1.) ;
#1553=VECTOR('Line Direction',#1552,1.) ;
#1562=VECTOR('Line Direction',#1561,1.) ;
#1570=VECTOR('Line Direction',#1569,1.) ;
#1578=VECTOR('Line Direction',#1577,1.) ;
#1586=VECTOR('Line Direction',#1585,1.) ;
#1595=VECTOR('Line Direction',#1594,1.) ;
#1603=VECTOR('Line Direction',#1602,1.) ;
#1611=VECTOR('Line Direction',#1610,1.) ;
#1619=VECTOR('Line Direction',#1618,1.) ;
#1489=ADVANCED_BREP_SHAPE_REPRESENTATION('NONE',(#1488),#46) ;
#49=SHAPE_REPRESENTATION(' ',(#48),#46) ;
#253=ADVANCED_FACE('PartBody',(#90,#252),#56,.F.) ;
#284=ADVANCED_FACE('PartBody',(#283),#258,.F.) ;
#308=ADVANCED_FACE('PartBody',(#307),#289,.T.) ;
#332=ADVANCED_FACE('PartBody',(#331),#313,.F.) ;
#349=ADVANCED_FACE('PartBody',(#348),#337,.T.) ;
#380=ADVANCED_FACE('PartBody',(#379),#354,.F.) ;
#404=ADVANCED_FACE('PartBody',(#403),#385,.T.) ;
#428=ADVANCED_FACE('PartBody',(#427),#409,.T.) ;
#452=ADVANCED_FACE('PartBody',(#451),#433,.T.) ;
#476=ADVANCED_FACE('PartBody',(#475),#457,.F.) ;
#500=ADVANCED_FACE('PartBody',(#499),#481,.T.) ;
#519=ADVANCED_FACE('PartBody',(#518),#457,.F.) ;
#543=ADVANCED_FACE('PartBody',(#542),#524,.F.) ;
#567=ADVANCED_FACE('PartBody',(#566),#548,.F.) ;
#591=ADVANCED_FACE('PartBody',(#590),#572,.T.) ;
#610=ADVANCED_FACE('PartBody',(#609),#433,.T.) ;
#629=ADVANCED_FACE('PartBody',(#628),#524,.F.) ;
#653=ADVANCED_FACE('PartBody',(#652),#634,.T.) ;
#677=ADVANCED_FACE('PartBody',(#676),#658,.T.) ;
#701=ADVANCED_FACE('PartBody',(#700),#682,.T.) ;
#725=ADVANCED_FACE('PartBody',(#724),#706,.T.) ;
#749=ADVANCED_FACE('PartBody',(#748),#730,.T.) ;
#768=ADVANCED_FACE('PartBody',(#767),#658,.T.) ;
#787=ADVANCED_FACE('PartBody',(#786),#634,.T.) ;
#799=ADVANCED_FACE('PartBody',(#798),#409,.T.) ;
#839=ADVANCED_FACE('PartBody',(#838),#804,.F.) ;
#856=ADVANCED_FACE('PartBody',(#855),#804,.F.) ;
#887=ADVANCED_FACE('PartBody',(#886),#861,.F.) ;
#899=ADVANCED_FACE('PartBody',(#898),#861,.F.) ;
#939=ADVANCED_FACE('PartBody',(#938),#904,.F.) ;
#956=ADVANCED_FACE('PartBody',(#955),#904,.F.) ;
#987=ADVANCED_FACE('PartBody',(#986),#961,.F.) ;
#999=ADVANCED_FACE('PartBody',(#998),#961,.F.) ;
#1039=ADVANCED_FACE('PartBody',(#1038),#1004,.F.) ;
#1056=ADVANCED_FACE('PartBody',(#1055),#1004,.F.) ;
#1087=ADVANCED_FACE('PartBody',(#1086),#1061,.F.) ;
#1099=ADVANCED_FACE('PartBody',(#1098),#1061,.F.) ;
#1139=ADVANCED_FACE('PartBody',(#1138),#1104,.F.) ;
#1156=ADVANCED_FACE('PartBody',(#1155),#1104,.F.) ;
#1187=ADVANCED_FACE('PartBody',(#1186),#1161,.F.) ;
#1199=ADVANCED_FACE('PartBody',(#1198),#1161,.F.) ;
#1239=ADVANCED_FACE('PartBody',(#1238),#1204,.F.) ;
#1256=ADVANCED_FACE('PartBody',(#1255),#1204,.F.) ;
#1287=ADVANCED_FACE('PartBody',(#1286),#1261,.F.) ;
#1299=ADVANCED_FACE('PartBody',(#1298),#1261,.F.) ;
#1349=ADVANCED_FACE('PartBody',(#1310,#1328,#1332,#1336,#1340,#1344,#1348),#1304,.T.) ;
#1415=ADVANCED_FACE('PartBody',(#1376,#1394,#1398,#1402,#1406,#1410,#1414),#1354,.F.) ;
#1446=ADVANCED_FACE('PartBody',(#1445),#1420,.F.) ;
#1458=ADVANCED_FACE('PartBody',(#1457),#1420,.F.) ;
#1480=ADVANCED_FACE('PartBody',(#1479),#1463,.F.) ;
#1487=ADVANCED_FACE('PartBody',(#1486),#1463,.F.) ;
#4=APPLICATION_PROTOCOL_DEFINITION('international standard','config_control_design',1994,#1) ;
#32=APPROVAL_DATE_TIME(#13,#21) ;
#1488=MANIFOLD_SOLID_BREP('PartBody',#51) ;
#11=CALENDAR_DATE(2025,3,12) ;
#30=CC_DESIGN_APPROVAL(#21,(#16,#6,#14)) ;
#18=CC_DESIGN_DATE_AND_TIME_ASSIGNMENT(#13,#17,(#16)) ;
#29=CC_DESIGN_DATE_AND_TIME_ASSIGNMENT(#13,#28,(#14)) ;
#17=DATE_TIME_ROLE('classification_date') ;
#28=DATE_TIME_ROLE('creation_date') ;
#27=CC_DESIGN_PERSON_AND_ORGANIZATION_ASSIGNMENT(#25,#26,(#16)) ;
#33=CC_DESIGN_PERSON_AND_ORGANIZATION_ASSIGNMENT(#25,#34,(#6)) ;
#35=CC_DESIGN_PERSON_AND_ORGANIZATION_ASSIGNMENT(#25,#36,(#6,#14)) ;
#37=CC_DESIGN_PERSON_AND_ORGANIZATION_ASSIGNMENT(#25,#38,(#5)) ;
#26=PERSON_AND_ORGANIZATION_ROLE('classification_officer') ;
#34=PERSON_AND_ORGANIZATION_ROLE('design_supplier') ;
#36=PERSON_AND_ORGANIZATION_ROLE('creator') ;
#38=PERSON_AND_ORGANIZATION_ROLE('design_owner') ;
#39=CC_DESIGN_SECURITY_CLASSIFICATION(#16,(#6)) ;
#69=CIRCLE('generated circle',#68,9.) ;
#83=CIRCLE('generated circle',#82,9.) ;
#124=CIRCLE('generated circle',#123,7.75) ;
#180=CIRCLE('generated circle',#179,7.75) ;
#208=CIRCLE('generated circle',#207,7.75) ;
#300=CIRCLE('generated circle',#299,9.) ;
#341=CIRCLE('generated circle',#340,9.) ;
#485=CIRCLE('generated circle',#484,7.75) ;
#662=CIRCLE('generated circle',#661,7.75) ;
#753=CIRCLE('generated circle',#752,7.75) ;
#808=CIRCLE('generated circle',#807,2.933) ;
#824=CIRCLE('generated circle',#823,2.8) ;
#843=CIRCLE('generated circle',#842,2.933) ;
#848=CIRCLE('generated circle',#847,2.8) ;
#865=CIRCLE('generated circle',#864,2.8) ;
#891=CIRCLE('generated circle',#890,2.8) ;
#908=CIRCLE('generated circle',#907,2.933) ;
#924=CIRCLE('generated circle',#923,2.8) ;
#943=CIRCLE('generated circle',#942,2.933) ;
#948=CIRCLE('generated circle',#947,2.8) ;
#965=CIRCLE('generated circle',#964,2.8) ;
#991=CIRCLE('generated circle',#990,2.8) ;
#1008=CIRCLE('generated circle',#1007,2.933) ;
#1024=CIRCLE('generated circle',#1023,2.8) ;
#1043=CIRCLE('generated circle',#1042,2.933) ;
#1048=CIRCLE('generated circle',#1047,2.8) ;
#1065=CIRCLE('generated circle',#1064,2.8) ;
#1091=CIRCLE('generated circle',#1090,2.8) ;
#1108=CIRCLE('generated circle',#1107,2.933) ;
#1124=CIRCLE('generated circle',#1123,2.8) ;
#1143=CIRCLE('generated circle',#1142,2.933) ;
#1148=CIRCLE('generated circle',#1147,2.8) ;
#1165=CIRCLE('generated circle',#1164,2.8) ;
#1191=CIRCLE('generated circle',#1190,2.8) ;
#1208=CIRCLE('generated circle',#1207,2.933) ;
#1224=CIRCLE('generated circle',#1223,2.8) ;
#1243=CIRCLE('generated circle',#1242,2.933) ;
#1248=CIRCLE('generated circle',#1247,2.8) ;
#1265=CIRCLE('generated circle',#1264,2.8) ;
#1291=CIRCLE('generated circle',#1290,2.8) ;
#1314=CIRCLE('generated circle',#1313,2.8) ;
#1323=CIRCLE('generated circle',#1322,2.8) ;
#1380=CIRCLE('generated circle',#1379,2.933) ;
#1389=CIRCLE('generated circle',#1388,2.933) ;
#1431=CIRCLE('generated circle',#1430,2.8) ;
#1450=CIRCLE('generated circle',#1449,2.8) ;
#804=CONICAL_SURFACE('Cone',#803,2.8,0.785398163397) ;
#904=CONICAL_SURFACE('Cone',#903,2.8,0.785398163397) ;
#1004=CONICAL_SURFACE('Cone',#1003,2.8,0.785398163397) ;
#1104=CONICAL_SURFACE('Cone',#1103,2.8,0.785398163397) ;
#1204=CONICAL_SURFACE('Cone',#1203,2.8,0.785398163397) ;
#1420=CONICAL_SURFACE('Cone',#1419,2.8,0.785398163397) ;
#1490=SHAPE_REPRESENTATION_RELATIONSHIP(' ',' ',#49,#1489) ;
#1526=SHAPE_REPRESENTATION_RELATIONSHIP(' ',' ',#49,#1524) ;
#289=CYLINDRICAL_SURFACE('generated cylinder',#288,9.) ;
#337=CYLINDRICAL_SURFACE('generated cylinder',#336,9.) ;
#481=CYLINDRICAL_SURFACE('generated cylinder',#480,7.75) ;
#658=CYLINDRICAL_SURFACE('generated cylinder',#657,7.75) ;
#861=CYLINDRICAL_SURFACE('generated cylinder',#860,2.8) ;
#961=CYLINDRICAL_SURFACE('generated cylinder',#960,2.8) ;
#1061=CYLINDRICAL_SURFACE('generated cylinder',#1060,2.8) ;
#1161=CYLINDRICAL_SURFACE('generated cylinder',#1160,2.8) ;
#1261=CYLINDRICAL_SURFACE('generated cylinder',#1260,2.8) ;
#1463=CYLINDRICAL_SURFACE('generated cylinder',#1462,2.8) ;
#3=DESIGN_CONTEXT(' ',#1,'design') ;
#65=EDGE_CURVE('',#62,#64,#60,.F.) ;
#72=EDGE_CURVE('',#71,#62,#69,.T.) ;
#79=EDGE_CURVE('',#78,#71,#76,.F.) ;
#84=EDGE_CURVE('',#64,#78,#83,.T.) ;
#99=EDGE_CURVE('',#96,#98,#94,.F.) ;
#106=EDGE_CURVE('',#98,#105,#103,.T.) ;
#113=EDGE_CURVE('',#105,#112,#110,.F.) ;
#120=EDGE_CURVE('',#112,#119,#117,.T.) ;
#127=EDGE_CURVE('',#119,#126,#124,.T.) ;
#134=EDGE_CURVE('',#126,#133,#131,.T.) ;
#141=EDGE_CURVE('',#133,#140,#138,.T.) ;
#148=EDGE_CURVE('',#140,#147,#145,.T.) ;
#155=EDGE_CURVE('',#147,#154,#152,.F.) ;
#162=EDGE_CURVE('',#154,#161,#159,.F.) ;
#169=EDGE_CURVE('',#161,#168,#166,.T.) ;
#176=EDGE_CURVE('',#168,#175,#173,.F.) ;
#183=EDGE_CURVE('',#175,#182,#180,.T.) ;
#190=EDGE_CURVE('',#182,#189,#187,.F.) ;
#197=EDGE_CURVE('',#189,#196,#194,.F.) ;
#204=EDGE_CURVE('',#196,#203,#201,.F.) ;
#211=EDGE_CURVE('',#203,#210,#208,.T.) ;
#218=EDGE_CURVE('',#210,#217,#215,.F.) ;
#225=EDGE_CURVE('',#217,#224,#222,.T.) ;
#230=EDGE_CURVE('',#224,#96,#229,.F.) ;
#265=EDGE_CURVE('',#62,#264,#262,.T.) ;
#272=EDGE_CURVE('',#64,#271,#269,.T.) ;
#277=EDGE_CURVE('',#264,#271,#276,.F.) ;
#296=EDGE_CURVE('',#71,#295,#293,.T.) ;
#301=EDGE_CURVE('',#295,#264,#300,.T.) ;
#320=EDGE_CURVE('',#78,#319,#317,.T.) ;
#325=EDGE_CURVE('',#319,#295,#324,.F.) ;
#342=EDGE_CURVE('',#271,#319,#341,.T.) ;
#363=EDGE_CURVE('',#360,#362,#358,.T.) ;
#368=EDGE_CURVE('',#105,#362,#367,.T.) ;
#373=EDGE_CURVE('',#98,#360,#372,.T.) ;
#392=EDGE_CURVE('',#391,#360,#389,.F.) ;
#397=EDGE_CURVE('',#96,#391,#396,.T.) ;
#416=EDGE_CURVE('',#362,#415,#413,.F.) ;
#421=EDGE_CURVE('',#112,#415,#420,.T.) ;
#440=EDGE_CURVE('',#439,#391,#437,.F.) ;
#445=EDGE_CURVE('',#224,#439,#444,.T.) ;
#464=EDGE_CURVE('',#415,#463,#461,.T.) ;
#469=EDGE_CURVE('',#119,#463,#468,.T.) ;
#488=EDGE_CURVE('',#463,#487,#485,.T.) ;
#493=EDGE_CURVE('',#126,#487,#492,.F.) ;
#507=EDGE_CURVE('',#487,#506,#504,.T.) ;
#512=EDGE_CURVE('',#133,#506,#511,.T.) ;
#531=EDGE_CURVE('',#506,#530,#528,.T.) ;
#536=EDGE_CURVE('',#140,#530,#535,.T.) ;
#555=EDGE_CURVE('',#530,#554,#552,.T.) ;
#560=EDGE_CURVE('',#147,#554,#559,.T.) ;
#579=EDGE_CURVE('',#554,#578,#576,.F.) ;
#584=EDGE_CURVE('',#154,#578,#583,.T.) ;
#598=EDGE_CURVE('',#578,#597,#595,.F.) ;
#603=EDGE_CURVE('',#161,#597,#602,.T.) ;
#617=EDGE_CURVE('',#597,#616,#614,.T.) ;
#622=EDGE_CURVE('',#168,#616,#621,.T.) ;
#641=EDGE_CURVE('',#616,#640,#638,.F.) ;
#646=EDGE_CURVE('',#175,#640,#645,.T.) ;
#665=EDGE_CURVE('',#640,#664,#662,.T.) ;
#670=EDGE_CURVE('',#182,#664,#669,.F.) ;
#689=EDGE_CURVE('',#664,#688,#686,.F.) ;
#694=EDGE_CURVE('',#189,#688,#693,.T.) ;
#713=EDGE_CURVE('',#688,#712,#710,.F.) ;
#718=EDGE_CURVE('',#196,#712,#717,.T.) ;
#737=EDGE_CURVE('',#712,#736,#734,.F.) ;
#742=EDGE_CURVE('',#203,#736,#741,.T.) ;
#756=EDGE_CURVE('',#736,#755,#753,.T.) ;
#761=EDGE_CURVE('',#210,#755,#760,.F.) ;
#775=EDGE_CURVE('',#755,#774,#772,.F.) ;
#780=EDGE_CURVE('',#217,#774,#779,.T.) ;
#792=EDGE_CURVE('',#774,#439,#791,.T.) ;
#813=EDGE_CURVE('',#810,#812,#808,.F.) ;
#820=EDGE_CURVE('',#819,#810,#817,.T.) ;
#827=EDGE_CURVE('',#819,#826,#824,.F.) ;
#832=EDGE_CURVE('',#826,#812,#831,.T.) ;
#844=EDGE_CURVE('',#812,#810,#843,.F.) ;
#849=EDGE_CURVE('',#826,#819,#848,.F.) ;
#870=EDGE_CURVE('',#867,#869,#865,.T.) ;
#875=EDGE_CURVE('',#869,#826,#874,.F.) ;
#880=EDGE_CURVE('',#867,#819,#879,.F.) ;
#892=EDGE_CURVE('',#869,#867,#891,.T.) ;
#913=EDGE_CURVE('',#910,#912,#908,.F.) ;
#920=EDGE_CURVE('',#919,#910,#917,.T.) ;
#927=EDGE_CURVE('',#919,#926,#924,.F.) ;
#932=EDGE_CURVE('',#926,#912,#931,.T.) ;
#944=EDGE_CURVE('',#912,#910,#943,.F.) ;
#949=EDGE_CURVE('',#926,#919,#948,.F.) ;
#970=EDGE_CURVE('',#967,#969,#965,.T.) ;
#975=EDGE_CURVE('',#969,#926,#974,.F.) ;
#980=EDGE_CURVE('',#967,#919,#979,.F.) ;
#992=EDGE_CURVE('',#969,#967,#991,.T.) ;
#1013=EDGE_CURVE('',#1010,#1012,#1008,.F.) ;
#1020=EDGE_CURVE('',#1019,#1010,#1017,.T.) ;
#1027=EDGE_CURVE('',#1019,#1026,#1024,.F.) ;
#1032=EDGE_CURVE('',#1026,#1012,#1031,.T.) ;
#1044=EDGE_CURVE('',#1012,#1010,#1043,.F.) ;
#1049=EDGE_CURVE('',#1026,#1019,#1048,.F.) ;
#1070=EDGE_CURVE('',#1067,#1069,#1065,.T.) ;
#1075=EDGE_CURVE('',#1069,#1026,#1074,.F.) ;
#1080=EDGE_CURVE('',#1067,#1019,#1079,.F.) ;
#1092=EDGE_CURVE('',#1069,#1067,#1091,.T.) ;
#1113=EDGE_CURVE('',#1110,#1112,#1108,.F.) ;
#1120=EDGE_CURVE('',#1119,#1110,#1117,.T.) ;
#1127=EDGE_CURVE('',#1119,#1126,#1124,.F.) ;
#1132=EDGE_CURVE('',#1126,#1112,#1131,.T.) ;
#1144=EDGE_CURVE('',#1112,#1110,#1143,.F.) ;
#1149=EDGE_CURVE('',#1126,#1119,#1148,.F.) ;
#1170=EDGE_CURVE('',#1167,#1169,#1165,.T.) ;
#1175=EDGE_CURVE('',#1169,#1126,#1174,.F.) ;
#1180=EDGE_CURVE('',#1167,#1119,#1179,.F.) ;
#1192=EDGE_CURVE('',#1169,#1167,#1191,.T.) ;
#1213=EDGE_CURVE('',#1210,#1212,#1208,.F.) ;
#1220=EDGE_CURVE('',#1219,#1210,#1217,.T.) ;
#1227=EDGE_CURVE('',#1219,#1226,#1224,.F.) ;
#1232=EDGE_CURVE('',#1226,#1212,#1231,.T.) ;
#1244=EDGE_CURVE('',#1212,#1210,#1243,.F.) ;
#1249=EDGE_CURVE('',#1226,#1219,#1248,.F.) ;
#1270=EDGE_CURVE('',#1267,#1269,#1265,.T.) ;
#1275=EDGE_CURVE('',#1269,#1226,#1274,.F.) ;
#1280=EDGE_CURVE('',#1267,#1219,#1279,.F.) ;
#1292=EDGE_CURVE('',#1269,#1267,#1291,.T.) ;
#1319=EDGE_CURVE('',#1316,#1318,#1314,.T.) ;
#1324=EDGE_CURVE('',#1318,#1316,#1323,.T.) ;
#1385=EDGE_CURVE('',#1382,#1384,#1380,.T.) ;
#1390=EDGE_CURVE('',#1384,#1382,#1389,.T.) ;
#1427=EDGE_CURVE('',#1426,#1382,#1424,.T.) ;
#1434=EDGE_CURVE('',#1426,#1433,#1431,.F.) ;
#1439=EDGE_CURVE('',#1433,#1384,#1438,.T.) ;
#1451=EDGE_CURVE('',#1433,#1426,#1450,.F.) ;
#1468=EDGE_CURVE('',#1316,#1433,#1467,.F.) ;
#1473=EDGE_CURVE('',#1318,#1426,#1472,.F.) ;
#85=EDGE_LOOP('',(#86,#87,#88,#89)) ;
#231=EDGE_LOOP('',(#232,#233,#234,#235,#236,#237,#238,#239,#240,#241,#242,#243,#244,#245,#246,#247,#248,#249,#250,#251)) ;
#278=EDGE_LOOP('',(#279,#280,#281,#282)) ;
#302=EDGE_LOOP('',(#303,#304,#305,#306)) ;
#326=EDGE_LOOP('',(#327,#328,#329,#330)) ;
#343=EDGE_LOOP('',(#344,#345,#346,#347)) ;
#374=EDGE_LOOP('',(#375,#376,#377,#378)) ;
#398=EDGE_LOOP('',(#399,#400,#401,#402)) ;
#422=EDGE_LOOP('',(#423,#424,#425,#426)) ;
#446=EDGE_LOOP('',(#447,#448,#449,#450)) ;
#470=EDGE_LOOP('',(#471,#472,#473,#474)) ;
#494=EDGE_LOOP('',(#495,#496,#497,#498)) ;
#513=EDGE_LOOP('',(#514,#515,#516,#517)) ;
#537=EDGE_LOOP('',(#538,#539,#540,#541)) ;
#561=EDGE_LOOP('',(#562,#563,#564,#565)) ;
#585=EDGE_LOOP('',(#586,#587,#588,#589)) ;
#604=EDGE_LOOP('',(#605,#606,#607,#608)) ;
#623=EDGE_LOOP('',(#624,#625,#626,#627)) ;
#647=EDGE_LOOP('',(#648,#649,#650,#651)) ;
#671=EDGE_LOOP('',(#672,#673,#674,#675)) ;
#695=EDGE_LOOP('',(#696,#697,#698,#699)) ;
#719=EDGE_LOOP('',(#720,#721,#722,#723)) ;
#743=EDGE_LOOP('',(#744,#745,#746,#747)) ;
#762=EDGE_LOOP('',(#763,#764,#765,#766)) ;
#781=EDGE_LOOP('',(#782,#783,#784,#785)) ;
#793=EDGE_LOOP('',(#794,#795,#796,#797)) ;
#833=EDGE_LOOP('',(#834,#835,#836,#837)) ;
#850=EDGE_LOOP('',(#851,#852,#853,#854)) ;
#881=EDGE_LOOP('',(#882,#883,#884,#885)) ;
#893=EDGE_LOOP('',(#894,#895,#896,#897)) ;
#933=EDGE_LOOP('',(#934,#935,#936,#937)) ;
#950=EDGE_LOOP('',(#951,#952,#953,#954)) ;
#981=EDGE_LOOP('',(#982,#983,#984,#985)) ;
#993=EDGE_LOOP('',(#994,#995,#996,#997)) ;
#1033=EDGE_LOOP('',(#1034,#1035,#1036,#1037)) ;
#1050=EDGE_LOOP('',(#1051,#1052,#1053,#1054)) ;
#1081=EDGE_LOOP('',(#1082,#1083,#1084,#1085)) ;
#1093=EDGE_LOOP('',(#1094,#1095,#1096,#1097)) ;
#1133=EDGE_LOOP('',(#1134,#1135,#1136,#1137)) ;
#1150=EDGE_LOOP('',(#1151,#1152,#1153,#1154)) ;
#1181=EDGE_LOOP('',(#1182,#1183,#1184,#1185)) ;
#1193=EDGE_LOOP('',(#1194,#1195,#1196,#1197)) ;
#1233=EDGE_LOOP('',(#1234,#1235,#1236,#1237)) ;
#1250=EDGE_LOOP('',(#1251,#1252,#1253,#1254)) ;
#1281=EDGE_LOOP('',(#1282,#1283,#1284,#1285)) ;
#1293=EDGE_LOOP('',(#1294,#1295,#1296,#1297)) ;
#1305=EDGE_LOOP('',(#1306,#1307,#1308,#1309)) ;
#1325=EDGE_LOOP('',(#1326,#1327)) ;
#1329=EDGE_LOOP('',(#1330,#1331)) ;
#1333=EDGE_LOOP('',(#1334,#1335)) ;
#1337=EDGE_LOOP('',(#1338,#1339)) ;
#1341=EDGE_LOOP('',(#1342,#1343)) ;
#1345=EDGE_LOOP('',(#1346,#1347)) ;
#1355=EDGE_LOOP('',(#1356,#1357,#1358,#1359,#1360,#1361,#1362,#1363,#1364,#1365,#1366,#1367,#1368,#1369,#1370,#1371,#1372,#1373,#1374,#1375)) ;
#1391=EDGE_LOOP('',(#1392,#1393)) ;
#1395=EDGE_LOOP('',(#1396,#1397)) ;
#1399=EDGE_LOOP('',(#1400,#1401)) ;
#1403=EDGE_LOOP('',(#1404,#1405)) ;
#1407=EDGE_LOOP('',(#1408,#1409)) ;
#1411=EDGE_LOOP('',(#1412,#1413)) ;
#1440=EDGE_LOOP('',(#1441,#1442,#1443,#1444)) ;
#1452=EDGE_LOOP('',(#1453,#1454,#1455,#1456)) ;
#1474=EDGE_LOOP('',(#1475,#1476,#1477,#1478)) ;
#1481=EDGE_LOOP('',(#1482,#1483,#1484,#1485)) ;
#90=FACE_OUTER_BOUND('',#85,.T.) ;
#283=FACE_OUTER_BOUND('',#278,.T.) ;
#307=FACE_OUTER_BOUND('',#302,.T.) ;
#331=FACE_OUTER_BOUND('',#326,.T.) ;
#348=FACE_OUTER_BOUND('',#343,.T.) ;
#379=FACE_OUTER_BOUND('',#374,.T.) ;
#403=FACE_OUTER_BOUND('',#398,.T.) ;
#427=FACE_OUTER_BOUND('',#422,.T.) ;
#451=FACE_OUTER_BOUND('',#446,.T.) ;
#475=FACE_OUTER_BOUND('',#470,.T.) ;
#499=FACE_OUTER_BOUND('',#494,.T.) ;
#518=FACE_OUTER_BOUND('',#513,.T.) ;
#542=FACE_OUTER_BOUND('',#537,.T.) ;
#566=FACE_OUTER_BOUND('',#561,.T.) ;
#590=FACE_OUTER_BOUND('',#585,.T.) ;
#609=FACE_OUTER_BOUND('',#604,.T.) ;
#628=FACE_OUTER_BOUND('',#623,.T.) ;
#652=FACE_OUTER_BOUND('',#647,.T.) ;
#676=FACE_OUTER_BOUND('',#671,.T.) ;
#700=FACE_OUTER_BOUND('',#695,.T.) ;
#724=FACE_OUTER_BOUND('',#719,.T.) ;
#748=FACE_OUTER_BOUND('',#743,.T.) ;
#767=FACE_OUTER_BOUND('',#762,.T.) ;
#786=FACE_OUTER_BOUND('',#781,.T.) ;
#798=FACE_OUTER_BOUND('',#793,.T.) ;
#838=FACE_OUTER_BOUND('',#833,.T.) ;
#855=FACE_OUTER_BOUND('',#850,.T.) ;
#886=FACE_OUTER_BOUND('',#881,.T.) ;
#898=FACE_OUTER_BOUND('',#893,.T.) ;
#938=FACE_OUTER_BOUND('',#933,.T.) ;
#955=FACE_OUTER_BOUND('',#950,.T.) ;
#986=FACE_OUTER_BOUND('',#981,.T.) ;
#998=FACE_OUTER_BOUND('',#993,.T.) ;
#1038=FACE_OUTER_BOUND('',#1033,.T.) ;
#1055=FACE_OUTER_BOUND('',#1050,.T.) ;
#1086=FACE_OUTER_BOUND('',#1081,.T.) ;
#1098=FACE_OUTER_BOUND('',#1093,.T.) ;
#1138=FACE_OUTER_BOUND('',#1133,.T.) ;
#1155=FACE_OUTER_BOUND('',#1150,.T.) ;
#1186=FACE_OUTER_BOUND('',#1181,.T.) ;
#1198=FACE_OUTER_BOUND('',#1193,.T.) ;
#1238=FACE_OUTER_BOUND('',#1233,.T.) ;
#1255=FACE_OUTER_BOUND('',#1250,.T.) ;
#1286=FACE_OUTER_BOUND('',#1281,.T.) ;
#1298=FACE_OUTER_BOUND('',#1293,.T.) ;
#1310=FACE_OUTER_BOUND('',#1305,.T.) ;
#1376=FACE_OUTER_BOUND('',#1355,.T.) ;
#1445=FACE_OUTER_BOUND('',#1440,.T.) ;
#1457=FACE_OUTER_BOUND('',#1452,.T.) ;
#1479=FACE_OUTER_BOUND('',#1474,.T.) ;
#1486=FACE_OUTER_BOUND('',#1481,.T.) ;
#1525=GEOMETRIC_SET('NONE',(#1523,#1559,#1592,#1625)) ;
#1524=GEOMETRICALLY_BOUNDED_SURFACE_SHAPE_REPRESENTATION('NONE',(#1525),#46) ;
#45=UNCERTAINTY_MEASURE_WITH_UNIT(LENGTH_MEASURE(0.005),#41,'distance_accuracy_value','CONFUSED CURVE UNCERTAINTY') ;
#60=LINE('Line',#57,#59) ;
#76=LINE('Line',#73,#75) ;
#94=LINE('Line',#91,#93) ;
#103=LINE('Line',#100,#102) ;
#110=LINE('Line',#107,#109) ;
#117=LINE('Line',#114,#116) ;
#131=LINE('Line',#128,#130) ;
#138=LINE('Line',#135,#137) ;
#145=LINE('Line',#142,#144) ;
#152=LINE('Line',#149,#151) ;
#159=LINE('Line',#156,#158) ;
#166=LINE('Line',#163,#165) ;
#173=LINE('Line',#170,#172) ;
#187=LINE('Line',#184,#186) ;
#194=LINE('Line',#191,#193) ;
#201=LINE('Line',#198,#200) ;
#215=LINE('Line',#212,#214) ;
#222=LINE('Line',#219,#221) ;
#229=LINE('Line',#226,#228) ;
#262=LINE('Line',#259,#261) ;
#269=LINE('Line',#266,#268) ;
#276=LINE('Line',#273,#275) ;
#293=LINE('Line',#290,#292) ;
#317=LINE('Line',#314,#316) ;
#324=LINE('Line',#321,#323) ;
#358=LINE('Line',#355,#357) ;
#367=LINE('Line',#364,#366) ;
#372=LINE('Line',#369,#371) ;
#389=LINE('Line',#386,#388) ;
#396=LINE('Line',#393,#395) ;
#413=LINE('Line',#410,#412) ;
#420=LINE('Line',#417,#419) ;
#437=LINE('Line',#434,#436) ;
#444=LINE('Line',#441,#443) ;
#461=LINE('Line',#458,#460) ;
#468=LINE('Line',#465,#467) ;
#492=LINE('Line',#489,#491) ;
#504=LINE('Line',#501,#503) ;
#511=LINE('Line',#508,#510) ;
#528=LINE('Line',#525,#527) ;
#535=LINE('Line',#532,#534) ;
#552=LINE('Line',#549,#551) ;
#559=LINE('Line',#556,#558) ;
#576=LINE('Line',#573,#575) ;
#583=LINE('Line',#580,#582) ;
#595=LINE('Line',#592,#594) ;
#602=LINE('Line',#599,#601) ;
#614=LINE('Line',#611,#613) ;
#621=LINE('Line',#618,#620) ;
#638=LINE('Line',#635,#637) ;
#645=LINE('Line',#642,#644) ;
#669=LINE('Line',#666,#668) ;
#686=LINE('Line',#683,#685) ;
#693=LINE('Line',#690,#692) ;
#710=LINE('Line',#707,#709) ;
#717=LINE('Line',#714,#716) ;
#734=LINE('Line',#731,#733) ;
#741=LINE('Line',#738,#740) ;
#760=LINE('Line',#757,#759) ;
#772=LINE('Line',#769,#771) ;
#779=LINE('Line',#776,#778) ;
#791=LINE('Line',#788,#790) ;
#817=LINE('Line',#814,#816) ;
#831=LINE('Line',#828,#830) ;
#874=LINE('Line',#871,#873) ;
#879=LINE('Line',#876,#878) ;
#917=LINE('Line',#914,#916) ;
#931=LINE('Line',#928,#930) ;
#974=LINE('Line',#971,#973) ;
#979=LINE('Line',#976,#978) ;
#1017=LINE('Line',#1014,#1016) ;
#1031=LINE('Line',#1028,#1030) ;
#1074=LINE('Line',#1071,#1073) ;
#1079=LINE('Line',#1076,#1078) ;
#1117=LINE('Line',#1114,#1116) ;
#1131=LINE('Line',#1128,#1130) ;
#1174=LINE('Line',#1171,#1173) ;
#1179=LINE('Line',#1176,#1178) ;
#1217=LINE('Line',#1214,#1216) ;
#1231=LINE('Line',#1228,#1230) ;
#1274=LINE('Line',#1271,#1273) ;
#1279=LINE('Line',#1276,#1278) ;
#1424=LINE('Line',#1421,#1423) ;
#1438=LINE('Line',#1435,#1437) ;
#1467=LINE('Line',#1464,#1466) ;
#1472=LINE('Line',#1469,#1471) ;
#1494=LINE('Line',#1491,#1493) ;
#1502=LINE('Line',#1499,#1501) ;
#1510=LINE('Line',#1507,#1509) ;
#1518=LINE('Line',#1515,#1517) ;
#1530=LINE('Line',#1527,#1529) ;
#1538=LINE('Line',#1535,#1537) ;
#1546=LINE('Line',#1543,#1545) ;
#1554=LINE('Line',#1551,#1553) ;
#1563=LINE('Line',#1560,#1562) ;
#1571=LINE('Line',#1568,#1570) ;
#1579=LINE('Line',#1576,#1578) ;
#1587=LINE('Line',#1584,#1586) ;
#1596=LINE('Line',#1593,#1595) ;
#1604=LINE('Line',#1601,#1603) ;
#1612=LINE('Line',#1609,#1611) ;
#1620=LINE('Line',#1617,#1619) ;
#2=MECHANICAL_CONTEXT(' ',#1,'mechanical') ;
#24=PERSONAL_ADDRESS(' ',' ',' ',' ',' ',' ',' ',' ',' ',' ',' ',' ',(#22),' ') ;
#56=PLANE('Plane',#55) ;
#258=PLANE('Plane',#257) ;
#313=PLANE('Plane',#312) ;
#354=PLANE('Plane',#353) ;
#385=PLANE('Plane',#384) ;
#409=PLANE('Plane',#408) ;
#433=PLANE('Plane',#432) ;
#457=PLANE('Plane',#456) ;
#524=PLANE('Plane',#523) ;
#548=PLANE('Plane',#547) ;
#572=PLANE('Plane',#571) ;
#634=PLANE('Plane',#633) ;
#682=PLANE('Plane',#681) ;
#706=PLANE('Plane',#705) ;
#730=PLANE('Plane',#729) ;
#1304=PLANE('Plane',#1303) ;
#1354=PLANE('Plane',#1353) ;
#43=PLANE_ANGLE_MEASURE_WITH_UNIT(PLANE_ANGLE_MEASURE(0.0174532925199),#42) ;
#7=PRODUCT_CATEGORY('part',$) ;
#9=PRODUCT_CATEGORY_RELATIONSHIP(' ',' ',#7,#8) ;
#6=PRODUCT_DEFINITION_FORMATION_WITH_SPECIFIED_SOURCE('',' ',#5,.NOT_KNOWN.) ;
#8=PRODUCT_RELATED_PRODUCT_CATEGORY('detail',$,(#5)) ;
#50=SHAPE_DEFINITION_REPRESENTATION(#40,#49) ;
#1497=TRIMMED_CURVE('',#1494,(#1495),(#1496),.T.,.CARTESIAN.) ;
#1505=TRIMMED_CURVE('',#1502,(#1503),(#1504),.F.,.CARTESIAN.) ;
#1513=TRIMMED_CURVE('',#1510,(#1511),(#1512),.T.,.CARTESIAN.) ;
#1521=TRIMMED_CURVE('',#1518,(#1519),(#1520),.F.,.CARTESIAN.) ;
#1533=TRIMMED_CURVE('',#1530,(#1531),(#1532),.T.,.CARTESIAN.) ;
#1541=TRIMMED_CURVE('',#1538,(#1539),(#1540),.F.,.CARTESIAN.) ;
#1549=TRIMMED_CURVE('',#1546,(#1547),(#1548),.T.,.CARTESIAN.) ;
#1557=TRIMMED_CURVE('',#1554,(#1555),(#1556),.F.,.CARTESIAN.) ;
#1566=TRIMMED_CURVE('',#1563,(#1564),(#1565),.T.,.CARTESIAN.) ;
#1574=TRIMMED_CURVE('',#1571,(#1572),(#1573),.F.,.CARTESIAN.) ;
#1582=TRIMMED_CURVE('',#1579,(#1580),(#1581),.T.,.CARTESIAN.) ;
#1590=TRIMMED_CURVE('',#1587,(#1588),(#1589),.F.,.CARTESIAN.) ;
#1599=TRIMMED_CURVE('',#1596,(#1597),(#1598),.T.,.CARTESIAN.) ;
#1607=TRIMMED_CURVE('',#1604,(#1605),(#1606),.F.,.CARTESIAN.) ;
#1615=TRIMMED_CURVE('',#1612,(#1613),(#1614),.T.,.CARTESIAN.) ;
#1623=TRIMMED_CURVE('',#1620,(#1621),(#1622),.F.,.CARTESIAN.) ;
#62=VERTEX_POINT('',#61) ;
#64=VERTEX_POINT('',#63) ;
#71=VERTEX_POINT('',#70) ;
#78=VERTEX_POINT('',#77) ;
#96=VERTEX_POINT('',#95) ;
#98=VERTEX_POINT('',#97) ;
#105=VERTEX_POINT('',#104) ;
#112=VERTEX_POINT('',#111) ;
#119=VERTEX_POINT('',#118) ;
#126=VERTEX_POINT('',#125) ;
#133=VERTEX_POINT('',#132) ;
#140=VERTEX_POINT('',#139) ;
#147=VERTEX_POINT('',#146) ;
#154=VERTEX_POINT('',#153) ;
#161=VERTEX_POINT('',#160) ;
#168=VERTEX_POINT('',#167) ;
#175=VERTEX_POINT('',#174) ;
#182=VERTEX_POINT('',#181) ;
#189=VERTEX_POINT('',#188) ;
#196=VERTEX_POINT('',#195) ;
#203=VERTEX_POINT('',#202) ;
#210=VERTEX_POINT('',#209) ;
#217=VERTEX_POINT('',#216) ;
#224=VERTEX_POINT('',#223) ;
#264=VERTEX_POINT('',#263) ;
#271=VERTEX_POINT('',#270) ;
#295=VERTEX_POINT('',#294) ;
#319=VERTEX_POINT('',#318) ;
#360=VERTEX_POINT('',#359) ;
#362=VERTEX_POINT('',#361) ;
#391=VERTEX_POINT('',#390) ;
#415=VERTEX_POINT('',#414) ;
#439=VERTEX_POINT('',#438) ;
#463=VERTEX_POINT('',#462) ;
#487=VERTEX_POINT('',#486) ;
#506=VERTEX_POINT('',#505) ;
#530=VERTEX_POINT('',#529) ;
#554=VERTEX_POINT('',#553) ;
#578=VERTEX_POINT('',#577) ;
#597=VERTEX_POINT('',#596) ;
#616=VERTEX_POINT('',#615) ;
#640=VERTEX_POINT('',#639) ;
#664=VERTEX_POINT('',#663) ;
#688=VERTEX_POINT('',#687) ;
#712=VERTEX_POINT('',#711) ;
#736=VERTEX_POINT('',#735) ;
#755=VERTEX_POINT('',#754) ;
#774=VERTEX_POINT('',#773) ;
#810=VERTEX_POINT('',#809) ;
#812=VERTEX_POINT('',#811) ;
#819=VERTEX_POINT('',#818) ;
#826=VERTEX_POINT('',#825) ;
#867=VERTEX_POINT('',#866) ;
#869=VERTEX_POINT('',#868) ;
#910=VERTEX_POINT('',#909) ;
#912=VERTEX_POINT('',#911) ;
#919=VERTEX_POINT('',#918) ;
#926=VERTEX_POINT('',#925) ;
#967=VERTEX_POINT('',#966) ;
#969=VERTEX_POINT('',#968) ;
#1010=VERTEX_POINT('',#1009) ;
#1012=VERTEX_POINT('',#1011) ;
#1019=VERTEX_POINT('',#1018) ;
#1026=VERTEX_POINT('',#1025) ;
#1067=VERTEX_POINT('',#1066) ;
#1069=VERTEX_POINT('',#1068) ;
#1110=VERTEX_POINT('',#1109) ;
#1112=VERTEX_POINT('',#1111) ;
#1119=VERTEX_POINT('',#1118) ;
#1126=VERTEX_POINT('',#1125) ;
#1167=VERTEX_POINT('',#1166) ;
#1169=VERTEX_POINT('',#1168) ;
#1210=VERTEX_POINT('',#1209) ;
#1212=VERTEX_POINT('',#1211) ;
#1219=VERTEX_POINT('',#1218) ;
#1226=VERTEX_POINT('',#1225) ;
#1267=VERTEX_POINT('',#1266) ;
#1269=VERTEX_POINT('',#1268) ;
#1316=VERTEX_POINT('',#1315) ;
#1318=VERTEX_POINT('',#1317) ;
#1382=VERTEX_POINT('',#1381) ;
#1384=VERTEX_POINT('',#1383) ;
#1426=VERTEX_POINT('',#1425) ;
#1433=VERTEX_POINT('',#1432) ;
#41=(LENGTH_UNIT()NAMED_UNIT(*)SI_UNIT(.MILLI.,.METRE.)) ;
#42=(NAMED_UNIT(*)PLANE_ANGLE_UNIT()SI_UNIT($,.RADIAN.)) ;
#44=(NAMED_UNIT(*)SI_UNIT($,.STERADIAN.)SOLID_ANGLE_UNIT()) ;
#46=(GEOMETRIC_REPRESENTATION_CONTEXT(3)GLOBAL_UNCERTAINTY_ASSIGNED_CONTEXT((#45))GLOBAL_UNIT_ASSIGNED_CONTEXT((#41,#42,#44))REPRESENTATION_CONTEXT(' ',' ')) ;
ENDSEC;
END-ISO-10303-21;
