ISO-10303-21;
HEADER;
FILE_DESCRIPTION(('CATIA V5 STEP Exchange'),'2;1');

FILE_NAME('D:\\Users\\Barry\\14_Spindle_Load_Monitor\\02_CAD\\STEP\\sensor_final\\LCD_Spacer.stp','2025-12-03T08:04:45+00:00',('none'),('none'),'CATIA Version 5 Release 18 GA (IN-10)','CATIA V5 STEP AP203','none');

FILE_SCHEMA(('CONFIG_CONTROL_DESIGN'));

ENDSEC;
/* file written by CATIA V5R18 */
DATA;
#5=PRODUCT('LCD_Spacer','','',(#2)) ;
#1=APPLICATION_CONTEXT('configuration controlled 3D design of mechanical parts and assemblies') ;
#14=PRODUCT_DEFINITION(' ',' ',#6,#3) ;
#16=SECURITY_CLASSIFICATION(' ',' ',#15) ;
#15=SECURITY_CLASSIFICATION_LEVEL('unclassified') ;
#47=CARTESIAN_POINT(' ',(0.,0.,0.)) ;
#52=CARTESIAN_POINT('Axis2P3D Location',(-442.676264775,23.9081642149,-0.70491540359)) ;
#57=CARTESIAN_POINT('Line Origine',(-441.021522256,24.2978143125,-0.70491540359)) ;
#61=CARTESIAN_POINT('Vertex',(-441.021522256,24.2978143125,0.0950845964097)) ;
#63=CARTESIAN_POINT('Vertex',(-441.021522256,24.2978143125,-1.50491540359)) ;
#66=CARTESIAN_POINT('Axis2P3D Location',(-442.676264775,23.9081642149,0.0950845964097)) ;
#70=CARTESIAN_POINT('Vertex',(-444.331007293,23.5185141174,0.0950845964097)) ;
#73=CARTESIAN_POINT('Line Origine',(-444.331007293,23.5185141174,-0.70491540359)) ;
#77=CARTESIAN_POINT('Vertex',(-444.331007293,23.5185141174,-1.50491540359)) ;
#80=CARTESIAN_POINT('Axis2P3D Location',(-442.676264775,23.9081642149,-1.50491540359)) ;
#92=CARTESIAN_POINT('Axis2P3D Location',(-442.676264775,23.9081642149,0.0950845964097)) ;
#97=CARTESIAN_POINT('Axis2P3D Location',(-442.676264775,23.9081642149,-1.50491540359)) ;
#109=CARTESIAN_POINT('Axis2P3D Location',(-2.7432161168E-030,-8.83697900902E-017,-1.50491540359)) ;
#119=CARTESIAN_POINT('Axis2P3D Location',(-473.529747888,23.9209873198,-0.70491540359)) ;
#124=CARTESIAN_POINT('Line Origine',(-473.312414785,25.6070378298,-0.70491540359)) ;
#128=CARTESIAN_POINT('Vertex',(-473.312414785,25.6070378298,0.0950845964097)) ;
#130=CARTESIAN_POINT('Vertex',(-473.312414785,25.6070378298,-1.50491540359)) ;
#133=CARTESIAN_POINT('Axis2P3D Location',(-473.529747888,23.9209873198,0.0950845964097)) ;
#137=CARTESIAN_POINT('Vertex',(-473.312414785,22.2349368098,0.0950845964097)) ;
#140=CARTESIAN_POINT('Line Origine',(-473.312414785,22.2349368098,-0.70491540359)) ;
#144=CARTESIAN_POINT('Vertex',(-473.312414785,22.2349368098,-1.50491540359)) ;
#147=CARTESIAN_POINT('Axis2P3D Location',(-473.529747888,23.9209873198,-1.50491540359)) ;
#159=CARTESIAN_POINT('Line Origine',(-473.312414785,23.9209873198,-1.50491540359)) ;
#169=CARTESIAN_POINT('Axis2P3D Location',(-473.312414785,9.83296487754,2.59508459641)) ;
#174=CARTESIAN_POINT('Line Origine',(-439.312414785,9.83296487754,1.34508459641)) ;
#178=CARTESIAN_POINT('Vertex',(-439.312414785,9.83296487754,2.59508459641)) ;
#180=CARTESIAN_POINT('Vertex',(-439.312414785,9.83296487754,0.0950845964097)) ;
#183=CARTESIAN_POINT('Line Origine',(-456.312414785,9.83296487754,2.59508459641)) ;
#187=CARTESIAN_POINT('Vertex',(-473.312414785,9.83296487754,2.59508459641)) ;
#190=CARTESIAN_POINT('Line Origine',(-473.312414785,9.83296487754,1.34508459641)) ;
#194=CARTESIAN_POINT('Vertex',(-473.312414785,9.83296487754,0.0950845964097)) ;
#197=CARTESIAN_POINT('Line Origine',(-456.312414785,9.83296487754,0.0950845964097)) ;
#209=CARTESIAN_POINT('Axis2P3D Location',(-439.312414785,26.8329648775,2.59508459641)) ;
#214=CARTESIAN_POINT('Line Origine',(-473.312414785,26.8329648775,1.34508459641)) ;
#218=CARTESIAN_POINT('Vertex',(-473.312414785,26.8329648775,2.59508459641)) ;
#220=CARTESIAN_POINT('Vertex',(-473.312414785,26.8329648775,0.0950845964097)) ;
#223=CARTESIAN_POINT('Line Origine',(-456.312414785,26.8329648775,2.59508459641)) ;
#227=CARTESIAN_POINT('Vertex',(-439.312414785,26.8329648775,2.59508459641)) ;
#230=CARTESIAN_POINT('Line Origine',(-439.312414785,26.8329648775,1.34508459641)) ;
#234=CARTESIAN_POINT('Vertex',(-439.312414785,26.8329648775,0.0950845964097)) ;
#237=CARTESIAN_POINT('Line Origine',(-456.312414785,26.8329648775,0.0950845964097)) ;
#249=CARTESIAN_POINT('Axis2P3D Location',(-4.55709355864E-030,-1.46801923017E-016,0.0950845964097)) ;
#254=CARTESIAN_POINT('Line Origine',(-473.312414785,26.2200013537,0.0950845964097)) ;
#259=CARTESIAN_POINT('Line Origine',(-439.312414785,18.3329648775,0.0950845964097)) ;
#264=CARTESIAN_POINT('Line Origine',(-473.312414785,16.0339508437,0.0950845964097)) ;
#277=CARTESIAN_POINT('Line Origine',(-457.812414785,13.8329648775,0.0950845964097)) ;
#281=CARTESIAN_POINT('Vertex',(-446.312414785,13.8329648775,0.0950845964097)) ;
#283=CARTESIAN_POINT('Vertex',(-469.312414785,13.8329648775,0.0950845964097)) ;
#286=CARTESIAN_POINT('Line Origine',(-446.312414785,18.3329648775,0.0950845964097)) ;
#290=CARTESIAN_POINT('Vertex',(-446.312414785,22.8329648775,0.0950845964097)) ;
#293=CARTESIAN_POINT('Line Origine',(-457.812414785,22.8329648775,0.0950845964097)) ;
#297=CARTESIAN_POINT('Vertex',(-469.312414785,22.8329648775,0.0950845964097)) ;
#300=CARTESIAN_POINT('Line Origine',(-469.312414785,18.3329648775,0.0950845964097)) ;
#316=CARTESIAN_POINT('Axis2P3D Location',(-439.312414785,26.8329648775,2.59508459641)) ;
#321=CARTESIAN_POINT('Line Origine',(-439.312414785,18.3329648775,2.59508459641)) ;
#333=CARTESIAN_POINT('Axis2P3D Location',(-469.312414785,13.8329648775,2.59508459641)) ;
#338=CARTESIAN_POINT('Line Origine',(-469.312414785,13.8329648775,1.34508459641)) ;
#342=CARTESIAN_POINT('Vertex',(-469.312414785,13.8329648775,2.59508459641)) ;
#345=CARTESIAN_POINT('Line Origine',(-457.812414785,13.8329648775,2.59508459641)) ;
#349=CARTESIAN_POINT('Vertex',(-446.312414785,13.8329648775,2.59508459641)) ;
#352=CARTESIAN_POINT('Line Origine',(-446.312414785,13.8329648775,1.34508459641)) ;
#364=CARTESIAN_POINT('Axis2P3D Location',(-446.312414785,22.8329648775,2.59508459641)) ;
#369=CARTESIAN_POINT('Line Origine',(-446.312414785,18.3329648775,2.59508459641)) ;
#373=CARTESIAN_POINT('Vertex',(-446.312414785,22.8329648775,2.59508459641)) ;
#376=CARTESIAN_POINT('Line Origine',(-446.312414785,22.8329648775,1.34508459641)) ;
#388=CARTESIAN_POINT('Axis2P3D Location',(-446.312414785,22.8329648775,2.59508459641)) ;
#393=CARTESIAN_POINT('Line Origine',(-457.812414785,22.8329648775,2.59508459641)) ;
#397=CARTESIAN_POINT('Vertex',(-469.312414785,22.8329648775,2.59508459641)) ;
#400=CARTESIAN_POINT('Line Origine',(-469.312414785,22.8329648775,1.34508459641)) ;
#412=CARTESIAN_POINT('Axis2P3D Location',(-469.312414785,13.8329648775,2.59508459641)) ;
#417=CARTESIAN_POINT('Line Origine',(-469.312414785,18.3329648775,2.59508459641)) ;
#429=CARTESIAN_POINT('Axis2P3D Location',(-473.312414785,9.83296487754,2.59508459641)) ;
#434=CARTESIAN_POINT('Line Origine',(-473.312414785,20.0829648775,2.59508459641)) ;
#438=CARTESIAN_POINT('Vertex',(-473.312414785,13.3329648775,2.59508459641)) ;
#441=CARTESIAN_POINT('Line Origine',(-473.312414785,10.5829648775,2.59508459641)) ;
#445=CARTESIAN_POINT('Vertex',(-473.312414785,11.3329648775,2.59508459641)) ;
#448=CARTESIAN_POINT('Line Origine',(-473.312414785,11.3329648775,2.54508459641)) ;
#452=CARTESIAN_POINT('Vertex',(-473.312414785,11.3329648775,2.49508459641)) ;
#455=CARTESIAN_POINT('Line Origine',(-473.312414785,12.3329648775,2.49508459641)) ;
#459=CARTESIAN_POINT('Vertex',(-473.312414785,13.3329648775,2.49508459641)) ;
#462=CARTESIAN_POINT('Line Origine',(-473.312414785,13.3329648775,2.54508459641)) ;
#482=CARTESIAN_POINT('Axis2P3D Location',(7.29007651533E-046,2.34842062737E-032,2.59508459641)) ;
#487=CARTESIAN_POINT('Axis2P3D Location',(-473.312414785,12.3329648775,2.59508459641)) ;
#491=CARTESIAN_POINT('Vertex',(-472.312414785,12.3329648775,2.59508459641)) ;
#494=CARTESIAN_POINT('Axis2P3D Location',(-473.312414785,12.3329648775,2.59508459641)) ;
#514=CARTESIAN_POINT('Axis2P3D Location',(-442.312414785,12.3329648775,2.59508459641)) ;
#518=CARTESIAN_POINT('Vertex',(-443.312414785,12.3329648775,2.59508459641)) ;
#520=CARTESIAN_POINT('Vertex',(-441.312414785,12.3329648775,2.59508459641)) ;
#523=CARTESIAN_POINT('Axis2P3D Location',(-442.312414785,12.3329648775,2.59508459641)) ;
#533=CARTESIAN_POINT('Axis2P3D Location',(-442.312414785,12.3329648775,2.54508459641)) ;
#538=CARTESIAN_POINT('Line Origine',(-441.312414785,12.3329648775,2.54508459641)) ;
#542=CARTESIAN_POINT('Vertex',(-441.312414785,12.3329648775,2.49508459641)) ;
#545=CARTESIAN_POINT('Line Origine',(-443.312414785,12.3329648775,2.54508459641)) ;
#549=CARTESIAN_POINT('Vertex',(-443.312414785,12.3329648775,2.49508459641)) ;
#552=CARTESIAN_POINT('Axis2P3D Location',(-442.312414785,12.3329648775,2.49508459641)) ;
#564=CARTESIAN_POINT('Axis2P3D Location',(-442.312414785,12.3329648775,2.49508459641)) ;
#576=CARTESIAN_POINT('Axis2P3D Location',(4.54813357702E-030,1.46513286738E-016,2.49508459641)) ;
#586=CARTESIAN_POINT('Axis2P3D Location',(-473.312414785,12.3329648775,2.49508459641)) ;
#590=CARTESIAN_POINT('Vertex',(-472.312414785,12.3329648775,2.49508459641)) ;
#593=CARTESIAN_POINT('Axis2P3D Location',(-473.312414785,12.3329648775,2.49508459641)) ;
#604=CARTESIAN_POINT('Axis2P3D Location',(-473.312414785,12.3329648775,2.54508459641)) ;
#609=CARTESIAN_POINT('Line Origine',(-472.312414785,12.3329648775,2.54508459641)) ;
#53=DIRECTION('Axis2P3D Direction',(-1.82283742345E-030,-5.87207692069E-017,-1.)) ;
#54=DIRECTION('Axis2P3D XDirection',(0.973377951869,0.229205939747,-1.34591490887E-017)) ;
#58=DIRECTION('Vector Direction',(0.,0.,-1.)) ;
#67=DIRECTION('Axis2P3D Direction',(-1.82283742345E-030,-5.87207692069E-017,-1.)) ;
#74=DIRECTION('Vector Direction',(0.,0.,-1.)) ;
#81=DIRECTION('Axis2P3D Direction',(-1.82283742345E-030,-5.87207692069E-017,-1.)) ;
#93=DIRECTION('Axis2P3D Direction',(-1.82283742345E-030,-5.87207692069E-017,-1.)) ;
#98=DIRECTION('Axis2P3D Direction',(-1.82283742345E-030,-5.87207692069E-017,-1.)) ;
#110=DIRECTION('Axis2P3D Direction',(-1.82283742345E-030,-5.87207692069E-017,-1.)) ;
#111=DIRECTION('Axis2P3D XDirection',(1.,-1.07038415644E-046,-1.82283742345E-030)) ;
#120=DIRECTION('Axis2P3D Direction',(-1.82283742345E-030,-5.87207692069E-017,-1.)) ;
#121=DIRECTION('Axis2P3D XDirection',(0.127843001714,0.991794417666,-5.82389311005E-017)) ;
#125=DIRECTION('Vector Direction',(0.,0.,-1.)) ;
#134=DIRECTION('Axis2P3D Direction',(-1.82283742345E-030,-5.87207692069E-017,-1.)) ;
#141=DIRECTION('Vector Direction',(0.,0.,-1.)) ;
#148=DIRECTION('Axis2P3D Direction',(-1.82283742345E-030,-5.87207692069E-017,-1.)) ;
#160=DIRECTION('Vector Direction',(0.,1.,-6.58475542707E-017)) ;
#170=DIRECTION('Axis2P3D Direction',(0.,1.,-5.87207692069E-017)) ;
#171=DIRECTION('Axis2P3D XDirection',(1.,-1.07038415644E-046,-1.82283742345E-030)) ;
#175=DIRECTION('Vector Direction',(0.,0.,-1.)) ;
#184=DIRECTION('Vector Direction',(1.,0.,0.)) ;
#191=DIRECTION('Vector Direction',(0.,0.,-1.)) ;
#198=DIRECTION('Vector Direction',(1.,0.,0.)) ;
#210=DIRECTION('Axis2P3D Direction',(0.,-1.,5.87207692069E-017)) ;
#211=DIRECTION('Axis2P3D XDirection',(-1.,1.07038415644E-046,1.82283742345E-030)) ;
#215=DIRECTION('Vector Direction',(0.,0.,-1.)) ;
#224=DIRECTION('Vector Direction',(-1.,0.,0.)) ;
#231=DIRECTION('Vector Direction',(0.,0.,-1.)) ;
#238=DIRECTION('Vector Direction',(-1.,0.,0.)) ;
#250=DIRECTION('Axis2P3D Direction',(-1.82283742345E-030,-5.87207692069E-017,-1.)) ;
#251=DIRECTION('Axis2P3D XDirection',(1.,-1.07038415644E-046,-1.82283742345E-030)) ;
#255=DIRECTION('Vector Direction',(0.,1.,-6.7921437089E-017)) ;
#260=DIRECTION('Vector Direction',(0.,-1.,5.87765130684E-017)) ;
#265=DIRECTION('Vector Direction',(0.,1.,-5.81879212395E-017)) ;
#278=DIRECTION('Vector Direction',(1.,0.,0.)) ;
#287=DIRECTION('Vector Direction',(0.,-1.,5.85951040774E-017)) ;
#294=DIRECTION('Vector Direction',(-1.,0.,0.)) ;
#301=DIRECTION('Vector Direction',(0.,1.,-5.85951040774E-017)) ;
#317=DIRECTION('Axis2P3D Direction',(1.,-1.07038415644E-046,-1.82283742345E-030)) ;
#318=DIRECTION('Axis2P3D XDirection',(0.,-1.,5.87207692069E-017)) ;
#322=DIRECTION('Vector Direction',(0.,-1.,5.22457893941E-017)) ;
#334=DIRECTION('Axis2P3D Direction',(0.,1.,-5.87207692069E-017)) ;
#335=DIRECTION('Axis2P3D XDirection',(1.,-1.07038415644E-046,-1.82283742345E-030)) ;
#339=DIRECTION('Vector Direction',(0.,0.,-1.)) ;
#346=DIRECTION('Vector Direction',(1.,0.,0.)) ;
#353=DIRECTION('Vector Direction',(0.,0.,-1.)) ;
#365=DIRECTION('Axis2P3D Direction',(1.,-1.07038415644E-046,-1.82283742345E-030)) ;
#366=DIRECTION('Axis2P3D XDirection',(0.,-1.,5.87207692069E-017)) ;
#370=DIRECTION('Vector Direction',(0.,-1.,4.93432455389E-017)) ;
#377=DIRECTION('Vector Direction',(0.,0.,-1.)) ;
#389=DIRECTION('Axis2P3D Direction',(0.,-1.,5.87207692069E-017)) ;
#390=DIRECTION('Axis2P3D XDirection',(-1.,1.07038415644E-046,1.82283742345E-030)) ;
#394=DIRECTION('Vector Direction',(-1.,0.,0.)) ;
#401=DIRECTION('Vector Direction',(0.,0.,-1.)) ;
#413=DIRECTION('Axis2P3D Direction',(-1.,1.07038415644E-046,1.82283742345E-030)) ;
#414=DIRECTION('Axis2P3D XDirection',(0.,1.,-5.87207692069E-017)) ;
#418=DIRECTION('Vector Direction',(0.,1.,-4.93432455389E-017)) ;
#430=DIRECTION('Axis2P3D Direction',(-1.,1.07038415644E-046,1.82283742345E-030)) ;
#431=DIRECTION('Axis2P3D XDirection',(0.,1.,-5.87207692069E-017)) ;
#435=DIRECTION('Vector Direction',(0.,1.,-6.57909940519E-017)) ;
#442=DIRECTION('Vector Direction',(0.,1.,0.)) ;
#449=DIRECTION('Vector Direction',(0.,0.,-1.)) ;
#456=DIRECTION('Vector Direction',(0.,-1.,2.22044604925E-016)) ;
#463=DIRECTION('Vector Direction',(0.,0.,-1.)) ;
#483=DIRECTION('Axis2P3D Direction',(-1.82283742345E-030,-5.87207692069E-017,-1.)) ;
#484=DIRECTION('Axis2P3D XDirection',(1.,-1.07038415644E-046,-1.82283742345E-030)) ;
#488=DIRECTION('Axis2P3D Direction',(-1.82283742345E-030,-5.87207692069E-017,-1.)) ;
#495=DIRECTION('Axis2P3D Direction',(-1.82283742345E-030,-5.87207692069E-017,-1.)) ;
#515=DIRECTION('Axis2P3D Direction',(-1.82283742345E-030,-5.87207692069E-017,-1.)) ;
#524=DIRECTION('Axis2P3D Direction',(-1.82283742345E-030,-5.87207692069E-017,-1.)) ;
#534=DIRECTION('Axis2P3D Direction',(1.82283742345E-030,5.87207692069E-017,1.)) ;
#535=DIRECTION('Axis2P3D XDirection',(1.,1.82283742345E-030,-1.82283742345E-030)) ;
#539=DIRECTION('Vector Direction',(0.,0.,1.)) ;
#546=DIRECTION('Vector Direction',(0.,0.,1.)) ;
#553=DIRECTION('Axis2P3D Direction',(1.82283742345E-030,5.87207692069E-017,1.)) ;
#565=DIRECTION('Axis2P3D Direction',(1.82283742345E-030,5.87207692069E-017,1.)) ;
#577=DIRECTION('Axis2P3D Direction',(1.82283742345E-030,5.87207692069E-017,1.)) ;
#578=DIRECTION('Axis2P3D XDirection',(1.,-1.07038415644E-046,-1.82283742345E-030)) ;
#587=DIRECTION('Axis2P3D Direction',(1.82283742345E-030,5.87207692069E-017,1.)) ;
#594=DIRECTION('Axis2P3D Direction',(1.82283742345E-030,5.87207692069E-017,1.)) ;
#605=DIRECTION('Axis2P3D Direction',(1.82283742345E-030,5.87207692069E-017,1.)) ;
#606=DIRECTION('Axis2P3D XDirection',(1.,1.82283742345E-030,-1.82283742345E-030)) ;
#610=DIRECTION('Vector Direction',(0.,0.,1.)) ;
#48=AXIS2_PLACEMENT_3D(' ',#47,$,$) ;
#55=AXIS2_PLACEMENT_3D('Cylinder Axis2P3D',#52,#53,#54) ;
#68=AXIS2_PLACEMENT_3D('Circle Axis2P3D',#66,#67,$) ;
#82=AXIS2_PLACEMENT_3D('Circle Axis2P3D',#80,#81,$) ;
#94=AXIS2_PLACEMENT_3D('Circle Axis2P3D',#92,#93,$) ;
#99=AXIS2_PLACEMENT_3D('Circle Axis2P3D',#97,#98,$) ;
#112=AXIS2_PLACEMENT_3D('Plane Axis2P3D',#109,#110,#111) ;
#122=AXIS2_PLACEMENT_3D('Cylinder Axis2P3D',#119,#120,#121) ;
#135=AXIS2_PLACEMENT_3D('Circle Axis2P3D',#133,#134,$) ;
#149=AXIS2_PLACEMENT_3D('Circle Axis2P3D',#147,#148,$) ;
#172=AXIS2_PLACEMENT_3D('Plane Axis2P3D',#169,#170,#171) ;
#212=AXIS2_PLACEMENT_3D('Plane Axis2P3D',#209,#210,#211) ;
#252=AXIS2_PLACEMENT_3D('Plane Axis2P3D',#249,#250,#251) ;
#319=AXIS2_PLACEMENT_3D('Plane Axis2P3D',#316,#317,#318) ;
#336=AXIS2_PLACEMENT_3D('Plane Axis2P3D',#333,#334,#335) ;
#367=AXIS2_PLACEMENT_3D('Plane Axis2P3D',#364,#365,#366) ;
#391=AXIS2_PLACEMENT_3D('Plane Axis2P3D',#388,#389,#390) ;
#415=AXIS2_PLACEMENT_3D('Plane Axis2P3D',#412,#413,#414) ;
#432=AXIS2_PLACEMENT_3D('Plane Axis2P3D',#429,#430,#431) ;
#485=AXIS2_PLACEMENT_3D('Plane Axis2P3D',#482,#483,#484) ;
#489=AXIS2_PLACEMENT_3D('Circle Axis2P3D',#487,#488,$) ;
#496=AXIS2_PLACEMENT_3D('Circle Axis2P3D',#494,#495,$) ;
#516=AXIS2_PLACEMENT_3D('Circle Axis2P3D',#514,#515,$) ;
#525=AXIS2_PLACEMENT_3D('Circle Axis2P3D',#523,#524,$) ;
#536=AXIS2_PLACEMENT_3D('Cylinder Axis2P3D',#533,#534,#535) ;
#554=AXIS2_PLACEMENT_3D('Circle Axis2P3D',#552,#553,$) ;
#566=AXIS2_PLACEMENT_3D('Circle Axis2P3D',#564,#565,$) ;
#579=AXIS2_PLACEMENT_3D('Plane Axis2P3D',#576,#577,#578) ;
#588=AXIS2_PLACEMENT_3D('Circle Axis2P3D',#586,#587,$) ;
#595=AXIS2_PLACEMENT_3D('Circle Axis2P3D',#593,#594,$) ;
#607=AXIS2_PLACEMENT_3D('Cylinder Axis2P3D',#604,#605,#606) ;
#40=PRODUCT_DEFINITION_SHAPE(' ',' ',#14) ;
#31=APPROVAL_PERSON_ORGANIZATION(#25,#21,#19) ;
#25=PERSON_AND_ORGANIZATION(#22,#23) ;
#22=PERSON(' ',' ',' ',$,$,$) ;
#23=ORGANIZATION(' ',' ',' ') ;
#21=APPROVAL(#20,' ') ;
#20=APPROVAL_STATUS('not_yet_approved') ;
#19=APPROVAL_ROLE('APPROVER') ;
#13=DATE_AND_TIME(#11,#12) ;
#12=LOCAL_TIME(8,4,45.,#10) ;
#10=COORDINATED_UNIVERSAL_TIME_OFFSET(0,0,.AHEAD.) ;
#86=ORIENTED_EDGE('',*,*,#65,.F.) ;
#87=ORIENTED_EDGE('',*,*,#72,.T.) ;
#88=ORIENTED_EDGE('',*,*,#79,.T.) ;
#89=ORIENTED_EDGE('',*,*,#84,.F.) ;
#103=ORIENTED_EDGE('',*,*,#79,.F.) ;
#104=ORIENTED_EDGE('',*,*,#96,.T.) ;
#105=ORIENTED_EDGE('',*,*,#65,.T.) ;
#106=ORIENTED_EDGE('',*,*,#101,.F.) ;
#115=ORIENTED_EDGE('',*,*,#84,.T.) ;
#116=ORIENTED_EDGE('',*,*,#101,.T.) ;
#153=ORIENTED_EDGE('',*,*,#132,.F.) ;
#154=ORIENTED_EDGE('',*,*,#139,.T.) ;
#155=ORIENTED_EDGE('',*,*,#146,.T.) ;
#156=ORIENTED_EDGE('',*,*,#151,.F.) ;
#165=ORIENTED_EDGE('',*,*,#163,.T.) ;
#166=ORIENTED_EDGE('',*,*,#151,.T.) ;
#203=ORIENTED_EDGE('',*,*,#182,.F.) ;
#204=ORIENTED_EDGE('',*,*,#189,.T.) ;
#205=ORIENTED_EDGE('',*,*,#196,.T.) ;
#206=ORIENTED_EDGE('',*,*,#201,.F.) ;
#243=ORIENTED_EDGE('',*,*,#222,.F.) ;
#244=ORIENTED_EDGE('',*,*,#229,.T.) ;
#245=ORIENTED_EDGE('',*,*,#236,.T.) ;
#246=ORIENTED_EDGE('',*,*,#241,.F.) ;
#270=ORIENTED_EDGE('',*,*,#258,.T.) ;
#271=ORIENTED_EDGE('',*,*,#241,.T.) ;
#272=ORIENTED_EDGE('',*,*,#263,.T.) ;
#273=ORIENTED_EDGE('',*,*,#201,.T.) ;
#274=ORIENTED_EDGE('',*,*,#268,.T.) ;
#275=ORIENTED_EDGE('',*,*,#139,.F.) ;
#306=ORIENTED_EDGE('',*,*,#285,.F.) ;
#307=ORIENTED_EDGE('',*,*,#292,.F.) ;
#308=ORIENTED_EDGE('',*,*,#299,.F.) ;
#309=ORIENTED_EDGE('',*,*,#304,.F.) ;
#312=ORIENTED_EDGE('',*,*,#72,.F.) ;
#313=ORIENTED_EDGE('',*,*,#96,.F.) ;
#327=ORIENTED_EDGE('',*,*,#236,.F.) ;
#328=ORIENTED_EDGE('',*,*,#325,.T.) ;
#329=ORIENTED_EDGE('',*,*,#182,.T.) ;
#330=ORIENTED_EDGE('',*,*,#263,.F.) ;
#358=ORIENTED_EDGE('',*,*,#285,.T.) ;
#359=ORIENTED_EDGE('',*,*,#344,.F.) ;
#360=ORIENTED_EDGE('',*,*,#351,.F.) ;
#361=ORIENTED_EDGE('',*,*,#356,.T.) ;
#382=ORIENTED_EDGE('',*,*,#292,.T.) ;
#383=ORIENTED_EDGE('',*,*,#356,.F.) ;
#384=ORIENTED_EDGE('',*,*,#375,.F.) ;
#385=ORIENTED_EDGE('',*,*,#380,.T.) ;
#406=ORIENTED_EDGE('',*,*,#299,.T.) ;
#407=ORIENTED_EDGE('',*,*,#380,.F.) ;
#408=ORIENTED_EDGE('',*,*,#399,.F.) ;
#409=ORIENTED_EDGE('',*,*,#404,.T.) ;
#423=ORIENTED_EDGE('',*,*,#304,.T.) ;
#424=ORIENTED_EDGE('',*,*,#404,.F.) ;
#425=ORIENTED_EDGE('',*,*,#421,.F.) ;
#426=ORIENTED_EDGE('',*,*,#344,.T.) ;
#468=ORIENTED_EDGE('',*,*,#440,.T.) ;
#469=ORIENTED_EDGE('',*,*,#222,.T.) ;
#470=ORIENTED_EDGE('',*,*,#258,.F.) ;
#471=ORIENTED_EDGE('',*,*,#132,.T.) ;
#472=ORIENTED_EDGE('',*,*,#163,.F.) ;
#473=ORIENTED_EDGE('',*,*,#146,.F.) ;
#474=ORIENTED_EDGE('',*,*,#268,.F.) ;
#475=ORIENTED_EDGE('',*,*,#196,.F.) ;
#476=ORIENTED_EDGE('',*,*,#447,.T.) ;
#477=ORIENTED_EDGE('',*,*,#454,.T.) ;
#478=ORIENTED_EDGE('',*,*,#461,.F.) ;
#479=ORIENTED_EDGE('',*,*,#466,.F.) ;
#500=ORIENTED_EDGE('',*,*,#493,.F.) ;
#501=ORIENTED_EDGE('',*,*,#498,.F.) ;
#502=ORIENTED_EDGE('',*,*,#447,.F.) ;
#503=ORIENTED_EDGE('',*,*,#189,.F.) ;
#504=ORIENTED_EDGE('',*,*,#325,.F.) ;
#505=ORIENTED_EDGE('',*,*,#229,.F.) ;
#506=ORIENTED_EDGE('',*,*,#440,.F.) ;
#509=ORIENTED_EDGE('',*,*,#421,.T.) ;
#510=ORIENTED_EDGE('',*,*,#399,.T.) ;
#511=ORIENTED_EDGE('',*,*,#375,.T.) ;
#512=ORIENTED_EDGE('',*,*,#351,.T.) ;
#529=ORIENTED_EDGE('',*,*,#522,.F.) ;
#530=ORIENTED_EDGE('',*,*,#527,.F.) ;
#558=ORIENTED_EDGE('',*,*,#544,.F.) ;
#559=ORIENTED_EDGE('',*,*,#527,.T.) ;
#560=ORIENTED_EDGE('',*,*,#551,.T.) ;
#561=ORIENTED_EDGE('',*,*,#556,.F.) ;
#570=ORIENTED_EDGE('',*,*,#551,.F.) ;
#571=ORIENTED_EDGE('',*,*,#522,.T.) ;
#572=ORIENTED_EDGE('',*,*,#544,.T.) ;
#573=ORIENTED_EDGE('',*,*,#568,.F.) ;
#582=ORIENTED_EDGE('',*,*,#556,.T.) ;
#583=ORIENTED_EDGE('',*,*,#568,.T.) ;
#599=ORIENTED_EDGE('',*,*,#592,.T.) ;
#600=ORIENTED_EDGE('',*,*,#597,.T.) ;
#601=ORIENTED_EDGE('',*,*,#461,.T.) ;
#615=ORIENTED_EDGE('',*,*,#454,.F.) ;
#616=ORIENTED_EDGE('',*,*,#498,.T.) ;
#617=ORIENTED_EDGE('',*,*,#613,.T.) ;
#618=ORIENTED_EDGE('',*,*,#592,.F.) ;
#622=ORIENTED_EDGE('',*,*,#466,.T.) ;
#623=ORIENTED_EDGE('',*,*,#597,.F.) ;
#624=ORIENTED_EDGE('',*,*,#613,.F.) ;
#625=ORIENTED_EDGE('',*,*,#493,.T.) ;
#310=FACE_BOUND('',#305,.T.) ;
#314=FACE_BOUND('',#311,.T.) ;
#513=FACE_BOUND('',#508,.T.) ;
#531=FACE_BOUND('',#528,.T.) ;
#51=CLOSED_SHELL('Closed Shell',(#91,#108,#118,#158,#168,#208,#248,#315,#332,#363,#387,#411,#428,#481,#532,#563,#575,#585,#603,#620,#627)) ;
#59=VECTOR('Line Direction',#58,1.) ;
#75=VECTOR('Line Direction',#74,1.) ;
#126=VECTOR('Line Direction',#125,1.) ;
#142=VECTOR('Line Direction',#141,1.) ;
#161=VECTOR('Line Direction',#160,1.) ;
#176=VECTOR('Line Direction',#175,1.) ;
#185=VECTOR('Line Direction',#184,1.) ;
#192=VECTOR('Line Direction',#191,1.) ;
#199=VECTOR('Line Direction',#198,1.) ;
#216=VECTOR('Line Direction',#215,1.) ;
#225=VECTOR('Line Direction',#224,1.) ;
#232=VECTOR('Line Direction',#231,1.) ;
#239=VECTOR('Line Direction',#238,1.) ;
#256=VECTOR('Line Direction',#255,1.) ;
#261=VECTOR('Line Direction',#260,1.) ;
#266=VECTOR('Line Direction',#265,1.) ;
#279=VECTOR('Line Direction',#278,1.) ;
#288=VECTOR('Line Direction',#287,1.) ;
#295=VECTOR('Line Direction',#294,1.) ;
#302=VECTOR('Line Direction',#301,1.) ;
#323=VECTOR('Line Direction',#322,1.) ;
#340=VECTOR('Line Direction',#339,1.) ;
#347=VECTOR('Line Direction',#346,1.) ;
#354=VECTOR('Line Direction',#353,1.) ;
#371=VECTOR('Line Direction',#370,1.) ;
#378=VECTOR('Line Direction',#377,1.) ;
#395=VECTOR('Line Direction',#394,1.) ;
#402=VECTOR('Line Direction',#401,1.) ;
#419=VECTOR('Line Direction',#418,1.) ;
#436=VECTOR('Line Direction',#435,1.) ;
#443=VECTOR('Line Direction',#442,1.) ;
#450=VECTOR('Line Direction',#449,1.) ;
#457=VECTOR('Line Direction',#456,1.) ;
#464=VECTOR('Line Direction',#463,1.) ;
#540=VECTOR('Line Direction',#539,1.) ;
#547=VECTOR('Line Direction',#546,1.) ;
#611=VECTOR('Line Direction',#610,1.) ;
#629=ADVANCED_BREP_SHAPE_REPRESENTATION('NONE',(#628),#46) ;
#49=SHAPE_REPRESENTATION(' ',(#48),#46) ;
#91=ADVANCED_FACE('PartBody',(#90),#56,.T.) ;
#108=ADVANCED_FACE('PartBody',(#107),#56,.T.) ;
#118=ADVANCED_FACE('PartBody',(#117),#113,.T.) ;
#158=ADVANCED_FACE('PartBody',(#157),#123,.T.) ;
#168=ADVANCED_FACE('PartBody',(#167),#113,.T.) ;
#208=ADVANCED_FACE('PartBody',(#207),#173,.F.) ;
#248=ADVANCED_FACE('PartBody',(#247),#213,.F.) ;
#315=ADVANCED_FACE('PartBody',(#276,#310,#314),#253,.T.) ;
#332=ADVANCED_FACE('PartBody',(#331),#320,.T.) ;
#363=ADVANCED_FACE('PartBody',(#362),#337,.T.) ;
#387=ADVANCED_FACE('PartBody',(#386),#368,.F.) ;
#411=ADVANCED_FACE('PartBody',(#410),#392,.T.) ;
#428=ADVANCED_FACE('PartBody',(#427),#416,.F.) ;
#481=ADVANCED_FACE('PartBody',(#480),#433,.T.) ;
#532=ADVANCED_FACE('PartBody',(#507,#513,#531),#486,.F.) ;
#563=ADVANCED_FACE('PartBody',(#562),#537,.F.) ;
#575=ADVANCED_FACE('PartBody',(#574),#537,.F.) ;
#585=ADVANCED_FACE('PartBody',(#584),#580,.T.) ;
#603=ADVANCED_FACE('PartBody',(#602),#580,.T.) ;
#620=ADVANCED_FACE('PartBody',(#619),#608,.F.) ;
#627=ADVANCED_FACE('PartBody',(#626),#608,.F.) ;
#4=APPLICATION_PROTOCOL_DEFINITION('international standard','config_control_design',1994,#1) ;
#32=APPROVAL_DATE_TIME(#13,#21) ;
#628=MANIFOLD_SOLID_BREP('PartBody',#51) ;
#11=CALENDAR_DATE(2025,3,12) ;
#30=CC_DESIGN_APPROVAL(#21,(#16,#6,#14)) ;
#18=CC_DESIGN_DATE_AND_TIME_ASSIGNMENT(#13,#17,(#16)) ;
#29=CC_DESIGN_DATE_AND_TIME_ASSIGNMENT(#13,#28,(#14)) ;
#17=DATE_TIME_ROLE('classification_date') ;
#28=DATE_TIME_ROLE('creation_date') ;
#27=CC_DESIGN_PERSON_AND_ORGANIZATION_ASSIGNMENT(#25,#26,(#16)) ;
#33=CC_DESIGN_PERSON_AND_ORGANIZATION_ASSIGNMENT(#25,#34,(#6)) ;
#35=CC_DESIGN_PERSON_AND_ORGANIZATION_ASSIGNMENT(#25,#36,(#6,#14)) ;
#37=CC_DESIGN_PERSON_AND_ORGANIZATION_ASSIGNMENT(#25,#38,(#5)) ;
#26=PERSON_AND_ORGANIZATION_ROLE('classification_officer') ;
#34=PERSON_AND_ORGANIZATION_ROLE('design_supplier') ;
#36=PERSON_AND_ORGANIZATION_ROLE('creator') ;
#38=PERSON_AND_ORGANIZATION_ROLE('design_owner') ;
#39=CC_DESIGN_SECURITY_CLASSIFICATION(#16,(#6)) ;
#69=CIRCLE('generated circle',#68,1.7) ;
#83=CIRCLE('generated circle',#82,1.7) ;
#95=CIRCLE('generated circle',#94,1.7) ;
#100=CIRCLE('generated circle',#99,1.7) ;
#136=CIRCLE('generated circle',#135,1.7) ;
#150=CIRCLE('generated circle',#149,1.7) ;
#490=CIRCLE('generated circle',#489,1.) ;
#497=CIRCLE('generated circle',#496,1.) ;
#517=CIRCLE('generated circle',#516,1.) ;
#526=CIRCLE('generated circle',#525,1.) ;
#555=CIRCLE('generated circle',#554,1.) ;
#567=CIRCLE('generated circle',#566,1.) ;
#589=CIRCLE('generated circle',#588,1.) ;
#596=CIRCLE('generated circle',#595,1.) ;
#630=SHAPE_REPRESENTATION_RELATIONSHIP(' ',' ',#49,#629) ;
#56=CYLINDRICAL_SURFACE('generated cylinder',#55,1.7) ;
#123=CYLINDRICAL_SURFACE('generated cylinder',#122,1.7) ;
#537=CYLINDRICAL_SURFACE('generated cylinder',#536,1.) ;
#608=CYLINDRICAL_SURFACE('generated cylinder',#607,1.) ;
#3=DESIGN_CONTEXT(' ',#1,'design') ;
#65=EDGE_CURVE('',#62,#64,#60,.T.) ;
#72=EDGE_CURVE('',#62,#71,#69,.T.) ;
#79=EDGE_CURVE('',#71,#78,#76,.T.) ;
#84=EDGE_CURVE('',#64,#78,#83,.T.) ;
#96=EDGE_CURVE('',#71,#62,#95,.T.) ;
#101=EDGE_CURVE('',#78,#64,#100,.T.) ;
#132=EDGE_CURVE('',#129,#131,#127,.T.) ;
#139=EDGE_CURVE('',#129,#138,#136,.T.) ;
#146=EDGE_CURVE('',#138,#145,#143,.T.) ;
#151=EDGE_CURVE('',#131,#145,#150,.T.) ;
#163=EDGE_CURVE('',#145,#131,#162,.T.) ;
#182=EDGE_CURVE('',#179,#181,#177,.T.) ;
#189=EDGE_CURVE('',#179,#188,#186,.F.) ;
#196=EDGE_CURVE('',#188,#195,#193,.T.) ;
#201=EDGE_CURVE('',#181,#195,#200,.F.) ;
#222=EDGE_CURVE('',#219,#221,#217,.T.) ;
#229=EDGE_CURVE('',#219,#228,#226,.F.) ;
#236=EDGE_CURVE('',#228,#235,#233,.T.) ;
#241=EDGE_CURVE('',#221,#235,#240,.F.) ;
#258=EDGE_CURVE('',#129,#221,#257,.T.) ;
#263=EDGE_CURVE('',#235,#181,#262,.T.) ;
#268=EDGE_CURVE('',#195,#138,#267,.T.) ;
#285=EDGE_CURVE('',#282,#284,#280,.F.) ;
#292=EDGE_CURVE('',#291,#282,#289,.T.) ;
#299=EDGE_CURVE('',#298,#291,#296,.F.) ;
#304=EDGE_CURVE('',#284,#298,#303,.T.) ;
#325=EDGE_CURVE('',#228,#179,#324,.T.) ;
#344=EDGE_CURVE('',#343,#284,#341,.T.) ;
#351=EDGE_CURVE('',#350,#343,#348,.F.) ;
#356=EDGE_CURVE('',#350,#282,#355,.T.) ;
#375=EDGE_CURVE('',#374,#350,#372,.T.) ;
#380=EDGE_CURVE('',#374,#291,#379,.T.) ;
#399=EDGE_CURVE('',#398,#374,#396,.F.) ;
#404=EDGE_CURVE('',#398,#298,#403,.T.) ;
#421=EDGE_CURVE('',#343,#398,#420,.T.) ;
#440=EDGE_CURVE('',#439,#219,#437,.T.) ;
#447=EDGE_CURVE('',#188,#446,#444,.T.) ;
#454=EDGE_CURVE('',#446,#453,#451,.T.) ;
#461=EDGE_CURVE('',#460,#453,#458,.T.) ;
#466=EDGE_CURVE('',#439,#460,#465,.T.) ;
#493=EDGE_CURVE('',#492,#439,#490,.F.) ;
#498=EDGE_CURVE('',#446,#492,#497,.F.) ;
#522=EDGE_CURVE('',#519,#521,#517,.F.) ;
#527=EDGE_CURVE('',#521,#519,#526,.F.) ;
#544=EDGE_CURVE('',#521,#543,#541,.F.) ;
#551=EDGE_CURVE('',#519,#550,#548,.F.) ;
#556=EDGE_CURVE('',#543,#550,#555,.T.) ;
#568=EDGE_CURVE('',#550,#543,#567,.T.) ;
#592=EDGE_CURVE('',#453,#591,#589,.T.) ;
#597=EDGE_CURVE('',#591,#460,#596,.T.) ;
#613=EDGE_CURVE('',#492,#591,#612,.F.) ;
#85=EDGE_LOOP('',(#86,#87,#88,#89)) ;
#102=EDGE_LOOP('',(#103,#104,#105,#106)) ;
#114=EDGE_LOOP('',(#115,#116)) ;
#152=EDGE_LOOP('',(#153,#154,#155,#156)) ;
#164=EDGE_LOOP('',(#165,#166)) ;
#202=EDGE_LOOP('',(#203,#204,#205,#206)) ;
#242=EDGE_LOOP('',(#243,#244,#245,#246)) ;
#269=EDGE_LOOP('',(#270,#271,#272,#273,#274,#275)) ;
#305=EDGE_LOOP('',(#306,#307,#308,#309)) ;
#311=EDGE_LOOP('',(#312,#313)) ;
#326=EDGE_LOOP('',(#327,#328,#329,#330)) ;
#357=EDGE_LOOP('',(#358,#359,#360,#361)) ;
#381=EDGE_LOOP('',(#382,#383,#384,#385)) ;
#405=EDGE_LOOP('',(#406,#407,#408,#409)) ;
#422=EDGE_LOOP('',(#423,#424,#425,#426)) ;
#467=EDGE_LOOP('',(#468,#469,#470,#471,#472,#473,#474,#475,#476,#477,#478,#479)) ;
#499=EDGE_LOOP('',(#500,#501,#502,#503,#504,#505,#506)) ;
#508=EDGE_LOOP('',(#509,#510,#511,#512)) ;
#528=EDGE_LOOP('',(#529,#530)) ;
#557=EDGE_LOOP('',(#558,#559,#560,#561)) ;
#569=EDGE_LOOP('',(#570,#571,#572,#573)) ;
#581=EDGE_LOOP('',(#582,#583)) ;
#598=EDGE_LOOP('',(#599,#600,#601)) ;
#614=EDGE_LOOP('',(#615,#616,#617,#618)) ;
#621=EDGE_LOOP('',(#622,#623,#624,#625)) ;
#90=FACE_OUTER_BOUND('',#85,.T.) ;
#107=FACE_OUTER_BOUND('',#102,.T.) ;
#117=FACE_OUTER_BOUND('',#114,.T.) ;
#157=FACE_OUTER_BOUND('',#152,.T.) ;
#167=FACE_OUTER_BOUND('',#164,.T.) ;
#207=FACE_OUTER_BOUND('',#202,.T.) ;
#247=FACE_OUTER_BOUND('',#242,.T.) ;
#276=FACE_OUTER_BOUND('',#269,.T.) ;
#331=FACE_OUTER_BOUND('',#326,.T.) ;
#362=FACE_OUTER_BOUND('',#357,.T.) ;
#386=FACE_OUTER_BOUND('',#381,.T.) ;
#410=FACE_OUTER_BOUND('',#405,.T.) ;
#427=FACE_OUTER_BOUND('',#422,.T.) ;
#480=FACE_OUTER_BOUND('',#467,.T.) ;
#507=FACE_OUTER_BOUND('',#499,.T.) ;
#562=FACE_OUTER_BOUND('',#557,.T.) ;
#574=FACE_OUTER_BOUND('',#569,.T.) ;
#584=FACE_OUTER_BOUND('',#581,.T.) ;
#602=FACE_OUTER_BOUND('',#598,.T.) ;
#619=FACE_OUTER_BOUND('',#614,.T.) ;
#626=FACE_OUTER_BOUND('',#621,.T.) ;
#45=UNCERTAINTY_MEASURE_WITH_UNIT(LENGTH_MEASURE(0.005),#41,'distance_accuracy_value','CONFUSED CURVE UNCERTAINTY') ;
#60=LINE('Line',#57,#59) ;
#76=LINE('Line',#73,#75) ;
#127=LINE('Line',#124,#126) ;
#143=LINE('Line',#140,#142) ;
#162=LINE('Line',#159,#161) ;
#177=LINE('Line',#174,#176) ;
#186=LINE('Line',#183,#185) ;
#193=LINE('Line',#190,#192) ;
#200=LINE('Line',#197,#199) ;
#217=LINE('Line',#214,#216) ;
#226=LINE('Line',#223,#225) ;
#233=LINE('Line',#230,#232) ;
#240=LINE('Line',#237,#239) ;
#257=LINE('Line',#254,#256) ;
#262=LINE('Line',#259,#261) ;
#267=LINE('Line',#264,#266) ;
#280=LINE('Line',#277,#279) ;
#289=LINE('Line',#286,#288) ;
#296=LINE('Line',#293,#295) ;
#303=LINE('Line',#300,#302) ;
#324=LINE('Line',#321,#323) ;
#341=LINE('Line',#338,#340) ;
#348=LINE('Line',#345,#347) ;
#355=LINE('Line',#352,#354) ;
#372=LINE('Line',#369,#371) ;
#379=LINE('Line',#376,#378) ;
#396=LINE('Line',#393,#395) ;
#403=LINE('Line',#400,#402) ;
#420=LINE('Line',#417,#419) ;
#437=LINE('Line',#434,#436) ;
#444=LINE('Line',#441,#443) ;
#451=LINE('Line',#448,#450) ;
#458=LINE('Line',#455,#457) ;
#465=LINE('Line',#462,#464) ;
#541=LINE('Line',#538,#540) ;
#548=LINE('Line',#545,#547) ;
#612=LINE('Line',#609,#611) ;
#2=MECHANICAL_CONTEXT(' ',#1,'mechanical') ;
#24=PERSONAL_ADDRESS(' ',' ',' ',' ',' ',' ',' ',' ',' ',' ',' ',' ',(#22),' ') ;
#113=PLANE('Plane',#112) ;
#173=PLANE('Plane',#172) ;
#213=PLANE('Plane',#212) ;
#253=PLANE('Plane',#252) ;
#320=PLANE('Plane',#319) ;
#337=PLANE('Plane',#336) ;
#368=PLANE('Plane',#367) ;
#392=PLANE('Plane',#391) ;
#416=PLANE('Plane',#415) ;
#433=PLANE('Plane',#432) ;
#486=PLANE('Plane',#485) ;
#580=PLANE('Plane',#579) ;
#43=PLANE_ANGLE_MEASURE_WITH_UNIT(PLANE_ANGLE_MEASURE(0.0174532925199),#42) ;
#7=PRODUCT_CATEGORY('part',$) ;
#9=PRODUCT_CATEGORY_RELATIONSHIP(' ',' ',#7,#8) ;
#6=PRODUCT_DEFINITION_FORMATION_WITH_SPECIFIED_SOURCE('',' ',#5,.NOT_KNOWN.) ;
#8=PRODUCT_RELATED_PRODUCT_CATEGORY('detail',$,(#5)) ;
#50=SHAPE_DEFINITION_REPRESENTATION(#40,#49) ;
#62=VERTEX_POINT('',#61) ;
#64=VERTEX_POINT('',#63) ;
#71=VERTEX_POINT('',#70) ;
#78=VERTEX_POINT('',#77) ;
#129=VERTEX_POINT('',#128) ;
#131=VERTEX_POINT('',#130) ;
#138=VERTEX_POINT('',#137) ;
#145=VERTEX_POINT('',#144) ;
#179=VERTEX_POINT('',#178) ;
#181=VERTEX_POINT('',#180) ;
#188=VERTEX_POINT('',#187) ;
#195=VERTEX_POINT('',#194) ;
#219=VERTEX_POINT('',#218) ;
#221=VERTEX_POINT('',#220) ;
#228=VERTEX_POINT('',#227) ;
#235=VERTEX_POINT('',#234) ;
#282=VERTEX_POINT('',#281) ;
#284=VERTEX_POINT('',#283) ;
#291=VERTEX_POINT('',#290) ;
#298=VERTEX_POINT('',#297) ;
#343=VERTEX_POINT('',#342) ;
#350=VERTEX_POINT('',#349) ;
#374=VERTEX_POINT('',#373) ;
#398=VERTEX_POINT('',#397) ;
#439=VERTEX_POINT('',#438) ;
#446=VERTEX_POINT('',#445) ;
#453=VERTEX_POINT('',#452) ;
#460=VERTEX_POINT('',#459) ;
#492=VERTEX_POINT('',#491) ;
#519=VERTEX_POINT('',#518) ;
#521=VERTEX_POINT('',#520) ;
#543=VERTEX_POINT('',#542) ;
#550=VERTEX_POINT('',#549) ;
#591=VERTEX_POINT('',#590) ;
#41=(LENGTH_UNIT()NAMED_UNIT(*)SI_UNIT(.MILLI.,.METRE.)) ;
#42=(NAMED_UNIT(*)PLANE_ANGLE_UNIT()SI_UNIT($,.RADIAN.)) ;
#44=(NAMED_UNIT(*)SI_UNIT($,.STERADIAN.)SOLID_ANGLE_UNIT()) ;
#46=(GEOMETRIC_REPRESENTATION_CONTEXT(3)GLOBAL_UNCERTAINTY_ASSIGNED_CONTEXT((#45))GLOBAL_UNIT_ASSIGNED_CONTEXT((#41,#42,#44))REPRESENTATION_CONTEXT(' ',' ')) ;
ENDSEC;
END-ISO-10303-21;
